<?xml version="1.0" encoding="utf-8" standalone="no"?>
<!DOCTYPE svg PUBLIC "-//W3C//DTD SVG 1.1//EN"
  "http://www.w3.org/Graphics/SVG/1.1/DTD/svg11.dtd">
<!-- Created with matplotlib (https://matplotlib.org/) -->
<svg height="220.08375pt" version="1.1" viewBox="0 0 286.90625 220.08375" width="286.90625pt" xmlns="http://www.w3.org/2000/svg" xmlns:xlink="http://www.w3.org/1999/xlink">
 <metadata>
  <rdf:RDF xmlns:cc="http://creativecommons.org/ns#" xmlns:dc="http://purl.org/dc/elements/1.1/" xmlns:rdf="http://www.w3.org/1999/02/22-rdf-syntax-ns#">
   <cc:Work>
    <dc:type rdf:resource="http://purl.org/dc/dcmitype/StillImage"/>
    <dc:date>2021-07-22T00:26:40.503534</dc:date>
    <dc:format>image/svg+xml</dc:format>
    <dc:creator>
     <cc:Agent>
      <dc:title>Matplotlib v3.3.3, https://matplotlib.org/</dc:title>
     </cc:Agent>
    </dc:creator>
   </cc:Work>
  </rdf:RDF>
 </metadata>
 <defs>
  <style type="text/css">*{stroke-linecap:butt;stroke-linejoin:round;}</style>
 </defs>
 <g id="figure_1">
  <g id="patch_1">
   <path d="M 0 220.08375 
L 286.90625 220.08375 
L 286.90625 -0 
L 0 -0 
z
" style="fill:none;"/>
  </g>
  <g id="axes_1">
   <g id="patch_2">
    <path d="M 56.50625 182.5275 
L 279.70625 182.5275 
L 279.70625 35.7555 
L 56.50625 35.7555 
z
" style="fill:#ffffff;"/>
   </g>
   <g id="matplotlib.axis_1">
    <g id="xtick_1">
     <g id="line2d_1">
      <defs>
       <path d="M 0 0 
L 0 3.5 
" id="m4d94aa494f" style="stroke:#000000;stroke-width:0.8;"/>
      </defs>
      <g>
       <use style="stroke:#000000;stroke-width:0.8;" x="56.50625" xlink:href="#m4d94aa494f" y="182.5275"/>
      </g>
     </g>
     <g id="text_1">
      <!-- 0 -->
      <g transform="translate(53.325 197.125938)scale(0.1 -0.1)">
       <defs>
        <path d="M 31.78125 66.40625 
Q 24.171875 66.40625 20.328125 58.90625 
Q 16.5 51.421875 16.5 36.375 
Q 16.5 21.390625 20.328125 13.890625 
Q 24.171875 6.390625 31.78125 6.390625 
Q 39.453125 6.390625 43.28125 13.890625 
Q 47.125 21.390625 47.125 36.375 
Q 47.125 51.421875 43.28125 58.90625 
Q 39.453125 66.40625 31.78125 66.40625 
z
M 31.78125 74.21875 
Q 44.046875 74.21875 50.515625 64.515625 
Q 56.984375 54.828125 56.984375 36.375 
Q 56.984375 17.96875 50.515625 8.265625 
Q 44.046875 -1.421875 31.78125 -1.421875 
Q 19.53125 -1.421875 13.0625 8.265625 
Q 6.59375 17.96875 6.59375 36.375 
Q 6.59375 54.828125 13.0625 64.515625 
Q 19.53125 74.21875 31.78125 74.21875 
z
" id="DejaVuSans-48"/>
       </defs>
       <use xlink:href="#DejaVuSans-48"/>
      </g>
     </g>
    </g>
    <g id="xtick_2">
     <g id="line2d_2">
      <g>
       <use style="stroke:#000000;stroke-width:0.8;" x="98.778977" xlink:href="#m4d94aa494f" y="182.5275"/>
      </g>
     </g>
     <g id="text_2">
      <!-- 50 -->
      <g transform="translate(92.416477 197.125938)scale(0.1 -0.1)">
       <defs>
        <path d="M 10.796875 72.90625 
L 49.515625 72.90625 
L 49.515625 64.59375 
L 19.828125 64.59375 
L 19.828125 46.734375 
Q 21.96875 47.46875 24.109375 47.828125 
Q 26.265625 48.1875 28.421875 48.1875 
Q 40.625 48.1875 47.75 41.5 
Q 54.890625 34.8125 54.890625 23.390625 
Q 54.890625 11.625 47.5625 5.09375 
Q 40.234375 -1.421875 26.90625 -1.421875 
Q 22.3125 -1.421875 17.546875 -0.640625 
Q 12.796875 0.140625 7.71875 1.703125 
L 7.71875 11.625 
Q 12.109375 9.234375 16.796875 8.0625 
Q 21.484375 6.890625 26.703125 6.890625 
Q 35.15625 6.890625 40.078125 11.328125 
Q 45.015625 15.765625 45.015625 23.390625 
Q 45.015625 31 40.078125 35.4375 
Q 35.15625 39.890625 26.703125 39.890625 
Q 22.75 39.890625 18.8125 39.015625 
Q 14.890625 38.140625 10.796875 36.28125 
z
" id="DejaVuSans-53"/>
       </defs>
       <use xlink:href="#DejaVuSans-53"/>
       <use x="63.623047" xlink:href="#DejaVuSans-48"/>
      </g>
     </g>
    </g>
    <g id="xtick_3">
     <g id="line2d_3">
      <g>
       <use style="stroke:#000000;stroke-width:0.8;" x="141.051705" xlink:href="#m4d94aa494f" y="182.5275"/>
      </g>
     </g>
     <g id="text_3">
      <!-- 100 -->
      <g transform="translate(131.507955 197.125938)scale(0.1 -0.1)">
       <defs>
        <path d="M 12.40625 8.296875 
L 28.515625 8.296875 
L 28.515625 63.921875 
L 10.984375 60.40625 
L 10.984375 69.390625 
L 28.421875 72.90625 
L 38.28125 72.90625 
L 38.28125 8.296875 
L 54.390625 8.296875 
L 54.390625 0 
L 12.40625 0 
z
" id="DejaVuSans-49"/>
       </defs>
       <use xlink:href="#DejaVuSans-49"/>
       <use x="63.623047" xlink:href="#DejaVuSans-48"/>
       <use x="127.246094" xlink:href="#DejaVuSans-48"/>
      </g>
     </g>
    </g>
    <g id="xtick_4">
     <g id="line2d_4">
      <g>
       <use style="stroke:#000000;stroke-width:0.8;" x="183.324432" xlink:href="#m4d94aa494f" y="182.5275"/>
      </g>
     </g>
     <g id="text_4">
      <!-- 150 -->
      <g transform="translate(173.780682 197.125938)scale(0.1 -0.1)">
       <use xlink:href="#DejaVuSans-49"/>
       <use x="63.623047" xlink:href="#DejaVuSans-53"/>
       <use x="127.246094" xlink:href="#DejaVuSans-48"/>
      </g>
     </g>
    </g>
    <g id="xtick_5">
     <g id="line2d_5">
      <g>
       <use style="stroke:#000000;stroke-width:0.8;" x="225.597159" xlink:href="#m4d94aa494f" y="182.5275"/>
      </g>
     </g>
     <g id="text_5">
      <!-- 200 -->
      <g transform="translate(216.053409 197.125938)scale(0.1 -0.1)">
       <defs>
        <path d="M 19.1875 8.296875 
L 53.609375 8.296875 
L 53.609375 0 
L 7.328125 0 
L 7.328125 8.296875 
Q 12.9375 14.109375 22.625 23.890625 
Q 32.328125 33.6875 34.8125 36.53125 
Q 39.546875 41.84375 41.421875 45.53125 
Q 43.3125 49.21875 43.3125 52.78125 
Q 43.3125 58.59375 39.234375 62.25 
Q 35.15625 65.921875 28.609375 65.921875 
Q 23.96875 65.921875 18.8125 64.3125 
Q 13.671875 62.703125 7.8125 59.421875 
L 7.8125 69.390625 
Q 13.765625 71.78125 18.9375 73 
Q 24.125 74.21875 28.421875 74.21875 
Q 39.75 74.21875 46.484375 68.546875 
Q 53.21875 62.890625 53.21875 53.421875 
Q 53.21875 48.921875 51.53125 44.890625 
Q 49.859375 40.875 45.40625 35.40625 
Q 44.1875 33.984375 37.640625 27.21875 
Q 31.109375 20.453125 19.1875 8.296875 
z
" id="DejaVuSans-50"/>
       </defs>
       <use xlink:href="#DejaVuSans-50"/>
       <use x="63.623047" xlink:href="#DejaVuSans-48"/>
       <use x="127.246094" xlink:href="#DejaVuSans-48"/>
      </g>
     </g>
    </g>
    <g id="xtick_6">
     <g id="line2d_6">
      <g>
       <use style="stroke:#000000;stroke-width:0.8;" x="267.869886" xlink:href="#m4d94aa494f" y="182.5275"/>
      </g>
     </g>
     <g id="text_6">
      <!-- 250 -->
      <g transform="translate(258.326136 197.125938)scale(0.1 -0.1)">
       <use xlink:href="#DejaVuSans-50"/>
       <use x="63.623047" xlink:href="#DejaVuSans-53"/>
       <use x="127.246094" xlink:href="#DejaVuSans-48"/>
      </g>
     </g>
    </g>
    <g id="text_7">
     <!-- Conductance (µS) -->
     <g transform="translate(123.429687 210.804063)scale(0.1 -0.1)">
      <defs>
       <path d="M 64.40625 67.28125 
L 64.40625 56.890625 
Q 59.421875 61.53125 53.78125 63.8125 
Q 48.140625 66.109375 41.796875 66.109375 
Q 29.296875 66.109375 22.65625 58.46875 
Q 16.015625 50.828125 16.015625 36.375 
Q 16.015625 21.96875 22.65625 14.328125 
Q 29.296875 6.6875 41.796875 6.6875 
Q 48.140625 6.6875 53.78125 8.984375 
Q 59.421875 11.28125 64.40625 15.921875 
L 64.40625 5.609375 
Q 59.234375 2.09375 53.4375 0.328125 
Q 47.65625 -1.421875 41.21875 -1.421875 
Q 24.65625 -1.421875 15.125 8.703125 
Q 5.609375 18.84375 5.609375 36.375 
Q 5.609375 53.953125 15.125 64.078125 
Q 24.65625 74.21875 41.21875 74.21875 
Q 47.75 74.21875 53.53125 72.484375 
Q 59.328125 70.75 64.40625 67.28125 
z
" id="DejaVuSans-67"/>
       <path d="M 30.609375 48.390625 
Q 23.390625 48.390625 19.1875 42.75 
Q 14.984375 37.109375 14.984375 27.296875 
Q 14.984375 17.484375 19.15625 11.84375 
Q 23.34375 6.203125 30.609375 6.203125 
Q 37.796875 6.203125 41.984375 11.859375 
Q 46.1875 17.53125 46.1875 27.296875 
Q 46.1875 37.015625 41.984375 42.703125 
Q 37.796875 48.390625 30.609375 48.390625 
z
M 30.609375 56 
Q 42.328125 56 49.015625 48.375 
Q 55.71875 40.765625 55.71875 27.296875 
Q 55.71875 13.875 49.015625 6.21875 
Q 42.328125 -1.421875 30.609375 -1.421875 
Q 18.84375 -1.421875 12.171875 6.21875 
Q 5.515625 13.875 5.515625 27.296875 
Q 5.515625 40.765625 12.171875 48.375 
Q 18.84375 56 30.609375 56 
z
" id="DejaVuSans-111"/>
       <path d="M 54.890625 33.015625 
L 54.890625 0 
L 45.90625 0 
L 45.90625 32.71875 
Q 45.90625 40.484375 42.875 44.328125 
Q 39.84375 48.1875 33.796875 48.1875 
Q 26.515625 48.1875 22.3125 43.546875 
Q 18.109375 38.921875 18.109375 30.90625 
L 18.109375 0 
L 9.078125 0 
L 9.078125 54.6875 
L 18.109375 54.6875 
L 18.109375 46.1875 
Q 21.34375 51.125 25.703125 53.5625 
Q 30.078125 56 35.796875 56 
Q 45.21875 56 50.046875 50.171875 
Q 54.890625 44.34375 54.890625 33.015625 
z
" id="DejaVuSans-110"/>
       <path d="M 45.40625 46.390625 
L 45.40625 75.984375 
L 54.390625 75.984375 
L 54.390625 0 
L 45.40625 0 
L 45.40625 8.203125 
Q 42.578125 3.328125 38.25 0.953125 
Q 33.9375 -1.421875 27.875 -1.421875 
Q 17.96875 -1.421875 11.734375 6.484375 
Q 5.515625 14.40625 5.515625 27.296875 
Q 5.515625 40.1875 11.734375 48.09375 
Q 17.96875 56 27.875 56 
Q 33.9375 56 38.25 53.625 
Q 42.578125 51.265625 45.40625 46.390625 
z
M 14.796875 27.296875 
Q 14.796875 17.390625 18.875 11.75 
Q 22.953125 6.109375 30.078125 6.109375 
Q 37.203125 6.109375 41.296875 11.75 
Q 45.40625 17.390625 45.40625 27.296875 
Q 45.40625 37.203125 41.296875 42.84375 
Q 37.203125 48.484375 30.078125 48.484375 
Q 22.953125 48.484375 18.875 42.84375 
Q 14.796875 37.203125 14.796875 27.296875 
z
" id="DejaVuSans-100"/>
       <path d="M 8.5 21.578125 
L 8.5 54.6875 
L 17.484375 54.6875 
L 17.484375 21.921875 
Q 17.484375 14.15625 20.5 10.265625 
Q 23.53125 6.390625 29.59375 6.390625 
Q 36.859375 6.390625 41.078125 11.03125 
Q 45.3125 15.671875 45.3125 23.6875 
L 45.3125 54.6875 
L 54.296875 54.6875 
L 54.296875 0 
L 45.3125 0 
L 45.3125 8.40625 
Q 42.046875 3.421875 37.71875 1 
Q 33.40625 -1.421875 27.6875 -1.421875 
Q 18.265625 -1.421875 13.375 4.4375 
Q 8.5 10.296875 8.5 21.578125 
z
M 31.109375 56 
z
" id="DejaVuSans-117"/>
       <path d="M 48.78125 52.59375 
L 48.78125 44.1875 
Q 44.96875 46.296875 41.140625 47.34375 
Q 37.3125 48.390625 33.40625 48.390625 
Q 24.65625 48.390625 19.8125 42.84375 
Q 14.984375 37.3125 14.984375 27.296875 
Q 14.984375 17.28125 19.8125 11.734375 
Q 24.65625 6.203125 33.40625 6.203125 
Q 37.3125 6.203125 41.140625 7.25 
Q 44.96875 8.296875 48.78125 10.40625 
L 48.78125 2.09375 
Q 45.015625 0.34375 40.984375 -0.53125 
Q 36.96875 -1.421875 32.421875 -1.421875 
Q 20.0625 -1.421875 12.78125 6.34375 
Q 5.515625 14.109375 5.515625 27.296875 
Q 5.515625 40.671875 12.859375 48.328125 
Q 20.21875 56 33.015625 56 
Q 37.15625 56 41.109375 55.140625 
Q 45.0625 54.296875 48.78125 52.59375 
z
" id="DejaVuSans-99"/>
       <path d="M 18.3125 70.21875 
L 18.3125 54.6875 
L 36.8125 54.6875 
L 36.8125 47.703125 
L 18.3125 47.703125 
L 18.3125 18.015625 
Q 18.3125 11.328125 20.140625 9.421875 
Q 21.96875 7.515625 27.59375 7.515625 
L 36.8125 7.515625 
L 36.8125 0 
L 27.59375 0 
Q 17.1875 0 13.234375 3.875 
Q 9.28125 7.765625 9.28125 18.015625 
L 9.28125 47.703125 
L 2.6875 47.703125 
L 2.6875 54.6875 
L 9.28125 54.6875 
L 9.28125 70.21875 
z
" id="DejaVuSans-116"/>
       <path d="M 34.28125 27.484375 
Q 23.390625 27.484375 19.1875 25 
Q 14.984375 22.515625 14.984375 16.5 
Q 14.984375 11.71875 18.140625 8.90625 
Q 21.296875 6.109375 26.703125 6.109375 
Q 34.1875 6.109375 38.703125 11.40625 
Q 43.21875 16.703125 43.21875 25.484375 
L 43.21875 27.484375 
z
M 52.203125 31.203125 
L 52.203125 0 
L 43.21875 0 
L 43.21875 8.296875 
Q 40.140625 3.328125 35.546875 0.953125 
Q 30.953125 -1.421875 24.3125 -1.421875 
Q 15.921875 -1.421875 10.953125 3.296875 
Q 6 8.015625 6 15.921875 
Q 6 25.140625 12.171875 29.828125 
Q 18.359375 34.515625 30.609375 34.515625 
L 43.21875 34.515625 
L 43.21875 35.40625 
Q 43.21875 41.609375 39.140625 45 
Q 35.0625 48.390625 27.6875 48.390625 
Q 23 48.390625 18.546875 47.265625 
Q 14.109375 46.140625 10.015625 43.890625 
L 10.015625 52.203125 
Q 14.9375 54.109375 19.578125 55.046875 
Q 24.21875 56 28.609375 56 
Q 40.484375 56 46.34375 49.84375 
Q 52.203125 43.703125 52.203125 31.203125 
z
" id="DejaVuSans-97"/>
       <path d="M 56.203125 29.59375 
L 56.203125 25.203125 
L 14.890625 25.203125 
Q 15.484375 15.921875 20.484375 11.0625 
Q 25.484375 6.203125 34.421875 6.203125 
Q 39.59375 6.203125 44.453125 7.46875 
Q 49.3125 8.734375 54.109375 11.28125 
L 54.109375 2.78125 
Q 49.265625 0.734375 44.1875 -0.34375 
Q 39.109375 -1.421875 33.890625 -1.421875 
Q 20.796875 -1.421875 13.15625 6.1875 
Q 5.515625 13.8125 5.515625 26.8125 
Q 5.515625 40.234375 12.765625 48.109375 
Q 20.015625 56 32.328125 56 
Q 43.359375 56 49.78125 48.890625 
Q 56.203125 41.796875 56.203125 29.59375 
z
M 47.21875 32.234375 
Q 47.125 39.59375 43.09375 43.984375 
Q 39.0625 48.390625 32.421875 48.390625 
Q 24.90625 48.390625 20.390625 44.140625 
Q 15.875 39.890625 15.1875 32.171875 
z
" id="DejaVuSans-101"/>
       <path id="DejaVuSans-32"/>
       <path d="M 31 75.875 
Q 24.46875 64.65625 21.28125 53.65625 
Q 18.109375 42.671875 18.109375 31.390625 
Q 18.109375 20.125 21.3125 9.0625 
Q 24.515625 -2 31 -13.1875 
L 23.1875 -13.1875 
Q 15.875 -1.703125 12.234375 9.375 
Q 8.59375 20.453125 8.59375 31.390625 
Q 8.59375 42.28125 12.203125 53.3125 
Q 15.828125 64.359375 23.1875 75.875 
z
" id="DejaVuSans-40"/>
       <path d="M 8.5 -20.796875 
L 8.5 54.6875 
L 17.484375 54.6875 
L 17.484375 20.703125 
Q 17.484375 13.625 20.84375 10 
Q 24.21875 6.390625 30.8125 6.390625 
Q 38.03125 6.390625 41.671875 10.484375 
Q 45.3125 14.59375 45.3125 22.796875 
L 45.3125 54.6875 
L 54.296875 54.6875 
L 54.296875 12.59375 
Q 54.296875 9.671875 55.140625 8.28125 
Q 56 6.890625 57.8125 6.890625 
Q 58.25 6.890625 59.03125 7.15625 
Q 59.8125 7.421875 61.1875 8.015625 
L 61.1875 0.78125 
Q 59.1875 -0.34375 57.390625 -0.875 
Q 55.609375 -1.421875 53.90625 -1.421875 
Q 50.53125 -1.421875 48.53125 0.484375 
Q 46.53125 2.390625 45.796875 6.296875 
Q 43.359375 2.4375 39.8125 0.5 
Q 36.28125 -1.421875 31.5 -1.421875 
Q 26.515625 -1.421875 23.015625 0.484375 
Q 19.53125 2.390625 17.484375 6.203125 
L 17.484375 -20.796875 
z
" id="DejaVuSans-181"/>
       <path d="M 53.515625 70.515625 
L 53.515625 60.890625 
Q 47.90625 63.578125 42.921875 64.890625 
Q 37.9375 66.21875 33.296875 66.21875 
Q 25.25 66.21875 20.875 63.09375 
Q 16.5 59.96875 16.5 54.203125 
Q 16.5 49.359375 19.40625 46.890625 
Q 22.3125 44.4375 30.421875 42.921875 
L 36.375 41.703125 
Q 47.40625 39.59375 52.65625 34.296875 
Q 57.90625 29 57.90625 20.125 
Q 57.90625 9.515625 50.796875 4.046875 
Q 43.703125 -1.421875 29.984375 -1.421875 
Q 24.8125 -1.421875 18.96875 -0.25 
Q 13.140625 0.921875 6.890625 3.21875 
L 6.890625 13.375 
Q 12.890625 10.015625 18.65625 8.296875 
Q 24.421875 6.59375 29.984375 6.59375 
Q 38.421875 6.59375 43.015625 9.90625 
Q 47.609375 13.234375 47.609375 19.390625 
Q 47.609375 24.75 44.3125 27.78125 
Q 41.015625 30.8125 33.5 32.328125 
L 27.484375 33.5 
Q 16.453125 35.6875 11.515625 40.375 
Q 6.59375 45.0625 6.59375 53.421875 
Q 6.59375 63.09375 13.40625 68.65625 
Q 20.21875 74.21875 32.171875 74.21875 
Q 37.3125 74.21875 42.625 73.28125 
Q 47.953125 72.359375 53.515625 70.515625 
z
" id="DejaVuSans-83"/>
       <path d="M 8.015625 75.875 
L 15.828125 75.875 
Q 23.140625 64.359375 26.78125 53.3125 
Q 30.421875 42.28125 30.421875 31.390625 
Q 30.421875 20.453125 26.78125 9.375 
Q 23.140625 -1.703125 15.828125 -13.1875 
L 8.015625 -13.1875 
Q 14.5 -2 17.703125 9.0625 
Q 20.90625 20.125 20.90625 31.390625 
Q 20.90625 42.671875 17.703125 53.65625 
Q 14.5 64.65625 8.015625 75.875 
z
" id="DejaVuSans-41"/>
      </defs>
      <use xlink:href="#DejaVuSans-67"/>
      <use x="69.824219" xlink:href="#DejaVuSans-111"/>
      <use x="131.005859" xlink:href="#DejaVuSans-110"/>
      <use x="194.384766" xlink:href="#DejaVuSans-100"/>
      <use x="257.861328" xlink:href="#DejaVuSans-117"/>
      <use x="321.240234" xlink:href="#DejaVuSans-99"/>
      <use x="376.220703" xlink:href="#DejaVuSans-116"/>
      <use x="415.429688" xlink:href="#DejaVuSans-97"/>
      <use x="476.708984" xlink:href="#DejaVuSans-110"/>
      <use x="540.087891" xlink:href="#DejaVuSans-99"/>
      <use x="595.068359" xlink:href="#DejaVuSans-101"/>
      <use x="656.591797" xlink:href="#DejaVuSans-32"/>
      <use x="688.378906" xlink:href="#DejaVuSans-40"/>
      <use x="727.392578" xlink:href="#DejaVuSans-181"/>
      <use x="791.015625" xlink:href="#DejaVuSans-83"/>
      <use x="854.492188" xlink:href="#DejaVuSans-41"/>
     </g>
    </g>
   </g>
   <g id="matplotlib.axis_2">
    <g id="ytick_1">
     <g id="line2d_7">
      <defs>
       <path d="M 0 0 
L -3.5 0 
" id="m13ac0586e1" style="stroke:#000000;stroke-width:0.8;"/>
      </defs>
      <g>
       <use style="stroke:#000000;stroke-width:0.8;" x="56.50625" xlink:href="#m13ac0586e1" y="182.5275"/>
      </g>
     </g>
     <g id="text_8">
      <!-- 0.000 -->
      <g transform="translate(20.878125 186.326719)scale(0.1 -0.1)">
       <defs>
        <path d="M 10.6875 12.40625 
L 21 12.40625 
L 21 0 
L 10.6875 0 
z
" id="DejaVuSans-46"/>
       </defs>
       <use xlink:href="#DejaVuSans-48"/>
       <use x="63.623047" xlink:href="#DejaVuSans-46"/>
       <use x="95.410156" xlink:href="#DejaVuSans-48"/>
       <use x="159.033203" xlink:href="#DejaVuSans-48"/>
       <use x="222.65625" xlink:href="#DejaVuSans-48"/>
      </g>
     </g>
    </g>
    <g id="ytick_2">
     <g id="line2d_8">
      <g>
       <use style="stroke:#000000;stroke-width:0.8;" x="56.50625" xlink:href="#m13ac0586e1" y="158.0655"/>
      </g>
     </g>
     <g id="text_9">
      <!-- 0.025 -->
      <g transform="translate(20.878125 161.864719)scale(0.1 -0.1)">
       <use xlink:href="#DejaVuSans-48"/>
       <use x="63.623047" xlink:href="#DejaVuSans-46"/>
       <use x="95.410156" xlink:href="#DejaVuSans-48"/>
       <use x="159.033203" xlink:href="#DejaVuSans-50"/>
       <use x="222.65625" xlink:href="#DejaVuSans-53"/>
      </g>
     </g>
    </g>
    <g id="ytick_3">
     <g id="line2d_9">
      <g>
       <use style="stroke:#000000;stroke-width:0.8;" x="56.50625" xlink:href="#m13ac0586e1" y="133.6035"/>
      </g>
     </g>
     <g id="text_10">
      <!-- 0.050 -->
      <g transform="translate(20.878125 137.402719)scale(0.1 -0.1)">
       <use xlink:href="#DejaVuSans-48"/>
       <use x="63.623047" xlink:href="#DejaVuSans-46"/>
       <use x="95.410156" xlink:href="#DejaVuSans-48"/>
       <use x="159.033203" xlink:href="#DejaVuSans-53"/>
       <use x="222.65625" xlink:href="#DejaVuSans-48"/>
      </g>
     </g>
    </g>
    <g id="ytick_4">
     <g id="line2d_10">
      <g>
       <use style="stroke:#000000;stroke-width:0.8;" x="56.50625" xlink:href="#m13ac0586e1" y="109.1415"/>
      </g>
     </g>
     <g id="text_11">
      <!-- 0.075 -->
      <g transform="translate(20.878125 112.940719)scale(0.1 -0.1)">
       <defs>
        <path d="M 8.203125 72.90625 
L 55.078125 72.90625 
L 55.078125 68.703125 
L 28.609375 0 
L 18.3125 0 
L 43.21875 64.59375 
L 8.203125 64.59375 
z
" id="DejaVuSans-55"/>
       </defs>
       <use xlink:href="#DejaVuSans-48"/>
       <use x="63.623047" xlink:href="#DejaVuSans-46"/>
       <use x="95.410156" xlink:href="#DejaVuSans-48"/>
       <use x="159.033203" xlink:href="#DejaVuSans-55"/>
       <use x="222.65625" xlink:href="#DejaVuSans-53"/>
      </g>
     </g>
    </g>
    <g id="ytick_5">
     <g id="line2d_11">
      <g>
       <use style="stroke:#000000;stroke-width:0.8;" x="56.50625" xlink:href="#m13ac0586e1" y="84.6795"/>
      </g>
     </g>
     <g id="text_12">
      <!-- 0.100 -->
      <g transform="translate(20.878125 88.478719)scale(0.1 -0.1)">
       <use xlink:href="#DejaVuSans-48"/>
       <use x="63.623047" xlink:href="#DejaVuSans-46"/>
       <use x="95.410156" xlink:href="#DejaVuSans-49"/>
       <use x="159.033203" xlink:href="#DejaVuSans-48"/>
       <use x="222.65625" xlink:href="#DejaVuSans-48"/>
      </g>
     </g>
    </g>
    <g id="ytick_6">
     <g id="line2d_12">
      <g>
       <use style="stroke:#000000;stroke-width:0.8;" x="56.50625" xlink:href="#m13ac0586e1" y="60.2175"/>
      </g>
     </g>
     <g id="text_13">
      <!-- 0.125 -->
      <g transform="translate(20.878125 64.016719)scale(0.1 -0.1)">
       <use xlink:href="#DejaVuSans-48"/>
       <use x="63.623047" xlink:href="#DejaVuSans-46"/>
       <use x="95.410156" xlink:href="#DejaVuSans-49"/>
       <use x="159.033203" xlink:href="#DejaVuSans-50"/>
       <use x="222.65625" xlink:href="#DejaVuSans-53"/>
      </g>
     </g>
    </g>
    <g id="ytick_7">
     <g id="line2d_13">
      <g>
       <use style="stroke:#000000;stroke-width:0.8;" x="56.50625" xlink:href="#m13ac0586e1" y="35.7555"/>
      </g>
     </g>
     <g id="text_14">
      <!-- 0.150 -->
      <g transform="translate(20.878125 39.554719)scale(0.1 -0.1)">
       <use xlink:href="#DejaVuSans-48"/>
       <use x="63.623047" xlink:href="#DejaVuSans-46"/>
       <use x="95.410156" xlink:href="#DejaVuSans-49"/>
       <use x="159.033203" xlink:href="#DejaVuSans-53"/>
       <use x="222.65625" xlink:href="#DejaVuSans-48"/>
      </g>
     </g>
    </g>
    <g id="text_15">
     <!-- KDE Probability Density -->
     <g transform="translate(14.798438 168.045406)rotate(-90)scale(0.1 -0.1)">
      <defs>
       <path d="M 9.8125 72.90625 
L 19.671875 72.90625 
L 19.671875 42.09375 
L 52.390625 72.90625 
L 65.09375 72.90625 
L 28.90625 38.921875 
L 67.671875 0 
L 54.6875 0 
L 19.671875 35.109375 
L 19.671875 0 
L 9.8125 0 
z
" id="DejaVuSans-75"/>
       <path d="M 19.671875 64.796875 
L 19.671875 8.109375 
L 31.59375 8.109375 
Q 46.6875 8.109375 53.6875 14.9375 
Q 60.6875 21.78125 60.6875 36.53125 
Q 60.6875 51.171875 53.6875 57.984375 
Q 46.6875 64.796875 31.59375 64.796875 
z
M 9.8125 72.90625 
L 30.078125 72.90625 
Q 51.265625 72.90625 61.171875 64.09375 
Q 71.09375 55.28125 71.09375 36.53125 
Q 71.09375 17.671875 61.125 8.828125 
Q 51.171875 0 30.078125 0 
L 9.8125 0 
z
" id="DejaVuSans-68"/>
       <path d="M 9.8125 72.90625 
L 55.90625 72.90625 
L 55.90625 64.59375 
L 19.671875 64.59375 
L 19.671875 43.015625 
L 54.390625 43.015625 
L 54.390625 34.71875 
L 19.671875 34.71875 
L 19.671875 8.296875 
L 56.78125 8.296875 
L 56.78125 0 
L 9.8125 0 
z
" id="DejaVuSans-69"/>
       <path d="M 19.671875 64.796875 
L 19.671875 37.40625 
L 32.078125 37.40625 
Q 38.96875 37.40625 42.71875 40.96875 
Q 46.484375 44.53125 46.484375 51.125 
Q 46.484375 57.671875 42.71875 61.234375 
Q 38.96875 64.796875 32.078125 64.796875 
z
M 9.8125 72.90625 
L 32.078125 72.90625 
Q 44.34375 72.90625 50.609375 67.359375 
Q 56.890625 61.8125 56.890625 51.125 
Q 56.890625 40.328125 50.609375 34.8125 
Q 44.34375 29.296875 32.078125 29.296875 
L 19.671875 29.296875 
L 19.671875 0 
L 9.8125 0 
z
" id="DejaVuSans-80"/>
       <path d="M 41.109375 46.296875 
Q 39.59375 47.171875 37.8125 47.578125 
Q 36.03125 48 33.890625 48 
Q 26.265625 48 22.1875 43.046875 
Q 18.109375 38.09375 18.109375 28.8125 
L 18.109375 0 
L 9.078125 0 
L 9.078125 54.6875 
L 18.109375 54.6875 
L 18.109375 46.1875 
Q 20.953125 51.171875 25.484375 53.578125 
Q 30.03125 56 36.53125 56 
Q 37.453125 56 38.578125 55.875 
Q 39.703125 55.765625 41.0625 55.515625 
z
" id="DejaVuSans-114"/>
       <path d="M 48.6875 27.296875 
Q 48.6875 37.203125 44.609375 42.84375 
Q 40.53125 48.484375 33.40625 48.484375 
Q 26.265625 48.484375 22.1875 42.84375 
Q 18.109375 37.203125 18.109375 27.296875 
Q 18.109375 17.390625 22.1875 11.75 
Q 26.265625 6.109375 33.40625 6.109375 
Q 40.53125 6.109375 44.609375 11.75 
Q 48.6875 17.390625 48.6875 27.296875 
z
M 18.109375 46.390625 
Q 20.953125 51.265625 25.265625 53.625 
Q 29.59375 56 35.59375 56 
Q 45.5625 56 51.78125 48.09375 
Q 58.015625 40.1875 58.015625 27.296875 
Q 58.015625 14.40625 51.78125 6.484375 
Q 45.5625 -1.421875 35.59375 -1.421875 
Q 29.59375 -1.421875 25.265625 0.953125 
Q 20.953125 3.328125 18.109375 8.203125 
L 18.109375 0 
L 9.078125 0 
L 9.078125 75.984375 
L 18.109375 75.984375 
z
" id="DejaVuSans-98"/>
       <path d="M 9.421875 54.6875 
L 18.40625 54.6875 
L 18.40625 0 
L 9.421875 0 
z
M 9.421875 75.984375 
L 18.40625 75.984375 
L 18.40625 64.59375 
L 9.421875 64.59375 
z
" id="DejaVuSans-105"/>
       <path d="M 9.421875 75.984375 
L 18.40625 75.984375 
L 18.40625 0 
L 9.421875 0 
z
" id="DejaVuSans-108"/>
       <path d="M 32.171875 -5.078125 
Q 28.375 -14.84375 24.75 -17.8125 
Q 21.140625 -20.796875 15.09375 -20.796875 
L 7.90625 -20.796875 
L 7.90625 -13.28125 
L 13.1875 -13.28125 
Q 16.890625 -13.28125 18.9375 -11.515625 
Q 21 -9.765625 23.484375 -3.21875 
L 25.09375 0.875 
L 2.984375 54.6875 
L 12.5 54.6875 
L 29.59375 11.921875 
L 46.6875 54.6875 
L 56.203125 54.6875 
z
" id="DejaVuSans-121"/>
       <path d="M 44.28125 53.078125 
L 44.28125 44.578125 
Q 40.484375 46.53125 36.375 47.5 
Q 32.28125 48.484375 27.875 48.484375 
Q 21.1875 48.484375 17.84375 46.4375 
Q 14.5 44.390625 14.5 40.28125 
Q 14.5 37.15625 16.890625 35.375 
Q 19.28125 33.59375 26.515625 31.984375 
L 29.59375 31.296875 
Q 39.15625 29.25 43.1875 25.515625 
Q 47.21875 21.78125 47.21875 15.09375 
Q 47.21875 7.46875 41.1875 3.015625 
Q 35.15625 -1.421875 24.609375 -1.421875 
Q 20.21875 -1.421875 15.453125 -0.5625 
Q 10.6875 0.296875 5.421875 2 
L 5.421875 11.28125 
Q 10.40625 8.6875 15.234375 7.390625 
Q 20.0625 6.109375 24.8125 6.109375 
Q 31.15625 6.109375 34.5625 8.28125 
Q 37.984375 10.453125 37.984375 14.40625 
Q 37.984375 18.0625 35.515625 20.015625 
Q 33.0625 21.96875 24.703125 23.78125 
L 21.578125 24.515625 
Q 13.234375 26.265625 9.515625 29.90625 
Q 5.8125 33.546875 5.8125 39.890625 
Q 5.8125 47.609375 11.28125 51.796875 
Q 16.75 56 26.8125 56 
Q 31.78125 56 36.171875 55.265625 
Q 40.578125 54.546875 44.28125 53.078125 
z
" id="DejaVuSans-115"/>
      </defs>
      <use xlink:href="#DejaVuSans-75"/>
      <use x="65.576172" xlink:href="#DejaVuSans-68"/>
      <use x="142.578125" xlink:href="#DejaVuSans-69"/>
      <use x="205.761719" xlink:href="#DejaVuSans-32"/>
      <use x="237.548828" xlink:href="#DejaVuSans-80"/>
      <use x="296.101562" xlink:href="#DejaVuSans-114"/>
      <use x="334.964844" xlink:href="#DejaVuSans-111"/>
      <use x="396.146484" xlink:href="#DejaVuSans-98"/>
      <use x="459.623047" xlink:href="#DejaVuSans-97"/>
      <use x="520.902344" xlink:href="#DejaVuSans-98"/>
      <use x="584.378906" xlink:href="#DejaVuSans-105"/>
      <use x="612.162109" xlink:href="#DejaVuSans-108"/>
      <use x="639.945312" xlink:href="#DejaVuSans-105"/>
      <use x="667.728516" xlink:href="#DejaVuSans-116"/>
      <use x="706.9375" xlink:href="#DejaVuSans-121"/>
      <use x="766.117188" xlink:href="#DejaVuSans-32"/>
      <use x="797.904297" xlink:href="#DejaVuSans-68"/>
      <use x="874.90625" xlink:href="#DejaVuSans-101"/>
      <use x="936.429688" xlink:href="#DejaVuSans-110"/>
      <use x="999.808594" xlink:href="#DejaVuSans-115"/>
      <use x="1051.908203" xlink:href="#DejaVuSans-105"/>
      <use x="1079.691406" xlink:href="#DejaVuSans-116"/>
      <use x="1118.900391" xlink:href="#DejaVuSans-121"/>
     </g>
    </g>
   </g>
   <g id="line2d_14">
    <path clip-path="url(#p787ea6739b)" d="M 56.50625 147.018913 
L 57.848134 132.850077 
L 58.742723 125.09087 
L 59.637312 119.55 
L 60.084607 117.73015 
L 60.531901 116.564014 
L 60.979196 116.043979 
L 61.42649 116.147886 
L 61.873785 116.841819 
L 62.32108 118.08255 
L 63.215669 121.996621 
L 64.110258 127.42366 
L 65.452142 137.237831 
L 67.688615 153.613584 
L 69.030498 161.375387 
L 69.925088 165.442081 
L 70.819677 168.698215 
L 71.714266 171.253468 
L 72.608855 173.2222 
L 73.503444 174.721134 
L 74.398034 175.870231 
L 75.739917 177.17216 
L 77.081801 178.161803 
L 78.423685 178.903726 
L 80.212863 179.615245 
L 83.79122 180.832996 
L 84.685809 180.900863 
L 85.580398 180.747915 
L 86.922282 180.162196 
L 88.264166 179.526238 
L 89.158755 179.348484 
L 90.053344 179.484194 
L 90.947933 179.909478 
L 93.631701 181.585728 
L 94.52629 181.876397 
L 95.420879 181.977393 
L 96.762763 181.886975 
L 98.999236 181.703906 
L 100.34112 181.826873 
L 104.814066 182.470397 
L 108.392422 182.526643 
L 228.714667 182.5275 
L 279.70625 182.5275 
L 279.70625 182.5275 
" style="fill:none;stroke:#1f77b4;stroke-linecap:square;stroke-width:0.8;"/>
   </g>
   <g id="line2d_15">
    <path clip-path="url(#p787ea6739b)" d="M 56.50625 182.527499 
L 72.608855 182.420815 
L 76.634507 182.14633 
L 80.212863 181.680114 
L 83.343925 181.052046 
L 86.027693 180.273961 
L 87.816871 179.55341 
L 89.60605 178.576693 
L 90.947933 177.620883 
L 92.289817 176.44601 
L 94.078995 174.550373 
L 96.315468 171.809481 
L 100.34112 166.81417 
L 103.472182 163.328356 
L 106.603244 160.129661 
L 108.392422 158.641648 
L 109.734306 157.855021 
L 110.628895 157.53516 
L 111.523484 157.397822 
L 112.418074 157.449332 
L 113.312663 157.687341 
L 114.207252 158.101909 
L 115.549136 159.018477 
L 116.89102 160.223235 
L 118.680198 162.129074 
L 124.047733 168.08633 
L 126.731501 170.601626 
L 129.415268 172.787333 
L 131.651741 174.323796 
L 133.888214 175.552944 
L 136.124687 176.512992 
L 139.703044 177.759047 
L 144.623284 179.253405 
L 147.307052 179.866495 
L 149.990819 180.252974 
L 154.91106 180.637472 
L 160.725889 181.227372 
L 166.540719 181.706275 
L 172.802843 182.067225 
L 203.218875 182.526479 
L 279.70625 182.5275 
L 279.70625 182.5275 
" style="fill:none;stroke:#1f77b4;stroke-linecap:square;stroke-width:0.8;"/>
   </g>
   <g id="line2d_16">
    <path clip-path="url(#p787ea6739b)" d="M 56.50625 182.5275 
L 117.785609 182.43401 
L 126.731501 181.966546 
L 137.019276 180.78981 
L 138.36116 180.335942 
L 139.703044 179.610625 
L 141.044927 178.618345 
L 142.834106 176.975067 
L 145.517873 174.139936 
L 147.754346 171.475541 
L 149.543525 168.928046 
L 150.885408 166.669727 
L 152.674587 163.179715 
L 155.358354 157.269127 
L 157.147533 153.544522 
L 158.489416 151.297013 
L 159.384006 150.127537 
L 160.278595 149.211563 
L 161.173184 148.536654 
L 162.067773 148.122411 
L 162.962362 148.035344 
L 163.409657 148.14489 
L 163.856951 148.373365 
L 164.751541 149.225046 
L 165.64613 150.623445 
L 166.540719 152.517008 
L 167.882603 155.973922 
L 170.119076 161.794163 
L 171.460959 164.552785 
L 172.802843 166.675779 
L 174.592022 168.974463 
L 178.170378 173.569323 
L 180.406851 176.300725 
L 182.19603 178.103152 
L 183.537913 179.153741 
L 184.879797 179.918208 
L 186.221681 180.423211 
L 188.010859 180.824172 
L 191.141921 181.217224 
L 201.429697 182.216789 
L 204.113464 182.445996 
L 207.691821 182.502285 
L 219.32148 182.468605 
L 225.13631 182.526923 
L 279.70625 182.5275 
L 279.70625 182.5275 
" style="fill:none;stroke:#1f77b4;stroke-linecap:square;stroke-width:0.8;"/>
   </g>
   <g id="line2d_17">
    <path clip-path="url(#p787ea6739b)" d="M 56.50625 182.5275 
L 179.512262 182.453176 
L 184.879797 181.905698 
L 189.352743 180.586733 
L 190.694627 179.836369 
L 192.036511 179.025858 
L 192.9311 178.75259 
L 193.825689 178.822204 
L 195.614867 179.251839 
L 196.062162 179.157747 
L 196.509456 178.90115 
L 196.956751 178.455987 
L 197.404046 177.805665 
L 198.298635 175.873535 
L 199.193224 173.172806 
L 200.535108 168.060782 
L 202.324286 160.121511 
L 204.560759 149.445705 
L 205.455348 144.295172 
L 206.797232 134.764567 
L 208.139116 124.915745 
L 209.033705 119.947407 
L 209.480999 118.296133 
L 209.928294 117.318143 
L 210.375589 117.071168 
L 210.822883 117.576827 
L 211.270178 118.814544 
L 211.717472 120.724499 
L 212.612062 126.204533 
L 213.506651 133.279209 
L 216.637713 160.036333 
L 217.532302 165.190187 
L 218.426891 169.033715 
L 219.768775 173.460422 
L 220.663364 175.839011 
L 221.557953 177.69355 
L 222.452543 179.020893 
L 223.347132 179.948392 
L 224.241721 180.589817 
L 225.13631 181.001693 
L 229.609256 182.347971 
L 230.95114 182.492748 
L 234.529496 182.527475 
L 279.70625 182.5275 
L 279.70625 182.5275 
" style="fill:none;stroke:#1f77b4;stroke-linecap:square;stroke-width:0.8;"/>
   </g>
   <g id="line2d_18">
    <path clip-path="url(#p787ea6739b)" d="M 56.50625 182.5275 
L 244.817272 182.495096 
L 245.264567 182.386406 
L 245.711861 182.062105 
L 246.159156 181.355274 
L 248.395629 175.679982 
L 248.842923 173.103873 
L 249.290218 168.398157 
L 249.737513 161.036539 
L 250.632102 139.112579 
L 251.526691 115.29935 
L 251.973985 106.423462 
L 252.42128 100.291366 
L 254.210458 83.575542 
L 254.657753 78.517593 
L 255.105048 75.796887 
L 255.552342 75.438632 
L 255.999637 76.293561 
L 256.446931 78.550514 
L 256.894226 84.132927 
L 257.341521 94.335739 
L 259.130699 147.190713 
L 259.577993 154.704647 
L 260.025288 159.628462 
L 261.814466 173.45054 
L 262.261761 176.42021 
L 262.709056 178.566518 
L 263.15635 179.883495 
L 263.603645 180.643292 
L 264.498234 181.637663 
L 265.392823 182.318375 
L 266.287412 182.510218 
L 270.313064 182.5275 
L 279.70625 182.5275 
L 279.70625 182.5275 
" style="fill:none;stroke:#1f77b4;stroke-linecap:square;stroke-width:0.8;"/>
   </g>
   <g id="line2d_19">
    <path clip-path="url(#p787ea6739b)" d="M 56.50625 150.849747 
L 57.848134 141.729801 
L 58.742723 136.97894 
L 59.637312 133.648488 
L 60.084607 132.537032 
L 60.531901 131.780929 
L 60.979196 131.359513 
L 61.42649 131.24819 
L 61.873785 131.421722 
L 62.32108 131.856747 
L 62.768374 132.533267 
L 63.662963 134.548693 
L 64.557553 137.364679 
L 65.452142 140.871603 
L 67.24132 149.214649 
L 69.030498 157.554263 
L 70.372382 162.665295 
L 71.266971 165.33725 
L 72.161561 167.453919 
L 73.05615 169.11229 
L 74.398034 171.000061 
L 75.739917 172.473727 
L 77.529096 174.112951 
L 79.318274 175.416971 
L 80.660158 176.121634 
L 82.449336 176.75128 
L 85.133104 177.601743 
L 90.053344 179.493308 
L 91.395228 179.575323 
L 94.078995 179.571811 
L 95.420879 179.872293 
L 96.762763 180.427399 
L 99.893825 181.844456 
L 101.235709 182.202439 
L 103.024887 182.433557 
L 106.155949 182.522222 
L 131.651741 182.5275 
L 279.70625 182.5275 
L 279.70625 182.5275 
" style="fill:none;stroke:#ff7f0e;stroke-linecap:square;stroke-width:0.8;"/>
   </g>
   <g id="line2d_20">
    <path clip-path="url(#p787ea6739b)" d="M 56.50625 182.511968 
L 62.768374 182.359384 
L 66.794026 182.047102 
L 71.266971 181.455513 
L 78.423685 180.232684 
L 82.896631 179.287416 
L 85.580398 178.500532 
L 87.816871 177.608671 
L 90.053344 176.440583 
L 92.289817 174.996364 
L 95.420879 172.665414 
L 98.999236 170.022467 
L 101.235709 168.634391 
L 103.472182 167.54804 
L 105.708655 166.757517 
L 107.945128 166.204099 
L 110.628895 165.779035 
L 112.865368 165.626176 
L 115.101841 165.707437 
L 117.338314 166.060747 
L 119.574787 166.667858 
L 122.705849 167.796621 
L 129.415268 170.290357 
L 136.124687 172.62254 
L 139.255749 174.044365 
L 145.517873 177.033311 
L 148.201641 178.004126 
L 151.332703 178.86378 
L 158.042122 180.362754 
L 162.067773 181.090396 
L 165.64613 181.483354 
L 170.119076 181.707623 
L 200.535108 182.524322 
L 239.002442 182.467863 
L 250.184807 182.451207 
L 266.734707 182.527389 
L 279.70625 182.5275 
L 279.70625 182.5275 
" style="fill:none;stroke:#ff7f0e;stroke-linecap:square;stroke-width:0.8;"/>
   </g>
   <g id="line2d_21">
    <path clip-path="url(#p787ea6739b)" d="M 56.50625 182.5275 
L 91.395228 182.419344 
L 98.104647 182.420171 
L 104.814066 182.411924 
L 120.022082 181.895121 
L 127.178795 180.951973 
L 130.309857 180.403777 
L 132.993625 179.718309 
L 135.677392 178.775164 
L 137.913865 177.756044 
L 140.150338 176.496149 
L 142.386811 174.98885 
L 145.070579 172.906617 
L 148.648935 169.832551 
L 153.569176 165.239552 
L 155.805649 163.315474 
L 157.594827 162.057444 
L 159.384006 161.09813 
L 161.173184 160.419602 
L 162.962362 160.004827 
L 164.304246 159.879037 
L 165.64613 159.932294 
L 166.988014 160.1785 
L 168.329897 160.621296 
L 169.671781 161.257855 
L 171.013665 162.086642 
L 172.802843 163.49456 
L 174.592022 165.238251 
L 176.828494 167.771409 
L 180.406851 171.873407 
L 182.19603 173.596066 
L 183.985208 175.007972 
L 185.774386 176.151376 
L 188.458154 177.559775 
L 192.483805 179.388801 
L 195.167573 180.403905 
L 197.85134 181.162551 
L 200.535108 181.670974 
L 204.113464 182.082338 
L 209.033705 182.395727 
L 214.40124 182.508519 
L 222.452543 182.428179 
L 229.609256 182.417905 
L 237.660559 182.418697 
L 244.817272 182.427216 
L 256.446931 182.526935 
L 275.233304 182.428057 
L 279.70625 182.39227 
L 279.70625 182.39227 
" style="fill:none;stroke:#ff7f0e;stroke-linecap:square;stroke-width:0.8;"/>
   </g>
   <g id="line2d_22">
    <path clip-path="url(#p787ea6739b)" d="M 56.50625 182.5275 
L 137.913865 182.419856 
L 141.939517 182.299159 
L 148.201641 182.39417 
L 151.779997 182.297486 
L 158.936711 182.420588 
L 162.962362 182.298107 
L 171.460959 182.471874 
L 174.144727 182.243196 
L 181.748735 181.296094 
L 186.221681 181.037307 
L 189.352743 180.515295 
L 190.694627 180.05736 
L 191.589216 179.506444 
L 192.483805 178.714319 
L 193.825689 177.163216 
L 196.509456 173.56816 
L 197.404046 172.138411 
L 198.298635 170.379411 
L 199.193224 168.153035 
L 200.087813 165.37258 
L 201.429697 160.153358 
L 205.455348 142.841638 
L 206.349937 140.468559 
L 207.244527 138.870581 
L 208.139116 137.897074 
L 209.033705 137.410922 
L 209.480999 137.339675 
L 209.928294 137.395734 
L 210.375589 137.597839 
L 210.822883 137.968196 
L 211.270178 138.528544 
L 212.164767 140.28215 
L 213.059356 142.902414 
L 213.953945 146.285582 
L 215.743124 154.356385 
L 217.532302 162.161729 
L 218.426891 165.332113 
L 219.32148 167.855339 
L 220.21607 169.776866 
L 221.557953 171.907006 
L 226.925488 179.122984 
L 228.267372 180.267548 
L 229.609256 181.002439 
L 230.95114 181.439211 
L 232.740318 181.757751 
L 239.002442 182.446439 
L 242.580799 182.524685 
L 279.70625 182.5275 
L 279.70625 182.5275 
" style="fill:none;stroke:#ff7f0e;stroke-linecap:square;stroke-width:0.8;"/>
   </g>
   <g id="line2d_23">
    <path clip-path="url(#p787ea6739b)" d="M 56.50625 182.5275 
L 115.101841 182.42964 
L 122.705849 182.176289 
L 131.651741 182.340397 
L 138.808454 182.355621 
L 143.728695 182.394736 
L 151.779997 182.525463 
L 179.512262 182.466004 
L 188.905448 182.232367 
L 196.509456 182.516 
L 213.953945 182.5275 
L 233.187613 182.418534 
L 234.976791 182.21839 
L 236.318675 181.903809 
L 237.660559 181.343896 
L 238.555148 180.768856 
L 239.449737 179.97349 
L 240.344326 178.895639 
L 241.238915 177.461384 
L 242.133505 175.584623 
L 243.028094 173.16942 
L 243.922683 170.117917 
L 244.817272 166.346362 
L 245.711861 161.809913 
L 247.053745 153.651244 
L 251.079396 127.144636 
L 251.973985 123.408167 
L 252.42128 122.131413 
L 252.868575 121.289177 
L 253.315869 120.899135 
L 253.763164 120.968378 
L 254.210458 121.493408 
L 254.657753 122.460537 
L 255.105048 123.846628 
L 255.999637 127.742289 
L 256.894226 132.85022 
L 258.683404 145.086648 
L 260.472583 157.372206 
L 261.814466 165.17529 
L 262.709056 169.417782 
L 263.603645 172.860719 
L 264.498234 175.556254 
L 265.392823 177.60038 
L 266.287412 179.108574 
L 267.182002 180.196201 
L 268.076591 180.965871 
L 268.97118 181.501678 
L 270.313064 182.004637 
L 272.102242 182.335531 
L 274.338715 182.483228 
L 279.70625 182.52712 
L 279.70625 182.52712 
" style="fill:none;stroke:#ff7f0e;stroke-linecap:square;stroke-width:0.8;"/>
   </g>
   <g id="line2d_24">
    <path clip-path="url(#p787ea6739b)" d="M 56.50625 145.691026 
L 57.400839 139.774049 
L 58.295428 135.24245 
L 58.742723 133.633645 
L 59.190018 132.500834 
L 59.637312 131.848016 
L 60.084607 131.660159 
L 60.531901 131.905218 
L 60.979196 132.537231 
L 61.42649 133.500166 
L 62.32108 136.169726 
L 64.110258 142.846699 
L 65.899436 149.273283 
L 67.688615 154.762031 
L 69.477793 159.493454 
L 71.266971 163.512912 
L 72.608855 166.036553 
L 74.398034 168.91534 
L 78.423685 174.819643 
L 79.765569 176.499116 
L 81.107452 177.781436 
L 82.002042 178.375245 
L 82.896631 178.769378 
L 84.238515 179.068317 
L 88.264166 179.584594 
L 90.947933 180.45551 
L 92.289817 180.798089 
L 93.631701 180.94537 
L 95.868174 180.878618 
L 98.104647 180.883666 
L 99.893825 181.129906 
L 104.366771 181.891428 
L 106.603244 181.919287 
L 109.734306 181.901008 
L 112.418074 182.145333 
L 115.99643 182.45206 
L 120.022082 182.524336 
L 165.198835 182.5275 
L 279.70625 182.5275 
L 279.70625 182.5275 
" style="fill:none;stroke:#2ca02c;stroke-linecap:square;stroke-width:0.8;"/>
   </g>
   <g id="line2d_25">
    <path clip-path="url(#p787ea6739b)" d="M 56.50625 182.423659 
L 63.662963 182.131321 
L 69.477793 181.681073 
L 73.503444 181.169232 
L 77.081801 180.483175 
L 80.212863 179.662273 
L 83.79122 178.484066 
L 88.264166 176.760539 
L 102.577593 171.039607 
L 106.603244 169.805553 
L 112.865368 168.146909 
L 115.99643 167.502979 
L 118.232903 167.240046 
L 120.469376 167.216677 
L 122.258555 167.395924 
L 124.495028 167.865434 
L 126.731501 168.568521 
L 129.862563 169.815107 
L 136.124687 172.628534 
L 142.834106 175.589019 
L 145.965168 176.717819 
L 148.648935 177.452213 
L 151.779997 178.050675 
L 156.252943 178.629733 
L 163.409657 179.562968 
L 172.802843 180.852556 
L 179.959557 181.501815 
L 188.010859 182.043861 
L 195.614867 182.294014 
L 206.797232 182.447639 
L 279.70625 182.5275 
L 279.70625 182.5275 
" style="fill:none;stroke:#2ca02c;stroke-linecap:square;stroke-width:0.8;"/>
   </g>
   <g id="line2d_26">
    <path clip-path="url(#p787ea6739b)" d="M 56.50625 182.513804 
L 76.187212 182.50094 
L 91.842523 182.526963 
L 102.577593 182.411325 
L 107.497833 182.111192 
L 121.81126 180.849771 
L 127.62609 179.929284 
L 131.204446 179.202581 
L 133.888214 178.442708 
L 136.571981 177.436773 
L 138.808454 176.38027 
L 141.044927 175.088089 
L 143.2814 173.54495 
L 145.965168 171.417556 
L 150.885408 167.149346 
L 153.569176 164.922587 
L 155.358354 163.68117 
L 156.700238 162.961521 
L 158.042122 162.457553 
L 159.384006 162.171364 
L 160.725889 162.079532 
L 162.515068 162.194841 
L 164.751541 162.618572 
L 166.988014 163.317381 
L 168.777192 164.099385 
L 171.013665 165.362549 
L 173.697432 167.190124 
L 183.537913 174.204812 
L 186.221681 175.771483 
L 189.352743 177.332332 
L 193.378394 179.066737 
L 196.062162 180.014184 
L 198.745929 180.738602 
L 202.324286 181.435858 
L 206.349937 181.990604 
L 209.928294 182.270357 
L 214.40124 182.373559 
L 255.105048 182.511946 
L 273.89142 182.495291 
L 279.70625 182.524897 
L 279.70625 182.524897 
" style="fill:none;stroke:#2ca02c;stroke-linecap:square;stroke-width:0.8;"/>
   </g>
   <g id="line2d_27">
    <path clip-path="url(#p787ea6739b)" d="M 56.50625 182.5275 
L 145.070579 182.424719 
L 149.990819 182.34844 
L 156.700238 182.437178 
L 159.8313 182.165171 
L 162.515068 181.945033 
L 164.751541 182.020098 
L 168.777192 182.2656 
L 171.013665 182.134603 
L 175.933905 181.722555 
L 179.064967 181.552566 
L 180.854146 181.231331 
L 182.643324 180.690791 
L 184.432503 179.92274 
L 186.221681 178.911281 
L 190.247332 176.492339 
L 192.483805 175.250893 
L 193.825689 174.250137 
L 195.167573 172.926641 
L 196.509456 171.295418 
L 198.298635 168.768588 
L 200.087813 165.856827 
L 201.429697 163.268759 
L 202.771581 160.216426 
L 206.797232 150.368707 
L 207.691821 148.907271 
L 208.58641 147.940038 
L 209.480999 147.457587 
L 210.375589 147.394457 
L 211.270178 147.668502 
L 212.164767 148.223522 
L 213.059356 149.05353 
L 213.953945 150.195858 
L 214.848535 151.696907 
L 215.743124 153.568928 
L 217.085008 156.940796 
L 219.768775 163.995726 
L 221.110659 166.83392 
L 222.452543 169.102812 
L 224.241721 171.623395 
L 227.372783 175.634754 
L 229.161961 177.574639 
L 230.503845 178.746913 
L 231.845729 179.68136 
L 233.634907 180.633851 
L 235.87138 181.506042 
L 238.107853 182.094187 
L 240.344326 182.398205 
L 243.475388 182.515828 
L 256.894226 182.5275 
L 279.70625 182.5275 
L 279.70625 182.5275 
" style="fill:none;stroke:#2ca02c;stroke-linecap:square;stroke-width:0.8;"/>
   </g>
   <g id="line2d_28">
    <path clip-path="url(#p787ea6739b)" d="M 56.50625 182.5275 
L 105.26136 182.420981 
L 114.654547 182.308113 
L 131.204446 182.328015 
L 145.965168 182.127468 
L 164.304246 182.42157 
L 174.144727 182.483066 
L 191.141921 182.37661 
L 205.008054 182.526602 
L 222.899837 182.425365 
L 226.030899 182.159386 
L 228.267372 181.746466 
L 230.056551 181.214206 
L 231.845729 180.443601 
L 233.187613 179.663904 
L 234.529496 178.658194 
L 235.87138 177.357273 
L 237.213264 175.671339 
L 238.555148 173.497926 
L 239.897032 170.740516 
L 241.238915 167.336915 
L 242.580799 163.292619 
L 244.369977 157.099206 
L 247.50104 145.881915 
L 248.842923 141.960001 
L 249.737513 139.959965 
L 250.632102 138.576428 
L 251.079396 138.141034 
L 251.526691 137.885797 
L 251.973985 137.814712 
L 252.42128 137.929299 
L 252.868575 138.228559 
L 253.315869 138.709002 
L 254.210458 140.187545 
L 255.105048 142.291616 
L 255.999637 144.91873 
L 257.341521 149.569121 
L 262.261761 167.567836 
L 263.603645 171.408658 
L 264.945529 174.544169 
L 266.287412 176.991727 
L 267.629296 178.822116 
L 268.97118 180.134919 
L 270.313064 181.038385 
L 271.654947 181.635033 
L 272.996831 182.01306 
L 274.78601 182.29583 
L 277.469777 182.466925 
L 279.70625 182.510362 
L 279.70625 182.510362 
" style="fill:none;stroke:#2ca02c;stroke-linecap:square;stroke-width:0.8;"/>
   </g>
   <g id="line2d_29">
    <path clip-path="url(#p787ea6739b)" d="M 56.50625 134.429451 
L 57.400839 128.922427 
L 58.295428 125.257829 
L 58.742723 124.236652 
L 59.190018 123.787213 
L 59.637312 123.910381 
L 60.084607 124.589503 
L 60.531901 125.79175 
L 61.42649 129.566576 
L 62.32108 134.74078 
L 66.346731 160.824903 
L 67.24132 164.978972 
L 68.135909 168.228696 
L 69.030498 170.63958 
L 69.925088 172.340902 
L 70.819677 173.494065 
L 71.714266 174.263667 
L 73.05615 175.004589 
L 74.845328 175.676755 
L 77.081801 176.280265 
L 78.870979 176.531236 
L 82.002042 176.892601 
L 83.79122 177.413088 
L 86.474987 178.544831 
L 88.71146 179.413108 
L 91.395228 180.197104 
L 94.973585 181.001665 
L 97.210058 181.260408 
L 99.446531 181.264116 
L 104.814066 181.12631 
L 108.392422 181.334706 
L 112.418074 181.77638 
L 117.338314 182.354861 
L 120.916671 182.503405 
L 130.309857 182.527498 
L 279.70625 182.5275 
L 279.70625 182.5275 
" style="fill:none;stroke:#d62728;stroke-linecap:square;stroke-width:0.8;"/>
   </g>
   <g id="line2d_30">
    <path clip-path="url(#p787ea6739b)" d="M 56.50625 180.581295 
L 69.925088 177.607897 
L 82.896631 174.44831 
L 86.922282 173.486579 
L 90.053344 172.501339 
L 94.078995 170.942591 
L 97.657352 169.595567 
L 99.893825 168.966747 
L 101.683004 168.652312 
L 103.472182 168.531261 
L 105.26136 168.605757 
L 107.497833 168.945231 
L 110.181601 169.620803 
L 115.549136 171.309002 
L 121.363965 173.023313 
L 131.651741 175.762286 
L 137.019276 176.994165 
L 142.386811 177.994259 
L 149.990819 179.144186 
L 160.725889 180.556343 
L 166.988014 181.155521 
L 174.144727 181.602804 
L 183.985208 181.993942 
L 192.036511 182.084356 
L 202.771581 182.198458 
L 218.874186 182.510671 
L 245.711861 182.5275 
L 279.70625 182.5275 
L 279.70625 182.5275 
" style="fill:none;stroke:#d62728;stroke-linecap:square;stroke-width:0.8;"/>
   </g>
   <g id="line2d_31">
    <path clip-path="url(#p787ea6739b)" d="M 56.50625 182.113586 
L 81.554747 180.804844 
L 89.60605 180.225561 
L 109.287012 178.503488 
L 113.312663 177.737045 
L 119.127492 176.348503 
L 126.284206 174.70597 
L 133.440919 173.070276 
L 138.36116 171.671651 
L 143.2814 170.299419 
L 145.965168 169.753958 
L 148.648935 169.44326 
L 151.332703 169.39478 
L 154.01647 169.600232 
L 156.700238 170.028961 
L 159.8313 170.758791 
L 163.409657 171.818185 
L 168.777192 173.664525 
L 176.828494 176.432763 
L 181.748735 177.886421 
L 187.11627 179.235088 
L 192.036511 180.230724 
L 196.509456 180.902804 
L 201.876991 181.46032 
L 209.033705 181.96037 
L 216.637713 182.282684 
L 225.583605 182.417413 
L 249.737513 182.48289 
L 268.97118 182.493053 
L 279.70625 182.524742 
L 279.70625 182.524742 
" style="fill:none;stroke:#d62728;stroke-linecap:square;stroke-width:0.8;"/>
   </g>
   <g id="line2d_32">
    <path clip-path="url(#p787ea6739b)" d="M 56.50625 182.393526 
L 69.030498 182.378574 
L 89.158755 182.34726 
L 100.34112 182.202095 
L 111.523484 182.193392 
L 137.913865 181.270374 
L 145.070579 180.974505 
L 156.252943 180.68969 
L 159.384006 180.32998 
L 162.515068 179.730838 
L 165.198835 179.005945 
L 168.329897 177.927403 
L 172.355549 176.276879 
L 184.879797 170.738482 
L 188.905448 168.664043 
L 193.825689 166.117795 
L 196.062162 165.199979 
L 197.85134 164.665465 
L 199.640519 164.343125 
L 201.429697 164.24836 
L 203.218875 164.383639 
L 205.008054 164.743194 
L 206.797232 165.317018 
L 208.58641 166.092432 
L 210.822883 167.319914 
L 213.059356 168.792129 
L 216.190418 171.143777 
L 222.899837 176.336298 
L 225.583605 178.076885 
L 227.820078 179.267655 
L 230.056551 180.205356 
L 232.293024 180.904479 
L 234.976791 181.478186 
L 238.107853 181.878152 
L 242.133505 182.137449 
L 249.737513 182.343904 
L 264.050939 182.518036 
L 279.70625 182.527495 
L 279.70625 182.527495 
" style="fill:none;stroke:#d62728;stroke-linecap:square;stroke-width:0.8;"/>
   </g>
   <g id="line2d_33">
    <path clip-path="url(#p787ea6739b)" d="M 56.50625 182.523009 
L 91.395228 182.351552 
L 101.683004 182.300319 
L 121.363965 182.410664 
L 135.677392 182.210661 
L 151.779997 182.273692 
L 172.802843 181.769386 
L 178.617673 181.983394 
L 186.221681 182.277291 
L 191.141921 182.226598 
L 196.956751 181.930906 
L 202.324286 181.450118 
L 206.349937 180.884156 
L 209.928294 180.165278 
L 213.506651 179.209556 
L 216.637713 178.136915 
L 219.32148 176.980557 
L 221.557953 175.799999 
L 223.794426 174.384582 
L 226.030899 172.71009 
L 228.267372 170.768262 
L 230.95114 168.107644 
L 234.529496 164.18255 
L 237.660559 160.834203 
L 239.449737 159.225332 
L 240.791621 158.2762 
L 242.133505 157.611604 
L 243.475388 157.276429 
L 244.369977 157.250424 
L 245.264567 157.386645 
L 246.159156 157.683998 
L 247.50104 158.419717 
L 248.842923 159.47253 
L 250.184807 160.795087 
L 251.973985 162.879972 
L 254.657753 166.409147 
L 259.130699 172.32251 
L 261.367172 174.905555 
L 263.15635 176.683542 
L 264.945529 178.174768 
L 266.734707 179.376815 
L 268.523885 180.308809 
L 270.313064 181.005527 
L 272.549537 181.610578 
L 275.233304 182.054589 
L 278.364366 182.327376 
L 279.70625 182.393824 
L 279.70625 182.393824 
" style="fill:none;stroke:#d62728;stroke-linecap:square;stroke-width:0.8;"/>
   </g>
   <g id="line2d_34">
    <path clip-path="url(#p787ea6739b)" d="M 56.50625 141.257799 
L 57.848134 125.068488 
L 58.742723 116.652854 
L 59.637312 110.186409 
L 60.531901 105.337328 
L 60.979196 103.57549 
L 61.42649 102.410618 
L 61.873785 102.021979 
L 62.32108 102.601919 
L 62.768374 104.314223 
L 63.215669 107.253947 
L 63.662963 111.417865 
L 64.557553 122.859579 
L 66.794026 156.146689 
L 67.688615 165.727083 
L 68.583204 172.031865 
L 69.030498 174.111687 
L 69.477793 175.618102 
L 69.925088 176.665215 
L 70.372382 177.359997 
L 70.819677 177.796218 
L 71.714266 178.189801 
L 75.292623 178.823696 
L 76.634507 179.548439 
L 79.765569 181.609688 
L 80.660158 181.950927 
L 81.554747 182.104428 
L 82.896631 182.033211 
L 86.922282 181.404241 
L 89.60605 181.431582 
L 91.395228 181.688884 
L 94.52629 182.329371 
L 95.868174 182.386448 
L 97.210058 182.260945 
L 98.999236 181.842039 
L 101.235709 181.270141 
L 102.577593 181.140138 
L 103.919476 181.235337 
L 105.708655 181.652534 
L 107.945128 182.234118 
L 109.734306 182.458261 
L 112.865368 182.526009 
L 180.406851 182.5275 
L 279.70625 182.5275 
L 279.70625 182.5275 
" style="fill:none;stroke:#9467bd;stroke-linecap:square;stroke-width:0.8;"/>
   </g>
   <g id="line2d_35">
    <path clip-path="url(#p787ea6739b)" d="M 56.50625 170.841833 
L 58.742723 168.564837 
L 60.084607 167.4499 
L 61.42649 166.58791 
L 62.768374 166.009572 
L 64.110258 165.723021 
L 65.452142 165.71387 
L 66.794026 165.94813 
L 68.583204 166.554205 
L 70.819677 167.594567 
L 75.292623 169.73897 
L 77.529096 170.566502 
L 80.212863 171.292694 
L 83.343925 171.878529 
L 94.973585 173.821305 
L 103.472182 175.329309 
L 110.181601 176.530184 
L 115.99643 177.863199 
L 120.916671 178.90578 
L 124.495028 179.410886 
L 128.073384 179.667364 
L 132.54633 179.736361 
L 138.808454 179.830841 
L 142.386811 180.113407 
L 148.201641 180.860694 
L 152.674587 181.339099 
L 156.700238 181.546582 
L 194.720278 182.475783 
L 214.40124 182.527404 
L 279.70625 182.5275 
L 279.70625 182.5275 
" style="fill:none;stroke:#9467bd;stroke-linecap:square;stroke-width:0.8;"/>
   </g>
   <g id="line2d_36">
    <path clip-path="url(#p787ea6739b)" d="M 56.50625 175.210607 
L 59.190018 174.202876 
L 61.42649 173.597996 
L 63.662963 173.242005 
L 65.899436 173.135757 
L 68.135909 173.251778 
L 70.819677 173.616051 
L 75.292623 174.509813 
L 81.107452 175.650064 
L 85.133104 176.195108 
L 88.71146 176.465744 
L 92.737112 176.540073 
L 97.210058 176.385993 
L 103.472182 175.916322 
L 112.418074 175.248849 
L 117.785609 175.08012 
L 123.153144 175.139737 
L 128.967973 175.444336 
L 135.677392 176.043968 
L 145.965168 177.234232 
L 157.147533 178.722498 
L 171.013665 180.608564 
L 177.723084 181.243111 
L 185.327092 181.713649 
L 195.167573 182.073663 
L 209.033705 182.341955 
L 226.030899 182.434567 
L 279.70625 182.527462 
L 279.70625 182.527462 
" style="fill:none;stroke:#9467bd;stroke-linecap:square;stroke-width:0.8;"/>
   </g>
   <g id="line2d_37">
    <path clip-path="url(#p787ea6739b)" d="M 56.50625 178.962578 
L 61.42649 178.317168 
L 65.452142 178.00471 
L 69.925088 177.894688 
L 75.292623 178.006976 
L 91.842523 178.520458 
L 102.577593 178.493187 
L 116.89102 178.248061 
L 127.62609 177.820881 
L 148.648935 176.914374 
L 166.988014 176.44068 
L 175.933905 176.407947 
L 182.643324 176.604498 
L 188.905448 177.003829 
L 195.614867 177.657049 
L 203.66617 178.684295 
L 221.557953 181.081949 
L 228.267372 181.685456 
L 234.976791 182.063697 
L 243.475388 182.298201 
L 258.23611 182.429447 
L 279.70625 182.515902 
L 279.70625 182.515902 
" style="fill:none;stroke:#9467bd;stroke-linecap:square;stroke-width:0.8;"/>
   </g>
   <g id="line2d_38">
    <path clip-path="url(#p787ea6739b)" d="M 56.50625 181.812661 
L 72.608855 181.224535 
L 82.002042 181.126304 
L 95.868174 181.253775 
L 108.392422 181.270033 
L 132.54633 180.968879 
L 148.648935 180.619316 
L 160.278595 180.155099 
L 185.327092 178.807488 
L 192.483805 178.270196 
L 197.85134 177.661799 
L 203.218875 176.823182 
L 209.033705 175.672396 
L 223.347132 172.675934 
L 227.372783 172.147949 
L 230.95114 171.922526 
L 234.082202 171.948527 
L 237.213264 172.19837 
L 240.344326 172.670615 
L 243.922683 173.458295 
L 247.948334 174.595709 
L 254.210458 176.646255 
L 260.919877 178.78404 
L 265.392823 179.971031 
L 269.418474 180.81509 
L 273.444126 181.443316 
L 277.917072 181.918041 
L 279.70625 182.053306 
L 279.70625 182.053306 
" style="fill:none;stroke:#9467bd;stroke-linecap:square;stroke-width:0.8;"/>
   </g>
   <g id="patch_3">
    <path d="M 56.50625 182.5275 
L 56.50625 35.7555 
" style="fill:none;stroke:#000000;stroke-linecap:square;stroke-linejoin:miter;stroke-width:0.8;"/>
   </g>
   <g id="patch_4">
    <path d="M 279.70625 182.5275 
L 279.70625 35.7555 
" style="fill:none;stroke:#000000;stroke-linecap:square;stroke-linejoin:miter;stroke-width:0.8;"/>
   </g>
   <g id="patch_5">
    <path d="M 56.50625 182.5275 
L 279.70625 182.5275 
" style="fill:none;stroke:#000000;stroke-linecap:square;stroke-linejoin:miter;stroke-width:0.8;"/>
   </g>
   <g id="patch_6">
    <path d="M 56.50625 35.7555 
L 279.70625 35.7555 
" style="fill:none;stroke:#000000;stroke-linecap:square;stroke-linejoin:miter;stroke-width:0.8;"/>
   </g>
   <g id="text_16">
    <!-- Conductance Dist. Broadening -->
    <g transform="translate(76.84625 16.318125)scale(0.12 -0.12)">
     <defs>
      <path d="M 19.671875 34.8125 
L 19.671875 8.109375 
L 35.5 8.109375 
Q 43.453125 8.109375 47.28125 11.40625 
Q 51.125 14.703125 51.125 21.484375 
Q 51.125 28.328125 47.28125 31.5625 
Q 43.453125 34.8125 35.5 34.8125 
z
M 19.671875 64.796875 
L 19.671875 42.828125 
L 34.28125 42.828125 
Q 41.5 42.828125 45.03125 45.53125 
Q 48.578125 48.25 48.578125 53.8125 
Q 48.578125 59.328125 45.03125 62.0625 
Q 41.5 64.796875 34.28125 64.796875 
z
M 9.8125 72.90625 
L 35.015625 72.90625 
Q 46.296875 72.90625 52.390625 68.21875 
Q 58.5 63.53125 58.5 54.890625 
Q 58.5 48.1875 55.375 44.234375 
Q 52.25 40.28125 46.1875 39.3125 
Q 53.46875 37.75 57.5 32.78125 
Q 61.53125 27.828125 61.53125 20.40625 
Q 61.53125 10.640625 54.890625 5.3125 
Q 48.25 0 35.984375 0 
L 9.8125 0 
z
" id="DejaVuSans-66"/>
      <path d="M 45.40625 27.984375 
Q 45.40625 37.75 41.375 43.109375 
Q 37.359375 48.484375 30.078125 48.484375 
Q 22.859375 48.484375 18.828125 43.109375 
Q 14.796875 37.75 14.796875 27.984375 
Q 14.796875 18.265625 18.828125 12.890625 
Q 22.859375 7.515625 30.078125 7.515625 
Q 37.359375 7.515625 41.375 12.890625 
Q 45.40625 18.265625 45.40625 27.984375 
z
M 54.390625 6.78125 
Q 54.390625 -7.171875 48.1875 -13.984375 
Q 42 -20.796875 29.203125 -20.796875 
Q 24.46875 -20.796875 20.265625 -20.09375 
Q 16.0625 -19.390625 12.109375 -17.921875 
L 12.109375 -9.1875 
Q 16.0625 -11.328125 19.921875 -12.34375 
Q 23.78125 -13.375 27.78125 -13.375 
Q 36.625 -13.375 41.015625 -8.765625 
Q 45.40625 -4.15625 45.40625 5.171875 
L 45.40625 9.625 
Q 42.625 4.78125 38.28125 2.390625 
Q 33.9375 0 27.875 0 
Q 17.828125 0 11.671875 7.65625 
Q 5.515625 15.328125 5.515625 27.984375 
Q 5.515625 40.671875 11.671875 48.328125 
Q 17.828125 56 27.875 56 
Q 33.9375 56 38.28125 53.609375 
Q 42.625 51.21875 45.40625 46.390625 
L 45.40625 54.6875 
L 54.390625 54.6875 
z
" id="DejaVuSans-103"/>
     </defs>
     <use xlink:href="#DejaVuSans-67"/>
     <use x="69.824219" xlink:href="#DejaVuSans-111"/>
     <use x="131.005859" xlink:href="#DejaVuSans-110"/>
     <use x="194.384766" xlink:href="#DejaVuSans-100"/>
     <use x="257.861328" xlink:href="#DejaVuSans-117"/>
     <use x="321.240234" xlink:href="#DejaVuSans-99"/>
     <use x="376.220703" xlink:href="#DejaVuSans-116"/>
     <use x="415.429688" xlink:href="#DejaVuSans-97"/>
     <use x="476.708984" xlink:href="#DejaVuSans-110"/>
     <use x="540.087891" xlink:href="#DejaVuSans-99"/>
     <use x="595.068359" xlink:href="#DejaVuSans-101"/>
     <use x="656.591797" xlink:href="#DejaVuSans-32"/>
     <use x="688.378906" xlink:href="#DejaVuSans-68"/>
     <use x="765.380859" xlink:href="#DejaVuSans-105"/>
     <use x="793.164062" xlink:href="#DejaVuSans-115"/>
     <use x="845.263672" xlink:href="#DejaVuSans-116"/>
     <use x="884.472656" xlink:href="#DejaVuSans-46"/>
     <use x="916.259766" xlink:href="#DejaVuSans-32"/>
     <use x="948.046875" xlink:href="#DejaVuSans-66"/>
     <use x="1016.650391" xlink:href="#DejaVuSans-114"/>
     <use x="1055.513672" xlink:href="#DejaVuSans-111"/>
     <use x="1116.695312" xlink:href="#DejaVuSans-97"/>
     <use x="1177.974609" xlink:href="#DejaVuSans-100"/>
     <use x="1241.451172" xlink:href="#DejaVuSans-101"/>
     <use x="1302.974609" xlink:href="#DejaVuSans-110"/>
     <use x="1366.353516" xlink:href="#DejaVuSans-105"/>
     <use x="1394.136719" xlink:href="#DejaVuSans-110"/>
     <use x="1457.515625" xlink:href="#DejaVuSans-103"/>
    </g>
    <!-- (Tech A, 1hr Bake @ Temp T) -->
    <g transform="translate(82.050312 29.7555)scale(0.12 -0.12)">
     <defs>
      <path d="M -0.296875 72.90625 
L 61.375 72.90625 
L 61.375 64.59375 
L 35.5 64.59375 
L 35.5 0 
L 25.59375 0 
L 25.59375 64.59375 
L -0.296875 64.59375 
z
" id="DejaVuSans-84"/>
      <path d="M 54.890625 33.015625 
L 54.890625 0 
L 45.90625 0 
L 45.90625 32.71875 
Q 45.90625 40.484375 42.875 44.328125 
Q 39.84375 48.1875 33.796875 48.1875 
Q 26.515625 48.1875 22.3125 43.546875 
Q 18.109375 38.921875 18.109375 30.90625 
L 18.109375 0 
L 9.078125 0 
L 9.078125 75.984375 
L 18.109375 75.984375 
L 18.109375 46.1875 
Q 21.34375 51.125 25.703125 53.5625 
Q 30.078125 56 35.796875 56 
Q 45.21875 56 50.046875 50.171875 
Q 54.890625 44.34375 54.890625 33.015625 
z
" id="DejaVuSans-104"/>
      <path d="M 34.1875 63.1875 
L 20.796875 26.90625 
L 47.609375 26.90625 
z
M 28.609375 72.90625 
L 39.796875 72.90625 
L 67.578125 0 
L 57.328125 0 
L 50.6875 18.703125 
L 17.828125 18.703125 
L 11.1875 0 
L 0.78125 0 
z
" id="DejaVuSans-65"/>
      <path d="M 11.71875 12.40625 
L 22.015625 12.40625 
L 22.015625 4 
L 14.015625 -11.625 
L 7.71875 -11.625 
L 11.71875 4 
z
" id="DejaVuSans-44"/>
      <path d="M 9.078125 75.984375 
L 18.109375 75.984375 
L 18.109375 31.109375 
L 44.921875 54.6875 
L 56.390625 54.6875 
L 27.390625 29.109375 
L 57.625 0 
L 45.90625 0 
L 18.109375 26.703125 
L 18.109375 0 
L 9.078125 0 
z
" id="DejaVuSans-107"/>
      <path d="M 37.203125 26.21875 
Q 37.203125 19.234375 40.671875 15.25 
Q 44.140625 11.28125 50.203125 11.28125 
Q 56.203125 11.28125 59.640625 15.28125 
Q 63.09375 19.28125 63.09375 26.21875 
Q 63.09375 33.0625 59.578125 37.078125 
Q 56.0625 41.109375 50.09375 41.109375 
Q 44.1875 41.109375 40.6875 37.109375 
Q 37.203125 33.109375 37.203125 26.21875 
z
M 63.8125 11.625 
Q 60.890625 7.859375 57.109375 6.078125 
Q 53.328125 4.296875 48.296875 4.296875 
Q 39.890625 4.296875 34.640625 10.375 
Q 29.390625 16.453125 29.390625 26.21875 
Q 29.390625 35.984375 34.65625 42.078125 
Q 39.9375 48.1875 48.296875 48.1875 
Q 53.328125 48.1875 57.125 46.359375 
Q 60.9375 44.53125 63.8125 40.828125 
L 63.8125 47.21875 
L 70.796875 47.21875 
L 70.796875 11.28125 
Q 77.9375 12.359375 81.953125 17.796875 
Q 85.984375 23.25 85.984375 31.890625 
Q 85.984375 37.109375 84.4375 41.703125 
Q 82.90625 46.296875 79.78125 50.203125 
Q 74.703125 56.59375 67.40625 59.984375 
Q 60.109375 63.375 51.515625 63.375 
Q 45.515625 63.375 39.984375 61.78125 
Q 34.46875 60.203125 29.78125 57.078125 
Q 22.125 52.09375 17.796875 44.015625 
Q 13.484375 35.9375 13.484375 26.515625 
Q 13.484375 18.75 16.28125 11.953125 
Q 19.09375 5.171875 24.421875 0 
Q 29.546875 -5.078125 36.28125 -7.734375 
Q 43.015625 -10.40625 50.6875 -10.40625 
Q 56.984375 -10.40625 63.0625 -8.28125 
Q 69.140625 -6.15625 74.21875 -2.203125 
L 78.609375 -7.625 
Q 72.515625 -12.359375 65.3125 -14.875 
Q 58.109375 -17.390625 50.6875 -17.390625 
Q 41.65625 -17.390625 33.640625 -14.1875 
Q 25.640625 -10.984375 19.390625 -4.890625 
Q 13.140625 1.21875 9.859375 9.25 
Q 6.59375 17.28125 6.59375 26.515625 
Q 6.59375 35.40625 9.90625 43.453125 
Q 13.234375 51.515625 19.390625 57.625 
Q 25.6875 63.8125 33.9375 67.109375 
Q 42.1875 70.40625 51.421875 70.40625 
Q 61.765625 70.40625 70.625 66.15625 
Q 79.5 61.921875 85.5 54.109375 
Q 89.15625 49.3125 91.078125 43.703125 
Q 93.015625 38.09375 93.015625 32.078125 
Q 93.015625 19.234375 85.25 11.8125 
Q 77.484375 4.390625 63.8125 4.109375 
z
" id="DejaVuSans-64"/>
      <path d="M 52 44.1875 
Q 55.375 50.25 60.0625 53.125 
Q 64.75 56 71.09375 56 
Q 79.640625 56 84.28125 50.015625 
Q 88.921875 44.046875 88.921875 33.015625 
L 88.921875 0 
L 79.890625 0 
L 79.890625 32.71875 
Q 79.890625 40.578125 77.09375 44.375 
Q 74.3125 48.1875 68.609375 48.1875 
Q 61.625 48.1875 57.5625 43.546875 
Q 53.515625 38.921875 53.515625 30.90625 
L 53.515625 0 
L 44.484375 0 
L 44.484375 32.71875 
Q 44.484375 40.625 41.703125 44.40625 
Q 38.921875 48.1875 33.109375 48.1875 
Q 26.21875 48.1875 22.15625 43.53125 
Q 18.109375 38.875 18.109375 30.90625 
L 18.109375 0 
L 9.078125 0 
L 9.078125 54.6875 
L 18.109375 54.6875 
L 18.109375 46.1875 
Q 21.1875 51.21875 25.484375 53.609375 
Q 29.78125 56 35.6875 56 
Q 41.65625 56 45.828125 52.96875 
Q 50 49.953125 52 44.1875 
z
" id="DejaVuSans-109"/>
      <path d="M 18.109375 8.203125 
L 18.109375 -20.796875 
L 9.078125 -20.796875 
L 9.078125 54.6875 
L 18.109375 54.6875 
L 18.109375 46.390625 
Q 20.953125 51.265625 25.265625 53.625 
Q 29.59375 56 35.59375 56 
Q 45.5625 56 51.78125 48.09375 
Q 58.015625 40.1875 58.015625 27.296875 
Q 58.015625 14.40625 51.78125 6.484375 
Q 45.5625 -1.421875 35.59375 -1.421875 
Q 29.59375 -1.421875 25.265625 0.953125 
Q 20.953125 3.328125 18.109375 8.203125 
z
M 48.6875 27.296875 
Q 48.6875 37.203125 44.609375 42.84375 
Q 40.53125 48.484375 33.40625 48.484375 
Q 26.265625 48.484375 22.1875 42.84375 
Q 18.109375 37.203125 18.109375 27.296875 
Q 18.109375 17.390625 22.1875 11.75 
Q 26.265625 6.109375 33.40625 6.109375 
Q 40.53125 6.109375 44.609375 11.75 
Q 48.6875 17.390625 48.6875 27.296875 
z
" id="DejaVuSans-112"/>
     </defs>
     <use xlink:href="#DejaVuSans-40"/>
     <use x="39.013672" xlink:href="#DejaVuSans-84"/>
     <use x="83.097656" xlink:href="#DejaVuSans-101"/>
     <use x="144.621094" xlink:href="#DejaVuSans-99"/>
     <use x="199.601562" xlink:href="#DejaVuSans-104"/>
     <use x="262.980469" xlink:href="#DejaVuSans-32"/>
     <use x="294.767578" xlink:href="#DejaVuSans-65"/>
     <use x="363.175781" xlink:href="#DejaVuSans-44"/>
     <use x="394.962891" xlink:href="#DejaVuSans-32"/>
     <use x="426.75" xlink:href="#DejaVuSans-49"/>
     <use x="490.373047" xlink:href="#DejaVuSans-104"/>
     <use x="553.751953" xlink:href="#DejaVuSans-114"/>
     <use x="594.865234" xlink:href="#DejaVuSans-32"/>
     <use x="626.652344" xlink:href="#DejaVuSans-66"/>
     <use x="695.255859" xlink:href="#DejaVuSans-97"/>
     <use x="756.535156" xlink:href="#DejaVuSans-107"/>
     <use x="810.820312" xlink:href="#DejaVuSans-101"/>
     <use x="872.34375" xlink:href="#DejaVuSans-32"/>
     <use x="904.130859" xlink:href="#DejaVuSans-64"/>
     <use x="1004.130859" xlink:href="#DejaVuSans-32"/>
     <use x="1035.917969" xlink:href="#DejaVuSans-84"/>
     <use x="1080.001953" xlink:href="#DejaVuSans-101"/>
     <use x="1141.525391" xlink:href="#DejaVuSans-109"/>
     <use x="1238.9375" xlink:href="#DejaVuSans-112"/>
     <use x="1302.414062" xlink:href="#DejaVuSans-32"/>
     <use x="1334.201172" xlink:href="#DejaVuSans-84"/>
     <use x="1395.285156" xlink:href="#DejaVuSans-41"/>
    </g>
   </g>
   <g id="legend_1">
    <g id="patch_7">
     <path d="M 63.50625 87.789875 
L 222.621875 87.789875 
Q 224.621875 87.789875 224.621875 85.789875 
L 224.621875 42.7555 
Q 224.621875 40.7555 222.621875 40.7555 
L 63.50625 40.7555 
Q 61.50625 40.7555 61.50625 42.7555 
L 61.50625 85.789875 
Q 61.50625 87.789875 63.50625 87.789875 
z
" style="fill:#ffffff;opacity:0.8;stroke:#cccccc;stroke-linejoin:miter;"/>
    </g>
    <g id="line2d_39">
     <path d="M 65.50625 48.853938 
L 85.50625 48.853938 
" style="fill:none;stroke:#1f77b4;stroke-linecap:square;stroke-width:0.8;"/>
    </g>
    <g id="line2d_40"/>
    <g id="text_17">
     <!-- T=100°C -->
     <g transform="translate(87.50625 52.353938)scale(0.1 -0.1)">
      <defs>
       <path d="M 10.59375 45.40625 
L 73.1875 45.40625 
L 73.1875 37.203125 
L 10.59375 37.203125 
z
M 10.59375 25.484375 
L 73.1875 25.484375 
L 73.1875 17.1875 
L 10.59375 17.1875 
z
" id="DejaVuSans-61"/>
       <path d="M 25 67.921875 
Q 21.09375 67.921875 18.40625 65.203125 
Q 15.71875 62.5 15.71875 58.59375 
Q 15.71875 54.734375 18.40625 52.078125 
Q 21.09375 49.421875 25 49.421875 
Q 28.90625 49.421875 31.59375 52.078125 
Q 34.28125 54.734375 34.28125 58.59375 
Q 34.28125 62.453125 31.5625 65.1875 
Q 28.859375 67.921875 25 67.921875 
z
M 25 74.21875 
Q 28.125 74.21875 31 73.015625 
Q 33.890625 71.828125 35.984375 69.578125 
Q 38.234375 67.390625 39.359375 64.59375 
Q 40.484375 61.8125 40.484375 58.59375 
Q 40.484375 52.15625 35.96875 47.6875 
Q 31.453125 43.21875 24.90625 43.21875 
Q 18.3125 43.21875 13.90625 47.609375 
Q 9.515625 52 9.515625 58.59375 
Q 9.515625 65.140625 14 69.671875 
Q 18.5 74.21875 25 74.21875 
z
" id="DejaVuSans-176"/>
      </defs>
      <use xlink:href="#DejaVuSans-84"/>
      <use x="61.083984" xlink:href="#DejaVuSans-61"/>
      <use x="144.873047" xlink:href="#DejaVuSans-49"/>
      <use x="208.496094" xlink:href="#DejaVuSans-48"/>
      <use x="272.119141" xlink:href="#DejaVuSans-48"/>
      <use x="335.742188" xlink:href="#DejaVuSans-176"/>
      <use x="385.742188" xlink:href="#DejaVuSans-67"/>
     </g>
    </g>
    <g id="line2d_41">
     <path d="M 65.50625 63.532063 
L 85.50625 63.532063 
" style="fill:none;stroke:#ff7f0e;stroke-linecap:square;stroke-width:0.8;"/>
    </g>
    <g id="line2d_42"/>
    <g id="text_18">
     <!-- T=140°C -->
     <g transform="translate(87.50625 67.032063)scale(0.1 -0.1)">
      <defs>
       <path d="M 37.796875 64.3125 
L 12.890625 25.390625 
L 37.796875 25.390625 
z
M 35.203125 72.90625 
L 47.609375 72.90625 
L 47.609375 25.390625 
L 58.015625 25.390625 
L 58.015625 17.1875 
L 47.609375 17.1875 
L 47.609375 0 
L 37.796875 0 
L 37.796875 17.1875 
L 4.890625 17.1875 
L 4.890625 26.703125 
z
" id="DejaVuSans-52"/>
      </defs>
      <use xlink:href="#DejaVuSans-84"/>
      <use x="61.083984" xlink:href="#DejaVuSans-61"/>
      <use x="144.873047" xlink:href="#DejaVuSans-49"/>
      <use x="208.496094" xlink:href="#DejaVuSans-52"/>
      <use x="272.119141" xlink:href="#DejaVuSans-48"/>
      <use x="335.742188" xlink:href="#DejaVuSans-176"/>
      <use x="385.742188" xlink:href="#DejaVuSans-67"/>
     </g>
    </g>
    <g id="line2d_43">
     <path d="M 65.50625 78.210188 
L 85.50625 78.210188 
" style="fill:none;stroke:#2ca02c;stroke-linecap:square;stroke-width:0.8;"/>
    </g>
    <g id="line2d_44"/>
    <g id="text_19">
     <!-- T=180°C -->
     <g transform="translate(87.50625 81.710188)scale(0.1 -0.1)">
      <defs>
       <path d="M 31.78125 34.625 
Q 24.75 34.625 20.71875 30.859375 
Q 16.703125 27.09375 16.703125 20.515625 
Q 16.703125 13.921875 20.71875 10.15625 
Q 24.75 6.390625 31.78125 6.390625 
Q 38.8125 6.390625 42.859375 10.171875 
Q 46.921875 13.96875 46.921875 20.515625 
Q 46.921875 27.09375 42.890625 30.859375 
Q 38.875 34.625 31.78125 34.625 
z
M 21.921875 38.8125 
Q 15.578125 40.375 12.03125 44.71875 
Q 8.5 49.078125 8.5 55.328125 
Q 8.5 64.0625 14.71875 69.140625 
Q 20.953125 74.21875 31.78125 74.21875 
Q 42.671875 74.21875 48.875 69.140625 
Q 55.078125 64.0625 55.078125 55.328125 
Q 55.078125 49.078125 51.53125 44.71875 
Q 48 40.375 41.703125 38.8125 
Q 48.828125 37.15625 52.796875 32.3125 
Q 56.78125 27.484375 56.78125 20.515625 
Q 56.78125 9.90625 50.3125 4.234375 
Q 43.84375 -1.421875 31.78125 -1.421875 
Q 19.734375 -1.421875 13.25 4.234375 
Q 6.78125 9.90625 6.78125 20.515625 
Q 6.78125 27.484375 10.78125 32.3125 
Q 14.796875 37.15625 21.921875 38.8125 
z
M 18.3125 54.390625 
Q 18.3125 48.734375 21.84375 45.5625 
Q 25.390625 42.390625 31.78125 42.390625 
Q 38.140625 42.390625 41.71875 45.5625 
Q 45.3125 48.734375 45.3125 54.390625 
Q 45.3125 60.0625 41.71875 63.234375 
Q 38.140625 66.40625 31.78125 66.40625 
Q 25.390625 66.40625 21.84375 63.234375 
Q 18.3125 60.0625 18.3125 54.390625 
z
" id="DejaVuSans-56"/>
      </defs>
      <use xlink:href="#DejaVuSans-84"/>
      <use x="61.083984" xlink:href="#DejaVuSans-61"/>
      <use x="144.873047" xlink:href="#DejaVuSans-49"/>
      <use x="208.496094" xlink:href="#DejaVuSans-56"/>
      <use x="272.119141" xlink:href="#DejaVuSans-48"/>
      <use x="335.742188" xlink:href="#DejaVuSans-176"/>
      <use x="385.742188" xlink:href="#DejaVuSans-67"/>
     </g>
    </g>
    <g id="line2d_45">
     <path d="M 153.064063 48.853938 
L 173.064063 48.853938 
" style="fill:none;stroke:#d62728;stroke-linecap:square;stroke-width:0.8;"/>
    </g>
    <g id="line2d_46"/>
    <g id="text_20">
     <!-- T=220°C -->
     <g transform="translate(175.064063 52.353938)scale(0.1 -0.1)">
      <use xlink:href="#DejaVuSans-84"/>
      <use x="61.083984" xlink:href="#DejaVuSans-61"/>
      <use x="144.873047" xlink:href="#DejaVuSans-50"/>
      <use x="208.496094" xlink:href="#DejaVuSans-50"/>
      <use x="272.119141" xlink:href="#DejaVuSans-48"/>
      <use x="335.742188" xlink:href="#DejaVuSans-176"/>
      <use x="385.742188" xlink:href="#DejaVuSans-67"/>
     </g>
    </g>
    <g id="line2d_47">
     <path d="M 153.064063 63.532063 
L 173.064063 63.532063 
" style="fill:none;stroke:#9467bd;stroke-linecap:square;stroke-width:0.8;"/>
    </g>
    <g id="line2d_48"/>
    <g id="text_21">
     <!-- T=260°C -->
     <g transform="translate(175.064063 67.032063)scale(0.1 -0.1)">
      <defs>
       <path d="M 33.015625 40.375 
Q 26.375 40.375 22.484375 35.828125 
Q 18.609375 31.296875 18.609375 23.390625 
Q 18.609375 15.53125 22.484375 10.953125 
Q 26.375 6.390625 33.015625 6.390625 
Q 39.65625 6.390625 43.53125 10.953125 
Q 47.40625 15.53125 47.40625 23.390625 
Q 47.40625 31.296875 43.53125 35.828125 
Q 39.65625 40.375 33.015625 40.375 
z
M 52.59375 71.296875 
L 52.59375 62.3125 
Q 48.875 64.0625 45.09375 64.984375 
Q 41.3125 65.921875 37.59375 65.921875 
Q 27.828125 65.921875 22.671875 59.328125 
Q 17.53125 52.734375 16.796875 39.40625 
Q 19.671875 43.65625 24.015625 45.921875 
Q 28.375 48.1875 33.59375 48.1875 
Q 44.578125 48.1875 50.953125 41.515625 
Q 57.328125 34.859375 57.328125 23.390625 
Q 57.328125 12.15625 50.6875 5.359375 
Q 44.046875 -1.421875 33.015625 -1.421875 
Q 20.359375 -1.421875 13.671875 8.265625 
Q 6.984375 17.96875 6.984375 36.375 
Q 6.984375 53.65625 15.1875 63.9375 
Q 23.390625 74.21875 37.203125 74.21875 
Q 40.921875 74.21875 44.703125 73.484375 
Q 48.484375 72.75 52.59375 71.296875 
z
" id="DejaVuSans-54"/>
      </defs>
      <use xlink:href="#DejaVuSans-84"/>
      <use x="61.083984" xlink:href="#DejaVuSans-61"/>
      <use x="144.873047" xlink:href="#DejaVuSans-50"/>
      <use x="208.496094" xlink:href="#DejaVuSans-54"/>
      <use x="272.119141" xlink:href="#DejaVuSans-48"/>
      <use x="335.742188" xlink:href="#DejaVuSans-176"/>
      <use x="385.742188" xlink:href="#DejaVuSans-67"/>
     </g>
    </g>
   </g>
  </g>
 </g>
 <defs>
  <clipPath id="p787ea6739b">
   <rect height="146.772" width="223.2" x="56.50625" y="35.7555"/>
  </clipPath>
 </defs>
</svg>
