<?xml version="1.0" encoding="utf-8" standalone="no"?>
<!DOCTYPE svg PUBLIC "-//W3C//DTD SVG 1.1//EN"
  "http://www.w3.org/Graphics/SVG/1.1/DTD/svg11.dtd">
<!-- Created with matplotlib (https://matplotlib.org/) -->
<svg height="220.08375pt" version="1.1" viewBox="0 0 280.54375 220.08375" width="280.54375pt" xmlns="http://www.w3.org/2000/svg" xmlns:xlink="http://www.w3.org/1999/xlink">
 <metadata>
  <rdf:RDF xmlns:cc="http://creativecommons.org/ns#" xmlns:dc="http://purl.org/dc/elements/1.1/" xmlns:rdf="http://www.w3.org/1999/02/22-rdf-syntax-ns#">
   <cc:Work>
    <dc:type rdf:resource="http://purl.org/dc/dcmitype/StillImage"/>
    <dc:date>2021-07-13T00:02:33.273870</dc:date>
    <dc:format>image/svg+xml</dc:format>
    <dc:creator>
     <cc:Agent>
      <dc:title>Matplotlib v3.3.3, https://matplotlib.org/</dc:title>
     </cc:Agent>
    </dc:creator>
   </cc:Work>
  </rdf:RDF>
 </metadata>
 <defs>
  <style type="text/css">*{stroke-linecap:butt;stroke-linejoin:round;}</style>
 </defs>
 <g id="figure_1">
  <g id="patch_1">
   <path d="M 0 220.08375 
L 280.54375 220.08375 
L 280.54375 -0 
L 0 -0 
z
" style="fill:none;"/>
  </g>
  <g id="axes_1">
   <g id="patch_2">
    <path d="M 50.14375 182.5275 
L 273.34375 182.5275 
L 273.34375 35.7555 
L 50.14375 35.7555 
z
" style="fill:#ffffff;"/>
   </g>
   <g id="matplotlib.axis_1">
    <g id="xtick_1">
     <g id="line2d_1">
      <defs>
       <path d="M 0 0 
L 0 3.5 
" id="m44a4fad92c" style="stroke:#000000;stroke-width:0.8;"/>
      </defs>
      <g>
       <use style="stroke:#000000;stroke-width:0.8;" x="60.289205" xlink:href="#m44a4fad92c" y="182.5275"/>
      </g>
     </g>
     <g id="text_1">
      <!-- 0 -->
      <g transform="translate(57.107955 197.125938)scale(0.1 -0.1)">
       <defs>
        <path d="M 31.78125 66.40625 
Q 24.171875 66.40625 20.328125 58.90625 
Q 16.5 51.421875 16.5 36.375 
Q 16.5 21.390625 20.328125 13.890625 
Q 24.171875 6.390625 31.78125 6.390625 
Q 39.453125 6.390625 43.28125 13.890625 
Q 47.125 21.390625 47.125 36.375 
Q 47.125 51.421875 43.28125 58.90625 
Q 39.453125 66.40625 31.78125 66.40625 
z
M 31.78125 74.21875 
Q 44.046875 74.21875 50.515625 64.515625 
Q 56.984375 54.828125 56.984375 36.375 
Q 56.984375 17.96875 50.515625 8.265625 
Q 44.046875 -1.421875 31.78125 -1.421875 
Q 19.53125 -1.421875 13.0625 8.265625 
Q 6.59375 17.96875 6.59375 36.375 
Q 6.59375 54.828125 13.0625 64.515625 
Q 19.53125 74.21875 31.78125 74.21875 
z
" id="DejaVuSans-48"/>
       </defs>
       <use xlink:href="#DejaVuSans-48"/>
      </g>
     </g>
    </g>
    <g id="xtick_2">
     <g id="line2d_2">
      <g>
       <use style="stroke:#000000;stroke-width:0.8;" x="106.404907" xlink:href="#m44a4fad92c" y="182.5275"/>
      </g>
     </g>
     <g id="text_2">
      <!-- 10 -->
      <g transform="translate(100.042407 197.125938)scale(0.1 -0.1)">
       <defs>
        <path d="M 12.40625 8.296875 
L 28.515625 8.296875 
L 28.515625 63.921875 
L 10.984375 60.40625 
L 10.984375 69.390625 
L 28.421875 72.90625 
L 38.28125 72.90625 
L 38.28125 8.296875 
L 54.390625 8.296875 
L 54.390625 0 
L 12.40625 0 
z
" id="DejaVuSans-49"/>
       </defs>
       <use xlink:href="#DejaVuSans-49"/>
       <use x="63.623047" xlink:href="#DejaVuSans-48"/>
      </g>
     </g>
    </g>
    <g id="xtick_3">
     <g id="line2d_3">
      <g>
       <use style="stroke:#000000;stroke-width:0.8;" x="152.52061" xlink:href="#m44a4fad92c" y="182.5275"/>
      </g>
     </g>
     <g id="text_3">
      <!-- 20 -->
      <g transform="translate(146.15811 197.125938)scale(0.1 -0.1)">
       <defs>
        <path d="M 19.1875 8.296875 
L 53.609375 8.296875 
L 53.609375 0 
L 7.328125 0 
L 7.328125 8.296875 
Q 12.9375 14.109375 22.625 23.890625 
Q 32.328125 33.6875 34.8125 36.53125 
Q 39.546875 41.84375 41.421875 45.53125 
Q 43.3125 49.21875 43.3125 52.78125 
Q 43.3125 58.59375 39.234375 62.25 
Q 35.15625 65.921875 28.609375 65.921875 
Q 23.96875 65.921875 18.8125 64.3125 
Q 13.671875 62.703125 7.8125 59.421875 
L 7.8125 69.390625 
Q 13.765625 71.78125 18.9375 73 
Q 24.125 74.21875 28.421875 74.21875 
Q 39.75 74.21875 46.484375 68.546875 
Q 53.21875 62.890625 53.21875 53.421875 
Q 53.21875 48.921875 51.53125 44.890625 
Q 49.859375 40.875 45.40625 35.40625 
Q 44.1875 33.984375 37.640625 27.21875 
Q 31.109375 20.453125 19.1875 8.296875 
z
" id="DejaVuSans-50"/>
       </defs>
       <use xlink:href="#DejaVuSans-50"/>
       <use x="63.623047" xlink:href="#DejaVuSans-48"/>
      </g>
     </g>
    </g>
    <g id="xtick_4">
     <g id="line2d_4">
      <g>
       <use style="stroke:#000000;stroke-width:0.8;" x="198.636312" xlink:href="#m44a4fad92c" y="182.5275"/>
      </g>
     </g>
     <g id="text_4">
      <!-- 30 -->
      <g transform="translate(192.273812 197.125938)scale(0.1 -0.1)">
       <defs>
        <path d="M 40.578125 39.3125 
Q 47.65625 37.796875 51.625 33 
Q 55.609375 28.21875 55.609375 21.1875 
Q 55.609375 10.40625 48.1875 4.484375 
Q 40.765625 -1.421875 27.09375 -1.421875 
Q 22.515625 -1.421875 17.65625 -0.515625 
Q 12.796875 0.390625 7.625 2.203125 
L 7.625 11.71875 
Q 11.71875 9.328125 16.59375 8.109375 
Q 21.484375 6.890625 26.8125 6.890625 
Q 36.078125 6.890625 40.9375 10.546875 
Q 45.796875 14.203125 45.796875 21.1875 
Q 45.796875 27.640625 41.28125 31.265625 
Q 36.765625 34.90625 28.71875 34.90625 
L 20.21875 34.90625 
L 20.21875 43.015625 
L 29.109375 43.015625 
Q 36.375 43.015625 40.234375 45.921875 
Q 44.09375 48.828125 44.09375 54.296875 
Q 44.09375 59.90625 40.109375 62.90625 
Q 36.140625 65.921875 28.71875 65.921875 
Q 24.65625 65.921875 20.015625 65.03125 
Q 15.375 64.15625 9.8125 62.3125 
L 9.8125 71.09375 
Q 15.4375 72.65625 20.34375 73.4375 
Q 25.25 74.21875 29.59375 74.21875 
Q 40.828125 74.21875 47.359375 69.109375 
Q 53.90625 64.015625 53.90625 55.328125 
Q 53.90625 49.265625 50.4375 45.09375 
Q 46.96875 40.921875 40.578125 39.3125 
z
" id="DejaVuSans-51"/>
       </defs>
       <use xlink:href="#DejaVuSans-51"/>
       <use x="63.623047" xlink:href="#DejaVuSans-48"/>
      </g>
     </g>
    </g>
    <g id="xtick_5">
     <g id="line2d_5">
      <g>
       <use style="stroke:#000000;stroke-width:0.8;" x="244.752014" xlink:href="#m44a4fad92c" y="182.5275"/>
      </g>
     </g>
     <g id="text_5">
      <!-- 40 -->
      <g transform="translate(238.389514 197.125938)scale(0.1 -0.1)">
       <defs>
        <path d="M 37.796875 64.3125 
L 12.890625 25.390625 
L 37.796875 25.390625 
z
M 35.203125 72.90625 
L 47.609375 72.90625 
L 47.609375 25.390625 
L 58.015625 25.390625 
L 58.015625 17.1875 
L 47.609375 17.1875 
L 47.609375 0 
L 37.796875 0 
L 37.796875 17.1875 
L 4.890625 17.1875 
L 4.890625 26.703125 
z
" id="DejaVuSans-52"/>
       </defs>
       <use xlink:href="#DejaVuSans-52"/>
       <use x="63.623047" xlink:href="#DejaVuSans-48"/>
      </g>
     </g>
    </g>
    <g id="text_6">
     <!-- Conductance (µS) -->
     <g transform="translate(117.067188 210.804063)scale(0.1 -0.1)">
      <defs>
       <path d="M 64.40625 67.28125 
L 64.40625 56.890625 
Q 59.421875 61.53125 53.78125 63.8125 
Q 48.140625 66.109375 41.796875 66.109375 
Q 29.296875 66.109375 22.65625 58.46875 
Q 16.015625 50.828125 16.015625 36.375 
Q 16.015625 21.96875 22.65625 14.328125 
Q 29.296875 6.6875 41.796875 6.6875 
Q 48.140625 6.6875 53.78125 8.984375 
Q 59.421875 11.28125 64.40625 15.921875 
L 64.40625 5.609375 
Q 59.234375 2.09375 53.4375 0.328125 
Q 47.65625 -1.421875 41.21875 -1.421875 
Q 24.65625 -1.421875 15.125 8.703125 
Q 5.609375 18.84375 5.609375 36.375 
Q 5.609375 53.953125 15.125 64.078125 
Q 24.65625 74.21875 41.21875 74.21875 
Q 47.75 74.21875 53.53125 72.484375 
Q 59.328125 70.75 64.40625 67.28125 
z
" id="DejaVuSans-67"/>
       <path d="M 30.609375 48.390625 
Q 23.390625 48.390625 19.1875 42.75 
Q 14.984375 37.109375 14.984375 27.296875 
Q 14.984375 17.484375 19.15625 11.84375 
Q 23.34375 6.203125 30.609375 6.203125 
Q 37.796875 6.203125 41.984375 11.859375 
Q 46.1875 17.53125 46.1875 27.296875 
Q 46.1875 37.015625 41.984375 42.703125 
Q 37.796875 48.390625 30.609375 48.390625 
z
M 30.609375 56 
Q 42.328125 56 49.015625 48.375 
Q 55.71875 40.765625 55.71875 27.296875 
Q 55.71875 13.875 49.015625 6.21875 
Q 42.328125 -1.421875 30.609375 -1.421875 
Q 18.84375 -1.421875 12.171875 6.21875 
Q 5.515625 13.875 5.515625 27.296875 
Q 5.515625 40.765625 12.171875 48.375 
Q 18.84375 56 30.609375 56 
z
" id="DejaVuSans-111"/>
       <path d="M 54.890625 33.015625 
L 54.890625 0 
L 45.90625 0 
L 45.90625 32.71875 
Q 45.90625 40.484375 42.875 44.328125 
Q 39.84375 48.1875 33.796875 48.1875 
Q 26.515625 48.1875 22.3125 43.546875 
Q 18.109375 38.921875 18.109375 30.90625 
L 18.109375 0 
L 9.078125 0 
L 9.078125 54.6875 
L 18.109375 54.6875 
L 18.109375 46.1875 
Q 21.34375 51.125 25.703125 53.5625 
Q 30.078125 56 35.796875 56 
Q 45.21875 56 50.046875 50.171875 
Q 54.890625 44.34375 54.890625 33.015625 
z
" id="DejaVuSans-110"/>
       <path d="M 45.40625 46.390625 
L 45.40625 75.984375 
L 54.390625 75.984375 
L 54.390625 0 
L 45.40625 0 
L 45.40625 8.203125 
Q 42.578125 3.328125 38.25 0.953125 
Q 33.9375 -1.421875 27.875 -1.421875 
Q 17.96875 -1.421875 11.734375 6.484375 
Q 5.515625 14.40625 5.515625 27.296875 
Q 5.515625 40.1875 11.734375 48.09375 
Q 17.96875 56 27.875 56 
Q 33.9375 56 38.25 53.625 
Q 42.578125 51.265625 45.40625 46.390625 
z
M 14.796875 27.296875 
Q 14.796875 17.390625 18.875 11.75 
Q 22.953125 6.109375 30.078125 6.109375 
Q 37.203125 6.109375 41.296875 11.75 
Q 45.40625 17.390625 45.40625 27.296875 
Q 45.40625 37.203125 41.296875 42.84375 
Q 37.203125 48.484375 30.078125 48.484375 
Q 22.953125 48.484375 18.875 42.84375 
Q 14.796875 37.203125 14.796875 27.296875 
z
" id="DejaVuSans-100"/>
       <path d="M 8.5 21.578125 
L 8.5 54.6875 
L 17.484375 54.6875 
L 17.484375 21.921875 
Q 17.484375 14.15625 20.5 10.265625 
Q 23.53125 6.390625 29.59375 6.390625 
Q 36.859375 6.390625 41.078125 11.03125 
Q 45.3125 15.671875 45.3125 23.6875 
L 45.3125 54.6875 
L 54.296875 54.6875 
L 54.296875 0 
L 45.3125 0 
L 45.3125 8.40625 
Q 42.046875 3.421875 37.71875 1 
Q 33.40625 -1.421875 27.6875 -1.421875 
Q 18.265625 -1.421875 13.375 4.4375 
Q 8.5 10.296875 8.5 21.578125 
z
M 31.109375 56 
z
" id="DejaVuSans-117"/>
       <path d="M 48.78125 52.59375 
L 48.78125 44.1875 
Q 44.96875 46.296875 41.140625 47.34375 
Q 37.3125 48.390625 33.40625 48.390625 
Q 24.65625 48.390625 19.8125 42.84375 
Q 14.984375 37.3125 14.984375 27.296875 
Q 14.984375 17.28125 19.8125 11.734375 
Q 24.65625 6.203125 33.40625 6.203125 
Q 37.3125 6.203125 41.140625 7.25 
Q 44.96875 8.296875 48.78125 10.40625 
L 48.78125 2.09375 
Q 45.015625 0.34375 40.984375 -0.53125 
Q 36.96875 -1.421875 32.421875 -1.421875 
Q 20.0625 -1.421875 12.78125 6.34375 
Q 5.515625 14.109375 5.515625 27.296875 
Q 5.515625 40.671875 12.859375 48.328125 
Q 20.21875 56 33.015625 56 
Q 37.15625 56 41.109375 55.140625 
Q 45.0625 54.296875 48.78125 52.59375 
z
" id="DejaVuSans-99"/>
       <path d="M 18.3125 70.21875 
L 18.3125 54.6875 
L 36.8125 54.6875 
L 36.8125 47.703125 
L 18.3125 47.703125 
L 18.3125 18.015625 
Q 18.3125 11.328125 20.140625 9.421875 
Q 21.96875 7.515625 27.59375 7.515625 
L 36.8125 7.515625 
L 36.8125 0 
L 27.59375 0 
Q 17.1875 0 13.234375 3.875 
Q 9.28125 7.765625 9.28125 18.015625 
L 9.28125 47.703125 
L 2.6875 47.703125 
L 2.6875 54.6875 
L 9.28125 54.6875 
L 9.28125 70.21875 
z
" id="DejaVuSans-116"/>
       <path d="M 34.28125 27.484375 
Q 23.390625 27.484375 19.1875 25 
Q 14.984375 22.515625 14.984375 16.5 
Q 14.984375 11.71875 18.140625 8.90625 
Q 21.296875 6.109375 26.703125 6.109375 
Q 34.1875 6.109375 38.703125 11.40625 
Q 43.21875 16.703125 43.21875 25.484375 
L 43.21875 27.484375 
z
M 52.203125 31.203125 
L 52.203125 0 
L 43.21875 0 
L 43.21875 8.296875 
Q 40.140625 3.328125 35.546875 0.953125 
Q 30.953125 -1.421875 24.3125 -1.421875 
Q 15.921875 -1.421875 10.953125 3.296875 
Q 6 8.015625 6 15.921875 
Q 6 25.140625 12.171875 29.828125 
Q 18.359375 34.515625 30.609375 34.515625 
L 43.21875 34.515625 
L 43.21875 35.40625 
Q 43.21875 41.609375 39.140625 45 
Q 35.0625 48.390625 27.6875 48.390625 
Q 23 48.390625 18.546875 47.265625 
Q 14.109375 46.140625 10.015625 43.890625 
L 10.015625 52.203125 
Q 14.9375 54.109375 19.578125 55.046875 
Q 24.21875 56 28.609375 56 
Q 40.484375 56 46.34375 49.84375 
Q 52.203125 43.703125 52.203125 31.203125 
z
" id="DejaVuSans-97"/>
       <path d="M 56.203125 29.59375 
L 56.203125 25.203125 
L 14.890625 25.203125 
Q 15.484375 15.921875 20.484375 11.0625 
Q 25.484375 6.203125 34.421875 6.203125 
Q 39.59375 6.203125 44.453125 7.46875 
Q 49.3125 8.734375 54.109375 11.28125 
L 54.109375 2.78125 
Q 49.265625 0.734375 44.1875 -0.34375 
Q 39.109375 -1.421875 33.890625 -1.421875 
Q 20.796875 -1.421875 13.15625 6.1875 
Q 5.515625 13.8125 5.515625 26.8125 
Q 5.515625 40.234375 12.765625 48.109375 
Q 20.015625 56 32.328125 56 
Q 43.359375 56 49.78125 48.890625 
Q 56.203125 41.796875 56.203125 29.59375 
z
M 47.21875 32.234375 
Q 47.125 39.59375 43.09375 43.984375 
Q 39.0625 48.390625 32.421875 48.390625 
Q 24.90625 48.390625 20.390625 44.140625 
Q 15.875 39.890625 15.1875 32.171875 
z
" id="DejaVuSans-101"/>
       <path id="DejaVuSans-32"/>
       <path d="M 31 75.875 
Q 24.46875 64.65625 21.28125 53.65625 
Q 18.109375 42.671875 18.109375 31.390625 
Q 18.109375 20.125 21.3125 9.0625 
Q 24.515625 -2 31 -13.1875 
L 23.1875 -13.1875 
Q 15.875 -1.703125 12.234375 9.375 
Q 8.59375 20.453125 8.59375 31.390625 
Q 8.59375 42.28125 12.203125 53.3125 
Q 15.828125 64.359375 23.1875 75.875 
z
" id="DejaVuSans-40"/>
       <path d="M 8.5 -20.796875 
L 8.5 54.6875 
L 17.484375 54.6875 
L 17.484375 20.703125 
Q 17.484375 13.625 20.84375 10 
Q 24.21875 6.390625 30.8125 6.390625 
Q 38.03125 6.390625 41.671875 10.484375 
Q 45.3125 14.59375 45.3125 22.796875 
L 45.3125 54.6875 
L 54.296875 54.6875 
L 54.296875 12.59375 
Q 54.296875 9.671875 55.140625 8.28125 
Q 56 6.890625 57.8125 6.890625 
Q 58.25 6.890625 59.03125 7.15625 
Q 59.8125 7.421875 61.1875 8.015625 
L 61.1875 0.78125 
Q 59.1875 -0.34375 57.390625 -0.875 
Q 55.609375 -1.421875 53.90625 -1.421875 
Q 50.53125 -1.421875 48.53125 0.484375 
Q 46.53125 2.390625 45.796875 6.296875 
Q 43.359375 2.4375 39.8125 0.5 
Q 36.28125 -1.421875 31.5 -1.421875 
Q 26.515625 -1.421875 23.015625 0.484375 
Q 19.53125 2.390625 17.484375 6.203125 
L 17.484375 -20.796875 
z
" id="DejaVuSans-181"/>
       <path d="M 53.515625 70.515625 
L 53.515625 60.890625 
Q 47.90625 63.578125 42.921875 64.890625 
Q 37.9375 66.21875 33.296875 66.21875 
Q 25.25 66.21875 20.875 63.09375 
Q 16.5 59.96875 16.5 54.203125 
Q 16.5 49.359375 19.40625 46.890625 
Q 22.3125 44.4375 30.421875 42.921875 
L 36.375 41.703125 
Q 47.40625 39.59375 52.65625 34.296875 
Q 57.90625 29 57.90625 20.125 
Q 57.90625 9.515625 50.796875 4.046875 
Q 43.703125 -1.421875 29.984375 -1.421875 
Q 24.8125 -1.421875 18.96875 -0.25 
Q 13.140625 0.921875 6.890625 3.21875 
L 6.890625 13.375 
Q 12.890625 10.015625 18.65625 8.296875 
Q 24.421875 6.59375 29.984375 6.59375 
Q 38.421875 6.59375 43.015625 9.90625 
Q 47.609375 13.234375 47.609375 19.390625 
Q 47.609375 24.75 44.3125 27.78125 
Q 41.015625 30.8125 33.5 32.328125 
L 27.484375 33.5 
Q 16.453125 35.6875 11.515625 40.375 
Q 6.59375 45.0625 6.59375 53.421875 
Q 6.59375 63.09375 13.40625 68.65625 
Q 20.21875 74.21875 32.171875 74.21875 
Q 37.3125 74.21875 42.625 73.28125 
Q 47.953125 72.359375 53.515625 70.515625 
z
" id="DejaVuSans-83"/>
       <path d="M 8.015625 75.875 
L 15.828125 75.875 
Q 23.140625 64.359375 26.78125 53.3125 
Q 30.421875 42.28125 30.421875 31.390625 
Q 30.421875 20.453125 26.78125 9.375 
Q 23.140625 -1.703125 15.828125 -13.1875 
L 8.015625 -13.1875 
Q 14.5 -2 17.703125 9.0625 
Q 20.90625 20.125 20.90625 31.390625 
Q 20.90625 42.671875 17.703125 53.65625 
Q 14.5 64.65625 8.015625 75.875 
z
" id="DejaVuSans-41"/>
      </defs>
      <use xlink:href="#DejaVuSans-67"/>
      <use x="69.824219" xlink:href="#DejaVuSans-111"/>
      <use x="131.005859" xlink:href="#DejaVuSans-110"/>
      <use x="194.384766" xlink:href="#DejaVuSans-100"/>
      <use x="257.861328" xlink:href="#DejaVuSans-117"/>
      <use x="321.240234" xlink:href="#DejaVuSans-99"/>
      <use x="376.220703" xlink:href="#DejaVuSans-116"/>
      <use x="415.429688" xlink:href="#DejaVuSans-97"/>
      <use x="476.708984" xlink:href="#DejaVuSans-110"/>
      <use x="540.087891" xlink:href="#DejaVuSans-99"/>
      <use x="595.068359" xlink:href="#DejaVuSans-101"/>
      <use x="656.591797" xlink:href="#DejaVuSans-32"/>
      <use x="688.378906" xlink:href="#DejaVuSans-40"/>
      <use x="727.392578" xlink:href="#DejaVuSans-181"/>
      <use x="791.015625" xlink:href="#DejaVuSans-83"/>
      <use x="854.492188" xlink:href="#DejaVuSans-41"/>
     </g>
    </g>
   </g>
   <g id="matplotlib.axis_2">
    <g id="ytick_1">
     <g id="line2d_6">
      <defs>
       <path d="M 0 0 
L -3.5 0 
" id="m419e5afa57" style="stroke:#000000;stroke-width:0.8;"/>
      </defs>
      <g>
       <use style="stroke:#000000;stroke-width:0.8;" x="50.14375" xlink:href="#m419e5afa57" y="182.5275"/>
      </g>
     </g>
     <g id="text_7">
      <!-- 0.00 -->
      <g transform="translate(20.878125 186.326719)scale(0.1 -0.1)">
       <defs>
        <path d="M 10.6875 12.40625 
L 21 12.40625 
L 21 0 
L 10.6875 0 
z
" id="DejaVuSans-46"/>
       </defs>
       <use xlink:href="#DejaVuSans-48"/>
       <use x="63.623047" xlink:href="#DejaVuSans-46"/>
       <use x="95.410156" xlink:href="#DejaVuSans-48"/>
       <use x="159.033203" xlink:href="#DejaVuSans-48"/>
      </g>
     </g>
    </g>
    <g id="ytick_2">
     <g id="line2d_7">
      <g>
       <use style="stroke:#000000;stroke-width:0.8;" x="50.14375" xlink:href="#m419e5afa57" y="158.0655"/>
      </g>
     </g>
     <g id="text_8">
      <!-- 0.25 -->
      <g transform="translate(20.878125 161.864719)scale(0.1 -0.1)">
       <defs>
        <path d="M 10.796875 72.90625 
L 49.515625 72.90625 
L 49.515625 64.59375 
L 19.828125 64.59375 
L 19.828125 46.734375 
Q 21.96875 47.46875 24.109375 47.828125 
Q 26.265625 48.1875 28.421875 48.1875 
Q 40.625 48.1875 47.75 41.5 
Q 54.890625 34.8125 54.890625 23.390625 
Q 54.890625 11.625 47.5625 5.09375 
Q 40.234375 -1.421875 26.90625 -1.421875 
Q 22.3125 -1.421875 17.546875 -0.640625 
Q 12.796875 0.140625 7.71875 1.703125 
L 7.71875 11.625 
Q 12.109375 9.234375 16.796875 8.0625 
Q 21.484375 6.890625 26.703125 6.890625 
Q 35.15625 6.890625 40.078125 11.328125 
Q 45.015625 15.765625 45.015625 23.390625 
Q 45.015625 31 40.078125 35.4375 
Q 35.15625 39.890625 26.703125 39.890625 
Q 22.75 39.890625 18.8125 39.015625 
Q 14.890625 38.140625 10.796875 36.28125 
z
" id="DejaVuSans-53"/>
       </defs>
       <use xlink:href="#DejaVuSans-48"/>
       <use x="63.623047" xlink:href="#DejaVuSans-46"/>
       <use x="95.410156" xlink:href="#DejaVuSans-50"/>
       <use x="159.033203" xlink:href="#DejaVuSans-53"/>
      </g>
     </g>
    </g>
    <g id="ytick_3">
     <g id="line2d_8">
      <g>
       <use style="stroke:#000000;stroke-width:0.8;" x="50.14375" xlink:href="#m419e5afa57" y="133.6035"/>
      </g>
     </g>
     <g id="text_9">
      <!-- 0.50 -->
      <g transform="translate(20.878125 137.402719)scale(0.1 -0.1)">
       <use xlink:href="#DejaVuSans-48"/>
       <use x="63.623047" xlink:href="#DejaVuSans-46"/>
       <use x="95.410156" xlink:href="#DejaVuSans-53"/>
       <use x="159.033203" xlink:href="#DejaVuSans-48"/>
      </g>
     </g>
    </g>
    <g id="ytick_4">
     <g id="line2d_9">
      <g>
       <use style="stroke:#000000;stroke-width:0.8;" x="50.14375" xlink:href="#m419e5afa57" y="109.1415"/>
      </g>
     </g>
     <g id="text_10">
      <!-- 0.75 -->
      <g transform="translate(20.878125 112.940719)scale(0.1 -0.1)">
       <defs>
        <path d="M 8.203125 72.90625 
L 55.078125 72.90625 
L 55.078125 68.703125 
L 28.609375 0 
L 18.3125 0 
L 43.21875 64.59375 
L 8.203125 64.59375 
z
" id="DejaVuSans-55"/>
       </defs>
       <use xlink:href="#DejaVuSans-48"/>
       <use x="63.623047" xlink:href="#DejaVuSans-46"/>
       <use x="95.410156" xlink:href="#DejaVuSans-55"/>
       <use x="159.033203" xlink:href="#DejaVuSans-53"/>
      </g>
     </g>
    </g>
    <g id="ytick_5">
     <g id="line2d_10">
      <g>
       <use style="stroke:#000000;stroke-width:0.8;" x="50.14375" xlink:href="#m419e5afa57" y="84.6795"/>
      </g>
     </g>
     <g id="text_11">
      <!-- 1.00 -->
      <g transform="translate(20.878125 88.478719)scale(0.1 -0.1)">
       <use xlink:href="#DejaVuSans-49"/>
       <use x="63.623047" xlink:href="#DejaVuSans-46"/>
       <use x="95.410156" xlink:href="#DejaVuSans-48"/>
       <use x="159.033203" xlink:href="#DejaVuSans-48"/>
      </g>
     </g>
    </g>
    <g id="ytick_6">
     <g id="line2d_11">
      <g>
       <use style="stroke:#000000;stroke-width:0.8;" x="50.14375" xlink:href="#m419e5afa57" y="60.2175"/>
      </g>
     </g>
     <g id="text_12">
      <!-- 1.25 -->
      <g transform="translate(20.878125 64.016719)scale(0.1 -0.1)">
       <use xlink:href="#DejaVuSans-49"/>
       <use x="63.623047" xlink:href="#DejaVuSans-46"/>
       <use x="95.410156" xlink:href="#DejaVuSans-50"/>
       <use x="159.033203" xlink:href="#DejaVuSans-53"/>
      </g>
     </g>
    </g>
    <g id="ytick_7">
     <g id="line2d_12">
      <g>
       <use style="stroke:#000000;stroke-width:0.8;" x="50.14375" xlink:href="#m419e5afa57" y="35.7555"/>
      </g>
     </g>
     <g id="text_13">
      <!-- 1.50 -->
      <g transform="translate(20.878125 39.554719)scale(0.1 -0.1)">
       <use xlink:href="#DejaVuSans-49"/>
       <use x="63.623047" xlink:href="#DejaVuSans-46"/>
       <use x="95.410156" xlink:href="#DejaVuSans-53"/>
       <use x="159.033203" xlink:href="#DejaVuSans-48"/>
      </g>
     </g>
    </g>
    <g id="text_14">
     <!-- KDE Probability Density -->
     <g transform="translate(14.798438 168.045406)rotate(-90)scale(0.1 -0.1)">
      <defs>
       <path d="M 9.8125 72.90625 
L 19.671875 72.90625 
L 19.671875 42.09375 
L 52.390625 72.90625 
L 65.09375 72.90625 
L 28.90625 38.921875 
L 67.671875 0 
L 54.6875 0 
L 19.671875 35.109375 
L 19.671875 0 
L 9.8125 0 
z
" id="DejaVuSans-75"/>
       <path d="M 19.671875 64.796875 
L 19.671875 8.109375 
L 31.59375 8.109375 
Q 46.6875 8.109375 53.6875 14.9375 
Q 60.6875 21.78125 60.6875 36.53125 
Q 60.6875 51.171875 53.6875 57.984375 
Q 46.6875 64.796875 31.59375 64.796875 
z
M 9.8125 72.90625 
L 30.078125 72.90625 
Q 51.265625 72.90625 61.171875 64.09375 
Q 71.09375 55.28125 71.09375 36.53125 
Q 71.09375 17.671875 61.125 8.828125 
Q 51.171875 0 30.078125 0 
L 9.8125 0 
z
" id="DejaVuSans-68"/>
       <path d="M 9.8125 72.90625 
L 55.90625 72.90625 
L 55.90625 64.59375 
L 19.671875 64.59375 
L 19.671875 43.015625 
L 54.390625 43.015625 
L 54.390625 34.71875 
L 19.671875 34.71875 
L 19.671875 8.296875 
L 56.78125 8.296875 
L 56.78125 0 
L 9.8125 0 
z
" id="DejaVuSans-69"/>
       <path d="M 19.671875 64.796875 
L 19.671875 37.40625 
L 32.078125 37.40625 
Q 38.96875 37.40625 42.71875 40.96875 
Q 46.484375 44.53125 46.484375 51.125 
Q 46.484375 57.671875 42.71875 61.234375 
Q 38.96875 64.796875 32.078125 64.796875 
z
M 9.8125 72.90625 
L 32.078125 72.90625 
Q 44.34375 72.90625 50.609375 67.359375 
Q 56.890625 61.8125 56.890625 51.125 
Q 56.890625 40.328125 50.609375 34.8125 
Q 44.34375 29.296875 32.078125 29.296875 
L 19.671875 29.296875 
L 19.671875 0 
L 9.8125 0 
z
" id="DejaVuSans-80"/>
       <path d="M 41.109375 46.296875 
Q 39.59375 47.171875 37.8125 47.578125 
Q 36.03125 48 33.890625 48 
Q 26.265625 48 22.1875 43.046875 
Q 18.109375 38.09375 18.109375 28.8125 
L 18.109375 0 
L 9.078125 0 
L 9.078125 54.6875 
L 18.109375 54.6875 
L 18.109375 46.1875 
Q 20.953125 51.171875 25.484375 53.578125 
Q 30.03125 56 36.53125 56 
Q 37.453125 56 38.578125 55.875 
Q 39.703125 55.765625 41.0625 55.515625 
z
" id="DejaVuSans-114"/>
       <path d="M 48.6875 27.296875 
Q 48.6875 37.203125 44.609375 42.84375 
Q 40.53125 48.484375 33.40625 48.484375 
Q 26.265625 48.484375 22.1875 42.84375 
Q 18.109375 37.203125 18.109375 27.296875 
Q 18.109375 17.390625 22.1875 11.75 
Q 26.265625 6.109375 33.40625 6.109375 
Q 40.53125 6.109375 44.609375 11.75 
Q 48.6875 17.390625 48.6875 27.296875 
z
M 18.109375 46.390625 
Q 20.953125 51.265625 25.265625 53.625 
Q 29.59375 56 35.59375 56 
Q 45.5625 56 51.78125 48.09375 
Q 58.015625 40.1875 58.015625 27.296875 
Q 58.015625 14.40625 51.78125 6.484375 
Q 45.5625 -1.421875 35.59375 -1.421875 
Q 29.59375 -1.421875 25.265625 0.953125 
Q 20.953125 3.328125 18.109375 8.203125 
L 18.109375 0 
L 9.078125 0 
L 9.078125 75.984375 
L 18.109375 75.984375 
z
" id="DejaVuSans-98"/>
       <path d="M 9.421875 54.6875 
L 18.40625 54.6875 
L 18.40625 0 
L 9.421875 0 
z
M 9.421875 75.984375 
L 18.40625 75.984375 
L 18.40625 64.59375 
L 9.421875 64.59375 
z
" id="DejaVuSans-105"/>
       <path d="M 9.421875 75.984375 
L 18.40625 75.984375 
L 18.40625 0 
L 9.421875 0 
z
" id="DejaVuSans-108"/>
       <path d="M 32.171875 -5.078125 
Q 28.375 -14.84375 24.75 -17.8125 
Q 21.140625 -20.796875 15.09375 -20.796875 
L 7.90625 -20.796875 
L 7.90625 -13.28125 
L 13.1875 -13.28125 
Q 16.890625 -13.28125 18.9375 -11.515625 
Q 21 -9.765625 23.484375 -3.21875 
L 25.09375 0.875 
L 2.984375 54.6875 
L 12.5 54.6875 
L 29.59375 11.921875 
L 46.6875 54.6875 
L 56.203125 54.6875 
z
" id="DejaVuSans-121"/>
       <path d="M 44.28125 53.078125 
L 44.28125 44.578125 
Q 40.484375 46.53125 36.375 47.5 
Q 32.28125 48.484375 27.875 48.484375 
Q 21.1875 48.484375 17.84375 46.4375 
Q 14.5 44.390625 14.5 40.28125 
Q 14.5 37.15625 16.890625 35.375 
Q 19.28125 33.59375 26.515625 31.984375 
L 29.59375 31.296875 
Q 39.15625 29.25 43.1875 25.515625 
Q 47.21875 21.78125 47.21875 15.09375 
Q 47.21875 7.46875 41.1875 3.015625 
Q 35.15625 -1.421875 24.609375 -1.421875 
Q 20.21875 -1.421875 15.453125 -0.5625 
Q 10.6875 0.296875 5.421875 2 
L 5.421875 11.28125 
Q 10.40625 8.6875 15.234375 7.390625 
Q 20.0625 6.109375 24.8125 6.109375 
Q 31.15625 6.109375 34.5625 8.28125 
Q 37.984375 10.453125 37.984375 14.40625 
Q 37.984375 18.0625 35.515625 20.015625 
Q 33.0625 21.96875 24.703125 23.78125 
L 21.578125 24.515625 
Q 13.234375 26.265625 9.515625 29.90625 
Q 5.8125 33.546875 5.8125 39.890625 
Q 5.8125 47.609375 11.28125 51.796875 
Q 16.75 56 26.8125 56 
Q 31.78125 56 36.171875 55.265625 
Q 40.578125 54.546875 44.28125 53.078125 
z
" id="DejaVuSans-115"/>
      </defs>
      <use xlink:href="#DejaVuSans-75"/>
      <use x="65.576172" xlink:href="#DejaVuSans-68"/>
      <use x="142.578125" xlink:href="#DejaVuSans-69"/>
      <use x="205.761719" xlink:href="#DejaVuSans-32"/>
      <use x="237.548828" xlink:href="#DejaVuSans-80"/>
      <use x="296.101562" xlink:href="#DejaVuSans-114"/>
      <use x="334.964844" xlink:href="#DejaVuSans-111"/>
      <use x="396.146484" xlink:href="#DejaVuSans-98"/>
      <use x="459.623047" xlink:href="#DejaVuSans-97"/>
      <use x="520.902344" xlink:href="#DejaVuSans-98"/>
      <use x="584.378906" xlink:href="#DejaVuSans-105"/>
      <use x="612.162109" xlink:href="#DejaVuSans-108"/>
      <use x="639.945312" xlink:href="#DejaVuSans-105"/>
      <use x="667.728516" xlink:href="#DejaVuSans-116"/>
      <use x="706.9375" xlink:href="#DejaVuSans-121"/>
      <use x="766.117188" xlink:href="#DejaVuSans-32"/>
      <use x="797.904297" xlink:href="#DejaVuSans-68"/>
      <use x="874.90625" xlink:href="#DejaVuSans-101"/>
      <use x="936.429688" xlink:href="#DejaVuSans-110"/>
      <use x="999.808594" xlink:href="#DejaVuSans-115"/>
      <use x="1051.908203" xlink:href="#DejaVuSans-105"/>
      <use x="1079.691406" xlink:href="#DejaVuSans-116"/>
      <use x="1118.900391" xlink:href="#DejaVuSans-121"/>
     </g>
    </g>
   </g>
   <g id="line2d_13">
    <path clip-path="url(#p1fb2ce23b4)" d="M 60.289205 171.368419 
L 61.509099 131.858922 
L 62.322362 106.017855 
L 62.728993 100.971747 
L 63.135625 98.060145 
L 63.542256 89.504415 
L 63.948888 75.979532 
L 64.355519 69.686 
L 64.76215 74.66189 
L 65.168782 85.243106 
L 65.575413 100.982669 
L 66.388676 163.647158 
L 66.795308 179.336494 
L 67.201939 182.295907 
L 67.608571 182.52057 
L 74.521305 182.5275 
L 263.198295 182.5275 
L 263.198295 182.5275 
" style="fill:none;stroke:#1f77b4;stroke-linecap:square;stroke-width:0.8;"/>
   </g>
   <g id="line2d_14">
    <path clip-path="url(#p1fb2ce23b4)" d="M 60.289205 182.5275 
L 105.018663 182.439276 
L 105.425295 181.491316 
L 105.831926 176.030156 
L 106.238558 159.570578 
L 107.051821 110.026597 
L 107.458452 98.610398 
L 107.865084 96.653115 
L 108.271715 98.100299 
L 108.678346 100.390635 
L 109.084978 101.789529 
L 109.491609 101.860164 
L 110.304872 108.138744 
L 110.711504 106.930678 
L 111.118135 106.219663 
L 111.524767 112.88587 
L 111.931398 131.484212 
L 112.338029 156.807152 
L 112.744661 174.714886 
L 113.151292 181.2163 
L 113.557924 182.412292 
L 114.371187 182.527387 
L 263.198295 182.5275 
L 263.198295 182.5275 
" style="fill:none;stroke:#1f77b4;stroke-linecap:square;stroke-width:0.8;"/>
   </g>
   <g id="line2d_15">
    <path clip-path="url(#p1fb2ce23b4)" d="M 60.289205 182.5275 
L 150.968017 182.501202 
L 151.374648 182.090779 
L 151.78128 178.911717 
L 152.187911 166.944019 
L 153.001174 122.489876 
L 153.407805 109.572858 
L 154.6277 95.688562 
L 155.034331 95.376302 
L 155.440963 98.59373 
L 155.847594 100.359304 
L 156.254225 101.501633 
L 156.660857 104.98277 
L 157.067488 109.966927 
L 157.47412 113.011421 
L 157.880751 121.774032 
L 158.694014 166.968437 
L 159.100646 179.143231 
L 159.507277 182.150255 
L 159.913908 182.506704 
L 162.353697 182.5275 
L 263.198295 182.5275 
L 263.198295 182.5275 
" style="fill:none;stroke:#1f77b4;stroke-linecap:square;stroke-width:0.8;"/>
   </g>
   <g id="line2d_16">
    <path clip-path="url(#p1fb2ce23b4)" d="M 60.289205 182.5275 
L 196.91737 182.522396 
L 197.324001 182.404124 
L 197.730633 181.078611 
L 198.137264 174.035121 
L 199.357159 120.373427 
L 199.76379 111.319536 
L 200.170422 106.295614 
L 200.577053 102.796717 
L 200.983684 97.5596 
L 201.390316 95.284617 
L 201.796947 97.210708 
L 203.016842 104.76367 
L 203.423473 104.841501 
L 203.830105 109.102754 
L 204.236736 128.27563 
L 204.643367 156.934522 
L 205.049999 175.827845 
L 205.45663 181.628597 
L 205.863262 182.468233 
L 206.676525 182.527472 
L 263.198295 182.5275 
L 263.198295 182.5275 
" style="fill:none;stroke:#1f77b4;stroke-linecap:square;stroke-width:0.8;"/>
   </g>
   <g id="line2d_17">
    <path clip-path="url(#p1fb2ce23b4)" d="M 60.289205 182.5275 
L 237.580514 182.41696 
L 237.987146 181.278633 
L 238.393777 175.041004 
L 238.800409 157.088702 
L 239.613672 100.812805 
L 240.020303 85.41782 
L 240.426935 82.564873 
L 241.240197 89.627607 
L 242.460092 108.005488 
L 243.273355 116.58239 
L 243.679986 122.297211 
L 244.086618 130.825466 
L 245.306512 176.51308 
L 245.713143 181.467497 
L 246.119775 182.42902 
L 246.933038 182.527388 
L 263.198295 182.5275 
L 263.198295 182.5275 
" style="fill:none;stroke:#1f77b4;stroke-linecap:square;stroke-width:0.8;"/>
   </g>
   <g id="line2d_18">
    <path clip-path="url(#p1fb2ce23b4)" d="M 60.289205 167.697997 
L 61.509099 130.356881 
L 62.728993 100.585013 
L 63.542256 88.138511 
L 63.948888 84.65713 
L 64.355519 85.298697 
L 64.76215 90.402367 
L 65.168782 98.660581 
L 65.575413 111.730556 
L 66.795308 168.911722 
L 67.201939 175.728056 
L 67.608571 178.503311 
L 68.015202 179.91117 
L 68.421833 180.54547 
L 69.235096 180.473255 
L 70.454991 181.754023 
L 71.268254 182.152544 
L 71.674885 182.389077 
L 72.488148 182.523371 
L 75.741199 182.484775 
L 76.147831 182.349625 
L 77.367725 181.574773 
L 77.774357 181.62491 
L 78.994251 182.360491 
L 79.400882 182.272974 
L 80.214145 181.898438 
L 81.840671 182.517731 
L 87.12688 182.5275 
L 263.198295 182.5275 
L 263.198295 182.5275 
" style="fill:none;stroke:#ff7f0e;stroke-linecap:square;stroke-width:0.8;"/>
   </g>
   <g id="line2d_19">
    <path clip-path="url(#p1fb2ce23b4)" d="M 60.289205 182.5275 
L 74.521305 182.429368 
L 77.774357 182.166211 
L 79.807514 182.275867 
L 81.43404 182.35973 
L 87.12688 182.265105 
L 90.379931 182.320054 
L 93.226352 181.961241 
L 94.852877 181.661925 
L 97.699297 181.42313 
L 98.51256 181.049666 
L 99.732455 180.154785 
L 101.35898 178.709504 
L 102.172243 177.736939 
L 102.578875 177.050756 
L 102.985506 176.133507 
L 103.392138 174.882124 
L 103.798769 173.171149 
L 104.205401 170.866126 
L 105.018663 164.055153 
L 105.831926 154.300307 
L 107.458452 132.432399 
L 107.865084 128.357872 
L 108.271715 125.433614 
L 108.678346 123.833297 
L 109.084978 123.624994 
L 109.491609 124.766784 
L 109.898241 127.120475 
L 110.711504 134.60981 
L 113.557924 165.964486 
L 114.371187 170.934233 
L 115.18445 173.952939 
L 115.997712 175.881408 
L 117.217607 177.956329 
L 118.03087 179.008372 
L 118.844133 179.815384 
L 119.657395 180.412303 
L 120.470658 180.814434 
L 124.130341 181.964621 
L 125.350236 182.172193 
L 129.009919 182.348908 
L 132.669602 182.266574 
L 137.142548 182.119887 
L 138.362442 182.025627 
L 139.582336 182.18834 
L 141.615493 182.486944 
L 144.461914 182.527408 
L 263.198295 182.5275 
L 263.198295 182.5275 
" style="fill:none;stroke:#ff7f0e;stroke-linecap:square;stroke-width:0.8;"/>
   </g>
   <g id="line2d_20">
    <path clip-path="url(#p1fb2ce23b4)" d="M 60.289205 182.5275 
L 124.536973 182.418242 
L 129.009919 182.001092 
L 130.229813 182.12432 
L 131.856339 182.29324 
L 137.142548 182.173537 
L 139.175705 182.043341 
L 140.395599 181.93141 
L 141.208862 181.690309 
L 142.022125 181.263164 
L 146.495071 178.163349 
L 147.308334 177.272933 
L 148.121597 176.049922 
L 148.934859 174.283721 
L 149.748122 171.505016 
L 150.561385 166.961502 
L 151.374648 160.052828 
L 152.594542 146.260112 
L 153.407805 137.2947 
L 154.221068 130.979601 
L 154.6277 129.275541 
L 155.034331 128.635813 
L 155.440963 129.037511 
L 155.847594 130.399574 
L 156.254225 132.605556 
L 157.067488 139.028435 
L 158.287383 151.652561 
L 159.507277 163.946737 
L 160.32054 169.931005 
L 161.133803 173.760036 
L 161.947066 175.990407 
L 162.760329 177.41952 
L 163.980223 179.047195 
L 164.793486 179.825812 
L 165.606749 180.305495 
L 166.420012 180.558027 
L 168.046537 180.755737 
L 169.673063 180.996442 
L 171.299589 181.457436 
L 173.332746 182.069261 
L 175.365903 182.413352 
L 176.992429 182.50304 
L 179.025586 182.387854 
L 180.652112 182.283813 
L 183.091901 182.476207 
L 185.938321 182.52728 
L 263.198295 182.5275 
L 263.198295 182.5275 
" style="fill:none;stroke:#ff7f0e;stroke-linecap:square;stroke-width:0.8;"/>
   </g>
   <g id="line2d_21">
    <path clip-path="url(#p1fb2ce23b4)" d="M 60.289205 182.5275 
L 182.278638 182.4613 
L 183.498532 182.157454 
L 186.344952 181.2053 
L 187.158215 181.392623 
L 187.971478 181.699471 
L 188.784741 181.725853 
L 191.22453 181.029645 
L 192.037793 180.600731 
L 192.851056 179.786798 
L 193.664318 178.508805 
L 194.477581 176.696145 
L 196.510739 171.613748 
L 196.91737 169.646644 
L 197.324001 166.549793 
L 198.137264 156.646848 
L 199.76379 131.832906 
L 200.577053 122.759648 
L 200.983684 119.255424 
L 201.390316 116.775739 
L 201.796947 115.887965 
L 202.203579 117.084737 
L 202.61021 120.497482 
L 203.423473 132.453947 
L 204.643367 153.398629 
L 205.45663 163.728126 
L 206.269893 170.107149 
L 207.083156 174.010585 
L 208.30305 178.537882 
L 209.116313 180.740575 
L 209.522945 181.386303 
L 209.929576 181.707877 
L 210.336208 181.755118 
L 211.149471 181.400287 
L 211.962733 181.13557 
L 212.369365 181.204128 
L 213.182628 181.672475 
L 213.995891 182.147902 
L 214.809154 182.284912 
L 216.435679 182.225742 
L 218.468837 182.511877 
L 223.348414 182.5275 
L 263.198295 182.5275 
L 263.198295 182.5275 
" style="fill:none;stroke:#ff7f0e;stroke-linecap:square;stroke-width:0.8;"/>
   </g>
   <g id="line2d_22">
    <path clip-path="url(#p1fb2ce23b4)" d="M 60.289205 182.5275 
L 222.12852 182.425717 
L 226.601465 181.549271 
L 229.041254 181.702379 
L 229.854517 181.330969 
L 230.66778 180.654393 
L 231.481043 179.749659 
L 232.700937 178.013425 
L 233.5142 176.561139 
L 234.734094 173.835157 
L 235.547357 171.228215 
L 236.36062 167.220502 
L 237.173883 161.546906 
L 237.987146 153.928378 
L 238.800409 144.172344 
L 240.020303 128.099241 
L 240.426935 123.997354 
L 240.833566 121.371498 
L 241.240197 120.467185 
L 241.646829 121.210301 
L 242.05346 123.275146 
L 242.866723 129.840257 
L 243.679986 138.680454 
L 244.89988 156.446496 
L 245.713143 167.356206 
L 246.526406 174.362352 
L 247.339669 178.427724 
L 248.152932 180.800329 
L 248.559563 181.451245 
L 248.966195 181.805724 
L 249.779458 182.019101 
L 252.219246 182.282772 
L 253.845772 182.094154 
L 256.285561 182.374791 
L 258.318718 182.107437 
L 261.165138 182.521847 
L 263.198295 182.527496 
L 263.198295 182.527496 
" style="fill:none;stroke:#ff7f0e;stroke-linecap:square;stroke-width:0.8;"/>
   </g>
   <g id="line2d_23">
    <path clip-path="url(#p1fb2ce23b4)" d="M 60.289205 162.084323 
L 62.322362 114.942982 
L 62.728993 108.957889 
L 63.135625 104.790258 
L 63.542256 102.519874 
L 63.948888 102.256097 
L 64.355519 104.210103 
L 64.76215 108.675133 
L 65.168782 115.814109 
L 65.982045 136.336862 
L 66.795308 157.264208 
L 67.201939 164.905078 
L 67.608571 170.128261 
L 68.015202 173.288342 
L 68.421833 175.03468 
L 68.828465 176.015123 
L 70.454991 178.546503 
L 71.268254 179.346043 
L 72.081516 179.614517 
L 74.521305 180.062761 
L 75.334568 180.624462 
L 76.554462 181.712461 
L 77.367725 182.111019 
L 78.180988 182.154894 
L 79.807514 181.892188 
L 80.620777 182.086789 
L 81.840671 182.38089 
L 82.653934 182.301046 
L 84.28046 181.940695 
L 85.093723 182.01968 
L 87.12688 182.486929 
L 89.566669 182.527488 
L 102.578875 182.431615 
L 104.205401 182.169313 
L 105.425295 182.358424 
L 106.645189 182.509526 
L 110.711504 182.5275 
L 263.198295 182.5275 
L 263.198295 182.5275 
" style="fill:none;stroke:#2ca02c;stroke-linecap:square;stroke-width:0.8;"/>
   </g>
   <g id="line2d_24">
    <path clip-path="url(#p1fb2ce23b4)" d="M 60.289205 182.527489 
L 68.421833 182.420627 
L 77.774357 182.090495 
L 81.840671 182.317692 
L 84.687091 182.241356 
L 86.720248 181.910129 
L 92.006457 180.826192 
L 93.632983 180.413828 
L 95.259509 179.770217 
L 97.292666 178.723451 
L 98.51256 177.858958 
L 99.325823 177.061206 
L 100.139086 176.00075 
L 100.952349 174.604488 
L 101.765612 172.794875 
L 102.578875 170.489573 
L 103.392138 167.621991 
L 104.612032 162.289961 
L 107.051821 150.810111 
L 107.865084 148.281973 
L 108.271715 147.488493 
L 108.678346 147.042867 
L 109.084978 146.952839 
L 109.491609 147.212735 
L 109.898241 147.805528 
L 110.304872 148.705518 
L 111.118135 151.296801 
L 112.338029 156.603684 
L 114.777818 168.250224 
L 115.591081 171.268384 
L 116.404344 173.549489 
L 117.217607 175.141877 
L 118.03087 176.217917 
L 119.250764 177.31531 
L 121.690553 179.032005 
L 123.317078 179.943956 
L 124.943604 180.619079 
L 126.57013 181.066847 
L 128.603287 181.348413 
L 131.449707 181.743719 
L 134.296127 182.169582 
L 136.735916 182.300836 
L 143.648651 182.323239 
L 147.714965 182.312502 
L 155.440963 182.48854 
L 161.133803 182.406829 
L 166.826643 182.526449 
L 263.198295 182.5275 
L 263.198295 182.5275 
" style="fill:none;stroke:#2ca02c;stroke-linecap:square;stroke-width:0.8;"/>
   </g>
   <g id="line2d_25">
    <path clip-path="url(#p1fb2ce23b4)" d="M 60.289205 182.5275 
L 96.886035 182.420476 
L 100.545718 182.416232 
L 105.018663 182.437225 
L 109.898241 182.394183 
L 115.18445 182.313832 
L 122.503816 182.073992 
L 127.790024 181.557942 
L 133.482865 181.539971 
L 135.922653 181.230447 
L 137.95581 180.805332 
L 139.582336 180.255492 
L 140.802231 179.631558 
L 142.428756 178.503755 
L 145.681808 175.889665 
L 146.495071 174.991477 
L 147.308334 173.742045 
L 148.121597 171.987268 
L 148.934859 169.626241 
L 149.748122 166.642345 
L 150.968017 161.196345 
L 153.001174 151.494187 
L 153.814437 148.492035 
L 154.221068 147.407178 
L 154.6277 146.669002 
L 155.034331 146.317061 
L 155.440963 146.376435 
L 155.847594 146.854917 
L 156.254225 147.741556 
L 157.067488 150.604566 
L 157.880751 154.549672 
L 160.32054 167.457947 
L 161.133803 170.760865 
L 161.947066 173.313414 
L 162.760329 175.188808 
L 163.573592 176.528702 
L 164.386854 177.484937 
L 165.606749 178.46357 
L 166.826643 179.124862 
L 168.8598 179.921665 
L 172.519483 181.144637 
L 174.552641 181.558823 
L 177.399061 181.823424 
L 184.718427 182.373169 
L 189.191373 182.38088 
L 193.664318 182.486507 
L 199.76379 182.527457 
L 263.198295 182.5275 
L 263.198295 182.5275 
" style="fill:none;stroke:#2ca02c;stroke-linecap:square;stroke-width:0.8;"/>
   </g>
   <g id="line2d_26">
    <path clip-path="url(#p1fb2ce23b4)" d="M 60.289205 182.5275 
L 154.221068 182.421594 
L 157.47412 182.342532 
L 159.913908 182.229174 
L 161.947066 182.147069 
L 168.046537 182.202929 
L 170.079695 182.225813 
L 173.739378 182.409032 
L 177.399061 182.199841 
L 179.432218 181.859373 
L 181.465375 181.591191 
L 183.091901 181.422454 
L 184.311795 181.082554 
L 188.784741 179.233527 
L 190.004635 178.545972 
L 191.22453 177.529335 
L 192.037793 176.589876 
L 192.851056 175.355203 
L 193.664318 173.731634 
L 194.477581 171.615885 
L 195.290844 168.897041 
L 196.104107 165.474914 
L 197.324001 159.018918 
L 199.357159 147.361399 
L 200.170422 144.201343 
L 200.577053 143.265299 
L 200.983684 142.81721 
L 201.390316 142.866452 
L 201.796947 143.393801 
L 202.203579 144.354902 
L 203.016842 147.316076 
L 204.236736 153.266811 
L 207.083156 167.653172 
L 208.30305 172.651826 
L 209.116313 175.306038 
L 209.929576 177.344374 
L 210.742839 178.7948 
L 211.556102 179.759845 
L 212.369365 180.370353 
L 213.182628 180.738007 
L 214.402522 180.995021 
L 218.062205 181.362255 
L 222.535151 182.408142 
L 224.568308 182.515227 
L 233.920831 182.5275 
L 263.198295 182.5275 
L 263.198295 182.5275 
" style="fill:none;stroke:#2ca02c;stroke-linecap:square;stroke-width:0.8;"/>
   </g>
   <g id="line2d_27">
    <path clip-path="url(#p1fb2ce23b4)" d="M 60.289205 182.5275 
L 212.775996 182.447473 
L 214.402522 182.151236 
L 215.622416 181.928634 
L 216.842311 181.979589 
L 218.468837 182.136553 
L 221.721888 181.981809 
L 222.941782 182.074689 
L 223.755045 181.972399 
L 224.97494 181.564077 
L 226.194834 180.908185 
L 227.414728 179.938874 
L 229.041254 178.301221 
L 231.074411 175.900656 
L 232.700937 173.626349 
L 233.5142 172.261845 
L 234.327463 170.464301 
L 235.140726 167.762355 
L 235.953989 163.875089 
L 239.613672 143.621399 
L 240.426935 140.523808 
L 240.833566 139.555349 
L 241.240197 139.094558 
L 241.646829 139.196034 
L 242.05346 139.884709 
L 242.460092 141.161916 
L 242.866723 143.008175 
L 243.679986 148.197033 
L 246.119775 166.94884 
L 246.933038 171.294198 
L 247.746301 174.4772 
L 248.559563 176.789517 
L 249.372826 178.438199 
L 250.186089 179.596152 
L 251.405984 180.807412 
L 252.625878 181.654359 
L 253.439141 181.981555 
L 254.659035 182.151728 
L 257.098824 182.374233 
L 259.131981 182.513954 
L 263.198295 182.527499 
L 263.198295 182.527499 
" style="fill:none;stroke:#2ca02c;stroke-linecap:square;stroke-width:0.8;"/>
   </g>
   <g id="line2d_28">
    <path clip-path="url(#p1fb2ce23b4)" d="M 60.289205 157.407685 
L 61.509099 132.889354 
L 62.322362 121.597682 
L 62.728993 118.362155 
L 63.135625 116.694461 
L 63.542256 116.503168 
L 63.948888 117.707928 
L 64.355519 120.244002 
L 64.76215 124.039773 
L 65.575413 134.792499 
L 66.795308 153.232244 
L 67.608571 161.896246 
L 68.015202 164.66397 
L 68.828465 168.078768 
L 72.488148 178.29329 
L 73.301411 179.407247 
L 74.927937 180.657986 
L 75.741199 181.21681 
L 76.554462 181.532016 
L 78.180988 181.703283 
L 81.027408 181.970037 
L 83.060565 182.298472 
L 85.906986 182.333719 
L 87.940143 182.516228 
L 92.006457 182.49116 
L 93.632983 182.269151 
L 95.259509 182.05819 
L 96.479403 182.163945 
L 98.919192 182.504012 
L 102.985506 182.527471 
L 106.238558 182.453983 
L 108.678346 182.251906 
L 112.338029 182.526198 
L 163.980223 182.5275 
L 263.198295 182.5275 
L 263.198295 182.5275 
" style="fill:none;stroke:#d62728;stroke-linecap:square;stroke-width:0.8;"/>
   </g>
   <g id="line2d_29">
    <path clip-path="url(#p1fb2ce23b4)" d="M 60.289205 182.527439 
L 69.235096 182.429443 
L 72.894779 182.163544 
L 77.774357 181.783396 
L 83.873828 181.625458 
L 85.906986 181.231368 
L 89.160037 180.324364 
L 92.006457 179.345153 
L 93.632983 178.542297 
L 95.259509 177.418061 
L 96.886035 175.99454 
L 98.919192 173.946992 
L 100.545718 172.045599 
L 101.765612 170.31592 
L 102.985506 168.227104 
L 104.612032 164.958379 
L 106.645189 160.9316 
L 107.458452 159.708646 
L 108.271715 158.882681 
L 108.678346 158.646851 
L 109.084978 158.539717 
L 109.491609 158.565893 
L 109.898241 158.72706 
L 110.711504 159.445759 
L 111.524767 160.647906 
L 112.744661 163.143246 
L 115.997712 170.641316 
L 117.217607 172.746976 
L 118.437501 174.319341 
L 119.657395 175.49329 
L 121.690553 177.01942 
L 124.536973 178.881769 
L 126.163499 179.755701 
L 127.790024 180.388144 
L 129.41655 180.775394 
L 132.669602 181.210464 
L 139.175705 182.038632 
L 142.022125 182.054656 
L 145.681808 182.061775 
L 153.001174 182.359766 
L 160.727171 182.310359 
L 170.486326 182.526542 
L 263.198295 182.5275 
L 263.198295 182.5275 
" style="fill:none;stroke:#d62728;stroke-linecap:square;stroke-width:0.8;"/>
   </g>
   <g id="line2d_30">
    <path clip-path="url(#p1fb2ce23b4)" d="M 60.289205 182.5275 
L 95.259509 182.423351 
L 105.831926 182.238368 
L 109.491609 182.257244 
L 116.810975 182.121215 
L 121.690553 181.953303 
L 124.130341 181.692988 
L 127.383393 181.058266 
L 129.823182 180.70614 
L 135.922653 180.151369 
L 137.549179 179.624901 
L 139.175705 178.850398 
L 140.802231 177.840005 
L 142.428756 176.602315 
L 144.055282 175.056203 
L 145.275176 173.560028 
L 146.495071 171.641173 
L 147.714965 169.237011 
L 149.341491 165.431492 
L 151.374648 160.689724 
L 152.187911 159.189511 
L 153.001174 158.096999 
L 153.814437 157.503495 
L 154.221068 157.412827 
L 154.6277 157.464475 
L 155.034331 157.658619 
L 155.847594 158.46072 
L 156.660857 159.764167 
L 157.880751 162.444616 
L 161.947066 172.454958 
L 163.16696 174.502533 
L 163.980223 175.527365 
L 165.200117 176.638911 
L 166.420012 177.385998 
L 168.046537 178.083937 
L 172.926115 180.014282 
L 175.772535 181.162317 
L 177.805692 181.724668 
L 179.838849 182.047999 
L 182.685269 182.245365 
L 192.037793 182.500239 
L 198.543896 182.417543 
L 207.896419 182.423783 
L 220.908625 182.527494 
L 263.198295 182.5275 
L 263.198295 182.5275 
" style="fill:none;stroke:#d62728;stroke-linecap:square;stroke-width:0.8;"/>
   </g>
   <g id="line2d_31">
    <path clip-path="url(#p1fb2ce23b4)" d="M 60.289205 182.5275 
L 135.516022 182.426043 
L 138.769073 182.407083 
L 145.681808 182.521732 
L 158.694014 182.327828 
L 161.947066 182.306078 
L 165.606749 182.295569 
L 169.673063 182.141536 
L 174.146009 182.180264 
L 178.212324 181.888939 
L 180.245481 181.54194 
L 182.278638 180.964393 
L 184.311795 180.135212 
L 187.564847 178.620438 
L 188.784741 177.79498 
L 190.004635 176.58626 
L 191.22453 174.894161 
L 192.444424 172.644281 
L 193.664318 169.69934 
L 194.884213 165.944909 
L 198.137264 155.023913 
L 198.950527 153.351657 
L 199.76379 152.417466 
L 200.170422 152.227729 
L 200.577053 152.214971 
L 200.983684 152.370675 
L 201.390316 152.685653 
L 202.203579 153.756894 
L 203.016842 155.357271 
L 203.830105 157.411616 
L 205.049999 161.13705 
L 208.30305 171.745083 
L 209.522945 174.824778 
L 210.336208 176.439092 
L 211.149471 177.704459 
L 211.962733 178.651973 
L 212.775996 179.332132 
L 213.995891 179.989693 
L 215.622416 180.512237 
L 219.688731 181.447969 
L 222.941782 182.107689 
L 224.97494 182.208911 
L 228.227991 182.336776 
L 231.887674 182.513467 
L 242.05346 182.5275 
L 263.198295 182.5275 
L 263.198295 182.5275 
" style="fill:none;stroke:#d62728;stroke-linecap:square;stroke-width:0.8;"/>
   </g>
   <g id="line2d_32">
    <path clip-path="url(#p1fb2ce23b4)" d="M 60.289205 182.5275 
L 209.116313 182.439021 
L 214.809154 182.04294 
L 216.029048 181.919912 
L 219.688731 181.261833 
L 222.941782 181.269614 
L 224.161677 180.919601 
L 225.381571 180.233659 
L 226.601465 179.18449 
L 227.82136 177.799263 
L 229.041254 176.123234 
L 230.261148 174.156806 
L 231.887674 171.023417 
L 234.327463 165.608919 
L 235.953989 161.55837 
L 237.580514 156.647531 
L 238.800409 152.951422 
L 239.613672 151.134383 
L 240.020303 150.569382 
L 240.426935 150.28113 
L 240.833566 150.287179 
L 241.240197 150.588936 
L 241.646829 151.173184 
L 242.460092 153.084372 
L 243.273355 155.763694 
L 244.89988 162.340443 
L 246.526406 168.80997 
L 247.746301 172.60102 
L 248.559563 174.478238 
L 249.372826 175.87865 
L 250.186089 176.900809 
L 251.405984 177.999238 
L 254.252404 180.069332 
L 255.878929 181.030379 
L 257.505455 181.678629 
L 259.131981 182.052386 
L 261.165138 182.222748 
L 263.198295 182.349669 
L 263.198295 182.349669 
" style="fill:none;stroke:#d62728;stroke-linecap:square;stroke-width:0.8;"/>
   </g>
   <g id="line2d_33">
    <path clip-path="url(#p1fb2ce23b4)" d="M 60.289205 155.250725 
L 61.509099 139.725378 
L 62.322362 132.240651 
L 62.728993 129.983393 
L 63.135625 128.824687 
L 63.542256 128.74543 
L 63.948888 129.65881 
L 64.355519 131.428104 
L 65.168782 136.856804 
L 68.421833 162.778647 
L 69.235096 167.265624 
L 70.048359 170.691551 
L 70.861622 173.211992 
L 71.674885 175.03959 
L 72.488148 176.381154 
L 73.708042 177.828647 
L 74.927937 178.874748 
L 76.147831 179.6506 
L 78.180988 180.62526 
L 80.620777 181.646858 
L 81.840671 181.961233 
L 83.467197 182.098254 
L 89.160037 182.147811 
L 92.006457 182.23026 
L 95.259509 182.332893 
L 99.325823 182.521361 
L 104.612032 182.463518 
L 109.898241 182.167217 
L 116.810975 182.453317 
L 121.283921 182.19421 
L 125.350236 182.516375 
L 135.10939 182.5275 
L 263.198295 182.5275 
L 263.198295 182.5275 
" style="fill:none;stroke:#9467bd;stroke-linecap:square;stroke-width:0.8;"/>
   </g>
   <g id="line2d_34">
    <path clip-path="url(#p1fb2ce23b4)" d="M 60.289205 182.525869 
L 67.201939 182.41002 
L 77.367725 181.878863 
L 81.027408 181.517399 
L 85.500354 180.79085 
L 87.940143 180.21065 
L 89.9733 179.481911 
L 92.413089 178.339236 
L 94.446246 177.172006 
L 96.479403 175.720058 
L 98.51256 173.948655 
L 100.139086 172.20255 
L 101.35898 170.555683 
L 102.578875 168.543593 
L 106.238558 162.086701 
L 107.051821 161.227365 
L 107.865084 160.756309 
L 108.678346 160.683455 
L 109.491609 160.979643 
L 110.304872 161.591227 
L 111.118135 162.456433 
L 112.338029 164.106531 
L 113.964555 166.732137 
L 117.624238 172.841212 
L 118.844133 174.449764 
L 120.064027 175.736259 
L 121.690553 177.051343 
L 123.72371 178.352175 
L 126.163499 179.676583 
L 128.196656 180.51395 
L 130.229813 181.061171 
L 133.076233 181.540813 
L 136.329285 181.89534 
L 139.582336 182.007151 
L 147.308334 182.166466 
L 153.001174 182.36606 
L 172.112852 182.468618 
L 178.212324 182.439641 
L 187.971478 182.527368 
L 263.198295 182.5275 
L 263.198295 182.5275 
" style="fill:none;stroke:#9467bd;stroke-linecap:square;stroke-width:0.8;"/>
   </g>
   <g id="line2d_35">
    <path clip-path="url(#p1fb2ce23b4)" d="M 60.289205 182.5275 
L 95.66614 182.420919 
L 101.35898 182.211387 
L 106.238558 181.965122 
L 110.711504 182.09373 
L 117.624238 182.189408 
L 120.064027 182.022961 
L 122.910447 181.563791 
L 126.163499 181.056301 
L 129.41655 180.828428 
L 132.669602 180.54799 
L 134.296127 180.212934 
L 135.922653 179.668459 
L 137.549179 178.890343 
L 139.175705 177.87108 
L 140.802231 176.596707 
L 142.428756 175.048303 
L 144.055282 173.226271 
L 146.088439 170.62112 
L 149.341491 166.009012 
L 151.374648 163.215786 
L 152.594542 161.849684 
L 153.407805 161.193172 
L 154.221068 160.820234 
L 155.034331 160.791787 
L 155.847594 161.148712 
L 156.660857 161.901356 
L 157.47412 163.023571 
L 158.694014 165.256356 
L 162.760329 173.519948 
L 163.980223 175.268188 
L 165.200117 176.55411 
L 166.420012 177.462742 
L 168.046537 178.293068 
L 171.299589 179.524542 
L 175.772535 181.101439 
L 177.805692 181.547448 
L 180.245481 181.814254 
L 183.905164 181.92377 
L 187.971478 182.110091 
L 194.07095 182.439917 
L 212.775996 182.527459 
L 263.198295 182.5275 
L 263.198295 182.5275 
" style="fill:none;stroke:#9467bd;stroke-linecap:square;stroke-width:0.8;"/>
   </g>
   <g id="line2d_36">
    <path clip-path="url(#p1fb2ce23b4)" d="M 60.289205 182.5275 
L 137.95581 182.41714 
L 142.022125 182.440264 
L 146.495071 182.41084 
L 150.561385 182.45557 
L 155.034331 182.469356 
L 169.673063 181.955271 
L 173.739378 181.700418 
L 176.179166 181.340279 
L 180.245481 180.657125 
L 181.872007 180.350488 
L 183.091901 179.912515 
L 184.311795 179.200681 
L 185.53169 178.219749 
L 192.037793 172.135199 
L 192.851056 170.965681 
L 193.664318 169.482385 
L 194.884213 166.663092 
L 198.137264 158.24113 
L 198.950527 156.831535 
L 199.76379 155.975959 
L 200.170422 155.771105 
L 200.577053 155.714396 
L 200.983684 155.800778 
L 201.796947 156.369163 
L 202.61021 157.395322 
L 203.423473 158.796045 
L 204.643367 161.456211 
L 206.269893 165.768973 
L 209.116313 173.582129 
L 210.336208 176.165324 
L 211.149471 177.495579 
L 211.962733 178.523539 
L 212.775996 179.287473 
L 213.995891 180.048922 
L 215.215785 180.499985 
L 217.248942 180.922924 
L 220.908625 181.635495 
L 223.755045 182.228746 
L 225.788203 182.410134 
L 229.041254 182.395775 
L 236.36062 182.403201 
L 246.119775 182.527467 
L 263.198295 182.5275 
L 263.198295 182.5275 
" style="fill:none;stroke:#9467bd;stroke-linecap:square;stroke-width:0.8;"/>
   </g>
   <g id="line2d_37">
    <path clip-path="url(#p1fb2ce23b4)" d="M 60.289205 182.5275 
L 184.311795 182.427457 
L 187.971478 182.343994 
L 197.730633 182.527479 
L 207.083156 182.424711 
L 211.556102 182.091349 
L 213.995891 181.65038 
L 216.029048 181.372942 
L 220.095362 181.183934 
L 221.315257 180.781094 
L 222.535151 180.139123 
L 223.755045 179.25609 
L 225.381571 177.718592 
L 228.634623 174.420429 
L 231.481043 171.994136 
L 232.294306 170.944037 
L 233.107569 169.526229 
L 233.920831 167.690817 
L 235.140726 164.247796 
L 237.580514 156.901976 
L 238.393777 155.128168 
L 239.20704 154.011723 
L 239.613672 153.733008 
L 240.020303 153.648084 
L 240.426935 153.756508 
L 240.833566 154.053578 
L 241.646829 155.177048 
L 242.460092 156.916431 
L 243.679986 160.362019 
L 246.526406 169.163064 
L 247.746301 172.147845 
L 248.966195 174.546491 
L 250.186089 176.524513 
L 251.405984 178.187421 
L 252.625878 179.517633 
L 253.845772 180.444481 
L 254.659035 180.830289 
L 255.878929 181.133616 
L 261.165138 181.923168 
L 263.198295 182.279736 
L 263.198295 182.279736 
" style="fill:none;stroke:#9467bd;stroke-linecap:square;stroke-width:0.8;"/>
   </g>
   <g id="line2d_38">
    <path clip-path="url(#p1fb2ce23b4)" d="M 60.289205 153.899454 
L 61.509099 136.400138 
L 61.91573 132.31745 
L 62.322362 129.508066 
L 62.728993 128.006332 
L 63.135625 127.740693 
L 63.542256 128.572546 
L 63.948888 130.328812 
L 64.76215 135.866776 
L 68.015202 162.2959 
L 68.828465 166.572918 
L 69.641728 169.73211 
L 70.454991 171.909944 
L 71.268254 173.221305 
L 72.081516 173.958474 
L 72.894779 174.639148 
L 73.708042 175.661253 
L 75.741199 178.731133 
L 76.554462 179.472234 
L 77.367725 179.914879 
L 80.214145 181.052274 
L 81.840671 181.873285 
L 83.060565 182.167857 
L 85.093723 182.341375 
L 86.313617 182.259059 
L 88.753406 181.993084 
L 96.886035 182.090093 
L 98.919192 182.263513 
L 101.35898 182.38281 
L 103.798769 182.518588 
L 114.371187 182.5275 
L 263.198295 182.5275 
L 263.198295 182.5275 
" style="fill:none;stroke:#8c564b;stroke-linecap:square;stroke-width:0.8;"/>
   </g>
   <g id="line2d_39">
    <path clip-path="url(#p1fb2ce23b4)" d="M 60.289205 182.259738 
L 65.575413 181.825578 
L 69.235096 181.325428 
L 72.081516 180.721905 
L 75.334568 179.796443 
L 81.840671 177.877404 
L 87.940143 176.185122 
L 92.006457 174.71732 
L 97.292666 172.829038 
L 101.35898 171.624896 
L 103.798769 171.100797 
L 105.831926 170.883997 
L 107.458452 170.918279 
L 109.084978 171.174969 
L 110.711504 171.665355 
L 112.338029 172.372458 
L 114.371187 173.493138 
L 121.283921 177.597473 
L 123.317078 178.44895 
L 125.350236 179.058701 
L 127.790024 179.537335 
L 141.208862 181.483538 
L 144.868545 181.698956 
L 167.639906 182.366794 
L 217.248942 182.5275 
L 263.198295 182.5275 
L 263.198295 182.5275 
" style="fill:none;stroke:#8c564b;stroke-linecap:square;stroke-width:0.8;"/>
   </g>
   <g id="line2d_40">
    <path clip-path="url(#p1fb2ce23b4)" d="M 60.289205 182.512614 
L 84.28046 182.267878 
L 91.193194 182.175769 
L 103.392138 182.146752 
L 107.865084 181.917429 
L 111.524767 181.511255 
L 116.404344 180.715203 
L 122.910447 179.672776 
L 126.57013 179.011039 
L 129.009919 178.33124 
L 131.449707 177.400473 
L 134.296127 176.046654 
L 142.022125 172.168405 
L 144.461914 171.294692 
L 147.308334 170.544776 
L 149.748122 170.126626 
L 151.374648 170.033655 
L 153.001174 170.174423 
L 154.221068 170.469287 
L 155.847594 171.12391 
L 157.47412 172.032648 
L 160.32054 173.948575 
L 163.980223 176.362525 
L 166.420012 177.723315 
L 168.8598 178.838764 
L 171.299589 179.689683 
L 173.739378 180.284781 
L 176.585798 180.723904 
L 180.652112 181.085539 
L 201.390316 182.430456 
L 208.30305 182.522441 
L 254.252404 182.5275 
L 263.198295 182.5275 
L 263.198295 182.5275 
" style="fill:none;stroke:#8c564b;stroke-linecap:square;stroke-width:0.8;"/>
   </g>
   <g id="line2d_41">
    <path clip-path="url(#p1fb2ce23b4)" d="M 60.289205 182.5275 
L 92.81972 182.416393 
L 99.732455 182.42441 
L 112.338029 182.527118 
L 132.26297 182.421852 
L 148.934859 182.07783 
L 154.6277 181.559156 
L 159.913908 181.169138 
L 164.386854 180.847273 
L 166.826643 180.424426 
L 168.8598 179.842452 
L 171.70622 178.746319 
L 174.959272 177.500874 
L 178.212324 176.538341 
L 181.058744 175.614236 
L 183.091901 174.718828 
L 186.344952 172.979853 
L 189.191373 171.547378 
L 191.631161 170.593087 
L 194.07095 169.875743 
L 196.104107 169.459166 
L 197.730633 169.310251 
L 199.357159 169.402874 
L 200.983684 169.7851 
L 202.61021 170.455711 
L 204.236736 171.370434 
L 206.269893 172.762158 
L 210.336208 175.916438 
L 213.182628 177.982182 
L 215.215785 179.194067 
L 217.248942 180.131764 
L 219.282099 180.802369 
L 221.721888 181.32508 
L 224.97494 181.75644 
L 229.854517 182.180975 
L 234.734094 182.367529 
L 246.526406 182.523045 
L 263.198295 182.5275 
L 263.198295 182.5275 
" style="fill:none;stroke:#8c564b;stroke-linecap:square;stroke-width:0.8;"/>
   </g>
   <g id="line2d_42">
    <path clip-path="url(#p1fb2ce23b4)" d="M 60.289205 182.5275 
L 131.043076 182.417832 
L 137.549179 182.474937 
L 148.121597 182.527414 
L 176.585798 182.42423 
L 186.751584 182.133519 
L 192.037793 182.176686 
L 196.104107 181.910507 
L 203.423473 181.44113 
L 207.489788 181.125503 
L 209.116313 180.804294 
L 210.742839 180.260559 
L 212.369365 179.464776 
L 214.402522 178.185165 
L 218.875468 175.254481 
L 225.381571 171.465257 
L 229.041254 169.051437 
L 230.66778 168.297777 
L 231.887674 167.945409 
L 233.107569 167.775815 
L 234.734094 167.798323 
L 236.36062 168.051343 
L 238.393777 168.63495 
L 240.426935 169.498031 
L 242.460092 170.643061 
L 244.493249 172.065865 
L 246.933038 174.08936 
L 251.812615 178.320733 
L 253.845772 179.721997 
L 255.472298 180.598492 
L 257.098824 181.261766 
L 259.131981 181.826868 
L 261.165138 182.156162 
L 263.198295 182.312045 
L 263.198295 182.312045 
" style="fill:none;stroke:#8c564b;stroke-linecap:square;stroke-width:0.8;"/>
   </g>
   <g id="patch_3">
    <path d="M 50.14375 182.5275 
L 50.14375 35.7555 
" style="fill:none;stroke:#000000;stroke-linecap:square;stroke-linejoin:miter;stroke-width:0.8;"/>
   </g>
   <g id="patch_4">
    <path d="M 273.34375 182.5275 
L 273.34375 35.7555 
" style="fill:none;stroke:#000000;stroke-linecap:square;stroke-linejoin:miter;stroke-width:0.8;"/>
   </g>
   <g id="patch_5">
    <path d="M 50.14375 182.5275 
L 273.34375 182.5275 
" style="fill:none;stroke:#000000;stroke-linecap:square;stroke-linejoin:miter;stroke-width:0.8;"/>
   </g>
   <g id="patch_6">
    <path d="M 50.14375 35.7555 
L 273.34375 35.7555 
" style="fill:none;stroke:#000000;stroke-linecap:square;stroke-linejoin:miter;stroke-width:0.8;"/>
   </g>
   <g id="text_15">
    <!-- Conductance Dist. Broadening -->
    <g transform="translate(70.48375 16.318125)scale(0.12 -0.12)">
     <defs>
      <path d="M 19.671875 34.8125 
L 19.671875 8.109375 
L 35.5 8.109375 
Q 43.453125 8.109375 47.28125 11.40625 
Q 51.125 14.703125 51.125 21.484375 
Q 51.125 28.328125 47.28125 31.5625 
Q 43.453125 34.8125 35.5 34.8125 
z
M 19.671875 64.796875 
L 19.671875 42.828125 
L 34.28125 42.828125 
Q 41.5 42.828125 45.03125 45.53125 
Q 48.578125 48.25 48.578125 53.8125 
Q 48.578125 59.328125 45.03125 62.0625 
Q 41.5 64.796875 34.28125 64.796875 
z
M 9.8125 72.90625 
L 35.015625 72.90625 
Q 46.296875 72.90625 52.390625 68.21875 
Q 58.5 63.53125 58.5 54.890625 
Q 58.5 48.1875 55.375 44.234375 
Q 52.25 40.28125 46.1875 39.3125 
Q 53.46875 37.75 57.5 32.78125 
Q 61.53125 27.828125 61.53125 20.40625 
Q 61.53125 10.640625 54.890625 5.3125 
Q 48.25 0 35.984375 0 
L 9.8125 0 
z
" id="DejaVuSans-66"/>
      <path d="M 45.40625 27.984375 
Q 45.40625 37.75 41.375 43.109375 
Q 37.359375 48.484375 30.078125 48.484375 
Q 22.859375 48.484375 18.828125 43.109375 
Q 14.796875 37.75 14.796875 27.984375 
Q 14.796875 18.265625 18.828125 12.890625 
Q 22.859375 7.515625 30.078125 7.515625 
Q 37.359375 7.515625 41.375 12.890625 
Q 45.40625 18.265625 45.40625 27.984375 
z
M 54.390625 6.78125 
Q 54.390625 -7.171875 48.1875 -13.984375 
Q 42 -20.796875 29.203125 -20.796875 
Q 24.46875 -20.796875 20.265625 -20.09375 
Q 16.0625 -19.390625 12.109375 -17.921875 
L 12.109375 -9.1875 
Q 16.0625 -11.328125 19.921875 -12.34375 
Q 23.78125 -13.375 27.78125 -13.375 
Q 36.625 -13.375 41.015625 -8.765625 
Q 45.40625 -4.15625 45.40625 5.171875 
L 45.40625 9.625 
Q 42.625 4.78125 38.28125 2.390625 
Q 33.9375 0 27.875 0 
Q 17.828125 0 11.671875 7.65625 
Q 5.515625 15.328125 5.515625 27.984375 
Q 5.515625 40.671875 11.671875 48.328125 
Q 17.828125 56 27.875 56 
Q 33.9375 56 38.28125 53.609375 
Q 42.625 51.21875 45.40625 46.390625 
L 45.40625 54.6875 
L 54.390625 54.6875 
z
" id="DejaVuSans-103"/>
     </defs>
     <use xlink:href="#DejaVuSans-67"/>
     <use x="69.824219" xlink:href="#DejaVuSans-111"/>
     <use x="131.005859" xlink:href="#DejaVuSans-110"/>
     <use x="194.384766" xlink:href="#DejaVuSans-100"/>
     <use x="257.861328" xlink:href="#DejaVuSans-117"/>
     <use x="321.240234" xlink:href="#DejaVuSans-99"/>
     <use x="376.220703" xlink:href="#DejaVuSans-116"/>
     <use x="415.429688" xlink:href="#DejaVuSans-97"/>
     <use x="476.708984" xlink:href="#DejaVuSans-110"/>
     <use x="540.087891" xlink:href="#DejaVuSans-99"/>
     <use x="595.068359" xlink:href="#DejaVuSans-101"/>
     <use x="656.591797" xlink:href="#DejaVuSans-32"/>
     <use x="688.378906" xlink:href="#DejaVuSans-68"/>
     <use x="765.380859" xlink:href="#DejaVuSans-105"/>
     <use x="793.164062" xlink:href="#DejaVuSans-115"/>
     <use x="845.263672" xlink:href="#DejaVuSans-116"/>
     <use x="884.472656" xlink:href="#DejaVuSans-46"/>
     <use x="916.259766" xlink:href="#DejaVuSans-32"/>
     <use x="948.046875" xlink:href="#DejaVuSans-66"/>
     <use x="1016.650391" xlink:href="#DejaVuSans-114"/>
     <use x="1055.513672" xlink:href="#DejaVuSans-111"/>
     <use x="1116.695312" xlink:href="#DejaVuSans-97"/>
     <use x="1177.974609" xlink:href="#DejaVuSans-100"/>
     <use x="1241.451172" xlink:href="#DejaVuSans-101"/>
     <use x="1302.974609" xlink:href="#DejaVuSans-110"/>
     <use x="1366.353516" xlink:href="#DejaVuSans-105"/>
     <use x="1394.136719" xlink:href="#DejaVuSans-110"/>
     <use x="1457.515625" xlink:href="#DejaVuSans-103"/>
    </g>
    <!-- (Tech C, Room Temp) -->
    <g transform="translate(98.730625 29.7555)scale(0.12 -0.12)">
     <defs>
      <path d="M -0.296875 72.90625 
L 61.375 72.90625 
L 61.375 64.59375 
L 35.5 64.59375 
L 35.5 0 
L 25.59375 0 
L 25.59375 64.59375 
L -0.296875 64.59375 
z
" id="DejaVuSans-84"/>
      <path d="M 54.890625 33.015625 
L 54.890625 0 
L 45.90625 0 
L 45.90625 32.71875 
Q 45.90625 40.484375 42.875 44.328125 
Q 39.84375 48.1875 33.796875 48.1875 
Q 26.515625 48.1875 22.3125 43.546875 
Q 18.109375 38.921875 18.109375 30.90625 
L 18.109375 0 
L 9.078125 0 
L 9.078125 75.984375 
L 18.109375 75.984375 
L 18.109375 46.1875 
Q 21.34375 51.125 25.703125 53.5625 
Q 30.078125 56 35.796875 56 
Q 45.21875 56 50.046875 50.171875 
Q 54.890625 44.34375 54.890625 33.015625 
z
" id="DejaVuSans-104"/>
      <path d="M 11.71875 12.40625 
L 22.015625 12.40625 
L 22.015625 4 
L 14.015625 -11.625 
L 7.71875 -11.625 
L 11.71875 4 
z
" id="DejaVuSans-44"/>
      <path d="M 44.390625 34.1875 
Q 47.5625 33.109375 50.5625 29.59375 
Q 53.5625 26.078125 56.59375 19.921875 
L 66.609375 0 
L 56 0 
L 46.6875 18.703125 
Q 43.0625 26.03125 39.671875 28.421875 
Q 36.28125 30.8125 30.421875 30.8125 
L 19.671875 30.8125 
L 19.671875 0 
L 9.8125 0 
L 9.8125 72.90625 
L 32.078125 72.90625 
Q 44.578125 72.90625 50.734375 67.671875 
Q 56.890625 62.453125 56.890625 51.90625 
Q 56.890625 45.015625 53.6875 40.46875 
Q 50.484375 35.9375 44.390625 34.1875 
z
M 19.671875 64.796875 
L 19.671875 38.921875 
L 32.078125 38.921875 
Q 39.203125 38.921875 42.84375 42.21875 
Q 46.484375 45.515625 46.484375 51.90625 
Q 46.484375 58.296875 42.84375 61.546875 
Q 39.203125 64.796875 32.078125 64.796875 
z
" id="DejaVuSans-82"/>
      <path d="M 52 44.1875 
Q 55.375 50.25 60.0625 53.125 
Q 64.75 56 71.09375 56 
Q 79.640625 56 84.28125 50.015625 
Q 88.921875 44.046875 88.921875 33.015625 
L 88.921875 0 
L 79.890625 0 
L 79.890625 32.71875 
Q 79.890625 40.578125 77.09375 44.375 
Q 74.3125 48.1875 68.609375 48.1875 
Q 61.625 48.1875 57.5625 43.546875 
Q 53.515625 38.921875 53.515625 30.90625 
L 53.515625 0 
L 44.484375 0 
L 44.484375 32.71875 
Q 44.484375 40.625 41.703125 44.40625 
Q 38.921875 48.1875 33.109375 48.1875 
Q 26.21875 48.1875 22.15625 43.53125 
Q 18.109375 38.875 18.109375 30.90625 
L 18.109375 0 
L 9.078125 0 
L 9.078125 54.6875 
L 18.109375 54.6875 
L 18.109375 46.1875 
Q 21.1875 51.21875 25.484375 53.609375 
Q 29.78125 56 35.6875 56 
Q 41.65625 56 45.828125 52.96875 
Q 50 49.953125 52 44.1875 
z
" id="DejaVuSans-109"/>
      <path d="M 18.109375 8.203125 
L 18.109375 -20.796875 
L 9.078125 -20.796875 
L 9.078125 54.6875 
L 18.109375 54.6875 
L 18.109375 46.390625 
Q 20.953125 51.265625 25.265625 53.625 
Q 29.59375 56 35.59375 56 
Q 45.5625 56 51.78125 48.09375 
Q 58.015625 40.1875 58.015625 27.296875 
Q 58.015625 14.40625 51.78125 6.484375 
Q 45.5625 -1.421875 35.59375 -1.421875 
Q 29.59375 -1.421875 25.265625 0.953125 
Q 20.953125 3.328125 18.109375 8.203125 
z
M 48.6875 27.296875 
Q 48.6875 37.203125 44.609375 42.84375 
Q 40.53125 48.484375 33.40625 48.484375 
Q 26.265625 48.484375 22.1875 42.84375 
Q 18.109375 37.203125 18.109375 27.296875 
Q 18.109375 17.390625 22.1875 11.75 
Q 26.265625 6.109375 33.40625 6.109375 
Q 40.53125 6.109375 44.609375 11.75 
Q 48.6875 17.390625 48.6875 27.296875 
z
" id="DejaVuSans-112"/>
     </defs>
     <use xlink:href="#DejaVuSans-40"/>
     <use x="39.013672" xlink:href="#DejaVuSans-84"/>
     <use x="83.097656" xlink:href="#DejaVuSans-101"/>
     <use x="144.621094" xlink:href="#DejaVuSans-99"/>
     <use x="199.601562" xlink:href="#DejaVuSans-104"/>
     <use x="262.980469" xlink:href="#DejaVuSans-32"/>
     <use x="294.767578" xlink:href="#DejaVuSans-67"/>
     <use x="364.591797" xlink:href="#DejaVuSans-44"/>
     <use x="396.378906" xlink:href="#DejaVuSans-32"/>
     <use x="428.166016" xlink:href="#DejaVuSans-82"/>
     <use x="493.148438" xlink:href="#DejaVuSans-111"/>
     <use x="554.330078" xlink:href="#DejaVuSans-111"/>
     <use x="615.511719" xlink:href="#DejaVuSans-109"/>
     <use x="712.923828" xlink:href="#DejaVuSans-32"/>
     <use x="744.710938" xlink:href="#DejaVuSans-84"/>
     <use x="788.794922" xlink:href="#DejaVuSans-101"/>
     <use x="850.318359" xlink:href="#DejaVuSans-109"/>
     <use x="947.730469" xlink:href="#DejaVuSans-112"/>
     <use x="1011.207031" xlink:href="#DejaVuSans-41"/>
    </g>
   </g>
   <g id="legend_1">
    <g id="patch_7">
     <path d="M 62.23125 73.11175 
L 266.34375 73.11175 
Q 268.34375 73.11175 268.34375 71.11175 
L 268.34375 42.7555 
Q 268.34375 40.7555 266.34375 40.7555 
L 62.23125 40.7555 
Q 60.23125 40.7555 60.23125 42.7555 
L 60.23125 71.11175 
Q 60.23125 73.11175 62.23125 73.11175 
z
" style="fill:#ffffff;opacity:0.8;stroke:#cccccc;stroke-linejoin:miter;"/>
    </g>
    <g id="line2d_43">
     <path d="M 64.23125 48.853938 
L 84.23125 48.853938 
" style="fill:none;stroke:#1f77b4;stroke-linecap:square;stroke-width:0.8;"/>
    </g>
    <g id="line2d_44"/>
    <g id="text_16">
     <!-- t=0 -->
     <g transform="translate(86.23125 52.353938)scale(0.1 -0.1)">
      <defs>
       <path d="M 10.59375 45.40625 
L 73.1875 45.40625 
L 73.1875 37.203125 
L 10.59375 37.203125 
z
M 10.59375 25.484375 
L 73.1875 25.484375 
L 73.1875 17.1875 
L 10.59375 17.1875 
z
" id="DejaVuSans-61"/>
      </defs>
      <use xlink:href="#DejaVuSans-116"/>
      <use x="39.208984" xlink:href="#DejaVuSans-61"/>
      <use x="122.998047" xlink:href="#DejaVuSans-48"/>
     </g>
    </g>
    <g id="line2d_45">
     <path d="M 64.23125 63.532063 
L 84.23125 63.532063 
" style="fill:none;stroke:#ff7f0e;stroke-linecap:square;stroke-width:0.8;"/>
    </g>
    <g id="line2d_46"/>
    <g id="text_17">
     <!-- t=0.01 -->
     <g transform="translate(86.23125 67.032063)scale(0.1 -0.1)">
      <use xlink:href="#DejaVuSans-116"/>
      <use x="39.208984" xlink:href="#DejaVuSans-61"/>
      <use x="122.998047" xlink:href="#DejaVuSans-48"/>
      <use x="186.621094" xlink:href="#DejaVuSans-46"/>
      <use x="218.408203" xlink:href="#DejaVuSans-48"/>
      <use x="282.03125" xlink:href="#DejaVuSans-49"/>
     </g>
    </g>
    <g id="line2d_47">
     <path d="M 140.796875 48.853938 
L 160.796875 48.853938 
" style="fill:none;stroke:#2ca02c;stroke-linecap:square;stroke-width:0.8;"/>
    </g>
    <g id="line2d_48"/>
    <g id="text_18">
     <!-- t=0.1 -->
     <g transform="translate(162.796875 52.353938)scale(0.1 -0.1)">
      <use xlink:href="#DejaVuSans-116"/>
      <use x="39.208984" xlink:href="#DejaVuSans-61"/>
      <use x="122.998047" xlink:href="#DejaVuSans-48"/>
      <use x="186.621094" xlink:href="#DejaVuSans-46"/>
      <use x="218.408203" xlink:href="#DejaVuSans-49"/>
     </g>
    </g>
    <g id="line2d_49">
     <path d="M 140.796875 63.532063 
L 160.796875 63.532063 
" style="fill:none;stroke:#d62728;stroke-linecap:square;stroke-width:0.8;"/>
    </g>
    <g id="line2d_50"/>
    <g id="text_19">
     <!-- t=1 -->
     <g transform="translate(162.796875 67.032063)scale(0.1 -0.1)">
      <use xlink:href="#DejaVuSans-116"/>
      <use x="39.208984" xlink:href="#DejaVuSans-61"/>
      <use x="122.998047" xlink:href="#DejaVuSans-49"/>
     </g>
    </g>
    <g id="line2d_51">
     <path d="M 211 48.853938 
L 231 48.853938 
" style="fill:none;stroke:#9467bd;stroke-linecap:square;stroke-width:0.8;"/>
    </g>
    <g id="line2d_52"/>
    <g id="text_20">
     <!-- t=10 -->
     <g transform="translate(233 52.353938)scale(0.1 -0.1)">
      <use xlink:href="#DejaVuSans-116"/>
      <use x="39.208984" xlink:href="#DejaVuSans-61"/>
      <use x="122.998047" xlink:href="#DejaVuSans-49"/>
      <use x="186.621094" xlink:href="#DejaVuSans-48"/>
     </g>
    </g>
    <g id="line2d_53">
     <path d="M 211 63.532063 
L 231 63.532063 
" style="fill:none;stroke:#8c564b;stroke-linecap:square;stroke-width:0.8;"/>
    </g>
    <g id="line2d_54"/>
    <g id="text_21">
     <!-- t=1E5 -->
     <g transform="translate(233 67.032063)scale(0.1 -0.1)">
      <use xlink:href="#DejaVuSans-116"/>
      <use x="39.208984" xlink:href="#DejaVuSans-61"/>
      <use x="122.998047" xlink:href="#DejaVuSans-49"/>
      <use x="186.621094" xlink:href="#DejaVuSans-69"/>
      <use x="249.804688" xlink:href="#DejaVuSans-53"/>
     </g>
    </g>
   </g>
  </g>
 </g>
 <defs>
  <clipPath id="p1fb2ce23b4">
   <rect height="146.772" width="223.2" x="50.14375" y="35.7555"/>
  </clipPath>
 </defs>
</svg>
