<?xml version="1.0" encoding="utf-8" standalone="no"?>
<!DOCTYPE svg PUBLIC "-//W3C//DTD SVG 1.1//EN"
  "http://www.w3.org/Graphics/SVG/1.1/DTD/svg11.dtd">
<!-- Created with matplotlib (https://matplotlib.org/) -->
<svg height="220.08375pt" version="1.1" viewBox="0 0 280.54375 220.08375" width="280.54375pt" xmlns="http://www.w3.org/2000/svg" xmlns:xlink="http://www.w3.org/1999/xlink">
 <metadata>
  <rdf:RDF xmlns:cc="http://creativecommons.org/ns#" xmlns:dc="http://purl.org/dc/elements/1.1/" xmlns:rdf="http://www.w3.org/1999/02/22-rdf-syntax-ns#">
   <cc:Work>
    <dc:type rdf:resource="http://purl.org/dc/dcmitype/StillImage"/>
    <dc:date>2021-07-22T04:12:19.048414</dc:date>
    <dc:format>image/svg+xml</dc:format>
    <dc:creator>
     <cc:Agent>
      <dc:title>Matplotlib v3.3.3, https://matplotlib.org/</dc:title>
     </cc:Agent>
    </dc:creator>
   </cc:Work>
  </rdf:RDF>
 </metadata>
 <defs>
  <style type="text/css">*{stroke-linecap:butt;stroke-linejoin:round;}</style>
 </defs>
 <g id="figure_1">
  <g id="patch_1">
   <path d="M 0 220.08375 
L 280.54375 220.08375 
L 280.54375 -0 
L 0 -0 
z
" style="fill:none;"/>
  </g>
  <g id="axes_1">
   <g id="patch_2">
    <path d="M 50.14375 182.5275 
L 273.34375 182.5275 
L 273.34375 35.7555 
L 50.14375 35.7555 
z
" style="fill:#ffffff;"/>
   </g>
   <g id="matplotlib.axis_1">
    <g id="xtick_1">
     <g id="line2d_1">
      <defs>
       <path d="M 0 0 
L 0 3.5 
" id="mff8058aecd" style="stroke:#000000;stroke-width:0.8;"/>
      </defs>
      <g>
       <use style="stroke:#000000;stroke-width:0.8;" x="50.14375" xlink:href="#mff8058aecd" y="182.5275"/>
      </g>
     </g>
     <g id="text_1">
      <!-- 0 -->
      <g transform="translate(46.9625 197.125938)scale(0.1 -0.1)">
       <defs>
        <path d="M 31.78125 66.40625 
Q 24.171875 66.40625 20.328125 58.90625 
Q 16.5 51.421875 16.5 36.375 
Q 16.5 21.390625 20.328125 13.890625 
Q 24.171875 6.390625 31.78125 6.390625 
Q 39.453125 6.390625 43.28125 13.890625 
Q 47.125 21.390625 47.125 36.375 
Q 47.125 51.421875 43.28125 58.90625 
Q 39.453125 66.40625 31.78125 66.40625 
z
M 31.78125 74.21875 
Q 44.046875 74.21875 50.515625 64.515625 
Q 56.984375 54.828125 56.984375 36.375 
Q 56.984375 17.96875 50.515625 8.265625 
Q 44.046875 -1.421875 31.78125 -1.421875 
Q 19.53125 -1.421875 13.0625 8.265625 
Q 6.59375 17.96875 6.59375 36.375 
Q 6.59375 54.828125 13.0625 64.515625 
Q 19.53125 74.21875 31.78125 74.21875 
z
" id="DejaVuSans-48"/>
       </defs>
       <use xlink:href="#DejaVuSans-48"/>
      </g>
     </g>
    </g>
    <g id="xtick_2">
     <g id="line2d_2">
      <g>
       <use style="stroke:#000000;stroke-width:0.8;" x="89.774432" xlink:href="#mff8058aecd" y="182.5275"/>
      </g>
     </g>
     <g id="text_2">
      <!-- 25 -->
      <g transform="translate(83.411932 197.125938)scale(0.1 -0.1)">
       <defs>
        <path d="M 19.1875 8.296875 
L 53.609375 8.296875 
L 53.609375 0 
L 7.328125 0 
L 7.328125 8.296875 
Q 12.9375 14.109375 22.625 23.890625 
Q 32.328125 33.6875 34.8125 36.53125 
Q 39.546875 41.84375 41.421875 45.53125 
Q 43.3125 49.21875 43.3125 52.78125 
Q 43.3125 58.59375 39.234375 62.25 
Q 35.15625 65.921875 28.609375 65.921875 
Q 23.96875 65.921875 18.8125 64.3125 
Q 13.671875 62.703125 7.8125 59.421875 
L 7.8125 69.390625 
Q 13.765625 71.78125 18.9375 73 
Q 24.125 74.21875 28.421875 74.21875 
Q 39.75 74.21875 46.484375 68.546875 
Q 53.21875 62.890625 53.21875 53.421875 
Q 53.21875 48.921875 51.53125 44.890625 
Q 49.859375 40.875 45.40625 35.40625 
Q 44.1875 33.984375 37.640625 27.21875 
Q 31.109375 20.453125 19.1875 8.296875 
z
" id="DejaVuSans-50"/>
        <path d="M 10.796875 72.90625 
L 49.515625 72.90625 
L 49.515625 64.59375 
L 19.828125 64.59375 
L 19.828125 46.734375 
Q 21.96875 47.46875 24.109375 47.828125 
Q 26.265625 48.1875 28.421875 48.1875 
Q 40.625 48.1875 47.75 41.5 
Q 54.890625 34.8125 54.890625 23.390625 
Q 54.890625 11.625 47.5625 5.09375 
Q 40.234375 -1.421875 26.90625 -1.421875 
Q 22.3125 -1.421875 17.546875 -0.640625 
Q 12.796875 0.140625 7.71875 1.703125 
L 7.71875 11.625 
Q 12.109375 9.234375 16.796875 8.0625 
Q 21.484375 6.890625 26.703125 6.890625 
Q 35.15625 6.890625 40.078125 11.328125 
Q 45.015625 15.765625 45.015625 23.390625 
Q 45.015625 31 40.078125 35.4375 
Q 35.15625 39.890625 26.703125 39.890625 
Q 22.75 39.890625 18.8125 39.015625 
Q 14.890625 38.140625 10.796875 36.28125 
z
" id="DejaVuSans-53"/>
       </defs>
       <use xlink:href="#DejaVuSans-50"/>
       <use x="63.623047" xlink:href="#DejaVuSans-53"/>
      </g>
     </g>
    </g>
    <g id="xtick_3">
     <g id="line2d_3">
      <g>
       <use style="stroke:#000000;stroke-width:0.8;" x="129.405114" xlink:href="#mff8058aecd" y="182.5275"/>
      </g>
     </g>
     <g id="text_3">
      <!-- 50 -->
      <g transform="translate(123.042614 197.125938)scale(0.1 -0.1)">
       <use xlink:href="#DejaVuSans-53"/>
       <use x="63.623047" xlink:href="#DejaVuSans-48"/>
      </g>
     </g>
    </g>
    <g id="xtick_4">
     <g id="line2d_4">
      <g>
       <use style="stroke:#000000;stroke-width:0.8;" x="169.035795" xlink:href="#mff8058aecd" y="182.5275"/>
      </g>
     </g>
     <g id="text_4">
      <!-- 75 -->
      <g transform="translate(162.673295 197.125938)scale(0.1 -0.1)">
       <defs>
        <path d="M 8.203125 72.90625 
L 55.078125 72.90625 
L 55.078125 68.703125 
L 28.609375 0 
L 18.3125 0 
L 43.21875 64.59375 
L 8.203125 64.59375 
z
" id="DejaVuSans-55"/>
       </defs>
       <use xlink:href="#DejaVuSans-55"/>
       <use x="63.623047" xlink:href="#DejaVuSans-53"/>
      </g>
     </g>
    </g>
    <g id="xtick_5">
     <g id="line2d_5">
      <g>
       <use style="stroke:#000000;stroke-width:0.8;" x="208.666477" xlink:href="#mff8058aecd" y="182.5275"/>
      </g>
     </g>
     <g id="text_5">
      <!-- 100 -->
      <g transform="translate(199.122727 197.125938)scale(0.1 -0.1)">
       <defs>
        <path d="M 12.40625 8.296875 
L 28.515625 8.296875 
L 28.515625 63.921875 
L 10.984375 60.40625 
L 10.984375 69.390625 
L 28.421875 72.90625 
L 38.28125 72.90625 
L 38.28125 8.296875 
L 54.390625 8.296875 
L 54.390625 0 
L 12.40625 0 
z
" id="DejaVuSans-49"/>
       </defs>
       <use xlink:href="#DejaVuSans-49"/>
       <use x="63.623047" xlink:href="#DejaVuSans-48"/>
       <use x="127.246094" xlink:href="#DejaVuSans-48"/>
      </g>
     </g>
    </g>
    <g id="xtick_6">
     <g id="line2d_6">
      <g>
       <use style="stroke:#000000;stroke-width:0.8;" x="248.297159" xlink:href="#mff8058aecd" y="182.5275"/>
      </g>
     </g>
     <g id="text_6">
      <!-- 125 -->
      <g transform="translate(238.753409 197.125938)scale(0.1 -0.1)">
       <use xlink:href="#DejaVuSans-49"/>
       <use x="63.623047" xlink:href="#DejaVuSans-50"/>
       <use x="127.246094" xlink:href="#DejaVuSans-53"/>
      </g>
     </g>
    </g>
    <g id="text_7">
     <!-- Conductance (µS) -->
     <g transform="translate(117.067188 210.804063)scale(0.1 -0.1)">
      <defs>
       <path d="M 64.40625 67.28125 
L 64.40625 56.890625 
Q 59.421875 61.53125 53.78125 63.8125 
Q 48.140625 66.109375 41.796875 66.109375 
Q 29.296875 66.109375 22.65625 58.46875 
Q 16.015625 50.828125 16.015625 36.375 
Q 16.015625 21.96875 22.65625 14.328125 
Q 29.296875 6.6875 41.796875 6.6875 
Q 48.140625 6.6875 53.78125 8.984375 
Q 59.421875 11.28125 64.40625 15.921875 
L 64.40625 5.609375 
Q 59.234375 2.09375 53.4375 0.328125 
Q 47.65625 -1.421875 41.21875 -1.421875 
Q 24.65625 -1.421875 15.125 8.703125 
Q 5.609375 18.84375 5.609375 36.375 
Q 5.609375 53.953125 15.125 64.078125 
Q 24.65625 74.21875 41.21875 74.21875 
Q 47.75 74.21875 53.53125 72.484375 
Q 59.328125 70.75 64.40625 67.28125 
z
" id="DejaVuSans-67"/>
       <path d="M 30.609375 48.390625 
Q 23.390625 48.390625 19.1875 42.75 
Q 14.984375 37.109375 14.984375 27.296875 
Q 14.984375 17.484375 19.15625 11.84375 
Q 23.34375 6.203125 30.609375 6.203125 
Q 37.796875 6.203125 41.984375 11.859375 
Q 46.1875 17.53125 46.1875 27.296875 
Q 46.1875 37.015625 41.984375 42.703125 
Q 37.796875 48.390625 30.609375 48.390625 
z
M 30.609375 56 
Q 42.328125 56 49.015625 48.375 
Q 55.71875 40.765625 55.71875 27.296875 
Q 55.71875 13.875 49.015625 6.21875 
Q 42.328125 -1.421875 30.609375 -1.421875 
Q 18.84375 -1.421875 12.171875 6.21875 
Q 5.515625 13.875 5.515625 27.296875 
Q 5.515625 40.765625 12.171875 48.375 
Q 18.84375 56 30.609375 56 
z
" id="DejaVuSans-111"/>
       <path d="M 54.890625 33.015625 
L 54.890625 0 
L 45.90625 0 
L 45.90625 32.71875 
Q 45.90625 40.484375 42.875 44.328125 
Q 39.84375 48.1875 33.796875 48.1875 
Q 26.515625 48.1875 22.3125 43.546875 
Q 18.109375 38.921875 18.109375 30.90625 
L 18.109375 0 
L 9.078125 0 
L 9.078125 54.6875 
L 18.109375 54.6875 
L 18.109375 46.1875 
Q 21.34375 51.125 25.703125 53.5625 
Q 30.078125 56 35.796875 56 
Q 45.21875 56 50.046875 50.171875 
Q 54.890625 44.34375 54.890625 33.015625 
z
" id="DejaVuSans-110"/>
       <path d="M 45.40625 46.390625 
L 45.40625 75.984375 
L 54.390625 75.984375 
L 54.390625 0 
L 45.40625 0 
L 45.40625 8.203125 
Q 42.578125 3.328125 38.25 0.953125 
Q 33.9375 -1.421875 27.875 -1.421875 
Q 17.96875 -1.421875 11.734375 6.484375 
Q 5.515625 14.40625 5.515625 27.296875 
Q 5.515625 40.1875 11.734375 48.09375 
Q 17.96875 56 27.875 56 
Q 33.9375 56 38.25 53.625 
Q 42.578125 51.265625 45.40625 46.390625 
z
M 14.796875 27.296875 
Q 14.796875 17.390625 18.875 11.75 
Q 22.953125 6.109375 30.078125 6.109375 
Q 37.203125 6.109375 41.296875 11.75 
Q 45.40625 17.390625 45.40625 27.296875 
Q 45.40625 37.203125 41.296875 42.84375 
Q 37.203125 48.484375 30.078125 48.484375 
Q 22.953125 48.484375 18.875 42.84375 
Q 14.796875 37.203125 14.796875 27.296875 
z
" id="DejaVuSans-100"/>
       <path d="M 8.5 21.578125 
L 8.5 54.6875 
L 17.484375 54.6875 
L 17.484375 21.921875 
Q 17.484375 14.15625 20.5 10.265625 
Q 23.53125 6.390625 29.59375 6.390625 
Q 36.859375 6.390625 41.078125 11.03125 
Q 45.3125 15.671875 45.3125 23.6875 
L 45.3125 54.6875 
L 54.296875 54.6875 
L 54.296875 0 
L 45.3125 0 
L 45.3125 8.40625 
Q 42.046875 3.421875 37.71875 1 
Q 33.40625 -1.421875 27.6875 -1.421875 
Q 18.265625 -1.421875 13.375 4.4375 
Q 8.5 10.296875 8.5 21.578125 
z
M 31.109375 56 
z
" id="DejaVuSans-117"/>
       <path d="M 48.78125 52.59375 
L 48.78125 44.1875 
Q 44.96875 46.296875 41.140625 47.34375 
Q 37.3125 48.390625 33.40625 48.390625 
Q 24.65625 48.390625 19.8125 42.84375 
Q 14.984375 37.3125 14.984375 27.296875 
Q 14.984375 17.28125 19.8125 11.734375 
Q 24.65625 6.203125 33.40625 6.203125 
Q 37.3125 6.203125 41.140625 7.25 
Q 44.96875 8.296875 48.78125 10.40625 
L 48.78125 2.09375 
Q 45.015625 0.34375 40.984375 -0.53125 
Q 36.96875 -1.421875 32.421875 -1.421875 
Q 20.0625 -1.421875 12.78125 6.34375 
Q 5.515625 14.109375 5.515625 27.296875 
Q 5.515625 40.671875 12.859375 48.328125 
Q 20.21875 56 33.015625 56 
Q 37.15625 56 41.109375 55.140625 
Q 45.0625 54.296875 48.78125 52.59375 
z
" id="DejaVuSans-99"/>
       <path d="M 18.3125 70.21875 
L 18.3125 54.6875 
L 36.8125 54.6875 
L 36.8125 47.703125 
L 18.3125 47.703125 
L 18.3125 18.015625 
Q 18.3125 11.328125 20.140625 9.421875 
Q 21.96875 7.515625 27.59375 7.515625 
L 36.8125 7.515625 
L 36.8125 0 
L 27.59375 0 
Q 17.1875 0 13.234375 3.875 
Q 9.28125 7.765625 9.28125 18.015625 
L 9.28125 47.703125 
L 2.6875 47.703125 
L 2.6875 54.6875 
L 9.28125 54.6875 
L 9.28125 70.21875 
z
" id="DejaVuSans-116"/>
       <path d="M 34.28125 27.484375 
Q 23.390625 27.484375 19.1875 25 
Q 14.984375 22.515625 14.984375 16.5 
Q 14.984375 11.71875 18.140625 8.90625 
Q 21.296875 6.109375 26.703125 6.109375 
Q 34.1875 6.109375 38.703125 11.40625 
Q 43.21875 16.703125 43.21875 25.484375 
L 43.21875 27.484375 
z
M 52.203125 31.203125 
L 52.203125 0 
L 43.21875 0 
L 43.21875 8.296875 
Q 40.140625 3.328125 35.546875 0.953125 
Q 30.953125 -1.421875 24.3125 -1.421875 
Q 15.921875 -1.421875 10.953125 3.296875 
Q 6 8.015625 6 15.921875 
Q 6 25.140625 12.171875 29.828125 
Q 18.359375 34.515625 30.609375 34.515625 
L 43.21875 34.515625 
L 43.21875 35.40625 
Q 43.21875 41.609375 39.140625 45 
Q 35.0625 48.390625 27.6875 48.390625 
Q 23 48.390625 18.546875 47.265625 
Q 14.109375 46.140625 10.015625 43.890625 
L 10.015625 52.203125 
Q 14.9375 54.109375 19.578125 55.046875 
Q 24.21875 56 28.609375 56 
Q 40.484375 56 46.34375 49.84375 
Q 52.203125 43.703125 52.203125 31.203125 
z
" id="DejaVuSans-97"/>
       <path d="M 56.203125 29.59375 
L 56.203125 25.203125 
L 14.890625 25.203125 
Q 15.484375 15.921875 20.484375 11.0625 
Q 25.484375 6.203125 34.421875 6.203125 
Q 39.59375 6.203125 44.453125 7.46875 
Q 49.3125 8.734375 54.109375 11.28125 
L 54.109375 2.78125 
Q 49.265625 0.734375 44.1875 -0.34375 
Q 39.109375 -1.421875 33.890625 -1.421875 
Q 20.796875 -1.421875 13.15625 6.1875 
Q 5.515625 13.8125 5.515625 26.8125 
Q 5.515625 40.234375 12.765625 48.109375 
Q 20.015625 56 32.328125 56 
Q 43.359375 56 49.78125 48.890625 
Q 56.203125 41.796875 56.203125 29.59375 
z
M 47.21875 32.234375 
Q 47.125 39.59375 43.09375 43.984375 
Q 39.0625 48.390625 32.421875 48.390625 
Q 24.90625 48.390625 20.390625 44.140625 
Q 15.875 39.890625 15.1875 32.171875 
z
" id="DejaVuSans-101"/>
       <path id="DejaVuSans-32"/>
       <path d="M 31 75.875 
Q 24.46875 64.65625 21.28125 53.65625 
Q 18.109375 42.671875 18.109375 31.390625 
Q 18.109375 20.125 21.3125 9.0625 
Q 24.515625 -2 31 -13.1875 
L 23.1875 -13.1875 
Q 15.875 -1.703125 12.234375 9.375 
Q 8.59375 20.453125 8.59375 31.390625 
Q 8.59375 42.28125 12.203125 53.3125 
Q 15.828125 64.359375 23.1875 75.875 
z
" id="DejaVuSans-40"/>
       <path d="M 8.5 -20.796875 
L 8.5 54.6875 
L 17.484375 54.6875 
L 17.484375 20.703125 
Q 17.484375 13.625 20.84375 10 
Q 24.21875 6.390625 30.8125 6.390625 
Q 38.03125 6.390625 41.671875 10.484375 
Q 45.3125 14.59375 45.3125 22.796875 
L 45.3125 54.6875 
L 54.296875 54.6875 
L 54.296875 12.59375 
Q 54.296875 9.671875 55.140625 8.28125 
Q 56 6.890625 57.8125 6.890625 
Q 58.25 6.890625 59.03125 7.15625 
Q 59.8125 7.421875 61.1875 8.015625 
L 61.1875 0.78125 
Q 59.1875 -0.34375 57.390625 -0.875 
Q 55.609375 -1.421875 53.90625 -1.421875 
Q 50.53125 -1.421875 48.53125 0.484375 
Q 46.53125 2.390625 45.796875 6.296875 
Q 43.359375 2.4375 39.8125 0.5 
Q 36.28125 -1.421875 31.5 -1.421875 
Q 26.515625 -1.421875 23.015625 0.484375 
Q 19.53125 2.390625 17.484375 6.203125 
L 17.484375 -20.796875 
z
" id="DejaVuSans-181"/>
       <path d="M 53.515625 70.515625 
L 53.515625 60.890625 
Q 47.90625 63.578125 42.921875 64.890625 
Q 37.9375 66.21875 33.296875 66.21875 
Q 25.25 66.21875 20.875 63.09375 
Q 16.5 59.96875 16.5 54.203125 
Q 16.5 49.359375 19.40625 46.890625 
Q 22.3125 44.4375 30.421875 42.921875 
L 36.375 41.703125 
Q 47.40625 39.59375 52.65625 34.296875 
Q 57.90625 29 57.90625 20.125 
Q 57.90625 9.515625 50.796875 4.046875 
Q 43.703125 -1.421875 29.984375 -1.421875 
Q 24.8125 -1.421875 18.96875 -0.25 
Q 13.140625 0.921875 6.890625 3.21875 
L 6.890625 13.375 
Q 12.890625 10.015625 18.65625 8.296875 
Q 24.421875 6.59375 29.984375 6.59375 
Q 38.421875 6.59375 43.015625 9.90625 
Q 47.609375 13.234375 47.609375 19.390625 
Q 47.609375 24.75 44.3125 27.78125 
Q 41.015625 30.8125 33.5 32.328125 
L 27.484375 33.5 
Q 16.453125 35.6875 11.515625 40.375 
Q 6.59375 45.0625 6.59375 53.421875 
Q 6.59375 63.09375 13.40625 68.65625 
Q 20.21875 74.21875 32.171875 74.21875 
Q 37.3125 74.21875 42.625 73.28125 
Q 47.953125 72.359375 53.515625 70.515625 
z
" id="DejaVuSans-83"/>
       <path d="M 8.015625 75.875 
L 15.828125 75.875 
Q 23.140625 64.359375 26.78125 53.3125 
Q 30.421875 42.28125 30.421875 31.390625 
Q 30.421875 20.453125 26.78125 9.375 
Q 23.140625 -1.703125 15.828125 -13.1875 
L 8.015625 -13.1875 
Q 14.5 -2 17.703125 9.0625 
Q 20.90625 20.125 20.90625 31.390625 
Q 20.90625 42.671875 17.703125 53.65625 
Q 14.5 64.65625 8.015625 75.875 
z
" id="DejaVuSans-41"/>
      </defs>
      <use xlink:href="#DejaVuSans-67"/>
      <use x="69.824219" xlink:href="#DejaVuSans-111"/>
      <use x="131.005859" xlink:href="#DejaVuSans-110"/>
      <use x="194.384766" xlink:href="#DejaVuSans-100"/>
      <use x="257.861328" xlink:href="#DejaVuSans-117"/>
      <use x="321.240234" xlink:href="#DejaVuSans-99"/>
      <use x="376.220703" xlink:href="#DejaVuSans-116"/>
      <use x="415.429688" xlink:href="#DejaVuSans-97"/>
      <use x="476.708984" xlink:href="#DejaVuSans-110"/>
      <use x="540.087891" xlink:href="#DejaVuSans-99"/>
      <use x="595.068359" xlink:href="#DejaVuSans-101"/>
      <use x="656.591797" xlink:href="#DejaVuSans-32"/>
      <use x="688.378906" xlink:href="#DejaVuSans-40"/>
      <use x="727.392578" xlink:href="#DejaVuSans-181"/>
      <use x="791.015625" xlink:href="#DejaVuSans-83"/>
      <use x="854.492188" xlink:href="#DejaVuSans-41"/>
     </g>
    </g>
   </g>
   <g id="matplotlib.axis_2">
    <g id="ytick_1">
     <g id="line2d_7">
      <defs>
       <path d="M 0 0 
L -3.5 0 
" id="mcf0ada0bbb" style="stroke:#000000;stroke-width:0.8;"/>
      </defs>
      <g>
       <use style="stroke:#000000;stroke-width:0.8;" x="50.14375" xlink:href="#mcf0ada0bbb" y="182.5275"/>
      </g>
     </g>
     <g id="text_8">
      <!-- 0.00 -->
      <g transform="translate(20.878125 186.326719)scale(0.1 -0.1)">
       <defs>
        <path d="M 10.6875 12.40625 
L 21 12.40625 
L 21 0 
L 10.6875 0 
z
" id="DejaVuSans-46"/>
       </defs>
       <use xlink:href="#DejaVuSans-48"/>
       <use x="63.623047" xlink:href="#DejaVuSans-46"/>
       <use x="95.410156" xlink:href="#DejaVuSans-48"/>
       <use x="159.033203" xlink:href="#DejaVuSans-48"/>
      </g>
     </g>
    </g>
    <g id="ytick_2">
     <g id="line2d_8">
      <g>
       <use style="stroke:#000000;stroke-width:0.8;" x="50.14375" xlink:href="#mcf0ada0bbb" y="145.8345"/>
      </g>
     </g>
     <g id="text_9">
      <!-- 0.05 -->
      <g transform="translate(20.878125 149.633719)scale(0.1 -0.1)">
       <use xlink:href="#DejaVuSans-48"/>
       <use x="63.623047" xlink:href="#DejaVuSans-46"/>
       <use x="95.410156" xlink:href="#DejaVuSans-48"/>
       <use x="159.033203" xlink:href="#DejaVuSans-53"/>
      </g>
     </g>
    </g>
    <g id="ytick_3">
     <g id="line2d_9">
      <g>
       <use style="stroke:#000000;stroke-width:0.8;" x="50.14375" xlink:href="#mcf0ada0bbb" y="109.1415"/>
      </g>
     </g>
     <g id="text_10">
      <!-- 0.10 -->
      <g transform="translate(20.878125 112.940719)scale(0.1 -0.1)">
       <use xlink:href="#DejaVuSans-48"/>
       <use x="63.623047" xlink:href="#DejaVuSans-46"/>
       <use x="95.410156" xlink:href="#DejaVuSans-49"/>
       <use x="159.033203" xlink:href="#DejaVuSans-48"/>
      </g>
     </g>
    </g>
    <g id="ytick_4">
     <g id="line2d_10">
      <g>
       <use style="stroke:#000000;stroke-width:0.8;" x="50.14375" xlink:href="#mcf0ada0bbb" y="72.4485"/>
      </g>
     </g>
     <g id="text_11">
      <!-- 0.15 -->
      <g transform="translate(20.878125 76.247719)scale(0.1 -0.1)">
       <use xlink:href="#DejaVuSans-48"/>
       <use x="63.623047" xlink:href="#DejaVuSans-46"/>
       <use x="95.410156" xlink:href="#DejaVuSans-49"/>
       <use x="159.033203" xlink:href="#DejaVuSans-53"/>
      </g>
     </g>
    </g>
    <g id="ytick_5">
     <g id="line2d_11">
      <g>
       <use style="stroke:#000000;stroke-width:0.8;" x="50.14375" xlink:href="#mcf0ada0bbb" y="35.7555"/>
      </g>
     </g>
     <g id="text_12">
      <!-- 0.20 -->
      <g transform="translate(20.878125 39.554719)scale(0.1 -0.1)">
       <use xlink:href="#DejaVuSans-48"/>
       <use x="63.623047" xlink:href="#DejaVuSans-46"/>
       <use x="95.410156" xlink:href="#DejaVuSans-50"/>
       <use x="159.033203" xlink:href="#DejaVuSans-48"/>
      </g>
     </g>
    </g>
    <g id="text_13">
     <!-- KDE Probability Density -->
     <g transform="translate(14.798438 168.045406)rotate(-90)scale(0.1 -0.1)">
      <defs>
       <path d="M 9.8125 72.90625 
L 19.671875 72.90625 
L 19.671875 42.09375 
L 52.390625 72.90625 
L 65.09375 72.90625 
L 28.90625 38.921875 
L 67.671875 0 
L 54.6875 0 
L 19.671875 35.109375 
L 19.671875 0 
L 9.8125 0 
z
" id="DejaVuSans-75"/>
       <path d="M 19.671875 64.796875 
L 19.671875 8.109375 
L 31.59375 8.109375 
Q 46.6875 8.109375 53.6875 14.9375 
Q 60.6875 21.78125 60.6875 36.53125 
Q 60.6875 51.171875 53.6875 57.984375 
Q 46.6875 64.796875 31.59375 64.796875 
z
M 9.8125 72.90625 
L 30.078125 72.90625 
Q 51.265625 72.90625 61.171875 64.09375 
Q 71.09375 55.28125 71.09375 36.53125 
Q 71.09375 17.671875 61.125 8.828125 
Q 51.171875 0 30.078125 0 
L 9.8125 0 
z
" id="DejaVuSans-68"/>
       <path d="M 9.8125 72.90625 
L 55.90625 72.90625 
L 55.90625 64.59375 
L 19.671875 64.59375 
L 19.671875 43.015625 
L 54.390625 43.015625 
L 54.390625 34.71875 
L 19.671875 34.71875 
L 19.671875 8.296875 
L 56.78125 8.296875 
L 56.78125 0 
L 9.8125 0 
z
" id="DejaVuSans-69"/>
       <path d="M 19.671875 64.796875 
L 19.671875 37.40625 
L 32.078125 37.40625 
Q 38.96875 37.40625 42.71875 40.96875 
Q 46.484375 44.53125 46.484375 51.125 
Q 46.484375 57.671875 42.71875 61.234375 
Q 38.96875 64.796875 32.078125 64.796875 
z
M 9.8125 72.90625 
L 32.078125 72.90625 
Q 44.34375 72.90625 50.609375 67.359375 
Q 56.890625 61.8125 56.890625 51.125 
Q 56.890625 40.328125 50.609375 34.8125 
Q 44.34375 29.296875 32.078125 29.296875 
L 19.671875 29.296875 
L 19.671875 0 
L 9.8125 0 
z
" id="DejaVuSans-80"/>
       <path d="M 41.109375 46.296875 
Q 39.59375 47.171875 37.8125 47.578125 
Q 36.03125 48 33.890625 48 
Q 26.265625 48 22.1875 43.046875 
Q 18.109375 38.09375 18.109375 28.8125 
L 18.109375 0 
L 9.078125 0 
L 9.078125 54.6875 
L 18.109375 54.6875 
L 18.109375 46.1875 
Q 20.953125 51.171875 25.484375 53.578125 
Q 30.03125 56 36.53125 56 
Q 37.453125 56 38.578125 55.875 
Q 39.703125 55.765625 41.0625 55.515625 
z
" id="DejaVuSans-114"/>
       <path d="M 48.6875 27.296875 
Q 48.6875 37.203125 44.609375 42.84375 
Q 40.53125 48.484375 33.40625 48.484375 
Q 26.265625 48.484375 22.1875 42.84375 
Q 18.109375 37.203125 18.109375 27.296875 
Q 18.109375 17.390625 22.1875 11.75 
Q 26.265625 6.109375 33.40625 6.109375 
Q 40.53125 6.109375 44.609375 11.75 
Q 48.6875 17.390625 48.6875 27.296875 
z
M 18.109375 46.390625 
Q 20.953125 51.265625 25.265625 53.625 
Q 29.59375 56 35.59375 56 
Q 45.5625 56 51.78125 48.09375 
Q 58.015625 40.1875 58.015625 27.296875 
Q 58.015625 14.40625 51.78125 6.484375 
Q 45.5625 -1.421875 35.59375 -1.421875 
Q 29.59375 -1.421875 25.265625 0.953125 
Q 20.953125 3.328125 18.109375 8.203125 
L 18.109375 0 
L 9.078125 0 
L 9.078125 75.984375 
L 18.109375 75.984375 
z
" id="DejaVuSans-98"/>
       <path d="M 9.421875 54.6875 
L 18.40625 54.6875 
L 18.40625 0 
L 9.421875 0 
z
M 9.421875 75.984375 
L 18.40625 75.984375 
L 18.40625 64.59375 
L 9.421875 64.59375 
z
" id="DejaVuSans-105"/>
       <path d="M 9.421875 75.984375 
L 18.40625 75.984375 
L 18.40625 0 
L 9.421875 0 
z
" id="DejaVuSans-108"/>
       <path d="M 32.171875 -5.078125 
Q 28.375 -14.84375 24.75 -17.8125 
Q 21.140625 -20.796875 15.09375 -20.796875 
L 7.90625 -20.796875 
L 7.90625 -13.28125 
L 13.1875 -13.28125 
Q 16.890625 -13.28125 18.9375 -11.515625 
Q 21 -9.765625 23.484375 -3.21875 
L 25.09375 0.875 
L 2.984375 54.6875 
L 12.5 54.6875 
L 29.59375 11.921875 
L 46.6875 54.6875 
L 56.203125 54.6875 
z
" id="DejaVuSans-121"/>
       <path d="M 44.28125 53.078125 
L 44.28125 44.578125 
Q 40.484375 46.53125 36.375 47.5 
Q 32.28125 48.484375 27.875 48.484375 
Q 21.1875 48.484375 17.84375 46.4375 
Q 14.5 44.390625 14.5 40.28125 
Q 14.5 37.15625 16.890625 35.375 
Q 19.28125 33.59375 26.515625 31.984375 
L 29.59375 31.296875 
Q 39.15625 29.25 43.1875 25.515625 
Q 47.21875 21.78125 47.21875 15.09375 
Q 47.21875 7.46875 41.1875 3.015625 
Q 35.15625 -1.421875 24.609375 -1.421875 
Q 20.21875 -1.421875 15.453125 -0.5625 
Q 10.6875 0.296875 5.421875 2 
L 5.421875 11.28125 
Q 10.40625 8.6875 15.234375 7.390625 
Q 20.0625 6.109375 24.8125 6.109375 
Q 31.15625 6.109375 34.5625 8.28125 
Q 37.984375 10.453125 37.984375 14.40625 
Q 37.984375 18.0625 35.515625 20.015625 
Q 33.0625 21.96875 24.703125 23.78125 
L 21.578125 24.515625 
Q 13.234375 26.265625 9.515625 29.90625 
Q 5.8125 33.546875 5.8125 39.890625 
Q 5.8125 47.609375 11.28125 51.796875 
Q 16.75 56 26.8125 56 
Q 31.78125 56 36.171875 55.265625 
Q 40.578125 54.546875 44.28125 53.078125 
z
" id="DejaVuSans-115"/>
      </defs>
      <use xlink:href="#DejaVuSans-75"/>
      <use x="65.576172" xlink:href="#DejaVuSans-68"/>
      <use x="142.578125" xlink:href="#DejaVuSans-69"/>
      <use x="205.761719" xlink:href="#DejaVuSans-32"/>
      <use x="237.548828" xlink:href="#DejaVuSans-80"/>
      <use x="296.101562" xlink:href="#DejaVuSans-114"/>
      <use x="334.964844" xlink:href="#DejaVuSans-111"/>
      <use x="396.146484" xlink:href="#DejaVuSans-98"/>
      <use x="459.623047" xlink:href="#DejaVuSans-97"/>
      <use x="520.902344" xlink:href="#DejaVuSans-98"/>
      <use x="584.378906" xlink:href="#DejaVuSans-105"/>
      <use x="612.162109" xlink:href="#DejaVuSans-108"/>
      <use x="639.945312" xlink:href="#DejaVuSans-105"/>
      <use x="667.728516" xlink:href="#DejaVuSans-116"/>
      <use x="706.9375" xlink:href="#DejaVuSans-121"/>
      <use x="766.117188" xlink:href="#DejaVuSans-32"/>
      <use x="797.904297" xlink:href="#DejaVuSans-68"/>
      <use x="874.90625" xlink:href="#DejaVuSans-101"/>
      <use x="936.429688" xlink:href="#DejaVuSans-110"/>
      <use x="999.808594" xlink:href="#DejaVuSans-115"/>
      <use x="1051.908203" xlink:href="#DejaVuSans-105"/>
      <use x="1079.691406" xlink:href="#DejaVuSans-116"/>
      <use x="1118.900391" xlink:href="#DejaVuSans-121"/>
     </g>
    </g>
   </g>
   <g id="line2d_12">
    <path clip-path="url(#p869729d092)" d="M 50.14375 181.916748 
L 50.591045 180.828837 
L 51.038339 178.785263 
L 51.485634 175.413453 
L 51.932928 169.707441 
L 52.380223 159.765224 
L 52.827518 143.768054 
L 53.274812 121.115722 
L 54.169401 57.237763 
L 54.870936 -1 
M 56.90926 -1 
L 57.300463 13.25076 
L 58.195053 36.282976 
L 58.642347 53.243748 
L 60.431526 141.435821 
L 60.87882 151.966168 
L 61.326115 156.806892 
L 61.773409 159.275614 
L 62.220704 162.709746 
L 63.115293 173.157513 
L 63.562588 176.837436 
L 64.009882 179.155407 
L 64.457177 180.713778 
L 64.904471 181.57295 
L 65.351766 181.593263 
L 66.69365 179.592509 
L 67.140944 180.145516 
L 68.035534 181.962806 
L 68.482828 182.362589 
L 69.377417 182.52244 
L 80.559782 182.5275 
L 273.34375 182.5275 
L 273.34375 182.5275 
" style="fill:none;stroke:#1f77b4;stroke-linecap:square;stroke-width:0.8;"/>
   </g>
   <g id="line2d_13">
    <path clip-path="url(#p869729d092)" d="M 50.14375 182.479634 
L 54.169401 182.265121 
L 56.853169 181.901236 
L 59.089642 181.396645 
L 61.326115 180.685564 
L 64.009882 179.573346 
L 66.69365 178.20538 
L 68.930123 176.831103 
L 70.719301 175.513712 
L 72.508479 173.96451 
L 74.744952 171.739724 
L 80.112487 165.921714 
L 82.796255 162.79579 
L 86.374612 158.186791 
L 88.16379 156.028441 
L 89.505674 154.699925 
L 90.847558 153.731203 
L 91.742147 153.310436 
L 92.636736 153.069833 
L 93.531325 152.996961 
L 94.873209 153.155403 
L 96.215093 153.558314 
L 98.004271 154.342902 
L 100.240744 155.59122 
L 102.029922 156.815684 
L 103.819101 158.299545 
L 106.055574 160.514395 
L 110.52852 165.179733 
L 112.764992 167.093444 
L 115.896055 169.36466 
L 119.921706 172.337383 
L 124.841946 176.067269 
L 126.631125 177.176975 
L 128.420303 178.031192 
L 130.209481 178.595811 
L 131.99866 178.888624 
L 134.235133 178.974366 
L 140.497257 178.987642 
L 142.73373 179.321942 
L 144.970203 179.896175 
L 151.679622 181.872058 
L 153.916095 182.226259 
L 156.599862 182.433313 
L 161.072808 182.519963 
L 188.357778 182.5275 
L 273.34375 182.5275 
L 273.34375 182.5275 
" style="fill:none;stroke:#1f77b4;stroke-linecap:square;stroke-width:0.8;"/>
   </g>
   <g id="line2d_14">
    <path clip-path="url(#p869729d092)" d="M 50.14375 182.5275 
L 69.824712 182.426088 
L 81.901666 182.161708 
L 87.716495 182.031347 
L 93.084031 181.675695 
L 97.556976 181.162981 
L 102.029922 180.391072 
L 109.186636 178.910962 
L 111.870403 178.136776 
L 114.554171 177.142127 
L 119.474411 174.996405 
L 123.052768 173.567232 
L 127.973009 171.710341 
L 129.762187 170.690659 
L 131.104071 169.69013 
L 132.893249 168.030927 
L 135.129722 165.55983 
L 140.497257 159.432879 
L 142.73373 157.250636 
L 144.970203 155.359973 
L 146.759381 154.107717 
L 148.101265 153.384424 
L 149.443149 152.914354 
L 150.337738 152.773482 
L 151.232327 152.788975 
L 152.126916 152.970381 
L 153.021506 153.319956 
L 154.363389 154.145342 
L 155.705273 155.28652 
L 157.494451 157.172517 
L 160.178219 160.406261 
L 165.098459 166.338317 
L 170.0187 171.828249 
L 172.702467 174.594417 
L 174.491646 176.190353 
L 176.280824 177.495663 
L 178.070003 178.492632 
L 179.859181 179.224692 
L 182.095654 179.883198 
L 185.226716 180.554692 
L 190.146956 181.364693 
L 195.961786 182.119399 
L 199.987437 182.411326 
L 204.907678 182.515833 
L 225.930524 182.5275 
L 273.34375 182.5275 
L 273.34375 182.5275 
" style="fill:none;stroke:#1f77b4;stroke-linecap:square;stroke-width:0.8;"/>
   </g>
   <g id="line2d_15">
    <path clip-path="url(#p869729d092)" d="M 50.14375 182.5275 
L 139.155373 182.440605 
L 144.522908 182.222283 
L 150.785033 182.403513 
L 155.705273 182.222614 
L 161.072808 182.385926 
L 162.861986 182.12079 
L 164.20387 181.707764 
L 167.782227 180.324797 
L 168.676816 180.220136 
L 169.571405 180.287861 
L 170.913289 180.638841 
L 172.702467 181.166701 
L 173.597057 181.268922 
L 174.491646 181.188643 
L 175.386235 180.908373 
L 176.280824 180.440349 
L 177.622708 179.469472 
L 184.779421 173.424473 
L 186.121305 172.016627 
L 187.015894 170.836368 
L 187.910483 169.396394 
L 189.252367 166.71621 
L 191.041546 162.416289 
L 193.278019 156.988835 
L 194.619902 154.239014 
L 197.30367 149.179802 
L 198.198259 146.878443 
L 199.092848 143.904904 
L 199.987437 140.2165 
L 203.565794 124.177174 
L 204.013089 122.967922 
L 204.460383 122.102901 
L 204.907678 121.60908 
L 205.354972 121.502564 
L 205.802267 121.788619 
L 206.249562 122.46189 
L 206.696856 123.506786 
L 207.591445 126.601877 
L 208.486035 130.77716 
L 210.275213 140.86506 
L 212.95898 156.158709 
L 214.748159 165.236642 
L 216.090043 171.002316 
L 216.984632 174.122151 
L 217.879221 176.581787 
L 218.77381 178.40015 
L 219.668399 179.667287 
L 220.562988 180.511708 
L 221.457578 181.062925 
L 222.799461 181.55812 
L 224.58864 181.896531 
L 228.614291 182.264011 
L 232.639942 182.498403 
L 239.349361 182.527492 
L 273.34375 182.5275 
L 273.34375 182.5275 
" style="fill:none;stroke:#1f77b4;stroke-linecap:square;stroke-width:0.8;"/>
   </g>
   <g id="line2d_16">
    <path clip-path="url(#p869729d092)" d="M 50.14375 182.5275 
L 224.58864 182.460595 
L 225.483229 182.303773 
L 226.377818 181.969925 
L 227.719702 181.174929 
L 229.956175 179.631702 
L 230.850764 178.687138 
L 232.192648 176.729645 
L 233.534532 174.4256 
L 234.429121 172.529249 
L 235.32371 169.931188 
L 236.218299 166.19232 
L 237.112888 160.687702 
L 238.007477 152.848071 
L 240.24395 130.532637 
L 242.033129 119.05745 
L 242.480423 114.61294 
L 243.375013 102.44221 
L 244.269602 90.016686 
L 244.716896 85.907078 
L 245.164191 83.988523 
L 245.611485 84.283775 
L 246.05878 86.379595 
L 246.953369 93.295381 
L 248.295253 103.283237 
L 249.189842 109.4203 
L 250.084431 117.314365 
L 250.979021 127.522452 
L 253.215493 155.135825 
L 254.110083 164.022292 
L 255.004672 170.607077 
L 255.899261 174.94848 
L 256.79385 177.778026 
L 257.688439 179.799863 
L 258.583029 181.222436 
L 259.477618 182.041156 
L 260.372207 182.391283 
L 261.714091 182.516079 
L 269.318099 182.5275 
L 273.34375 182.5275 
L 273.34375 182.5275 
" style="fill:none;stroke:#1f77b4;stroke-linecap:square;stroke-width:0.8;"/>
   </g>
   <g id="line2d_17">
    <path clip-path="url(#p869729d092)" d="M 50.14375 147.323682 
L 52.380223 138.973307 
L 53.722107 134.733575 
L 54.616696 132.409678 
L 55.511285 130.574958 
L 56.405874 129.288341 
L 57.300463 128.591191 
L 57.747758 128.471216 
L 58.195053 128.505068 
L 58.642347 128.692162 
L 59.089642 129.030602 
L 59.984231 130.147566 
L 60.87882 131.816143 
L 61.773409 133.979261 
L 63.115293 137.992796 
L 64.904471 144.338017 
L 69.377417 161.002886 
L 71.166596 166.625005 
L 72.508479 170.185965 
L 73.850363 173.157477 
L 75.192247 175.561737 
L 76.534131 177.450459 
L 77.876015 178.892306 
L 79.217898 179.962257 
L 80.559782 180.733646 
L 81.901666 181.27299 
L 83.690844 181.728184 
L 85.927317 182.017687 
L 89.058379 182.144404 
L 96.215093 182.100537 
L 105.160984 182.150551 
L 129.762187 182.5252 
L 260.819502 182.522396 
L 273.34375 182.399712 
L 273.34375 182.399712 
" style="fill:none;stroke:#ff7f0e;stroke-linecap:square;stroke-width:0.8;"/>
   </g>
   <g id="line2d_18">
    <path clip-path="url(#p869729d092)" d="M 50.14375 181.828978 
L 52.827518 181.254231 
L 55.511285 180.447878 
L 58.195053 179.420819 
L 60.87882 178.18048 
L 63.562588 176.705305 
L 66.246355 174.967667 
L 69.377417 172.653306 
L 74.744952 168.603602 
L 76.981425 167.176559 
L 79.217898 166.0352 
L 81.007077 165.373152 
L 82.796255 164.957477 
L 84.585433 164.785857 
L 86.374612 164.823185 
L 89.505674 165.170337 
L 92.636736 165.46878 
L 94.873209 165.479906 
L 98.451566 165.217373 
L 102.029922 165.0176 
L 104.71369 165.118456 
L 107.844752 165.498122 
L 112.317698 166.306271 
L 115.896055 167.15535 
L 118.579822 167.999649 
L 121.710884 169.239081 
L 136.024311 175.358996 
L 141.839141 177.488487 
L 146.759381 179.074465 
L 150.785033 180.14752 
L 154.363389 180.859163 
L 157.941746 181.346681 
L 162.861986 181.781046 
L 171.360584 182.282037 
L 178.517297 182.483227 
L 190.594251 182.52726 
L 273.34375 182.5275 
L 273.34375 182.5275 
" style="fill:none;stroke:#ff7f0e;stroke-linecap:square;stroke-width:0.8;"/>
   </g>
   <g id="line2d_19">
    <path clip-path="url(#p869729d092)" d="M 50.14375 182.527498 
L 68.482828 182.431292 
L 73.403069 182.158831 
L 85.927317 181.262092 
L 90.847558 180.913532 
L 101.135333 179.948135 
L 108.292047 179.536591 
L 110.975814 179.10469 
L 113.659582 178.42911 
L 116.343349 177.525147 
L 119.474411 176.244798 
L 123.500063 174.343745 
L 127.078419 172.423287 
L 130.656776 170.248982 
L 136.024311 166.675597 
L 142.286435 162.275355 
L 146.312087 159.476875 
L 148.101265 158.453206 
L 149.890443 157.708 
L 151.232327 157.387524 
L 152.574211 157.300345 
L 153.916095 157.454876 
L 155.257978 157.841336 
L 156.599862 158.433106 
L 158.389041 159.472445 
L 161.072808 161.346213 
L 174.491646 171.319042 
L 179.859181 175.675999 
L 182.095654 177.203537 
L 184.332127 178.464658 
L 186.5686 179.456142 
L 188.805073 180.20616 
L 191.48884 180.851129 
L 194.619902 181.36264 
L 199.540143 181.907054 
L 205.354972 182.331498 
L 210.722508 182.492207 
L 221.904872 182.52741 
L 273.34375 182.5275 
L 273.34375 182.5275 
" style="fill:none;stroke:#ff7f0e;stroke-linecap:square;stroke-width:0.8;"/>
   </g>
   <g id="line2d_20">
    <path clip-path="url(#p869729d092)" d="M 50.14375 182.5275 
L 140.049962 182.416747 
L 144.522908 182.05552 
L 147.65397 181.874974 
L 150.337738 181.954359 
L 154.810684 182.159289 
L 157.494451 181.974152 
L 162.414692 181.612667 
L 168.229522 181.219596 
L 169.571405 180.887334 
L 171.360584 180.204574 
L 174.491646 178.926987 
L 176.280824 178.467762 
L 178.517297 178.151281 
L 180.75377 177.839038 
L 182.095654 177.456581 
L 182.990243 177.03678 
L 183.884832 176.437747 
L 184.779421 175.627845 
L 185.674011 174.591025 
L 187.015894 172.628688 
L 188.805073 169.460948 
L 195.514491 156.695792 
L 196.856375 153.460397 
L 198.645554 148.538444 
L 201.776616 139.769943 
L 203.118499 136.652494 
L 204.013089 134.955136 
L 204.907678 133.643154 
L 205.802267 132.800468 
L 206.249562 132.584206 
L 206.696856 132.520164 
L 207.144151 132.618859 
L 207.591445 132.889072 
L 208.03874 133.337168 
L 208.933329 134.777052 
L 209.827918 136.923047 
L 210.722508 139.701773 
L 212.064391 144.776197 
L 216.984632 164.820841 
L 218.326516 169.030394 
L 219.668399 172.383818 
L 220.562988 174.140997 
L 221.457578 175.542729 
L 222.352167 176.635612 
L 223.694051 177.837209 
L 225.483229 178.987407 
L 228.614291 180.661814 
L 230.403469 181.41954 
L 232.192648 181.933221 
L 234.429121 182.288984 
L 237.112888 182.468426 
L 242.033129 182.526336 
L 273.34375 182.5275 
L 273.34375 182.5275 
" style="fill:none;stroke:#ff7f0e;stroke-linecap:square;stroke-width:0.8;"/>
   </g>
   <g id="line2d_21">
    <path clip-path="url(#p869729d092)" d="M 50.14375 182.5275 
L 206.249562 182.457337 
L 207.591445 182.252044 
L 210.275213 181.66101 
L 211.169802 181.734691 
L 214.748159 182.474741 
L 217.431926 182.526916 
L 222.799461 182.468725 
L 224.141345 182.225978 
L 225.035934 181.849206 
L 226.377818 180.982015 
L 227.719702 180.158445 
L 229.061586 179.664373 
L 230.403469 179.222501 
L 231.298059 178.753582 
L 232.192648 177.9889 
L 233.087237 176.735256 
L 233.981826 174.706967 
L 234.876415 171.497295 
L 235.771005 166.703808 
L 236.665594 160.240521 
L 238.007477 148.36299 
L 240.691245 124.045739 
L 241.585834 117.630863 
L 242.480423 112.704683 
L 243.375013 109.222759 
L 244.269602 106.818744 
L 245.611485 104.122958 
L 246.506075 102.684214 
L 246.953369 102.277778 
L 247.400664 102.271826 
L 247.847958 102.821206 
L 248.295253 104.053358 
L 248.742548 106.045808 
L 249.189842 108.816611 
L 250.084431 116.49037 
L 251.426315 131.551495 
L 253.215493 151.710008 
L 254.110083 159.746095 
L 255.004672 166.168665 
L 255.899261 171.12836 
L 256.79385 174.707878 
L 257.688439 176.994182 
L 258.583029 178.281024 
L 259.924912 179.408275 
L 263.055974 181.935377 
L 263.950564 182.285377 
L 265.292447 182.484897 
L 268.42351 182.527392 
L 273.34375 182.5275 
L 273.34375 182.5275 
" style="fill:none;stroke:#ff7f0e;stroke-linecap:square;stroke-width:0.8;"/>
   </g>
   <g id="line2d_22">
    <path clip-path="url(#p869729d092)" d="M 50.14375 156.220548 
L 51.932928 154.416674 
L 53.722107 152.969679 
L 55.06399 152.157368 
L 56.405874 151.601888 
L 57.747758 151.316641 
L 59.089642 151.30778 
L 60.431526 151.573974 
L 61.773409 152.106527 
L 63.115293 152.889821 
L 64.457177 153.902057 
L 66.246355 155.5606 
L 68.482828 158.023886 
L 71.61389 161.913391 
L 76.981425 168.67237 
L 79.665193 171.670737 
L 81.901666 173.855079 
L 84.138139 175.72472 
L 86.374612 177.279782 
L 88.611085 178.539651 
L 90.847558 179.536205 
L 93.084031 180.307669 
L 95.767798 180.991993 
L 98.89886 181.537597 
L 102.477217 181.930515 
L 107.397457 182.22869 
L 114.554171 182.418684 
L 127.973009 182.514909 
L 182.990243 182.5275 
L 249.189842 182.416631 
L 273.34375 182.16139 
L 273.34375 182.16139 
" style="fill:none;stroke:#2ca02c;stroke-linecap:square;stroke-width:0.8;"/>
   </g>
   <g id="line2d_23">
    <path clip-path="url(#p869729d092)" d="M 50.14375 181.747991 
L 52.380223 181.218548 
L 54.616696 180.463915 
L 56.853169 179.458977 
L 59.089642 178.203416 
L 61.773409 176.409274 
L 65.799061 173.367787 
L 69.824712 170.377784 
L 72.508479 168.665393 
L 74.744952 167.488718 
L 76.981425 166.549985 
L 79.217898 165.82699 
L 81.901666 165.190716 
L 85.032728 164.693272 
L 88.16379 164.425296 
L 90.847558 164.401012 
L 93.531325 164.609207 
L 96.215093 165.079919 
L 98.89886 165.80531 
L 102.477217 167.059353 
L 108.292047 169.161059 
L 111.423109 170.02293 
L 115.001465 170.741811 
L 121.710884 172.024055 
L 131.551365 174.212026 
L 140.497257 175.718945 
L 144.522908 176.764515 
L 150.785033 178.397476 
L 155.705273 179.409035 
L 165.993049 181.237921 
L 170.465994 181.837131 
L 174.93894 182.205635 
L 179.859181 182.37371 
L 188.805073 182.389511 
L 204.907678 182.513206 
L 236.665594 182.5275 
L 273.34375 182.5275 
L 273.34375 182.5275 
" style="fill:none;stroke:#2ca02c;stroke-linecap:square;stroke-width:0.8;"/>
   </g>
   <g id="line2d_24">
    <path clip-path="url(#p869729d092)" d="M 50.14375 182.527479 
L 68.035534 182.428827 
L 73.403069 182.176167 
L 79.217898 181.665263 
L 94.425914 179.943956 
L 111.423109 177.852373 
L 114.106876 177.257873 
L 116.790644 176.419696 
L 120.816295 174.882803 
L 127.078419 172.533277 
L 132.893249 170.336636 
L 136.024311 168.913887 
L 138.708079 167.456219 
L 141.391846 165.750206 
L 147.65397 161.570442 
L 149.443149 160.696534 
L 151.232327 160.113279 
L 152.574211 159.890004 
L 153.916095 159.853405 
L 155.257978 159.995431 
L 157.047157 160.436036 
L 158.836335 161.121861 
L 161.072808 162.251737 
L 163.756576 163.892036 
L 168.229522 166.952064 
L 173.149762 170.241308 
L 177.175413 172.638697 
L 181.201065 174.764866 
L 185.674011 176.870881 
L 189.699662 178.524848 
L 193.278019 179.747572 
L 196.409081 180.60078 
L 199.540143 181.244423 
L 203.118499 181.734119 
L 207.144151 182.043382 
L 214.300864 182.325438 
L 223.694051 182.503829 
L 242.480423 182.527499 
L 273.34375 182.5275 
L 273.34375 182.5275 
" style="fill:none;stroke:#2ca02c;stroke-linecap:square;stroke-width:0.8;"/>
   </g>
   <g id="line2d_25">
    <path clip-path="url(#p869729d092)" d="M 50.14375 182.5275 
L 130.209481 182.429218 
L 138.708079 182.135587 
L 147.206676 182.168282 
L 151.232327 182.097208 
L 155.257978 182.298528 
L 158.389041 182.386699 
L 160.625514 182.258786 
L 163.309281 181.870871 
L 170.0187 180.562771 
L 172.255173 179.916319 
L 180.75377 176.930853 
L 182.095654 176.040584 
L 183.437538 174.850353 
L 184.779421 173.335803 
L 186.121305 171.498066 
L 187.910483 168.617238 
L 191.041546 162.974456 
L 193.278019 158.644308 
L 194.619902 155.64335 
L 195.961786 152.165297 
L 200.434732 139.75034 
L 201.329321 138.039826 
L 202.22391 136.816642 
L 203.118499 136.100328 
L 204.013089 135.874739 
L 204.907678 136.104241 
L 205.802267 136.749482 
L 206.696856 137.776446 
L 207.591445 139.156708 
L 208.933329 141.826455 
L 210.275213 145.108357 
L 212.064391 150.190859 
L 215.642748 161.424961 
L 217.879221 167.960128 
L 219.221105 171.30381 
L 220.562988 174.092367 
L 221.904872 176.288542 
L 223.246756 177.914138 
L 224.58864 179.051581 
L 225.930524 179.823635 
L 227.719702 180.499239 
L 230.403469 181.17963 
L 234.876415 182.097314 
L 237.560183 182.406874 
L 240.691245 182.514068 
L 253.662788 182.5275 
L 273.34375 182.5275 
L 273.34375 182.5275 
" style="fill:none;stroke:#2ca02c;stroke-linecap:square;stroke-width:0.8;"/>
   </g>
   <g id="line2d_26">
    <path clip-path="url(#p869729d092)" d="M 50.14375 182.5275 
L 214.300864 182.457656 
L 215.642748 182.218401 
L 216.984632 181.674043 
L 218.326516 181.054422 
L 219.221105 180.893445 
L 220.115694 181.053197 
L 222.799461 182.060483 
L 223.694051 182.022511 
L 224.58864 181.715079 
L 225.483229 181.184307 
L 226.825113 180.05953 
L 227.719702 179.048341 
L 228.614291 177.767024 
L 229.956175 175.470933 
L 230.850764 173.721724 
L 231.745353 171.430164 
L 232.639942 168.020843 
L 233.534532 163.113465 
L 234.429121 156.811802 
L 236.665594 140.063176 
L 237.560183 135.32243 
L 239.796656 125.208456 
L 241.13854 116.654529 
L 242.033129 111.102641 
L 242.927718 107.042798 
L 243.375013 105.827664 
L 243.822307 105.218757 
L 244.269602 105.208853 
L 244.716896 105.744531 
L 245.164191 106.733141 
L 246.05878 109.622502 
L 246.953369 113.220836 
L 247.847958 117.659509 
L 248.742548 123.687836 
L 249.637137 131.718994 
L 252.320904 158.228775 
L 253.215493 164.374223 
L 254.110083 169.097253 
L 255.004672 172.816372 
L 255.899261 175.742367 
L 256.79385 177.93808 
L 257.688439 179.467728 
L 258.583029 180.467411 
L 259.477618 181.125119 
L 260.819502 181.800164 
L 262.161385 182.242046 
L 263.503269 182.453138 
L 265.739742 182.524705 
L 273.34375 182.5275 
L 273.34375 182.5275 
" style="fill:none;stroke:#2ca02c;stroke-linecap:square;stroke-width:0.8;"/>
   </g>
   <g id="line2d_27">
    <path clip-path="url(#p869729d092)" d="M 50.14375 161.044228 
L 52.380223 159.700341 
L 54.169401 158.844457 
L 55.95858 158.210474 
L 57.747758 157.816667 
L 59.536936 157.674067 
L 61.326115 157.78594 
L 63.115293 158.147666 
L 64.904471 158.747024 
L 66.69365 159.564868 
L 68.930123 160.855772 
L 71.61389 162.720053 
L 75.192247 165.55244 
L 83.24355 172.09751 
L 86.374612 174.322303 
L 89.058379 175.990251 
L 91.742147 177.418942 
L 94.425914 178.609468 
L 97.109682 179.576346 
L 100.240744 180.453109 
L 103.371806 181.101854 
L 106.950163 181.6228 
L 111.423109 182.033738 
L 117.237938 182.315515 
L 125.736536 182.472636 
L 144.075614 182.525741 
L 234.876415 182.448444 
L 250.531726 182.190897 
L 273.34375 181.718941 
L 273.34375 181.718941 
" style="fill:none;stroke:#d62728;stroke-linecap:square;stroke-width:0.8;"/>
   </g>
   <g id="line2d_28">
    <path clip-path="url(#p869729d092)" d="M 50.14375 181.699356 
L 52.380223 181.161286 
L 54.616696 180.410075 
L 56.853169 179.436907 
L 59.536936 178.012607 
L 64.009882 175.304137 
L 68.482828 172.672191 
L 72.955774 170.328286 
L 79.665193 167.076473 
L 82.796255 165.797196 
L 85.032728 165.106043 
L 87.269201 164.655309 
L 89.505674 164.461627 
L 91.742147 164.514917 
L 93.97862 164.788074 
L 96.662387 165.354875 
L 99.793449 166.250765 
L 111.423109 169.816529 
L 118.132528 171.447568 
L 123.947357 172.650326 
L 128.867598 173.430297 
L 140.944552 175.165837 
L 144.522908 176.014139 
L 150.785033 177.808987 
L 155.257978 178.962217 
L 158.836335 179.663145 
L 163.309281 180.289491 
L 171.360584 181.119643 
L 182.095654 182.056753 
L 188.357778 182.375441 
L 195.514491 182.505221 
L 215.195453 182.527498 
L 273.34375 182.5275 
L 273.34375 182.5275 
" style="fill:none;stroke:#d62728;stroke-linecap:square;stroke-width:0.8;"/>
   </g>
   <g id="line2d_29">
    <path clip-path="url(#p869729d092)" d="M 50.14375 182.526432 
L 63.115293 182.414788 
L 69.377417 182.132385 
L 76.534131 181.565603 
L 86.821906 180.724912 
L 92.636736 180.557183 
L 98.451566 180.344619 
L 102.477217 179.969657 
L 107.397457 179.264978 
L 119.027117 177.355044 
L 122.158179 176.561436 
L 126.18383 175.296605 
L 134.235133 172.727984 
L 139.602668 170.997438 
L 143.181025 169.607081 
L 146.759381 167.946911 
L 151.679622 165.354494 
L 155.705273 163.342264 
L 158.389041 162.258682 
L 160.625514 161.579058 
L 162.861986 161.135318 
L 164.651165 160.973133 
L 166.440343 161.006382 
L 168.229522 161.259081 
L 170.0187 161.750837 
L 171.807878 162.490375 
L 173.597057 163.471079 
L 175.83353 164.999066 
L 178.517297 167.167402 
L 186.5686 173.978532 
L 189.252367 175.8059 
L 191.936135 177.330958 
L 194.619902 178.603029 
L 197.750964 179.820716 
L 200.434732 180.640308 
L 203.118499 181.240762 
L 205.802267 181.63072 
L 209.380624 181.899543 
L 216.537337 182.114967 
L 233.534532 182.514493 
L 261.714091 182.5275 
L 273.34375 182.5275 
L 273.34375 182.5275 
" style="fill:none;stroke:#d62728;stroke-linecap:square;stroke-width:0.8;"/>
   </g>
   <g id="line2d_30">
    <path clip-path="url(#p869729d092)" d="M 50.14375 182.5275 
L 123.052768 182.417631 
L 130.656776 182.168923 
L 135.577017 182.278904 
L 140.049962 182.349197 
L 145.864792 182.303356 
L 153.916095 182.512928 
L 158.836335 182.374823 
L 169.124111 181.709346 
L 171.807878 181.303868 
L 174.491646 180.653458 
L 176.728119 179.874418 
L 178.517297 178.998284 
L 180.306475 177.858864 
L 182.542948 176.173117 
L 184.779421 174.219264 
L 186.5686 172.307439 
L 188.805073 169.495362 
L 192.383429 164.686924 
L 193.725313 162.525115 
L 195.067197 159.847866 
L 196.409081 156.576172 
L 200.882027 144.670272 
L 201.776616 142.951344 
L 202.671205 141.58995 
L 203.565794 140.547176 
L 204.907678 139.419823 
L 206.249562 138.603693 
L 207.591445 138.020475 
L 208.486035 137.840455 
L 209.380624 137.948943 
L 210.275213 138.472225 
L 211.169802 139.523765 
L 212.064391 141.175486 
L 212.95898 143.437068 
L 213.85357 146.248156 
L 215.195453 151.212622 
L 218.326516 163.286414 
L 219.668399 167.541172 
L 221.010283 170.967489 
L 222.352167 173.641235 
L 223.694051 175.737109 
L 225.035934 177.423591 
L 226.377818 178.790752 
L 227.719702 179.852012 
L 229.061586 180.607382 
L 230.403469 181.102 
L 232.192648 181.511626 
L 235.32371 181.968777 
L 238.454772 182.176934 
L 248.295253 182.400578 
L 254.110083 182.289036 
L 264.397858 182.526764 
L 273.34375 182.5275 
L 273.34375 182.5275 
" style="fill:none;stroke:#d62728;stroke-linecap:square;stroke-width:0.8;"/>
   </g>
   <g id="line2d_31">
    <path clip-path="url(#p869729d092)" d="M 50.14375 182.5275 
L 202.22391 182.42385 
L 204.013089 182.155058 
L 206.249562 181.804871 
L 207.591445 181.874631 
L 212.064391 182.496346 
L 216.537337 182.526582 
L 219.668399 182.449882 
L 221.010283 182.23542 
L 222.352167 181.735159 
L 223.694051 180.915765 
L 225.930524 179.181127 
L 227.272407 177.950727 
L 228.166996 176.855866 
L 229.061586 175.29458 
L 229.956175 173.029875 
L 230.850764 169.931155 
L 231.745353 166.059511 
L 233.534532 156.929491 
L 235.32371 147.782514 
L 238.902067 131.054889 
L 240.691245 121.321309 
L 241.585834 118.019813 
L 242.033129 117.085265 
L 242.480423 116.640599 
L 242.927718 116.630311 
L 243.375013 116.958853 
L 244.269602 118.163233 
L 245.611485 119.976056 
L 246.506075 121.027891 
L 246.953369 121.706583 
L 247.400664 122.626506 
L 247.847958 123.886667 
L 248.295253 125.5629 
L 249.189842 130.286616 
L 250.084431 136.626781 
L 252.320904 154.103495 
L 253.215493 159.576598 
L 254.110083 163.794096 
L 255.004672 167.072889 
L 256.346556 171.123128 
L 258.135734 175.881162 
L 259.030323 177.849809 
L 259.924912 179.394559 
L 260.819502 180.514031 
L 261.714091 181.286504 
L 262.60868 181.805171 
L 263.950564 182.255092 
L 265.292447 182.448916 
L 267.976215 182.525071 
L 273.34375 182.5275 
L 273.34375 182.5275 
" style="fill:none;stroke:#d62728;stroke-linecap:square;stroke-width:0.8;"/>
   </g>
   <g id="line2d_32">
    <path clip-path="url(#p869729d092)" d="M 50.14375 161.14892 
L 52.380223 160.032723 
L 54.169401 159.349544 
L 55.95858 158.873279 
L 57.747758 158.616935 
L 59.536936 158.587371 
L 61.326115 158.784989 
L 63.115293 159.20374 
L 64.904471 159.831429 
L 67.140944 160.88235 
L 69.377417 162.186878 
L 72.061185 164.01192 
L 76.086836 167.070794 
L 82.796255 172.226662 
L 86.374612 174.661628 
L 89.505674 176.499918 
L 92.189441 177.835593 
L 94.873209 178.949582 
L 98.004271 179.98623 
L 101.135333 180.77197 
L 104.71369 181.415515 
L 108.739341 181.890265 
L 113.659582 182.224134 
L 120.369001 182.428633 
L 131.99866 182.516987 
L 189.699662 182.527455 
L 237.560183 182.418672 
L 253.215493 182.133848 
L 273.34375 181.611159 
L 273.34375 181.611159 
" style="fill:none;stroke:#9467bd;stroke-linecap:square;stroke-width:0.8;"/>
   </g>
   <g id="line2d_33">
    <path clip-path="url(#p869729d092)" d="M 50.14375 181.534066 
L 52.827518 180.896228 
L 55.511285 180.03996 
L 58.642347 178.783877 
L 62.220704 177.089953 
L 73.850363 171.353087 
L 76.534131 170.395782 
L 78.770604 169.807395 
L 81.007077 169.415711 
L 83.690844 169.166456 
L 88.16379 169.032681 
L 100.688039 168.864522 
L 103.819101 169.194088 
L 110.975814 170.076902 
L 113.659582 170.115171 
L 116.343349 169.933115 
L 123.947357 169.233646 
L 126.18383 169.323346 
L 128.420303 169.626908 
L 131.104071 170.24516 
L 134.235133 171.213432 
L 140.944552 173.61094 
L 146.759381 175.587743 
L 150.785033 176.734011 
L 154.810684 177.642752 
L 160.178219 178.586178 
L 175.386235 180.930367 
L 180.75377 181.500475 
L 187.463189 181.971454 
L 195.961786 182.353113 
L 204.460383 182.502593 
L 224.58864 182.527495 
L 273.34375 182.5275 
L 273.34375 182.5275 
" style="fill:none;stroke:#9467bd;stroke-linecap:square;stroke-width:0.8;"/>
   </g>
   <g id="line2d_34">
    <path clip-path="url(#p869729d092)" d="M 50.14375 182.527483 
L 69.824712 182.418788 
L 77.876015 182.095337 
L 95.767798 181.144889 
L 102.029922 180.555368 
L 107.844752 179.784965 
L 114.106876 178.720577 
L 121.710884 177.219489 
L 125.289241 176.313925 
L 128.420303 175.289808 
L 131.551365 174.034238 
L 136.471606 171.778862 
L 143.181025 168.739085 
L 155.257978 163.634405 
L 158.389041 162.559608 
L 160.625514 161.98797 
L 162.861986 161.63952 
L 164.651165 161.560093 
L 166.440343 161.686442 
L 168.229522 162.032974 
L 170.0187 162.594995 
L 172.255173 163.559318 
L 174.93894 164.988613 
L 178.964592 167.409347 
L 183.884832 170.603237 
L 191.041546 175.294221 
L 193.725313 176.73834 
L 196.409081 177.911273 
L 199.092848 178.84588 
L 202.671205 179.834 
L 206.696856 180.718544 
L 210.722508 181.386106 
L 214.748159 181.809821 
L 219.668399 182.064326 
L 233.981826 182.438964 
L 245.164191 182.524643 
L 273.34375 182.5275 
L 273.34375 182.5275 
" style="fill:none;stroke:#9467bd;stroke-linecap:square;stroke-width:0.8;"/>
   </g>
   <g id="line2d_35">
    <path clip-path="url(#p869729d092)" d="M 50.14375 182.5275 
L 120.816295 182.433181 
L 126.631125 182.2673 
L 138.260784 182.527365 
L 161.072808 182.438434 
L 169.124111 181.947085 
L 170.913289 181.739024 
L 172.255173 181.412461 
L 173.597057 180.879389 
L 175.386235 179.866252 
L 180.306475 176.80831 
L 182.542948 175.473131 
L 183.884832 174.428213 
L 185.226716 173.052197 
L 186.5686 171.273081 
L 187.910483 169.079123 
L 189.252367 166.501747 
L 191.041546 162.573239 
L 194.619902 154.374897 
L 196.409081 150.999214 
L 199.540143 145.508177 
L 203.565794 137.627634 
L 204.460383 136.614015 
L 204.907678 136.310646 
L 205.354972 136.154446 
L 205.802267 136.150113 
L 206.249562 136.299702 
L 206.696856 136.603141 
L 207.591445 137.66326 
L 208.486035 139.301084 
L 209.380624 141.466611 
L 210.722508 145.53105 
L 212.95898 153.487316 
L 214.748159 159.703794 
L 216.090043 163.732264 
L 217.431926 167.033988 
L 218.77381 169.6054 
L 220.115694 171.570061 
L 221.457578 173.12838 
L 223.694051 175.317097 
L 225.930524 177.239647 
L 227.272407 178.173386 
L 228.614291 178.880034 
L 230.403469 179.535125 
L 234.876415 181.011383 
L 237.560183 181.883108 
L 239.349361 182.245471 
L 241.585834 182.454624 
L 245.611485 182.525124 
L 273.34375 182.5275 
L 273.34375 182.5275 
" style="fill:none;stroke:#9467bd;stroke-linecap:square;stroke-width:0.8;"/>
   </g>
   <g id="line2d_36">
    <path clip-path="url(#p869729d092)" d="M 50.14375 182.5275 
L 210.722508 182.434274 
L 212.064391 182.218327 
L 213.406275 181.793655 
L 215.642748 180.991738 
L 216.537337 180.866592 
L 217.879221 180.962703 
L 221.457578 181.524339 
L 222.352167 181.36648 
L 223.246756 180.991152 
L 224.58864 180.083393 
L 225.930524 178.848696 
L 226.825113 177.743105 
L 227.719702 176.227474 
L 228.614291 174.149733 
L 229.50888 171.465224 
L 230.850764 166.574717 
L 233.087237 157.494787 
L 234.429121 150.88429 
L 235.771005 142.652605 
L 237.560183 131.325711 
L 238.902067 124.282308 
L 240.24395 118.302482 
L 241.13854 114.996594 
L 241.585834 113.724829 
L 242.033129 112.818919 
L 242.480423 112.355872 
L 242.927718 112.392884 
L 243.375013 112.959524 
L 243.822307 114.054577 
L 244.269602 115.647204 
L 245.164191 120.08195 
L 246.506075 128.592907 
L 248.295253 139.932099 
L 249.637137 146.857893 
L 251.426315 154.427533 
L 254.110083 164.578464 
L 255.899261 170.362001 
L 257.241145 174.056982 
L 258.583029 177.189153 
L 259.477618 178.887789 
L 260.372207 180.201131 
L 261.266796 181.097109 
L 262.161385 181.601083 
L 263.055974 181.799445 
L 264.845153 181.795086 
L 266.187037 181.862416 
L 271.554572 182.510908 
L 273.34375 182.526097 
L 273.34375 182.526097 
" style="fill:none;stroke:#9467bd;stroke-linecap:square;stroke-width:0.8;"/>
   </g>
   <g id="patch_3">
    <path d="M 50.14375 182.5275 
L 50.14375 35.7555 
" style="fill:none;stroke:#000000;stroke-linecap:square;stroke-linejoin:miter;stroke-width:0.8;"/>
   </g>
   <g id="patch_4">
    <path d="M 273.34375 182.5275 
L 273.34375 35.7555 
" style="fill:none;stroke:#000000;stroke-linecap:square;stroke-linejoin:miter;stroke-width:0.8;"/>
   </g>
   <g id="patch_5">
    <path d="M 50.14375 182.5275 
L 273.34375 182.5275 
" style="fill:none;stroke:#000000;stroke-linecap:square;stroke-linejoin:miter;stroke-width:0.8;"/>
   </g>
   <g id="patch_6">
    <path d="M 50.14375 35.7555 
L 273.34375 35.7555 
" style="fill:none;stroke:#000000;stroke-linecap:square;stroke-linejoin:miter;stroke-width:0.8;"/>
   </g>
   <g id="text_14">
    <!-- Conductance Dist. Broadening -->
    <g transform="translate(70.48375 16.318125)scale(0.12 -0.12)">
     <defs>
      <path d="M 19.671875 34.8125 
L 19.671875 8.109375 
L 35.5 8.109375 
Q 43.453125 8.109375 47.28125 11.40625 
Q 51.125 14.703125 51.125 21.484375 
Q 51.125 28.328125 47.28125 31.5625 
Q 43.453125 34.8125 35.5 34.8125 
z
M 19.671875 64.796875 
L 19.671875 42.828125 
L 34.28125 42.828125 
Q 41.5 42.828125 45.03125 45.53125 
Q 48.578125 48.25 48.578125 53.8125 
Q 48.578125 59.328125 45.03125 62.0625 
Q 41.5 64.796875 34.28125 64.796875 
z
M 9.8125 72.90625 
L 35.015625 72.90625 
Q 46.296875 72.90625 52.390625 68.21875 
Q 58.5 63.53125 58.5 54.890625 
Q 58.5 48.1875 55.375 44.234375 
Q 52.25 40.28125 46.1875 39.3125 
Q 53.46875 37.75 57.5 32.78125 
Q 61.53125 27.828125 61.53125 20.40625 
Q 61.53125 10.640625 54.890625 5.3125 
Q 48.25 0 35.984375 0 
L 9.8125 0 
z
" id="DejaVuSans-66"/>
      <path d="M 45.40625 27.984375 
Q 45.40625 37.75 41.375 43.109375 
Q 37.359375 48.484375 30.078125 48.484375 
Q 22.859375 48.484375 18.828125 43.109375 
Q 14.796875 37.75 14.796875 27.984375 
Q 14.796875 18.265625 18.828125 12.890625 
Q 22.859375 7.515625 30.078125 7.515625 
Q 37.359375 7.515625 41.375 12.890625 
Q 45.40625 18.265625 45.40625 27.984375 
z
M 54.390625 6.78125 
Q 54.390625 -7.171875 48.1875 -13.984375 
Q 42 -20.796875 29.203125 -20.796875 
Q 24.46875 -20.796875 20.265625 -20.09375 
Q 16.0625 -19.390625 12.109375 -17.921875 
L 12.109375 -9.1875 
Q 16.0625 -11.328125 19.921875 -12.34375 
Q 23.78125 -13.375 27.78125 -13.375 
Q 36.625 -13.375 41.015625 -8.765625 
Q 45.40625 -4.15625 45.40625 5.171875 
L 45.40625 9.625 
Q 42.625 4.78125 38.28125 2.390625 
Q 33.9375 0 27.875 0 
Q 17.828125 0 11.671875 7.65625 
Q 5.515625 15.328125 5.515625 27.984375 
Q 5.515625 40.671875 11.671875 48.328125 
Q 17.828125 56 27.875 56 
Q 33.9375 56 38.28125 53.609375 
Q 42.625 51.21875 45.40625 46.390625 
L 45.40625 54.6875 
L 54.390625 54.6875 
z
" id="DejaVuSans-103"/>
     </defs>
     <use xlink:href="#DejaVuSans-67"/>
     <use x="69.824219" xlink:href="#DejaVuSans-111"/>
     <use x="131.005859" xlink:href="#DejaVuSans-110"/>
     <use x="194.384766" xlink:href="#DejaVuSans-100"/>
     <use x="257.861328" xlink:href="#DejaVuSans-117"/>
     <use x="321.240234" xlink:href="#DejaVuSans-99"/>
     <use x="376.220703" xlink:href="#DejaVuSans-116"/>
     <use x="415.429688" xlink:href="#DejaVuSans-97"/>
     <use x="476.708984" xlink:href="#DejaVuSans-110"/>
     <use x="540.087891" xlink:href="#DejaVuSans-99"/>
     <use x="595.068359" xlink:href="#DejaVuSans-101"/>
     <use x="656.591797" xlink:href="#DejaVuSans-32"/>
     <use x="688.378906" xlink:href="#DejaVuSans-68"/>
     <use x="765.380859" xlink:href="#DejaVuSans-105"/>
     <use x="793.164062" xlink:href="#DejaVuSans-115"/>
     <use x="845.263672" xlink:href="#DejaVuSans-116"/>
     <use x="884.472656" xlink:href="#DejaVuSans-46"/>
     <use x="916.259766" xlink:href="#DejaVuSans-32"/>
     <use x="948.046875" xlink:href="#DejaVuSans-66"/>
     <use x="1016.650391" xlink:href="#DejaVuSans-114"/>
     <use x="1055.513672" xlink:href="#DejaVuSans-111"/>
     <use x="1116.695312" xlink:href="#DejaVuSans-97"/>
     <use x="1177.974609" xlink:href="#DejaVuSans-100"/>
     <use x="1241.451172" xlink:href="#DejaVuSans-101"/>
     <use x="1302.974609" xlink:href="#DejaVuSans-110"/>
     <use x="1366.353516" xlink:href="#DejaVuSans-105"/>
     <use x="1394.136719" xlink:href="#DejaVuSans-110"/>
     <use x="1457.515625" xlink:href="#DejaVuSans-103"/>
    </g>
    <!-- (Tech B, 1hr Bake @ Temp T) -->
    <g transform="translate(75.675625 29.7555)scale(0.12 -0.12)">
     <defs>
      <path d="M -0.296875 72.90625 
L 61.375 72.90625 
L 61.375 64.59375 
L 35.5 64.59375 
L 35.5 0 
L 25.59375 0 
L 25.59375 64.59375 
L -0.296875 64.59375 
z
" id="DejaVuSans-84"/>
      <path d="M 54.890625 33.015625 
L 54.890625 0 
L 45.90625 0 
L 45.90625 32.71875 
Q 45.90625 40.484375 42.875 44.328125 
Q 39.84375 48.1875 33.796875 48.1875 
Q 26.515625 48.1875 22.3125 43.546875 
Q 18.109375 38.921875 18.109375 30.90625 
L 18.109375 0 
L 9.078125 0 
L 9.078125 75.984375 
L 18.109375 75.984375 
L 18.109375 46.1875 
Q 21.34375 51.125 25.703125 53.5625 
Q 30.078125 56 35.796875 56 
Q 45.21875 56 50.046875 50.171875 
Q 54.890625 44.34375 54.890625 33.015625 
z
" id="DejaVuSans-104"/>
      <path d="M 11.71875 12.40625 
L 22.015625 12.40625 
L 22.015625 4 
L 14.015625 -11.625 
L 7.71875 -11.625 
L 11.71875 4 
z
" id="DejaVuSans-44"/>
      <path d="M 9.078125 75.984375 
L 18.109375 75.984375 
L 18.109375 31.109375 
L 44.921875 54.6875 
L 56.390625 54.6875 
L 27.390625 29.109375 
L 57.625 0 
L 45.90625 0 
L 18.109375 26.703125 
L 18.109375 0 
L 9.078125 0 
z
" id="DejaVuSans-107"/>
      <path d="M 37.203125 26.21875 
Q 37.203125 19.234375 40.671875 15.25 
Q 44.140625 11.28125 50.203125 11.28125 
Q 56.203125 11.28125 59.640625 15.28125 
Q 63.09375 19.28125 63.09375 26.21875 
Q 63.09375 33.0625 59.578125 37.078125 
Q 56.0625 41.109375 50.09375 41.109375 
Q 44.1875 41.109375 40.6875 37.109375 
Q 37.203125 33.109375 37.203125 26.21875 
z
M 63.8125 11.625 
Q 60.890625 7.859375 57.109375 6.078125 
Q 53.328125 4.296875 48.296875 4.296875 
Q 39.890625 4.296875 34.640625 10.375 
Q 29.390625 16.453125 29.390625 26.21875 
Q 29.390625 35.984375 34.65625 42.078125 
Q 39.9375 48.1875 48.296875 48.1875 
Q 53.328125 48.1875 57.125 46.359375 
Q 60.9375 44.53125 63.8125 40.828125 
L 63.8125 47.21875 
L 70.796875 47.21875 
L 70.796875 11.28125 
Q 77.9375 12.359375 81.953125 17.796875 
Q 85.984375 23.25 85.984375 31.890625 
Q 85.984375 37.109375 84.4375 41.703125 
Q 82.90625 46.296875 79.78125 50.203125 
Q 74.703125 56.59375 67.40625 59.984375 
Q 60.109375 63.375 51.515625 63.375 
Q 45.515625 63.375 39.984375 61.78125 
Q 34.46875 60.203125 29.78125 57.078125 
Q 22.125 52.09375 17.796875 44.015625 
Q 13.484375 35.9375 13.484375 26.515625 
Q 13.484375 18.75 16.28125 11.953125 
Q 19.09375 5.171875 24.421875 0 
Q 29.546875 -5.078125 36.28125 -7.734375 
Q 43.015625 -10.40625 50.6875 -10.40625 
Q 56.984375 -10.40625 63.0625 -8.28125 
Q 69.140625 -6.15625 74.21875 -2.203125 
L 78.609375 -7.625 
Q 72.515625 -12.359375 65.3125 -14.875 
Q 58.109375 -17.390625 50.6875 -17.390625 
Q 41.65625 -17.390625 33.640625 -14.1875 
Q 25.640625 -10.984375 19.390625 -4.890625 
Q 13.140625 1.21875 9.859375 9.25 
Q 6.59375 17.28125 6.59375 26.515625 
Q 6.59375 35.40625 9.90625 43.453125 
Q 13.234375 51.515625 19.390625 57.625 
Q 25.6875 63.8125 33.9375 67.109375 
Q 42.1875 70.40625 51.421875 70.40625 
Q 61.765625 70.40625 70.625 66.15625 
Q 79.5 61.921875 85.5 54.109375 
Q 89.15625 49.3125 91.078125 43.703125 
Q 93.015625 38.09375 93.015625 32.078125 
Q 93.015625 19.234375 85.25 11.8125 
Q 77.484375 4.390625 63.8125 4.109375 
z
" id="DejaVuSans-64"/>
      <path d="M 52 44.1875 
Q 55.375 50.25 60.0625 53.125 
Q 64.75 56 71.09375 56 
Q 79.640625 56 84.28125 50.015625 
Q 88.921875 44.046875 88.921875 33.015625 
L 88.921875 0 
L 79.890625 0 
L 79.890625 32.71875 
Q 79.890625 40.578125 77.09375 44.375 
Q 74.3125 48.1875 68.609375 48.1875 
Q 61.625 48.1875 57.5625 43.546875 
Q 53.515625 38.921875 53.515625 30.90625 
L 53.515625 0 
L 44.484375 0 
L 44.484375 32.71875 
Q 44.484375 40.625 41.703125 44.40625 
Q 38.921875 48.1875 33.109375 48.1875 
Q 26.21875 48.1875 22.15625 43.53125 
Q 18.109375 38.875 18.109375 30.90625 
L 18.109375 0 
L 9.078125 0 
L 9.078125 54.6875 
L 18.109375 54.6875 
L 18.109375 46.1875 
Q 21.1875 51.21875 25.484375 53.609375 
Q 29.78125 56 35.6875 56 
Q 41.65625 56 45.828125 52.96875 
Q 50 49.953125 52 44.1875 
z
" id="DejaVuSans-109"/>
      <path d="M 18.109375 8.203125 
L 18.109375 -20.796875 
L 9.078125 -20.796875 
L 9.078125 54.6875 
L 18.109375 54.6875 
L 18.109375 46.390625 
Q 20.953125 51.265625 25.265625 53.625 
Q 29.59375 56 35.59375 56 
Q 45.5625 56 51.78125 48.09375 
Q 58.015625 40.1875 58.015625 27.296875 
Q 58.015625 14.40625 51.78125 6.484375 
Q 45.5625 -1.421875 35.59375 -1.421875 
Q 29.59375 -1.421875 25.265625 0.953125 
Q 20.953125 3.328125 18.109375 8.203125 
z
M 48.6875 27.296875 
Q 48.6875 37.203125 44.609375 42.84375 
Q 40.53125 48.484375 33.40625 48.484375 
Q 26.265625 48.484375 22.1875 42.84375 
Q 18.109375 37.203125 18.109375 27.296875 
Q 18.109375 17.390625 22.1875 11.75 
Q 26.265625 6.109375 33.40625 6.109375 
Q 40.53125 6.109375 44.609375 11.75 
Q 48.6875 17.390625 48.6875 27.296875 
z
" id="DejaVuSans-112"/>
     </defs>
     <use xlink:href="#DejaVuSans-40"/>
     <use x="39.013672" xlink:href="#DejaVuSans-84"/>
     <use x="83.097656" xlink:href="#DejaVuSans-101"/>
     <use x="144.621094" xlink:href="#DejaVuSans-99"/>
     <use x="199.601562" xlink:href="#DejaVuSans-104"/>
     <use x="262.980469" xlink:href="#DejaVuSans-32"/>
     <use x="294.767578" xlink:href="#DejaVuSans-66"/>
     <use x="363.371094" xlink:href="#DejaVuSans-44"/>
     <use x="395.158203" xlink:href="#DejaVuSans-32"/>
     <use x="426.945312" xlink:href="#DejaVuSans-49"/>
     <use x="490.568359" xlink:href="#DejaVuSans-104"/>
     <use x="553.947266" xlink:href="#DejaVuSans-114"/>
     <use x="595.060547" xlink:href="#DejaVuSans-32"/>
     <use x="626.847656" xlink:href="#DejaVuSans-66"/>
     <use x="695.451172" xlink:href="#DejaVuSans-97"/>
     <use x="756.730469" xlink:href="#DejaVuSans-107"/>
     <use x="811.015625" xlink:href="#DejaVuSans-101"/>
     <use x="872.539062" xlink:href="#DejaVuSans-32"/>
     <use x="904.326172" xlink:href="#DejaVuSans-64"/>
     <use x="1004.326172" xlink:href="#DejaVuSans-32"/>
     <use x="1036.113281" xlink:href="#DejaVuSans-84"/>
     <use x="1080.197266" xlink:href="#DejaVuSans-101"/>
     <use x="1141.720703" xlink:href="#DejaVuSans-109"/>
     <use x="1239.132812" xlink:href="#DejaVuSans-112"/>
     <use x="1302.609375" xlink:href="#DejaVuSans-32"/>
     <use x="1334.396484" xlink:href="#DejaVuSans-84"/>
     <use x="1395.480469" xlink:href="#DejaVuSans-41"/>
    </g>
   </g>
   <g id="legend_1">
    <g id="patch_7">
     <path d="M 82.185937 87.789875 
L 241.301563 87.789875 
Q 243.301563 87.789875 243.301563 85.789875 
L 243.301563 42.7555 
Q 243.301563 40.7555 241.301563 40.7555 
L 82.185937 40.7555 
Q 80.185937 40.7555 80.185937 42.7555 
L 80.185937 85.789875 
Q 80.185937 87.789875 82.185937 87.789875 
z
" style="fill:#ffffff;opacity:0.8;stroke:#cccccc;stroke-linejoin:miter;"/>
    </g>
    <g id="line2d_37">
     <path d="M 84.185937 48.853938 
L 104.185937 48.853938 
" style="fill:none;stroke:#1f77b4;stroke-linecap:square;stroke-width:0.8;"/>
    </g>
    <g id="line2d_38"/>
    <g id="text_15">
     <!-- T=100°C -->
     <g transform="translate(106.185937 52.353938)scale(0.1 -0.1)">
      <defs>
       <path d="M 10.59375 45.40625 
L 73.1875 45.40625 
L 73.1875 37.203125 
L 10.59375 37.203125 
z
M 10.59375 25.484375 
L 73.1875 25.484375 
L 73.1875 17.1875 
L 10.59375 17.1875 
z
" id="DejaVuSans-61"/>
       <path d="M 25 67.921875 
Q 21.09375 67.921875 18.40625 65.203125 
Q 15.71875 62.5 15.71875 58.59375 
Q 15.71875 54.734375 18.40625 52.078125 
Q 21.09375 49.421875 25 49.421875 
Q 28.90625 49.421875 31.59375 52.078125 
Q 34.28125 54.734375 34.28125 58.59375 
Q 34.28125 62.453125 31.5625 65.1875 
Q 28.859375 67.921875 25 67.921875 
z
M 25 74.21875 
Q 28.125 74.21875 31 73.015625 
Q 33.890625 71.828125 35.984375 69.578125 
Q 38.234375 67.390625 39.359375 64.59375 
Q 40.484375 61.8125 40.484375 58.59375 
Q 40.484375 52.15625 35.96875 47.6875 
Q 31.453125 43.21875 24.90625 43.21875 
Q 18.3125 43.21875 13.90625 47.609375 
Q 9.515625 52 9.515625 58.59375 
Q 9.515625 65.140625 14 69.671875 
Q 18.5 74.21875 25 74.21875 
z
" id="DejaVuSans-176"/>
      </defs>
      <use xlink:href="#DejaVuSans-84"/>
      <use x="61.083984" xlink:href="#DejaVuSans-61"/>
      <use x="144.873047" xlink:href="#DejaVuSans-49"/>
      <use x="208.496094" xlink:href="#DejaVuSans-48"/>
      <use x="272.119141" xlink:href="#DejaVuSans-48"/>
      <use x="335.742188" xlink:href="#DejaVuSans-176"/>
      <use x="385.742188" xlink:href="#DejaVuSans-67"/>
     </g>
    </g>
    <g id="line2d_39">
     <path d="M 84.185937 63.532063 
L 104.185937 63.532063 
" style="fill:none;stroke:#ff7f0e;stroke-linecap:square;stroke-width:0.8;"/>
    </g>
    <g id="line2d_40"/>
    <g id="text_16">
     <!-- T=140°C -->
     <g transform="translate(106.185937 67.032063)scale(0.1 -0.1)">
      <defs>
       <path d="M 37.796875 64.3125 
L 12.890625 25.390625 
L 37.796875 25.390625 
z
M 35.203125 72.90625 
L 47.609375 72.90625 
L 47.609375 25.390625 
L 58.015625 25.390625 
L 58.015625 17.1875 
L 47.609375 17.1875 
L 47.609375 0 
L 37.796875 0 
L 37.796875 17.1875 
L 4.890625 17.1875 
L 4.890625 26.703125 
z
" id="DejaVuSans-52"/>
      </defs>
      <use xlink:href="#DejaVuSans-84"/>
      <use x="61.083984" xlink:href="#DejaVuSans-61"/>
      <use x="144.873047" xlink:href="#DejaVuSans-49"/>
      <use x="208.496094" xlink:href="#DejaVuSans-52"/>
      <use x="272.119141" xlink:href="#DejaVuSans-48"/>
      <use x="335.742188" xlink:href="#DejaVuSans-176"/>
      <use x="385.742188" xlink:href="#DejaVuSans-67"/>
     </g>
    </g>
    <g id="line2d_41">
     <path d="M 84.185937 78.210188 
L 104.185937 78.210188 
" style="fill:none;stroke:#2ca02c;stroke-linecap:square;stroke-width:0.8;"/>
    </g>
    <g id="line2d_42"/>
    <g id="text_17">
     <!-- T=180°C -->
     <g transform="translate(106.185937 81.710188)scale(0.1 -0.1)">
      <defs>
       <path d="M 31.78125 34.625 
Q 24.75 34.625 20.71875 30.859375 
Q 16.703125 27.09375 16.703125 20.515625 
Q 16.703125 13.921875 20.71875 10.15625 
Q 24.75 6.390625 31.78125 6.390625 
Q 38.8125 6.390625 42.859375 10.171875 
Q 46.921875 13.96875 46.921875 20.515625 
Q 46.921875 27.09375 42.890625 30.859375 
Q 38.875 34.625 31.78125 34.625 
z
M 21.921875 38.8125 
Q 15.578125 40.375 12.03125 44.71875 
Q 8.5 49.078125 8.5 55.328125 
Q 8.5 64.0625 14.71875 69.140625 
Q 20.953125 74.21875 31.78125 74.21875 
Q 42.671875 74.21875 48.875 69.140625 
Q 55.078125 64.0625 55.078125 55.328125 
Q 55.078125 49.078125 51.53125 44.71875 
Q 48 40.375 41.703125 38.8125 
Q 48.828125 37.15625 52.796875 32.3125 
Q 56.78125 27.484375 56.78125 20.515625 
Q 56.78125 9.90625 50.3125 4.234375 
Q 43.84375 -1.421875 31.78125 -1.421875 
Q 19.734375 -1.421875 13.25 4.234375 
Q 6.78125 9.90625 6.78125 20.515625 
Q 6.78125 27.484375 10.78125 32.3125 
Q 14.796875 37.15625 21.921875 38.8125 
z
M 18.3125 54.390625 
Q 18.3125 48.734375 21.84375 45.5625 
Q 25.390625 42.390625 31.78125 42.390625 
Q 38.140625 42.390625 41.71875 45.5625 
Q 45.3125 48.734375 45.3125 54.390625 
Q 45.3125 60.0625 41.71875 63.234375 
Q 38.140625 66.40625 31.78125 66.40625 
Q 25.390625 66.40625 21.84375 63.234375 
Q 18.3125 60.0625 18.3125 54.390625 
z
" id="DejaVuSans-56"/>
      </defs>
      <use xlink:href="#DejaVuSans-84"/>
      <use x="61.083984" xlink:href="#DejaVuSans-61"/>
      <use x="144.873047" xlink:href="#DejaVuSans-49"/>
      <use x="208.496094" xlink:href="#DejaVuSans-56"/>
      <use x="272.119141" xlink:href="#DejaVuSans-48"/>
      <use x="335.742188" xlink:href="#DejaVuSans-176"/>
      <use x="385.742188" xlink:href="#DejaVuSans-67"/>
     </g>
    </g>
    <g id="line2d_43">
     <path d="M 171.74375 48.853938 
L 191.74375 48.853938 
" style="fill:none;stroke:#d62728;stroke-linecap:square;stroke-width:0.8;"/>
    </g>
    <g id="line2d_44"/>
    <g id="text_18">
     <!-- T=220°C -->
     <g transform="translate(193.74375 52.353938)scale(0.1 -0.1)">
      <use xlink:href="#DejaVuSans-84"/>
      <use x="61.083984" xlink:href="#DejaVuSans-61"/>
      <use x="144.873047" xlink:href="#DejaVuSans-50"/>
      <use x="208.496094" xlink:href="#DejaVuSans-50"/>
      <use x="272.119141" xlink:href="#DejaVuSans-48"/>
      <use x="335.742188" xlink:href="#DejaVuSans-176"/>
      <use x="385.742188" xlink:href="#DejaVuSans-67"/>
     </g>
    </g>
    <g id="line2d_45">
     <path d="M 171.74375 63.532063 
L 191.74375 63.532063 
" style="fill:none;stroke:#9467bd;stroke-linecap:square;stroke-width:0.8;"/>
    </g>
    <g id="line2d_46"/>
    <g id="text_19">
     <!-- T=260°C -->
     <g transform="translate(193.74375 67.032063)scale(0.1 -0.1)">
      <defs>
       <path d="M 33.015625 40.375 
Q 26.375 40.375 22.484375 35.828125 
Q 18.609375 31.296875 18.609375 23.390625 
Q 18.609375 15.53125 22.484375 10.953125 
Q 26.375 6.390625 33.015625 6.390625 
Q 39.65625 6.390625 43.53125 10.953125 
Q 47.40625 15.53125 47.40625 23.390625 
Q 47.40625 31.296875 43.53125 35.828125 
Q 39.65625 40.375 33.015625 40.375 
z
M 52.59375 71.296875 
L 52.59375 62.3125 
Q 48.875 64.0625 45.09375 64.984375 
Q 41.3125 65.921875 37.59375 65.921875 
Q 27.828125 65.921875 22.671875 59.328125 
Q 17.53125 52.734375 16.796875 39.40625 
Q 19.671875 43.65625 24.015625 45.921875 
Q 28.375 48.1875 33.59375 48.1875 
Q 44.578125 48.1875 50.953125 41.515625 
Q 57.328125 34.859375 57.328125 23.390625 
Q 57.328125 12.15625 50.6875 5.359375 
Q 44.046875 -1.421875 33.015625 -1.421875 
Q 20.359375 -1.421875 13.671875 8.265625 
Q 6.984375 17.96875 6.984375 36.375 
Q 6.984375 53.65625 15.1875 63.9375 
Q 23.390625 74.21875 37.203125 74.21875 
Q 40.921875 74.21875 44.703125 73.484375 
Q 48.484375 72.75 52.59375 71.296875 
z
" id="DejaVuSans-54"/>
      </defs>
      <use xlink:href="#DejaVuSans-84"/>
      <use x="61.083984" xlink:href="#DejaVuSans-61"/>
      <use x="144.873047" xlink:href="#DejaVuSans-50"/>
      <use x="208.496094" xlink:href="#DejaVuSans-54"/>
      <use x="272.119141" xlink:href="#DejaVuSans-48"/>
      <use x="335.742188" xlink:href="#DejaVuSans-176"/>
      <use x="385.742188" xlink:href="#DejaVuSans-67"/>
     </g>
    </g>
   </g>
  </g>
 </g>
 <defs>
  <clipPath id="p869729d092">
   <rect height="146.772" width="223.2" x="50.14375" y="35.7555"/>
  </clipPath>
 </defs>
</svg>
