<?xml version="1.0" encoding="utf-8" standalone="no"?>
<!DOCTYPE svg PUBLIC "-//W3C//DTD SVG 1.1//EN"
  "http://www.w3.org/Graphics/SVG/1.1/DTD/svg11.dtd">
<!-- Created with matplotlib (https://matplotlib.org/) -->
<svg height="220.08375pt" version="1.1" viewBox="0 0 280.54375 220.08375" width="280.54375pt" xmlns="http://www.w3.org/2000/svg" xmlns:xlink="http://www.w3.org/1999/xlink">
 <metadata>
  <rdf:RDF xmlns:cc="http://creativecommons.org/ns#" xmlns:dc="http://purl.org/dc/elements/1.1/" xmlns:rdf="http://www.w3.org/1999/02/22-rdf-syntax-ns#">
   <cc:Work>
    <dc:type rdf:resource="http://purl.org/dc/dcmitype/StillImage"/>
    <dc:date>2021-07-21T01:45:39.647105</dc:date>
    <dc:format>image/svg+xml</dc:format>
    <dc:creator>
     <cc:Agent>
      <dc:title>Matplotlib v3.3.3, https://matplotlib.org/</dc:title>
     </cc:Agent>
    </dc:creator>
   </cc:Work>
  </rdf:RDF>
 </metadata>
 <defs>
  <style type="text/css">*{stroke-linecap:butt;stroke-linejoin:round;}</style>
 </defs>
 <g id="figure_1">
  <g id="patch_1">
   <path d="M 0 220.08375 
L 280.54375 220.08375 
L 280.54375 -0 
L 0 -0 
z
" style="fill:none;"/>
  </g>
  <g id="axes_1">
   <g id="patch_2">
    <path d="M 50.14375 182.5275 
L 273.34375 182.5275 
L 273.34375 35.7555 
L 50.14375 35.7555 
z
" style="fill:#ffffff;"/>
   </g>
   <g id="matplotlib.axis_1">
    <g id="xtick_1">
     <g id="line2d_1">
      <defs>
       <path d="M 0 0 
L 0 3.5 
" id="m2f58e127a5" style="stroke:#000000;stroke-width:0.8;"/>
      </defs>
      <g>
       <use style="stroke:#000000;stroke-width:0.8;" x="60.289205" xlink:href="#m2f58e127a5" y="182.5275"/>
      </g>
     </g>
     <g id="text_1">
      <!-- 0 -->
      <g transform="translate(57.107955 197.125938)scale(0.1 -0.1)">
       <defs>
        <path d="M 31.78125 66.40625 
Q 24.171875 66.40625 20.328125 58.90625 
Q 16.5 51.421875 16.5 36.375 
Q 16.5 21.390625 20.328125 13.890625 
Q 24.171875 6.390625 31.78125 6.390625 
Q 39.453125 6.390625 43.28125 13.890625 
Q 47.125 21.390625 47.125 36.375 
Q 47.125 51.421875 43.28125 58.90625 
Q 39.453125 66.40625 31.78125 66.40625 
z
M 31.78125 74.21875 
Q 44.046875 74.21875 50.515625 64.515625 
Q 56.984375 54.828125 56.984375 36.375 
Q 56.984375 17.96875 50.515625 8.265625 
Q 44.046875 -1.421875 31.78125 -1.421875 
Q 19.53125 -1.421875 13.0625 8.265625 
Q 6.59375 17.96875 6.59375 36.375 
Q 6.59375 54.828125 13.0625 64.515625 
Q 19.53125 74.21875 31.78125 74.21875 
z
" id="DejaVuSans-48"/>
       </defs>
       <use xlink:href="#DejaVuSans-48"/>
      </g>
     </g>
    </g>
    <g id="xtick_2">
     <g id="line2d_2">
      <g>
       <use style="stroke:#000000;stroke-width:0.8;" x="96.317097" xlink:href="#m2f58e127a5" y="182.5275"/>
      </g>
     </g>
     <g id="text_2">
      <!-- 25 -->
      <g transform="translate(89.954597 197.125938)scale(0.1 -0.1)">
       <defs>
        <path d="M 19.1875 8.296875 
L 53.609375 8.296875 
L 53.609375 0 
L 7.328125 0 
L 7.328125 8.296875 
Q 12.9375 14.109375 22.625 23.890625 
Q 32.328125 33.6875 34.8125 36.53125 
Q 39.546875 41.84375 41.421875 45.53125 
Q 43.3125 49.21875 43.3125 52.78125 
Q 43.3125 58.59375 39.234375 62.25 
Q 35.15625 65.921875 28.609375 65.921875 
Q 23.96875 65.921875 18.8125 64.3125 
Q 13.671875 62.703125 7.8125 59.421875 
L 7.8125 69.390625 
Q 13.765625 71.78125 18.9375 73 
Q 24.125 74.21875 28.421875 74.21875 
Q 39.75 74.21875 46.484375 68.546875 
Q 53.21875 62.890625 53.21875 53.421875 
Q 53.21875 48.921875 51.53125 44.890625 
Q 49.859375 40.875 45.40625 35.40625 
Q 44.1875 33.984375 37.640625 27.21875 
Q 31.109375 20.453125 19.1875 8.296875 
z
" id="DejaVuSans-50"/>
        <path d="M 10.796875 72.90625 
L 49.515625 72.90625 
L 49.515625 64.59375 
L 19.828125 64.59375 
L 19.828125 46.734375 
Q 21.96875 47.46875 24.109375 47.828125 
Q 26.265625 48.1875 28.421875 48.1875 
Q 40.625 48.1875 47.75 41.5 
Q 54.890625 34.8125 54.890625 23.390625 
Q 54.890625 11.625 47.5625 5.09375 
Q 40.234375 -1.421875 26.90625 -1.421875 
Q 22.3125 -1.421875 17.546875 -0.640625 
Q 12.796875 0.140625 7.71875 1.703125 
L 7.71875 11.625 
Q 12.109375 9.234375 16.796875 8.0625 
Q 21.484375 6.890625 26.703125 6.890625 
Q 35.15625 6.890625 40.078125 11.328125 
Q 45.015625 15.765625 45.015625 23.390625 
Q 45.015625 31 40.078125 35.4375 
Q 35.15625 39.890625 26.703125 39.890625 
Q 22.75 39.890625 18.8125 39.015625 
Q 14.890625 38.140625 10.796875 36.28125 
z
" id="DejaVuSans-53"/>
       </defs>
       <use xlink:href="#DejaVuSans-50"/>
       <use x="63.623047" xlink:href="#DejaVuSans-53"/>
      </g>
     </g>
    </g>
    <g id="xtick_3">
     <g id="line2d_3">
      <g>
       <use style="stroke:#000000;stroke-width:0.8;" x="132.34499" xlink:href="#m2f58e127a5" y="182.5275"/>
      </g>
     </g>
     <g id="text_3">
      <!-- 50 -->
      <g transform="translate(125.98249 197.125938)scale(0.1 -0.1)">
       <use xlink:href="#DejaVuSans-53"/>
       <use x="63.623047" xlink:href="#DejaVuSans-48"/>
      </g>
     </g>
    </g>
    <g id="xtick_4">
     <g id="line2d_4">
      <g>
       <use style="stroke:#000000;stroke-width:0.8;" x="168.372882" xlink:href="#m2f58e127a5" y="182.5275"/>
      </g>
     </g>
     <g id="text_4">
      <!-- 75 -->
      <g transform="translate(162.010382 197.125938)scale(0.1 -0.1)">
       <defs>
        <path d="M 8.203125 72.90625 
L 55.078125 72.90625 
L 55.078125 68.703125 
L 28.609375 0 
L 18.3125 0 
L 43.21875 64.59375 
L 8.203125 64.59375 
z
" id="DejaVuSans-55"/>
       </defs>
       <use xlink:href="#DejaVuSans-55"/>
       <use x="63.623047" xlink:href="#DejaVuSans-53"/>
      </g>
     </g>
    </g>
    <g id="xtick_5">
     <g id="line2d_5">
      <g>
       <use style="stroke:#000000;stroke-width:0.8;" x="204.400775" xlink:href="#m2f58e127a5" y="182.5275"/>
      </g>
     </g>
     <g id="text_5">
      <!-- 100 -->
      <g transform="translate(194.857025 197.125938)scale(0.1 -0.1)">
       <defs>
        <path d="M 12.40625 8.296875 
L 28.515625 8.296875 
L 28.515625 63.921875 
L 10.984375 60.40625 
L 10.984375 69.390625 
L 28.421875 72.90625 
L 38.28125 72.90625 
L 38.28125 8.296875 
L 54.390625 8.296875 
L 54.390625 0 
L 12.40625 0 
z
" id="DejaVuSans-49"/>
       </defs>
       <use xlink:href="#DejaVuSans-49"/>
       <use x="63.623047" xlink:href="#DejaVuSans-48"/>
       <use x="127.246094" xlink:href="#DejaVuSans-48"/>
      </g>
     </g>
    </g>
    <g id="xtick_6">
     <g id="line2d_6">
      <g>
       <use style="stroke:#000000;stroke-width:0.8;" x="240.428667" xlink:href="#m2f58e127a5" y="182.5275"/>
      </g>
     </g>
     <g id="text_6">
      <!-- 125 -->
      <g transform="translate(230.884917 197.125938)scale(0.1 -0.1)">
       <use xlink:href="#DejaVuSans-49"/>
       <use x="63.623047" xlink:href="#DejaVuSans-50"/>
       <use x="127.246094" xlink:href="#DejaVuSans-53"/>
      </g>
     </g>
    </g>
    <g id="text_7">
     <!-- Conductance (µS) -->
     <g transform="translate(117.067188 210.804063)scale(0.1 -0.1)">
      <defs>
       <path d="M 64.40625 67.28125 
L 64.40625 56.890625 
Q 59.421875 61.53125 53.78125 63.8125 
Q 48.140625 66.109375 41.796875 66.109375 
Q 29.296875 66.109375 22.65625 58.46875 
Q 16.015625 50.828125 16.015625 36.375 
Q 16.015625 21.96875 22.65625 14.328125 
Q 29.296875 6.6875 41.796875 6.6875 
Q 48.140625 6.6875 53.78125 8.984375 
Q 59.421875 11.28125 64.40625 15.921875 
L 64.40625 5.609375 
Q 59.234375 2.09375 53.4375 0.328125 
Q 47.65625 -1.421875 41.21875 -1.421875 
Q 24.65625 -1.421875 15.125 8.703125 
Q 5.609375 18.84375 5.609375 36.375 
Q 5.609375 53.953125 15.125 64.078125 
Q 24.65625 74.21875 41.21875 74.21875 
Q 47.75 74.21875 53.53125 72.484375 
Q 59.328125 70.75 64.40625 67.28125 
z
" id="DejaVuSans-67"/>
       <path d="M 30.609375 48.390625 
Q 23.390625 48.390625 19.1875 42.75 
Q 14.984375 37.109375 14.984375 27.296875 
Q 14.984375 17.484375 19.15625 11.84375 
Q 23.34375 6.203125 30.609375 6.203125 
Q 37.796875 6.203125 41.984375 11.859375 
Q 46.1875 17.53125 46.1875 27.296875 
Q 46.1875 37.015625 41.984375 42.703125 
Q 37.796875 48.390625 30.609375 48.390625 
z
M 30.609375 56 
Q 42.328125 56 49.015625 48.375 
Q 55.71875 40.765625 55.71875 27.296875 
Q 55.71875 13.875 49.015625 6.21875 
Q 42.328125 -1.421875 30.609375 -1.421875 
Q 18.84375 -1.421875 12.171875 6.21875 
Q 5.515625 13.875 5.515625 27.296875 
Q 5.515625 40.765625 12.171875 48.375 
Q 18.84375 56 30.609375 56 
z
" id="DejaVuSans-111"/>
       <path d="M 54.890625 33.015625 
L 54.890625 0 
L 45.90625 0 
L 45.90625 32.71875 
Q 45.90625 40.484375 42.875 44.328125 
Q 39.84375 48.1875 33.796875 48.1875 
Q 26.515625 48.1875 22.3125 43.546875 
Q 18.109375 38.921875 18.109375 30.90625 
L 18.109375 0 
L 9.078125 0 
L 9.078125 54.6875 
L 18.109375 54.6875 
L 18.109375 46.1875 
Q 21.34375 51.125 25.703125 53.5625 
Q 30.078125 56 35.796875 56 
Q 45.21875 56 50.046875 50.171875 
Q 54.890625 44.34375 54.890625 33.015625 
z
" id="DejaVuSans-110"/>
       <path d="M 45.40625 46.390625 
L 45.40625 75.984375 
L 54.390625 75.984375 
L 54.390625 0 
L 45.40625 0 
L 45.40625 8.203125 
Q 42.578125 3.328125 38.25 0.953125 
Q 33.9375 -1.421875 27.875 -1.421875 
Q 17.96875 -1.421875 11.734375 6.484375 
Q 5.515625 14.40625 5.515625 27.296875 
Q 5.515625 40.1875 11.734375 48.09375 
Q 17.96875 56 27.875 56 
Q 33.9375 56 38.25 53.625 
Q 42.578125 51.265625 45.40625 46.390625 
z
M 14.796875 27.296875 
Q 14.796875 17.390625 18.875 11.75 
Q 22.953125 6.109375 30.078125 6.109375 
Q 37.203125 6.109375 41.296875 11.75 
Q 45.40625 17.390625 45.40625 27.296875 
Q 45.40625 37.203125 41.296875 42.84375 
Q 37.203125 48.484375 30.078125 48.484375 
Q 22.953125 48.484375 18.875 42.84375 
Q 14.796875 37.203125 14.796875 27.296875 
z
" id="DejaVuSans-100"/>
       <path d="M 8.5 21.578125 
L 8.5 54.6875 
L 17.484375 54.6875 
L 17.484375 21.921875 
Q 17.484375 14.15625 20.5 10.265625 
Q 23.53125 6.390625 29.59375 6.390625 
Q 36.859375 6.390625 41.078125 11.03125 
Q 45.3125 15.671875 45.3125 23.6875 
L 45.3125 54.6875 
L 54.296875 54.6875 
L 54.296875 0 
L 45.3125 0 
L 45.3125 8.40625 
Q 42.046875 3.421875 37.71875 1 
Q 33.40625 -1.421875 27.6875 -1.421875 
Q 18.265625 -1.421875 13.375 4.4375 
Q 8.5 10.296875 8.5 21.578125 
z
M 31.109375 56 
z
" id="DejaVuSans-117"/>
       <path d="M 48.78125 52.59375 
L 48.78125 44.1875 
Q 44.96875 46.296875 41.140625 47.34375 
Q 37.3125 48.390625 33.40625 48.390625 
Q 24.65625 48.390625 19.8125 42.84375 
Q 14.984375 37.3125 14.984375 27.296875 
Q 14.984375 17.28125 19.8125 11.734375 
Q 24.65625 6.203125 33.40625 6.203125 
Q 37.3125 6.203125 41.140625 7.25 
Q 44.96875 8.296875 48.78125 10.40625 
L 48.78125 2.09375 
Q 45.015625 0.34375 40.984375 -0.53125 
Q 36.96875 -1.421875 32.421875 -1.421875 
Q 20.0625 -1.421875 12.78125 6.34375 
Q 5.515625 14.109375 5.515625 27.296875 
Q 5.515625 40.671875 12.859375 48.328125 
Q 20.21875 56 33.015625 56 
Q 37.15625 56 41.109375 55.140625 
Q 45.0625 54.296875 48.78125 52.59375 
z
" id="DejaVuSans-99"/>
       <path d="M 18.3125 70.21875 
L 18.3125 54.6875 
L 36.8125 54.6875 
L 36.8125 47.703125 
L 18.3125 47.703125 
L 18.3125 18.015625 
Q 18.3125 11.328125 20.140625 9.421875 
Q 21.96875 7.515625 27.59375 7.515625 
L 36.8125 7.515625 
L 36.8125 0 
L 27.59375 0 
Q 17.1875 0 13.234375 3.875 
Q 9.28125 7.765625 9.28125 18.015625 
L 9.28125 47.703125 
L 2.6875 47.703125 
L 2.6875 54.6875 
L 9.28125 54.6875 
L 9.28125 70.21875 
z
" id="DejaVuSans-116"/>
       <path d="M 34.28125 27.484375 
Q 23.390625 27.484375 19.1875 25 
Q 14.984375 22.515625 14.984375 16.5 
Q 14.984375 11.71875 18.140625 8.90625 
Q 21.296875 6.109375 26.703125 6.109375 
Q 34.1875 6.109375 38.703125 11.40625 
Q 43.21875 16.703125 43.21875 25.484375 
L 43.21875 27.484375 
z
M 52.203125 31.203125 
L 52.203125 0 
L 43.21875 0 
L 43.21875 8.296875 
Q 40.140625 3.328125 35.546875 0.953125 
Q 30.953125 -1.421875 24.3125 -1.421875 
Q 15.921875 -1.421875 10.953125 3.296875 
Q 6 8.015625 6 15.921875 
Q 6 25.140625 12.171875 29.828125 
Q 18.359375 34.515625 30.609375 34.515625 
L 43.21875 34.515625 
L 43.21875 35.40625 
Q 43.21875 41.609375 39.140625 45 
Q 35.0625 48.390625 27.6875 48.390625 
Q 23 48.390625 18.546875 47.265625 
Q 14.109375 46.140625 10.015625 43.890625 
L 10.015625 52.203125 
Q 14.9375 54.109375 19.578125 55.046875 
Q 24.21875 56 28.609375 56 
Q 40.484375 56 46.34375 49.84375 
Q 52.203125 43.703125 52.203125 31.203125 
z
" id="DejaVuSans-97"/>
       <path d="M 56.203125 29.59375 
L 56.203125 25.203125 
L 14.890625 25.203125 
Q 15.484375 15.921875 20.484375 11.0625 
Q 25.484375 6.203125 34.421875 6.203125 
Q 39.59375 6.203125 44.453125 7.46875 
Q 49.3125 8.734375 54.109375 11.28125 
L 54.109375 2.78125 
Q 49.265625 0.734375 44.1875 -0.34375 
Q 39.109375 -1.421875 33.890625 -1.421875 
Q 20.796875 -1.421875 13.15625 6.1875 
Q 5.515625 13.8125 5.515625 26.8125 
Q 5.515625 40.234375 12.765625 48.109375 
Q 20.015625 56 32.328125 56 
Q 43.359375 56 49.78125 48.890625 
Q 56.203125 41.796875 56.203125 29.59375 
z
M 47.21875 32.234375 
Q 47.125 39.59375 43.09375 43.984375 
Q 39.0625 48.390625 32.421875 48.390625 
Q 24.90625 48.390625 20.390625 44.140625 
Q 15.875 39.890625 15.1875 32.171875 
z
" id="DejaVuSans-101"/>
       <path id="DejaVuSans-32"/>
       <path d="M 31 75.875 
Q 24.46875 64.65625 21.28125 53.65625 
Q 18.109375 42.671875 18.109375 31.390625 
Q 18.109375 20.125 21.3125 9.0625 
Q 24.515625 -2 31 -13.1875 
L 23.1875 -13.1875 
Q 15.875 -1.703125 12.234375 9.375 
Q 8.59375 20.453125 8.59375 31.390625 
Q 8.59375 42.28125 12.203125 53.3125 
Q 15.828125 64.359375 23.1875 75.875 
z
" id="DejaVuSans-40"/>
       <path d="M 8.5 -20.796875 
L 8.5 54.6875 
L 17.484375 54.6875 
L 17.484375 20.703125 
Q 17.484375 13.625 20.84375 10 
Q 24.21875 6.390625 30.8125 6.390625 
Q 38.03125 6.390625 41.671875 10.484375 
Q 45.3125 14.59375 45.3125 22.796875 
L 45.3125 54.6875 
L 54.296875 54.6875 
L 54.296875 12.59375 
Q 54.296875 9.671875 55.140625 8.28125 
Q 56 6.890625 57.8125 6.890625 
Q 58.25 6.890625 59.03125 7.15625 
Q 59.8125 7.421875 61.1875 8.015625 
L 61.1875 0.78125 
Q 59.1875 -0.34375 57.390625 -0.875 
Q 55.609375 -1.421875 53.90625 -1.421875 
Q 50.53125 -1.421875 48.53125 0.484375 
Q 46.53125 2.390625 45.796875 6.296875 
Q 43.359375 2.4375 39.8125 0.5 
Q 36.28125 -1.421875 31.5 -1.421875 
Q 26.515625 -1.421875 23.015625 0.484375 
Q 19.53125 2.390625 17.484375 6.203125 
L 17.484375 -20.796875 
z
" id="DejaVuSans-181"/>
       <path d="M 53.515625 70.515625 
L 53.515625 60.890625 
Q 47.90625 63.578125 42.921875 64.890625 
Q 37.9375 66.21875 33.296875 66.21875 
Q 25.25 66.21875 20.875 63.09375 
Q 16.5 59.96875 16.5 54.203125 
Q 16.5 49.359375 19.40625 46.890625 
Q 22.3125 44.4375 30.421875 42.921875 
L 36.375 41.703125 
Q 47.40625 39.59375 52.65625 34.296875 
Q 57.90625 29 57.90625 20.125 
Q 57.90625 9.515625 50.796875 4.046875 
Q 43.703125 -1.421875 29.984375 -1.421875 
Q 24.8125 -1.421875 18.96875 -0.25 
Q 13.140625 0.921875 6.890625 3.21875 
L 6.890625 13.375 
Q 12.890625 10.015625 18.65625 8.296875 
Q 24.421875 6.59375 29.984375 6.59375 
Q 38.421875 6.59375 43.015625 9.90625 
Q 47.609375 13.234375 47.609375 19.390625 
Q 47.609375 24.75 44.3125 27.78125 
Q 41.015625 30.8125 33.5 32.328125 
L 27.484375 33.5 
Q 16.453125 35.6875 11.515625 40.375 
Q 6.59375 45.0625 6.59375 53.421875 
Q 6.59375 63.09375 13.40625 68.65625 
Q 20.21875 74.21875 32.171875 74.21875 
Q 37.3125 74.21875 42.625 73.28125 
Q 47.953125 72.359375 53.515625 70.515625 
z
" id="DejaVuSans-83"/>
       <path d="M 8.015625 75.875 
L 15.828125 75.875 
Q 23.140625 64.359375 26.78125 53.3125 
Q 30.421875 42.28125 30.421875 31.390625 
Q 30.421875 20.453125 26.78125 9.375 
Q 23.140625 -1.703125 15.828125 -13.1875 
L 8.015625 -13.1875 
Q 14.5 -2 17.703125 9.0625 
Q 20.90625 20.125 20.90625 31.390625 
Q 20.90625 42.671875 17.703125 53.65625 
Q 14.5 64.65625 8.015625 75.875 
z
" id="DejaVuSans-41"/>
      </defs>
      <use xlink:href="#DejaVuSans-67"/>
      <use x="69.824219" xlink:href="#DejaVuSans-111"/>
      <use x="131.005859" xlink:href="#DejaVuSans-110"/>
      <use x="194.384766" xlink:href="#DejaVuSans-100"/>
      <use x="257.861328" xlink:href="#DejaVuSans-117"/>
      <use x="321.240234" xlink:href="#DejaVuSans-99"/>
      <use x="376.220703" xlink:href="#DejaVuSans-116"/>
      <use x="415.429688" xlink:href="#DejaVuSans-97"/>
      <use x="476.708984" xlink:href="#DejaVuSans-110"/>
      <use x="540.087891" xlink:href="#DejaVuSans-99"/>
      <use x="595.068359" xlink:href="#DejaVuSans-101"/>
      <use x="656.591797" xlink:href="#DejaVuSans-32"/>
      <use x="688.378906" xlink:href="#DejaVuSans-40"/>
      <use x="727.392578" xlink:href="#DejaVuSans-181"/>
      <use x="791.015625" xlink:href="#DejaVuSans-83"/>
      <use x="854.492188" xlink:href="#DejaVuSans-41"/>
     </g>
    </g>
   </g>
   <g id="matplotlib.axis_2">
    <g id="ytick_1">
     <g id="line2d_7">
      <defs>
       <path d="M 0 0 
L -3.5 0 
" id="m966f7877ee" style="stroke:#000000;stroke-width:0.8;"/>
      </defs>
      <g>
       <use style="stroke:#000000;stroke-width:0.8;" x="50.14375" xlink:href="#m966f7877ee" y="182.5275"/>
      </g>
     </g>
     <g id="text_8">
      <!-- 0.00 -->
      <g transform="translate(20.878125 186.326719)scale(0.1 -0.1)">
       <defs>
        <path d="M 10.6875 12.40625 
L 21 12.40625 
L 21 0 
L 10.6875 0 
z
" id="DejaVuSans-46"/>
       </defs>
       <use xlink:href="#DejaVuSans-48"/>
       <use x="63.623047" xlink:href="#DejaVuSans-46"/>
       <use x="95.410156" xlink:href="#DejaVuSans-48"/>
       <use x="159.033203" xlink:href="#DejaVuSans-48"/>
      </g>
     </g>
    </g>
    <g id="ytick_2">
     <g id="line2d_8">
      <g>
       <use style="stroke:#000000;stroke-width:0.8;" x="50.14375" xlink:href="#m966f7877ee" y="158.0655"/>
      </g>
     </g>
     <g id="text_9">
      <!-- 0.05 -->
      <g transform="translate(20.878125 161.864719)scale(0.1 -0.1)">
       <use xlink:href="#DejaVuSans-48"/>
       <use x="63.623047" xlink:href="#DejaVuSans-46"/>
       <use x="95.410156" xlink:href="#DejaVuSans-48"/>
       <use x="159.033203" xlink:href="#DejaVuSans-53"/>
      </g>
     </g>
    </g>
    <g id="ytick_3">
     <g id="line2d_9">
      <g>
       <use style="stroke:#000000;stroke-width:0.8;" x="50.14375" xlink:href="#m966f7877ee" y="133.6035"/>
      </g>
     </g>
     <g id="text_10">
      <!-- 0.10 -->
      <g transform="translate(20.878125 137.402719)scale(0.1 -0.1)">
       <use xlink:href="#DejaVuSans-48"/>
       <use x="63.623047" xlink:href="#DejaVuSans-46"/>
       <use x="95.410156" xlink:href="#DejaVuSans-49"/>
       <use x="159.033203" xlink:href="#DejaVuSans-48"/>
      </g>
     </g>
    </g>
    <g id="ytick_4">
     <g id="line2d_10">
      <g>
       <use style="stroke:#000000;stroke-width:0.8;" x="50.14375" xlink:href="#m966f7877ee" y="109.1415"/>
      </g>
     </g>
     <g id="text_11">
      <!-- 0.15 -->
      <g transform="translate(20.878125 112.940719)scale(0.1 -0.1)">
       <use xlink:href="#DejaVuSans-48"/>
       <use x="63.623047" xlink:href="#DejaVuSans-46"/>
       <use x="95.410156" xlink:href="#DejaVuSans-49"/>
       <use x="159.033203" xlink:href="#DejaVuSans-53"/>
      </g>
     </g>
    </g>
    <g id="ytick_5">
     <g id="line2d_11">
      <g>
       <use style="stroke:#000000;stroke-width:0.8;" x="50.14375" xlink:href="#m966f7877ee" y="84.6795"/>
      </g>
     </g>
     <g id="text_12">
      <!-- 0.20 -->
      <g transform="translate(20.878125 88.478719)scale(0.1 -0.1)">
       <use xlink:href="#DejaVuSans-48"/>
       <use x="63.623047" xlink:href="#DejaVuSans-46"/>
       <use x="95.410156" xlink:href="#DejaVuSans-50"/>
       <use x="159.033203" xlink:href="#DejaVuSans-48"/>
      </g>
     </g>
    </g>
    <g id="ytick_6">
     <g id="line2d_12">
      <g>
       <use style="stroke:#000000;stroke-width:0.8;" x="50.14375" xlink:href="#m966f7877ee" y="60.2175"/>
      </g>
     </g>
     <g id="text_13">
      <!-- 0.25 -->
      <g transform="translate(20.878125 64.016719)scale(0.1 -0.1)">
       <use xlink:href="#DejaVuSans-48"/>
       <use x="63.623047" xlink:href="#DejaVuSans-46"/>
       <use x="95.410156" xlink:href="#DejaVuSans-50"/>
       <use x="159.033203" xlink:href="#DejaVuSans-53"/>
      </g>
     </g>
    </g>
    <g id="ytick_7">
     <g id="line2d_13">
      <g>
       <use style="stroke:#000000;stroke-width:0.8;" x="50.14375" xlink:href="#m966f7877ee" y="35.7555"/>
      </g>
     </g>
     <g id="text_14">
      <!-- 0.30 -->
      <g transform="translate(20.878125 39.554719)scale(0.1 -0.1)">
       <defs>
        <path d="M 40.578125 39.3125 
Q 47.65625 37.796875 51.625 33 
Q 55.609375 28.21875 55.609375 21.1875 
Q 55.609375 10.40625 48.1875 4.484375 
Q 40.765625 -1.421875 27.09375 -1.421875 
Q 22.515625 -1.421875 17.65625 -0.515625 
Q 12.796875 0.390625 7.625 2.203125 
L 7.625 11.71875 
Q 11.71875 9.328125 16.59375 8.109375 
Q 21.484375 6.890625 26.8125 6.890625 
Q 36.078125 6.890625 40.9375 10.546875 
Q 45.796875 14.203125 45.796875 21.1875 
Q 45.796875 27.640625 41.28125 31.265625 
Q 36.765625 34.90625 28.71875 34.90625 
L 20.21875 34.90625 
L 20.21875 43.015625 
L 29.109375 43.015625 
Q 36.375 43.015625 40.234375 45.921875 
Q 44.09375 48.828125 44.09375 54.296875 
Q 44.09375 59.90625 40.109375 62.90625 
Q 36.140625 65.921875 28.71875 65.921875 
Q 24.65625 65.921875 20.015625 65.03125 
Q 15.375 64.15625 9.8125 62.3125 
L 9.8125 71.09375 
Q 15.4375 72.65625 20.34375 73.4375 
Q 25.25 74.21875 29.59375 74.21875 
Q 40.828125 74.21875 47.359375 69.109375 
Q 53.90625 64.015625 53.90625 55.328125 
Q 53.90625 49.265625 50.4375 45.09375 
Q 46.96875 40.921875 40.578125 39.3125 
z
" id="DejaVuSans-51"/>
       </defs>
       <use xlink:href="#DejaVuSans-48"/>
       <use x="63.623047" xlink:href="#DejaVuSans-46"/>
       <use x="95.410156" xlink:href="#DejaVuSans-51"/>
       <use x="159.033203" xlink:href="#DejaVuSans-48"/>
      </g>
     </g>
    </g>
    <g id="text_15">
     <!-- KDE Probability Density -->
     <g transform="translate(14.798438 168.045406)rotate(-90)scale(0.1 -0.1)">
      <defs>
       <path d="M 9.8125 72.90625 
L 19.671875 72.90625 
L 19.671875 42.09375 
L 52.390625 72.90625 
L 65.09375 72.90625 
L 28.90625 38.921875 
L 67.671875 0 
L 54.6875 0 
L 19.671875 35.109375 
L 19.671875 0 
L 9.8125 0 
z
" id="DejaVuSans-75"/>
       <path d="M 19.671875 64.796875 
L 19.671875 8.109375 
L 31.59375 8.109375 
Q 46.6875 8.109375 53.6875 14.9375 
Q 60.6875 21.78125 60.6875 36.53125 
Q 60.6875 51.171875 53.6875 57.984375 
Q 46.6875 64.796875 31.59375 64.796875 
z
M 9.8125 72.90625 
L 30.078125 72.90625 
Q 51.265625 72.90625 61.171875 64.09375 
Q 71.09375 55.28125 71.09375 36.53125 
Q 71.09375 17.671875 61.125 8.828125 
Q 51.171875 0 30.078125 0 
L 9.8125 0 
z
" id="DejaVuSans-68"/>
       <path d="M 9.8125 72.90625 
L 55.90625 72.90625 
L 55.90625 64.59375 
L 19.671875 64.59375 
L 19.671875 43.015625 
L 54.390625 43.015625 
L 54.390625 34.71875 
L 19.671875 34.71875 
L 19.671875 8.296875 
L 56.78125 8.296875 
L 56.78125 0 
L 9.8125 0 
z
" id="DejaVuSans-69"/>
       <path d="M 19.671875 64.796875 
L 19.671875 37.40625 
L 32.078125 37.40625 
Q 38.96875 37.40625 42.71875 40.96875 
Q 46.484375 44.53125 46.484375 51.125 
Q 46.484375 57.671875 42.71875 61.234375 
Q 38.96875 64.796875 32.078125 64.796875 
z
M 9.8125 72.90625 
L 32.078125 72.90625 
Q 44.34375 72.90625 50.609375 67.359375 
Q 56.890625 61.8125 56.890625 51.125 
Q 56.890625 40.328125 50.609375 34.8125 
Q 44.34375 29.296875 32.078125 29.296875 
L 19.671875 29.296875 
L 19.671875 0 
L 9.8125 0 
z
" id="DejaVuSans-80"/>
       <path d="M 41.109375 46.296875 
Q 39.59375 47.171875 37.8125 47.578125 
Q 36.03125 48 33.890625 48 
Q 26.265625 48 22.1875 43.046875 
Q 18.109375 38.09375 18.109375 28.8125 
L 18.109375 0 
L 9.078125 0 
L 9.078125 54.6875 
L 18.109375 54.6875 
L 18.109375 46.1875 
Q 20.953125 51.171875 25.484375 53.578125 
Q 30.03125 56 36.53125 56 
Q 37.453125 56 38.578125 55.875 
Q 39.703125 55.765625 41.0625 55.515625 
z
" id="DejaVuSans-114"/>
       <path d="M 48.6875 27.296875 
Q 48.6875 37.203125 44.609375 42.84375 
Q 40.53125 48.484375 33.40625 48.484375 
Q 26.265625 48.484375 22.1875 42.84375 
Q 18.109375 37.203125 18.109375 27.296875 
Q 18.109375 17.390625 22.1875 11.75 
Q 26.265625 6.109375 33.40625 6.109375 
Q 40.53125 6.109375 44.609375 11.75 
Q 48.6875 17.390625 48.6875 27.296875 
z
M 18.109375 46.390625 
Q 20.953125 51.265625 25.265625 53.625 
Q 29.59375 56 35.59375 56 
Q 45.5625 56 51.78125 48.09375 
Q 58.015625 40.1875 58.015625 27.296875 
Q 58.015625 14.40625 51.78125 6.484375 
Q 45.5625 -1.421875 35.59375 -1.421875 
Q 29.59375 -1.421875 25.265625 0.953125 
Q 20.953125 3.328125 18.109375 8.203125 
L 18.109375 0 
L 9.078125 0 
L 9.078125 75.984375 
L 18.109375 75.984375 
z
" id="DejaVuSans-98"/>
       <path d="M 9.421875 54.6875 
L 18.40625 54.6875 
L 18.40625 0 
L 9.421875 0 
z
M 9.421875 75.984375 
L 18.40625 75.984375 
L 18.40625 64.59375 
L 9.421875 64.59375 
z
" id="DejaVuSans-105"/>
       <path d="M 9.421875 75.984375 
L 18.40625 75.984375 
L 18.40625 0 
L 9.421875 0 
z
" id="DejaVuSans-108"/>
       <path d="M 32.171875 -5.078125 
Q 28.375 -14.84375 24.75 -17.8125 
Q 21.140625 -20.796875 15.09375 -20.796875 
L 7.90625 -20.796875 
L 7.90625 -13.28125 
L 13.1875 -13.28125 
Q 16.890625 -13.28125 18.9375 -11.515625 
Q 21 -9.765625 23.484375 -3.21875 
L 25.09375 0.875 
L 2.984375 54.6875 
L 12.5 54.6875 
L 29.59375 11.921875 
L 46.6875 54.6875 
L 56.203125 54.6875 
z
" id="DejaVuSans-121"/>
       <path d="M 44.28125 53.078125 
L 44.28125 44.578125 
Q 40.484375 46.53125 36.375 47.5 
Q 32.28125 48.484375 27.875 48.484375 
Q 21.1875 48.484375 17.84375 46.4375 
Q 14.5 44.390625 14.5 40.28125 
Q 14.5 37.15625 16.890625 35.375 
Q 19.28125 33.59375 26.515625 31.984375 
L 29.59375 31.296875 
Q 39.15625 29.25 43.1875 25.515625 
Q 47.21875 21.78125 47.21875 15.09375 
Q 47.21875 7.46875 41.1875 3.015625 
Q 35.15625 -1.421875 24.609375 -1.421875 
Q 20.21875 -1.421875 15.453125 -0.5625 
Q 10.6875 0.296875 5.421875 2 
L 5.421875 11.28125 
Q 10.40625 8.6875 15.234375 7.390625 
Q 20.0625 6.109375 24.8125 6.109375 
Q 31.15625 6.109375 34.5625 8.28125 
Q 37.984375 10.453125 37.984375 14.40625 
Q 37.984375 18.0625 35.515625 20.015625 
Q 33.0625 21.96875 24.703125 23.78125 
L 21.578125 24.515625 
Q 13.234375 26.265625 9.515625 29.90625 
Q 5.8125 33.546875 5.8125 39.890625 
Q 5.8125 47.609375 11.28125 51.796875 
Q 16.75 56 26.8125 56 
Q 31.78125 56 36.171875 55.265625 
Q 40.578125 54.546875 44.28125 53.078125 
z
" id="DejaVuSans-115"/>
      </defs>
      <use xlink:href="#DejaVuSans-75"/>
      <use x="65.576172" xlink:href="#DejaVuSans-68"/>
      <use x="142.578125" xlink:href="#DejaVuSans-69"/>
      <use x="205.761719" xlink:href="#DejaVuSans-32"/>
      <use x="237.548828" xlink:href="#DejaVuSans-80"/>
      <use x="296.101562" xlink:href="#DejaVuSans-114"/>
      <use x="334.964844" xlink:href="#DejaVuSans-111"/>
      <use x="396.146484" xlink:href="#DejaVuSans-98"/>
      <use x="459.623047" xlink:href="#DejaVuSans-97"/>
      <use x="520.902344" xlink:href="#DejaVuSans-98"/>
      <use x="584.378906" xlink:href="#DejaVuSans-105"/>
      <use x="612.162109" xlink:href="#DejaVuSans-108"/>
      <use x="639.945312" xlink:href="#DejaVuSans-105"/>
      <use x="667.728516" xlink:href="#DejaVuSans-116"/>
      <use x="706.9375" xlink:href="#DejaVuSans-121"/>
      <use x="766.117188" xlink:href="#DejaVuSans-32"/>
      <use x="797.904297" xlink:href="#DejaVuSans-68"/>
      <use x="874.90625" xlink:href="#DejaVuSans-101"/>
      <use x="936.429688" xlink:href="#DejaVuSans-110"/>
      <use x="999.808594" xlink:href="#DejaVuSans-115"/>
      <use x="1051.908203" xlink:href="#DejaVuSans-105"/>
      <use x="1079.691406" xlink:href="#DejaVuSans-116"/>
      <use x="1118.900391" xlink:href="#DejaVuSans-121"/>
     </g>
    </g>
   </g>
   <g id="line2d_14">
    <path clip-path="url(#p412c98cedf)" d="M 60.289205 150.569195 
L 60.695836 133.533578 
L 61.102467 125.701668 
L 61.509099 114.449471 
L 62.728993 60.632791 
L 64.76215 15.947593 
L 65.168782 16.685442 
L 65.575413 34.241639 
L 66.795308 174.818209 
L 67.201939 181.833774 
L 67.608571 182.5 
L 69.641728 182.5275 
L 263.198295 182.5275 
L 263.198295 182.5275 
" style="fill:none;stroke:#1f77b4;stroke-linecap:square;stroke-width:0.8;"/>
   </g>
   <g id="line2d_15">
    <path clip-path="url(#p412c98cedf)" d="M 60.289205 182.5275 
L 104.612032 182.500639 
L 105.018663 182.121485 
L 105.425295 179.158973 
L 105.831926 166.78199 
L 107.051821 79.671671 
L 107.458452 64.041283 
L 107.865084 53.268801 
L 108.271715 50.681278 
L 109.084978 65.095786 
L 109.491609 66.452163 
L 110.304872 59.490048 
L 110.711504 57.077772 
L 111.118135 57.014951 
L 111.524767 69.265122 
L 111.931398 99.768095 
L 112.744661 167.562647 
L 113.151292 179.455301 
L 113.557924 182.167296 
L 113.964555 182.50404 
L 115.997712 182.5275 
L 263.198295 182.5275 
L 263.198295 182.5275 
" style="fill:none;stroke:#1f77b4;stroke-linecap:square;stroke-width:0.8;"/>
   </g>
   <g id="line2d_16">
    <path clip-path="url(#p412c98cedf)" d="M 60.289205 182.5275 
L 150.561385 182.521326 
L 150.968017 182.397361 
L 151.374648 181.061045 
L 151.78128 173.530789 
L 152.187911 151.452499 
L 153.001174 91.415297 
L 153.407805 77.402685 
L 153.814437 69.269038 
L 154.221068 66.523925 
L 154.6277 67.386644 
L 155.034331 64.057092 
L 155.440963 55.286687 
L 155.847594 49.887366 
L 156.254225 51.726112 
L 157.067488 61.914027 
L 157.47412 65.418358 
L 157.880751 78.682445 
L 159.100646 174.335365 
L 159.507277 181.316901 
L 159.913908 182.4303 
L 160.727171 182.527406 
L 263.198295 182.5275 
L 263.198295 182.5275 
" style="fill:none;stroke:#1f77b4;stroke-linecap:square;stroke-width:0.8;"/>
   </g>
   <g id="line2d_17">
    <path clip-path="url(#p412c98cedf)" d="M 60.289205 182.5275 
L 196.91737 182.506555 
L 197.324001 182.154301 
L 197.730633 179.126274 
L 198.137264 166.106145 
L 199.76379 59.638647 
L 200.170422 56.975127 
L 200.577053 60.885551 
L 200.983684 59.544918 
L 201.796947 48.570938 
L 202.203579 44.118364 
L 202.61021 47.207778 
L 203.830105 80.087199 
L 205.049999 174.410564 
L 205.45663 181.302056 
L 205.863262 182.428926 
L 206.676525 182.527415 
L 263.198295 182.5275 
L 263.198295 182.5275 
" style="fill:none;stroke:#1f77b4;stroke-linecap:square;stroke-width:0.8;"/>
   </g>
   <g id="line2d_18">
    <path clip-path="url(#p412c98cedf)" d="M 60.289205 182.5275 
L 237.173883 182.498347 
L 237.580514 182.093902 
L 237.987146 178.879534 
L 238.393777 164.658792 
L 238.800409 129.279699 
L 239.613672 43.497676 
L 240.020303 35.17176 
L 240.426935 43.776783 
L 241.240197 67.517224 
L 241.646829 72.15082 
L 242.05346 72.484567 
L 242.866723 75.148317 
L 243.273355 74.05376 
L 243.679986 75.171707 
L 244.086618 84.432007 
L 244.493249 106.511421 
L 245.306512 166.521046 
L 245.713143 178.99781 
L 246.119775 182.081178 
L 246.526406 182.49585 
L 248.152932 182.5275 
L 263.198295 182.5275 
L 263.198295 182.5275 
" style="fill:none;stroke:#1f77b4;stroke-linecap:square;stroke-width:0.8;"/>
   </g>
   <g id="line2d_19">
    <path clip-path="url(#p412c98cedf)" d="M 60.289205 166.63979 
L 61.509099 144.573011 
L 62.322362 130.91068 
L 63.948888 108.153799 
L 64.76215 96.481047 
L 65.168782 93.21768 
L 65.575413 92.356488 
L 65.982045 93.761098 
L 66.388676 97.051537 
L 66.795308 101.910206 
L 67.608571 115.270956 
L 68.421833 128.96406 
L 69.235096 137.691662 
L 71.268254 153.411314 
L 73.301411 174.511665 
L 73.708042 176.446219 
L 74.114674 177.557069 
L 75.741199 180.071761 
L 76.147831 180.576649 
L 76.554462 180.720504 
L 77.774357 180.102729 
L 78.180988 180.357539 
L 79.400882 182.001414 
L 79.807514 182.301218 
L 80.620777 182.503608 
L 83.467197 182.5275 
L 263.198295 182.5275 
L 263.198295 182.5275 
" style="fill:none;stroke:#ff7f0e;stroke-linecap:square;stroke-width:0.8;"/>
   </g>
   <g id="line2d_20">
    <path clip-path="url(#p412c98cedf)" d="M 60.289205 182.5275 
L 70.048359 182.437356 
L 73.301411 182.123697 
L 75.741199 181.953628 
L 77.774357 182.050686 
L 80.620777 182.238634 
L 82.247303 182.089524 
L 83.873828 181.660238 
L 91.193194 179.065553 
L 92.81972 178.081101 
L 94.039614 177.099001 
L 95.259509 175.808065 
L 96.479403 174.067934 
L 97.699297 171.726432 
L 98.919192 168.677947 
L 100.139086 164.971701 
L 103.392138 154.449111 
L 104.612032 151.251936 
L 105.831926 148.636938 
L 106.645189 147.245535 
L 107.458452 146.200109 
L 108.271715 145.578448 
L 108.678346 145.448268 
L 109.084978 145.445846 
L 109.491609 145.572965 
L 110.304872 146.208037 
L 111.118135 147.3156 
L 111.931398 148.840137 
L 113.151292 151.801183 
L 114.371187 155.448607 
L 118.437501 168.671038 
L 119.657395 171.485247 
L 120.87729 173.597116 
L 122.097184 175.23765 
L 123.72371 177.020726 
L 124.943604 178.113021 
L 126.163499 178.957147 
L 127.383393 179.563883 
L 129.823182 180.429654 
L 133.076233 181.415619 
L 135.10939 181.757515 
L 137.95581 181.943511 
L 142.022125 182.241831 
L 145.681808 182.483372 
L 149.341491 182.465864 
L 156.254225 182.279542 
L 161.540434 182.515987 
L 174.959272 182.5275 
L 263.198295 182.5275 
L 263.198295 182.5275 
" style="fill:none;stroke:#ff7f0e;stroke-linecap:square;stroke-width:0.8;"/>
   </g>
   <g id="line2d_21">
    <path clip-path="url(#p412c98cedf)" d="M 60.289205 182.5275 
L 113.964555 182.425711 
L 124.943604 181.771178 
L 127.383393 181.155409 
L 129.823182 180.559378 
L 134.296127 179.785404 
L 135.516022 179.174992 
L 136.735916 178.277637 
L 138.362442 176.760881 
L 142.835388 172.181243 
L 144.055282 170.576797 
L 145.275176 168.495491 
L 146.495071 165.853205 
L 148.121597 161.575514 
L 151.374648 152.395474 
L 152.187911 150.616643 
L 153.001174 149.343593 
L 153.407805 148.935599 
L 153.814437 148.691704 
L 154.221068 148.613171 
L 154.6277 148.694599 
L 155.034331 148.924053 
L 155.847594 149.751571 
L 157.067488 151.548586 
L 159.100646 154.587973 
L 162.353697 158.899346 
L 163.16696 160.426274 
L 164.386854 163.290396 
L 166.420012 169.034778 
L 168.046537 173.415415 
L 169.266432 176.062497 
L 170.486326 178.048011 
L 171.299589 179.025094 
L 172.112852 179.759598 
L 172.926115 180.286628 
L 174.146009 180.76637 
L 175.365903 180.975003 
L 176.992429 181.006166 
L 180.245481 180.964236 
L 181.872007 181.177866 
L 184.718427 181.876318 
L 186.751584 182.280109 
L 188.784741 182.465637 
L 192.444424 182.525101 
L 198.543896 182.422085 
L 203.423473 182.291591 
L 213.589259 182.527345 
L 263.198295 182.5275 
L 263.198295 182.5275 
" style="fill:none;stroke:#ff7f0e;stroke-linecap:square;stroke-width:0.8;"/>
   </g>
   <g id="line2d_22">
    <path clip-path="url(#p412c98cedf)" d="M 60.289205 182.5275 
L 156.660857 182.427293 
L 160.727171 182.22026 
L 167.639906 182.387825 
L 169.673063 182.059049 
L 172.112852 181.625459 
L 173.739378 181.60364 
L 176.179166 181.648021 
L 177.399061 181.439147 
L 179.025586 180.900644 
L 181.058744 180.261432 
L 183.905164 179.612961 
L 184.718427 179.1738 
L 185.53169 178.530518 
L 186.751584 177.18939 
L 187.971478 175.438869 
L 189.191373 173.320444 
L 191.22453 169.20953 
L 192.851056 165.496477 
L 194.07095 162.278853 
L 195.697476 157.23391 
L 197.324001 151.350104 
L 199.357159 143.840724 
L 200.170422 141.628725 
L 200.577053 140.862679 
L 200.983684 140.362607 
L 201.390316 140.141405 
L 201.796947 140.196817 
L 202.203579 140.512 
L 202.61021 141.057826 
L 203.423473 142.686367 
L 204.643367 145.877961 
L 206.676525 151.875011 
L 207.896419 156.071616 
L 209.929576 164.131022 
L 211.556102 170.196827 
L 212.775996 173.863624 
L 213.995891 176.65028 
L 214.809154 178.025692 
L 215.622416 179.047559 
L 216.435679 179.775011 
L 217.655574 180.492885 
L 219.282099 181.126847 
L 221.721888 181.814367 
L 224.161677 182.260829 
L 226.601465 182.477397 
L 230.66778 182.527154 
L 263.198295 182.5275 
L 263.198295 182.5275 
" style="fill:none;stroke:#ff7f0e;stroke-linecap:square;stroke-width:0.8;"/>
   </g>
   <g id="line2d_23">
    <path clip-path="url(#p412c98cedf)" d="M 60.289205 182.5275 
L 224.161677 182.460566 
L 224.97494 182.288168 
L 225.788203 181.863555 
L 226.601465 181.065091 
L 227.414728 179.886925 
L 229.041254 176.927636 
L 230.261148 174.447923 
L 231.074411 172.360563 
L 231.887674 169.544409 
L 232.700937 165.816161 
L 233.920831 158.611059 
L 237.173883 137.035583 
L 238.393777 131.70226 
L 239.613672 127.30719 
L 240.426935 125.224846 
L 240.833566 124.793277 
L 241.240197 124.958454 
L 241.646829 125.818253 
L 242.05346 127.396316 
L 242.866723 132.341479 
L 244.493249 143.866602 
L 247.746301 163.117091 
L 248.966195 171.07404 
L 249.779458 174.708956 
L 250.186089 175.88055 
L 250.999352 177.325933 
L 253.845772 180.963566 
L 254.659035 181.524048 
L 255.878929 181.978743 
L 257.505455 182.382211 
L 259.131981 182.514487 
L 263.198295 182.5275 
L 263.198295 182.5275 
" style="fill:none;stroke:#ff7f0e;stroke-linecap:square;stroke-width:0.8;"/>
   </g>
   <g id="line2d_24">
    <path clip-path="url(#p412c98cedf)" d="M 60.289205 160.324015 
L 61.509099 146.514638 
L 63.542256 123.275851 
L 64.355519 116.336848 
L 65.168782 111.819568 
L 65.575413 110.61903 
L 65.982045 110.169031 
L 66.388676 110.47821 
L 66.795308 111.53366 
L 67.201939 113.300774 
L 68.015202 118.729766 
L 68.828465 126.118279 
L 72.081516 159.209848 
L 72.894779 165.341143 
L 73.708042 170.182915 
L 74.521305 173.872579 
L 75.334568 176.621221 
L 76.147831 178.633121 
L 76.961094 180.07146 
L 77.774357 181.062107 
L 78.58762 181.709169 
L 79.400882 182.104219 
L 80.620777 182.394107 
L 82.247303 182.507522 
L 88.346774 182.5275 
L 231.074411 182.416778 
L 234.327463 182.308521 
L 242.866723 182.527471 
L 263.198295 182.5275 
L 263.198295 182.5275 
" style="fill:none;stroke:#2ca02c;stroke-linecap:square;stroke-width:0.8;"/>
   </g>
   <g id="line2d_25">
    <path clip-path="url(#p412c98cedf)" d="M 60.289205 182.527492 
L 69.235096 182.438536 
L 72.081516 182.179935 
L 75.741199 181.837236 
L 78.180988 181.880729 
L 81.027408 181.924099 
L 83.060565 181.752953 
L 84.687091 181.446731 
L 86.313617 180.92234 
L 87.940143 180.121877 
L 89.566669 179.046987 
L 91.193194 177.730567 
L 93.226352 175.763607 
L 95.259509 173.449897 
L 97.699297 170.2995 
L 99.732455 167.309521 
L 101.35898 164.472545 
L 102.985506 161.143226 
L 106.238558 154.126143 
L 107.458452 152.123645 
L 108.271715 151.194352 
L 109.084978 150.649744 
L 109.898241 150.50894 
L 110.711504 150.761803 
L 111.524767 151.37602 
L 112.338029 152.308485 
L 113.557924 154.211824 
L 114.777818 156.617468 
L 116.404344 160.412817 
L 120.064027 169.270261 
L 121.283921 171.596941 
L 122.503816 173.472344 
L 123.72371 174.970667 
L 125.350236 176.562489 
L 126.976761 177.816972 
L 128.603287 178.739632 
L 130.229813 179.338615 
L 132.26297 179.793066 
L 136.329285 180.647722 
L 140.395599 181.628136 
L 142.835388 181.920442 
L 149.748122 182.431757 
L 153.001174 182.370862 
L 157.067488 182.302502 
L 168.8598 182.527443 
L 263.198295 182.5275 
L 263.198295 182.5275 
" style="fill:none;stroke:#2ca02c;stroke-linecap:square;stroke-width:0.8;"/>
   </g>
   <g id="line2d_26">
    <path clip-path="url(#p412c98cedf)" d="M 60.289205 182.5275 
L 100.952349 182.418268 
L 110.304872 181.93793 
L 113.964555 181.609507 
L 116.810975 181.106954 
L 121.283921 180.248659 
L 124.943604 179.917791 
L 126.976761 179.599679 
L 128.603287 179.140923 
L 130.636444 178.32841 
L 133.889496 176.743748 
L 136.735916 175.154216 
L 138.362442 174.01785 
L 139.988968 172.568645 
L 141.208862 171.216185 
L 142.835388 169.038729 
L 144.868545 165.859702 
L 147.714965 161.417651 
L 148.934859 159.874843 
L 150.154754 158.70134 
L 150.968017 158.153549 
L 151.78128 157.801399 
L 152.594542 157.642489 
L 153.407805 157.667069 
L 154.221068 157.859207 
L 155.440963 158.415813 
L 156.660857 159.224913 
L 158.287383 160.578242 
L 160.32054 162.604786 
L 161.947066 164.518175 
L 163.980223 167.311033 
L 168.453169 173.716888 
L 170.079695 175.522251 
L 171.70622 176.937703 
L 173.332746 178.024945 
L 174.959272 178.856038 
L 176.992429 179.605852 
L 179.025586 180.104813 
L 189.598004 182.048207 
L 192.444424 182.334359 
L 195.697476 182.425497 
L 207.489788 182.480886 
L 216.029048 182.527373 
L 263.198295 182.5275 
L 263.198295 182.5275 
" style="fill:none;stroke:#2ca02c;stroke-linecap:square;stroke-width:0.8;"/>
   </g>
   <g id="line2d_27">
    <path clip-path="url(#p412c98cedf)" d="M 60.289205 182.5275 
L 149.748122 182.427264 
L 154.221068 182.288188 
L 159.507277 182.387545 
L 166.01338 182.045365 
L 168.453169 181.995324 
L 174.146009 181.366028 
L 176.585798 180.952133 
L 179.025586 180.30208 
L 181.058744 179.525688 
L 182.278638 178.856172 
L 183.498532 177.9552 
L 185.125058 176.406816 
L 187.158215 174.139873 
L 188.784741 172.006285 
L 190.004635 170.032177 
L 191.631161 166.846488 
L 194.07095 161.360442 
L 196.104107 156.319146 
L 199.76379 146.571144 
L 200.577053 145.180082 
L 200.983684 144.740927 
L 201.390316 144.494689 
L 201.796947 144.449172 
L 202.203579 144.604885 
L 202.61021 144.955539 
L 203.423473 146.188971 
L 204.236736 148.008152 
L 205.45663 151.463923 
L 209.522945 163.835137 
L 212.775996 172.406414 
L 213.995891 175.250608 
L 215.215785 177.53028 
L 216.029048 178.670458 
L 216.842311 179.528802 
L 218.062205 180.410772 
L 219.282099 180.98135 
L 220.908625 181.472512 
L 222.941782 181.813104 
L 227.008097 182.131627 
L 232.294306 182.496581 
L 238.393777 182.527483 
L 263.198295 182.5275 
L 263.198295 182.5275 
" style="fill:none;stroke:#2ca02c;stroke-linecap:square;stroke-width:0.8;"/>
   </g>
   <g id="line2d_28">
    <path clip-path="url(#p412c98cedf)" d="M 60.289205 182.5275 
L 218.468837 182.420844 
L 220.501994 182.042069 
L 222.12852 181.831421 
L 224.161677 181.633816 
L 224.97494 181.204229 
L 225.788203 180.341246 
L 226.601465 179.081507 
L 229.854517 173.267804 
L 230.66778 171.292994 
L 231.481043 168.46113 
L 232.294306 164.662188 
L 235.140726 150.036324 
L 236.767252 143.613888 
L 240.426935 130.079893 
L 240.833566 129.275508 
L 241.240197 128.837584 
L 241.646829 128.817233 
L 242.05346 129.260724 
L 242.460092 130.201244 
L 242.866723 131.645065 
L 243.679986 135.872033 
L 245.306512 147.000614 
L 248.152932 166.167598 
L 249.372826 173.088105 
L 250.186089 176.281493 
L 250.999352 178.195731 
L 251.812615 179.196132 
L 254.659035 181.332249 
L 255.878929 182.085478 
L 256.692192 182.35273 
L 257.912087 182.499292 
L 261.57177 182.527496 
L 263.198295 182.5275 
L 263.198295 182.5275 
" style="fill:none;stroke:#2ca02c;stroke-linecap:square;stroke-width:0.8;"/>
   </g>
   <g id="line2d_29">
    <path clip-path="url(#p412c98cedf)" d="M 60.289205 166.846344 
L 61.102467 155.97286 
L 63.948888 114.392323 
L 64.76215 106.17868 
L 65.168782 103.383737 
L 65.575413 101.646835 
L 65.982045 101.037425 
L 66.388676 101.553417 
L 66.795308 103.136302 
L 67.201939 105.700514 
L 68.015202 113.407448 
L 69.235096 129.499852 
L 70.454991 146.023221 
L 71.268254 154.957761 
L 72.081516 162.035647 
L 72.894779 167.613877 
L 73.708042 171.978808 
L 74.521305 175.326049 
L 75.334568 177.811254 
L 76.147831 179.598395 
L 76.961094 180.825525 
L 77.774357 181.539362 
L 78.58762 181.787359 
L 79.807514 181.702632 
L 81.027408 181.714155 
L 82.653934 182.081638 
L 84.28046 182.421366 
L 85.906986 182.519274 
L 96.072772 182.5275 
L 155.847594 182.427489 
L 158.287383 182.18136 
L 160.32054 182.425402 
L 162.353697 182.523625 
L 182.278638 182.5275 
L 263.198295 182.5275 
L 263.198295 182.5275 
" style="fill:none;stroke:#d62728;stroke-linecap:square;stroke-width:0.8;"/>
   </g>
   <g id="line2d_30">
    <path clip-path="url(#p412c98cedf)" d="M 60.289205 182.526892 
L 68.015202 182.41613 
L 70.861622 182.16837 
L 74.114674 181.647886 
L 80.214145 180.421305 
L 82.247303 179.781696 
L 83.873828 179.054101 
L 85.500354 178.106281 
L 87.533511 176.622913 
L 89.566669 174.852907 
L 92.81972 171.651594 
L 96.072772 168.523766 
L 98.51256 166.501427 
L 107.051821 160.023381 
L 108.271715 159.562995 
L 109.084978 159.467427 
L 109.898241 159.561049 
L 110.711504 159.84855 
L 111.524767 160.323319 
L 112.744661 161.347883 
L 113.964555 162.667546 
L 115.997712 165.233965 
L 119.250764 169.360906 
L 121.283921 171.603386 
L 123.317078 173.549266 
L 125.756867 175.548772 
L 127.790024 176.943137 
L 129.823182 178.051551 
L 131.856339 178.852045 
L 133.889496 179.390469 
L 136.735916 179.888721 
L 153.407805 182.196662 
L 156.660857 182.373465 
L 161.540434 182.355297 
L 168.046537 182.396756 
L 198.950527 182.5275 
L 263.198295 182.5275 
L 263.198295 182.5275 
" style="fill:none;stroke:#d62728;stroke-linecap:square;stroke-width:0.8;"/>
   </g>
   <g id="line2d_31">
    <path clip-path="url(#p412c98cedf)" d="M 60.289205 182.5275 
L 89.9733 182.426946 
L 96.072772 182.141653 
L 106.238558 181.535419 
L 111.524767 181.35337 
L 114.777818 180.991939 
L 117.624238 180.459802 
L 120.87729 179.624643 
L 124.130341 178.562045 
L 126.57013 177.543724 
L 128.603287 176.473724 
L 131.043076 174.932401 
L 135.10939 172.340446 
L 137.549179 171.120167 
L 142.428756 168.827475 
L 144.461914 167.550411 
L 146.901702 165.717419 
L 149.748122 163.594581 
L 150.968017 162.903619 
L 152.187911 162.453551 
L 153.407805 162.298827 
L 154.6277 162.465826 
L 155.847594 162.949926 
L 157.067488 163.717944 
L 158.694014 165.085872 
L 161.133803 167.537426 
L 164.386854 170.774357 
L 166.420012 172.509586 
L 168.453169 173.990619 
L 170.892958 175.498334 
L 174.146009 177.232799 
L 177.805692 178.959255 
L 180.245481 179.880116 
L 182.685269 180.530015 
L 185.938321 181.093608 
L 192.851056 182.007043 
L 196.91737 182.312416 
L 202.61021 182.490113 
L 213.182628 182.527442 
L 263.198295 182.5275 
L 263.198295 182.5275 
" style="fill:none;stroke:#d62728;stroke-linecap:square;stroke-width:0.8;"/>
   </g>
   <g id="line2d_32">
    <path clip-path="url(#p412c98cedf)" d="M 60.289205 182.475328 
L 68.828465 182.389069 
L 79.400882 182.52684 
L 141.615493 182.449687 
L 151.374648 182.246028 
L 155.847594 182.225298 
L 159.100646 181.948243 
L 163.980223 181.259632 
L 166.420012 180.734829 
L 169.266432 179.864295 
L 172.112852 179.006028 
L 174.552641 178.506514 
L 177.399061 177.909609 
L 179.025586 177.343347 
L 180.652112 176.532025 
L 182.278638 175.456041 
L 183.905164 174.107845 
L 185.53169 172.493279 
L 187.564847 170.147319 
L 190.004635 166.937196 
L 192.444424 163.31091 
L 196.510739 157.098287 
L 197.730633 155.697185 
L 198.543896 155.009291 
L 199.357159 154.55292 
L 200.170422 154.346641 
L 200.983684 154.399335 
L 201.796947 154.71132 
L 202.61021 155.27557 
L 203.423473 156.078554 
L 204.643367 157.686056 
L 205.863262 159.694906 
L 207.896419 163.623143 
L 211.556102 170.942939 
L 213.182628 173.71909 
L 214.809154 175.994826 
L 216.029048 177.36373 
L 217.655574 178.798443 
L 219.282099 179.883837 
L 220.908625 180.700556 
L 222.535151 181.290902 
L 224.568308 181.757949 
L 227.008097 182.038506 
L 232.294306 182.308622 
L 239.20704 182.511477 
L 254.252404 182.5275 
L 263.198295 182.5275 
L 263.198295 182.5275 
" style="fill:none;stroke:#d62728;stroke-linecap:square;stroke-width:0.8;"/>
   </g>
   <g id="line2d_33">
    <path clip-path="url(#p412c98cedf)" d="M 60.289205 182.5275 
L 206.676525 182.429939 
L 210.336208 182.161834 
L 215.622416 182.524873 
L 218.468837 182.456177 
L 219.688731 182.245176 
L 220.908625 181.782993 
L 224.97494 179.697005 
L 225.788203 179.060985 
L 226.601465 178.21507 
L 227.82136 176.51517 
L 228.634623 175.058231 
L 229.447886 173.248311 
L 230.261148 170.925678 
L 231.074411 167.936658 
L 232.294306 162.281561 
L 234.327463 152.289261 
L 236.36062 143.757879 
L 237.987146 137.613177 
L 238.800409 135.632383 
L 239.20704 135.144693 
L 239.613672 135.043809 
L 240.020303 135.3365 
L 240.426935 136.003538 
L 241.240197 138.271974 
L 243.679986 146.920692 
L 244.89988 149.668498 
L 245.713143 151.651129 
L 246.526406 154.475735 
L 247.746301 160.274138 
L 249.372826 168.43724 
L 250.186089 171.801694 
L 250.999352 174.458694 
L 251.812615 176.382158 
L 252.625878 177.670354 
L 253.845772 178.920665 
L 257.098824 181.733158 
L 257.912087 182.135505 
L 259.131981 182.426733 
L 260.758507 182.518445 
L 263.198295 182.527438 
L 263.198295 182.527438 
" style="fill:none;stroke:#d62728;stroke-linecap:square;stroke-width:0.8;"/>
   </g>
   <g id="line2d_34">
    <path clip-path="url(#p412c98cedf)" d="M 60.289205 171.324924 
L 61.509099 158.7114 
L 62.322362 147.979114 
L 63.135625 133.664067 
L 63.948888 118.504046 
L 64.355519 112.586293 
L 64.76215 108.566491 
L 65.168782 106.427055 
L 65.575413 105.714354 
L 65.982045 105.837395 
L 66.795308 106.95894 
L 67.608571 108.528129 
L 68.015202 109.846511 
L 68.421833 111.976237 
L 68.828465 115.253769 
L 69.641728 125.563908 
L 71.268254 149.666806 
L 72.081516 157.263702 
L 72.894779 162.365457 
L 75.741199 177.148175 
L 76.554462 179.323736 
L 77.367725 180.388898 
L 78.58762 181.225052 
L 80.214145 182.168169 
L 81.027408 182.305579 
L 83.467197 182.16043 
L 85.093723 182.484165 
L 87.533511 182.527475 
L 106.645189 182.460821 
L 109.084978 182.087921 
L 111.931398 182.521128 
L 122.503816 182.5275 
L 263.198295 182.5275 
L 263.198295 182.5275 
" style="fill:none;stroke:#9467bd;stroke-linecap:square;stroke-width:0.8;"/>
   </g>
   <g id="line2d_35">
    <path clip-path="url(#p412c98cedf)" d="M 60.289205 182.506437 
L 66.388676 182.330225 
L 72.081516 181.931597 
L 74.521305 181.57147 
L 76.554462 181.052719 
L 78.58762 180.280009 
L 80.620777 179.266327 
L 83.060565 177.807632 
L 85.906986 175.848364 
L 88.753406 173.595789 
L 92.006457 170.692626 
L 95.66614 167.446919 
L 97.699297 165.92383 
L 99.732455 164.692851 
L 101.765612 163.734639 
L 103.798769 163.018072 
L 105.425295 162.640951 
L 107.051821 162.500353 
L 108.271715 162.594092 
L 109.491609 162.886411 
L 110.711504 163.388802 
L 111.931398 164.096931 
L 113.557924 165.325434 
L 115.591081 167.201068 
L 121.283921 172.728513 
L 123.317078 174.257947 
L 125.350236 175.480906 
L 127.790024 176.680197 
L 131.449707 178.232565 
L 134.296127 179.226841 
L 136.735916 179.858823 
L 140.802231 180.625674 
L 146.088439 181.424644 
L 149.341491 181.670324 
L 161.947066 182.110814 
L 175.772535 182.241106 
L 184.311795 182.498664 
L 196.510739 182.527492 
L 263.198295 182.5275 
L 263.198295 182.5275 
" style="fill:none;stroke:#9467bd;stroke-linecap:square;stroke-width:0.8;"/>
   </g>
   <g id="line2d_36">
    <path clip-path="url(#p412c98cedf)" d="M 60.289205 182.5275 
L 83.467197 182.428798 
L 101.765612 181.722947 
L 105.018663 181.280052 
L 109.491609 180.389275 
L 113.964555 179.565155 
L 121.283921 178.424092 
L 123.72371 177.694605 
L 131.043076 175.053556 
L 133.889496 173.907566 
L 136.329285 172.666013 
L 139.175705 170.921055 
L 143.242019 168.386555 
L 145.681808 167.150875 
L 148.121597 166.176995 
L 151.374648 165.1543 
L 153.814437 164.614364 
L 155.440963 164.476032 
L 156.660857 164.555474 
L 157.880751 164.831884 
L 159.100646 165.327625 
L 160.32054 166.046955 
L 161.947066 167.324425 
L 163.980223 169.306428 
L 170.079695 175.595092 
L 172.112852 177.24764 
L 174.146009 178.584297 
L 176.179166 179.609974 
L 178.212324 180.336817 
L 180.245481 180.790044 
L 182.278638 181.019434 
L 185.53169 181.111302 
L 190.411267 181.239363 
L 194.477581 181.630731 
L 200.983684 182.284366 
L 205.45663 182.472999 
L 213.589259 182.52673 
L 263.198295 182.5275 
L 263.198295 182.5275 
" style="fill:none;stroke:#9467bd;stroke-linecap:square;stroke-width:0.8;"/>
   </g>
   <g id="line2d_37">
    <path clip-path="url(#p412c98cedf)" d="M 60.289205 182.488415 
L 71.268254 182.422954 
L 81.027408 182.526362 
L 137.549179 182.466642 
L 151.78128 182.008644 
L 160.727171 181.188793 
L 163.980223 180.754053 
L 168.046537 179.972166 
L 171.299589 179.169509 
L 173.739378 178.338218 
L 176.179166 177.257688 
L 180.652112 174.973867 
L 183.091901 173.52421 
L 184.718427 172.298242 
L 186.344952 170.794496 
L 188.37811 168.595101 
L 193.257687 163.176286 
L 196.104107 160.403627 
L 197.730633 159.043475 
L 198.950527 158.250203 
L 200.170422 157.767937 
L 200.983684 157.672258 
L 201.796947 157.787223 
L 202.61021 158.128038 
L 203.423473 158.697697 
L 204.236736 159.485956 
L 205.45663 161.025525 
L 207.083156 163.555546 
L 211.962733 171.606233 
L 213.589259 173.841109 
L 215.215785 175.745196 
L 216.842311 177.310637 
L 218.468837 178.550805 
L 220.095362 179.499353 
L 221.721888 180.20226 
L 223.755045 180.809768 
L 226.194834 181.267249 
L 231.481043 181.917457 
L 236.36062 182.371374 
L 240.426935 182.504548 
L 251.405984 182.527498 
L 263.198295 182.5275 
L 263.198295 182.5275 
" style="fill:none;stroke:#9467bd;stroke-linecap:square;stroke-width:0.8;"/>
   </g>
   <g id="line2d_38">
    <path clip-path="url(#p412c98cedf)" d="M 60.289205 182.5275 
L 209.116313 182.426981 
L 212.775996 182.18125 
L 217.248942 182.400232 
L 218.468837 182.150658 
L 219.688731 181.595306 
L 220.908625 180.717674 
L 224.161677 178.042541 
L 225.381571 177.213714 
L 226.194834 176.3938 
L 227.008097 175.079395 
L 227.82136 173.184845 
L 231.074411 164.503588 
L 232.294306 161.52044 
L 233.920831 156.703745 
L 235.547357 152.17021 
L 237.580514 146.721682 
L 239.20704 142.362699 
L 240.020303 140.828966 
L 240.833566 139.893738 
L 241.240197 139.661695 
L 241.646829 139.603584 
L 242.05346 139.743729 
L 242.460092 140.112639 
L 242.866723 140.74009 
L 243.273355 141.646633 
L 244.086618 144.290986 
L 245.306512 149.792771 
L 247.339669 159.419559 
L 248.559563 164.221425 
L 250.592721 171.056035 
L 252.219246 175.945378 
L 253.032509 177.95587 
L 253.845772 179.517599 
L 254.659035 180.630427 
L 255.472298 181.379313 
L 256.285561 181.868101 
L 257.505455 182.28115 
L 259.131981 182.483652 
L 262.385033 182.527269 
L 263.198295 182.527458 
L 263.198295 182.527458 
" style="fill:none;stroke:#9467bd;stroke-linecap:square;stroke-width:0.8;"/>
   </g>
   <g id="patch_3">
    <path d="M 50.14375 182.5275 
L 50.14375 35.7555 
" style="fill:none;stroke:#000000;stroke-linecap:square;stroke-linejoin:miter;stroke-width:0.8;"/>
   </g>
   <g id="patch_4">
    <path d="M 273.34375 182.5275 
L 273.34375 35.7555 
" style="fill:none;stroke:#000000;stroke-linecap:square;stroke-linejoin:miter;stroke-width:0.8;"/>
   </g>
   <g id="patch_5">
    <path d="M 50.14375 182.5275 
L 273.34375 182.5275 
" style="fill:none;stroke:#000000;stroke-linecap:square;stroke-linejoin:miter;stroke-width:0.8;"/>
   </g>
   <g id="patch_6">
    <path d="M 50.14375 35.7555 
L 273.34375 35.7555 
" style="fill:none;stroke:#000000;stroke-linecap:square;stroke-linejoin:miter;stroke-width:0.8;"/>
   </g>
   <g id="text_16">
    <!-- Conductance Dist. Broadening -->
    <g transform="translate(70.48375 16.318125)scale(0.12 -0.12)">
     <defs>
      <path d="M 19.671875 34.8125 
L 19.671875 8.109375 
L 35.5 8.109375 
Q 43.453125 8.109375 47.28125 11.40625 
Q 51.125 14.703125 51.125 21.484375 
Q 51.125 28.328125 47.28125 31.5625 
Q 43.453125 34.8125 35.5 34.8125 
z
M 19.671875 64.796875 
L 19.671875 42.828125 
L 34.28125 42.828125 
Q 41.5 42.828125 45.03125 45.53125 
Q 48.578125 48.25 48.578125 53.8125 
Q 48.578125 59.328125 45.03125 62.0625 
Q 41.5 64.796875 34.28125 64.796875 
z
M 9.8125 72.90625 
L 35.015625 72.90625 
Q 46.296875 72.90625 52.390625 68.21875 
Q 58.5 63.53125 58.5 54.890625 
Q 58.5 48.1875 55.375 44.234375 
Q 52.25 40.28125 46.1875 39.3125 
Q 53.46875 37.75 57.5 32.78125 
Q 61.53125 27.828125 61.53125 20.40625 
Q 61.53125 10.640625 54.890625 5.3125 
Q 48.25 0 35.984375 0 
L 9.8125 0 
z
" id="DejaVuSans-66"/>
      <path d="M 45.40625 27.984375 
Q 45.40625 37.75 41.375 43.109375 
Q 37.359375 48.484375 30.078125 48.484375 
Q 22.859375 48.484375 18.828125 43.109375 
Q 14.796875 37.75 14.796875 27.984375 
Q 14.796875 18.265625 18.828125 12.890625 
Q 22.859375 7.515625 30.078125 7.515625 
Q 37.359375 7.515625 41.375 12.890625 
Q 45.40625 18.265625 45.40625 27.984375 
z
M 54.390625 6.78125 
Q 54.390625 -7.171875 48.1875 -13.984375 
Q 42 -20.796875 29.203125 -20.796875 
Q 24.46875 -20.796875 20.265625 -20.09375 
Q 16.0625 -19.390625 12.109375 -17.921875 
L 12.109375 -9.1875 
Q 16.0625 -11.328125 19.921875 -12.34375 
Q 23.78125 -13.375 27.78125 -13.375 
Q 36.625 -13.375 41.015625 -8.765625 
Q 45.40625 -4.15625 45.40625 5.171875 
L 45.40625 9.625 
Q 42.625 4.78125 38.28125 2.390625 
Q 33.9375 0 27.875 0 
Q 17.828125 0 11.671875 7.65625 
Q 5.515625 15.328125 5.515625 27.984375 
Q 5.515625 40.671875 11.671875 48.328125 
Q 17.828125 56 27.875 56 
Q 33.9375 56 38.28125 53.609375 
Q 42.625 51.21875 45.40625 46.390625 
L 45.40625 54.6875 
L 54.390625 54.6875 
z
" id="DejaVuSans-103"/>
     </defs>
     <use xlink:href="#DejaVuSans-67"/>
     <use x="69.824219" xlink:href="#DejaVuSans-111"/>
     <use x="131.005859" xlink:href="#DejaVuSans-110"/>
     <use x="194.384766" xlink:href="#DejaVuSans-100"/>
     <use x="257.861328" xlink:href="#DejaVuSans-117"/>
     <use x="321.240234" xlink:href="#DejaVuSans-99"/>
     <use x="376.220703" xlink:href="#DejaVuSans-116"/>
     <use x="415.429688" xlink:href="#DejaVuSans-97"/>
     <use x="476.708984" xlink:href="#DejaVuSans-110"/>
     <use x="540.087891" xlink:href="#DejaVuSans-99"/>
     <use x="595.068359" xlink:href="#DejaVuSans-101"/>
     <use x="656.591797" xlink:href="#DejaVuSans-32"/>
     <use x="688.378906" xlink:href="#DejaVuSans-68"/>
     <use x="765.380859" xlink:href="#DejaVuSans-105"/>
     <use x="793.164062" xlink:href="#DejaVuSans-115"/>
     <use x="845.263672" xlink:href="#DejaVuSans-116"/>
     <use x="884.472656" xlink:href="#DejaVuSans-46"/>
     <use x="916.259766" xlink:href="#DejaVuSans-32"/>
     <use x="948.046875" xlink:href="#DejaVuSans-66"/>
     <use x="1016.650391" xlink:href="#DejaVuSans-114"/>
     <use x="1055.513672" xlink:href="#DejaVuSans-111"/>
     <use x="1116.695312" xlink:href="#DejaVuSans-97"/>
     <use x="1177.974609" xlink:href="#DejaVuSans-100"/>
     <use x="1241.451172" xlink:href="#DejaVuSans-101"/>
     <use x="1302.974609" xlink:href="#DejaVuSans-110"/>
     <use x="1366.353516" xlink:href="#DejaVuSans-105"/>
     <use x="1394.136719" xlink:href="#DejaVuSans-110"/>
     <use x="1457.515625" xlink:href="#DejaVuSans-103"/>
    </g>
    <!-- (Tech B, Room Temp) -->
    <g transform="translate(98.80375 29.7555)scale(0.12 -0.12)">
     <defs>
      <path d="M -0.296875 72.90625 
L 61.375 72.90625 
L 61.375 64.59375 
L 35.5 64.59375 
L 35.5 0 
L 25.59375 0 
L 25.59375 64.59375 
L -0.296875 64.59375 
z
" id="DejaVuSans-84"/>
      <path d="M 54.890625 33.015625 
L 54.890625 0 
L 45.90625 0 
L 45.90625 32.71875 
Q 45.90625 40.484375 42.875 44.328125 
Q 39.84375 48.1875 33.796875 48.1875 
Q 26.515625 48.1875 22.3125 43.546875 
Q 18.109375 38.921875 18.109375 30.90625 
L 18.109375 0 
L 9.078125 0 
L 9.078125 75.984375 
L 18.109375 75.984375 
L 18.109375 46.1875 
Q 21.34375 51.125 25.703125 53.5625 
Q 30.078125 56 35.796875 56 
Q 45.21875 56 50.046875 50.171875 
Q 54.890625 44.34375 54.890625 33.015625 
z
" id="DejaVuSans-104"/>
      <path d="M 11.71875 12.40625 
L 22.015625 12.40625 
L 22.015625 4 
L 14.015625 -11.625 
L 7.71875 -11.625 
L 11.71875 4 
z
" id="DejaVuSans-44"/>
      <path d="M 44.390625 34.1875 
Q 47.5625 33.109375 50.5625 29.59375 
Q 53.5625 26.078125 56.59375 19.921875 
L 66.609375 0 
L 56 0 
L 46.6875 18.703125 
Q 43.0625 26.03125 39.671875 28.421875 
Q 36.28125 30.8125 30.421875 30.8125 
L 19.671875 30.8125 
L 19.671875 0 
L 9.8125 0 
L 9.8125 72.90625 
L 32.078125 72.90625 
Q 44.578125 72.90625 50.734375 67.671875 
Q 56.890625 62.453125 56.890625 51.90625 
Q 56.890625 45.015625 53.6875 40.46875 
Q 50.484375 35.9375 44.390625 34.1875 
z
M 19.671875 64.796875 
L 19.671875 38.921875 
L 32.078125 38.921875 
Q 39.203125 38.921875 42.84375 42.21875 
Q 46.484375 45.515625 46.484375 51.90625 
Q 46.484375 58.296875 42.84375 61.546875 
Q 39.203125 64.796875 32.078125 64.796875 
z
" id="DejaVuSans-82"/>
      <path d="M 52 44.1875 
Q 55.375 50.25 60.0625 53.125 
Q 64.75 56 71.09375 56 
Q 79.640625 56 84.28125 50.015625 
Q 88.921875 44.046875 88.921875 33.015625 
L 88.921875 0 
L 79.890625 0 
L 79.890625 32.71875 
Q 79.890625 40.578125 77.09375 44.375 
Q 74.3125 48.1875 68.609375 48.1875 
Q 61.625 48.1875 57.5625 43.546875 
Q 53.515625 38.921875 53.515625 30.90625 
L 53.515625 0 
L 44.484375 0 
L 44.484375 32.71875 
Q 44.484375 40.625 41.703125 44.40625 
Q 38.921875 48.1875 33.109375 48.1875 
Q 26.21875 48.1875 22.15625 43.53125 
Q 18.109375 38.875 18.109375 30.90625 
L 18.109375 0 
L 9.078125 0 
L 9.078125 54.6875 
L 18.109375 54.6875 
L 18.109375 46.1875 
Q 21.1875 51.21875 25.484375 53.609375 
Q 29.78125 56 35.6875 56 
Q 41.65625 56 45.828125 52.96875 
Q 50 49.953125 52 44.1875 
z
" id="DejaVuSans-109"/>
      <path d="M 18.109375 8.203125 
L 18.109375 -20.796875 
L 9.078125 -20.796875 
L 9.078125 54.6875 
L 18.109375 54.6875 
L 18.109375 46.390625 
Q 20.953125 51.265625 25.265625 53.625 
Q 29.59375 56 35.59375 56 
Q 45.5625 56 51.78125 48.09375 
Q 58.015625 40.1875 58.015625 27.296875 
Q 58.015625 14.40625 51.78125 6.484375 
Q 45.5625 -1.421875 35.59375 -1.421875 
Q 29.59375 -1.421875 25.265625 0.953125 
Q 20.953125 3.328125 18.109375 8.203125 
z
M 48.6875 27.296875 
Q 48.6875 37.203125 44.609375 42.84375 
Q 40.53125 48.484375 33.40625 48.484375 
Q 26.265625 48.484375 22.1875 42.84375 
Q 18.109375 37.203125 18.109375 27.296875 
Q 18.109375 17.390625 22.1875 11.75 
Q 26.265625 6.109375 33.40625 6.109375 
Q 40.53125 6.109375 44.609375 11.75 
Q 48.6875 17.390625 48.6875 27.296875 
z
" id="DejaVuSans-112"/>
     </defs>
     <use xlink:href="#DejaVuSans-40"/>
     <use x="39.013672" xlink:href="#DejaVuSans-84"/>
     <use x="83.097656" xlink:href="#DejaVuSans-101"/>
     <use x="144.621094" xlink:href="#DejaVuSans-99"/>
     <use x="199.601562" xlink:href="#DejaVuSans-104"/>
     <use x="262.980469" xlink:href="#DejaVuSans-32"/>
     <use x="294.767578" xlink:href="#DejaVuSans-66"/>
     <use x="363.371094" xlink:href="#DejaVuSans-44"/>
     <use x="395.158203" xlink:href="#DejaVuSans-32"/>
     <use x="426.945312" xlink:href="#DejaVuSans-82"/>
     <use x="491.927734" xlink:href="#DejaVuSans-111"/>
     <use x="553.109375" xlink:href="#DejaVuSans-111"/>
     <use x="614.291016" xlink:href="#DejaVuSans-109"/>
     <use x="711.703125" xlink:href="#DejaVuSans-32"/>
     <use x="743.490234" xlink:href="#DejaVuSans-84"/>
     <use x="787.574219" xlink:href="#DejaVuSans-101"/>
     <use x="849.097656" xlink:href="#DejaVuSans-109"/>
     <use x="946.509766" xlink:href="#DejaVuSans-112"/>
     <use x="1009.986328" xlink:href="#DejaVuSans-41"/>
    </g>
   </g>
   <g id="legend_1">
    <g id="patch_7">
     <path d="M 62.3125 73.11175 
L 266.34375 73.11175 
Q 268.34375 73.11175 268.34375 71.11175 
L 268.34375 42.7555 
Q 268.34375 40.7555 266.34375 40.7555 
L 62.3125 40.7555 
Q 60.3125 40.7555 60.3125 42.7555 
L 60.3125 71.11175 
Q 60.3125 73.11175 62.3125 73.11175 
z
" style="fill:#ffffff;opacity:0.8;stroke:#cccccc;stroke-linejoin:miter;"/>
    </g>
    <g id="line2d_39">
     <path d="M 64.3125 48.853938 
L 84.3125 48.853938 
" style="fill:none;stroke:#1f77b4;stroke-linecap:square;stroke-width:0.8;"/>
    </g>
    <g id="line2d_40"/>
    <g id="text_17">
     <!-- t=0 -->
     <g transform="translate(86.3125 52.353938)scale(0.1 -0.1)">
      <defs>
       <path d="M 10.59375 45.40625 
L 73.1875 45.40625 
L 73.1875 37.203125 
L 10.59375 37.203125 
z
M 10.59375 25.484375 
L 73.1875 25.484375 
L 73.1875 17.1875 
L 10.59375 17.1875 
z
" id="DejaVuSans-61"/>
      </defs>
      <use xlink:href="#DejaVuSans-116"/>
      <use x="39.208984" xlink:href="#DejaVuSans-61"/>
      <use x="122.998047" xlink:href="#DejaVuSans-48"/>
     </g>
    </g>
    <g id="line2d_41">
     <path d="M 64.3125 63.532063 
L 84.3125 63.532063 
" style="fill:none;stroke:#ff7f0e;stroke-linecap:square;stroke-width:0.8;"/>
    </g>
    <g id="line2d_42"/>
    <g id="text_18">
     <!-- t=1E2 -->
     <g transform="translate(86.3125 67.032063)scale(0.1 -0.1)">
      <use xlink:href="#DejaVuSans-116"/>
      <use x="39.208984" xlink:href="#DejaVuSans-61"/>
      <use x="122.998047" xlink:href="#DejaVuSans-49"/>
      <use x="186.621094" xlink:href="#DejaVuSans-69"/>
      <use x="249.804688" xlink:href="#DejaVuSans-50"/>
     </g>
    </g>
    <g id="line2d_43">
     <path d="M 137.65625 48.853938 
L 157.65625 48.853938 
" style="fill:none;stroke:#2ca02c;stroke-linecap:square;stroke-width:0.8;"/>
    </g>
    <g id="line2d_44"/>
    <g id="text_19">
     <!-- t=1E3 -->
     <g transform="translate(159.65625 52.353938)scale(0.1 -0.1)">
      <use xlink:href="#DejaVuSans-116"/>
      <use x="39.208984" xlink:href="#DejaVuSans-61"/>
      <use x="122.998047" xlink:href="#DejaVuSans-49"/>
      <use x="186.621094" xlink:href="#DejaVuSans-69"/>
      <use x="249.804688" xlink:href="#DejaVuSans-51"/>
     </g>
    </g>
    <g id="line2d_45">
     <path d="M 137.65625 63.532063 
L 157.65625 63.532063 
" style="fill:none;stroke:#d62728;stroke-linecap:square;stroke-width:0.8;"/>
    </g>
    <g id="line2d_46"/>
    <g id="text_20">
     <!-- t=1E4 -->
     <g transform="translate(159.65625 67.032063)scale(0.1 -0.1)">
      <defs>
       <path d="M 37.796875 64.3125 
L 12.890625 25.390625 
L 37.796875 25.390625 
z
M 35.203125 72.90625 
L 47.609375 72.90625 
L 47.609375 25.390625 
L 58.015625 25.390625 
L 58.015625 17.1875 
L 47.609375 17.1875 
L 47.609375 0 
L 37.796875 0 
L 37.796875 17.1875 
L 4.890625 17.1875 
L 4.890625 26.703125 
z
" id="DejaVuSans-52"/>
      </defs>
      <use xlink:href="#DejaVuSans-116"/>
      <use x="39.208984" xlink:href="#DejaVuSans-61"/>
      <use x="122.998047" xlink:href="#DejaVuSans-49"/>
      <use x="186.621094" xlink:href="#DejaVuSans-69"/>
      <use x="249.804688" xlink:href="#DejaVuSans-52"/>
     </g>
    </g>
    <g id="line2d_47">
     <path d="M 211 48.853938 
L 231 48.853938 
" style="fill:none;stroke:#9467bd;stroke-linecap:square;stroke-width:0.8;"/>
    </g>
    <g id="line2d_48"/>
    <g id="text_21">
     <!-- t=1E5 -->
     <g transform="translate(233 52.353938)scale(0.1 -0.1)">
      <use xlink:href="#DejaVuSans-116"/>
      <use x="39.208984" xlink:href="#DejaVuSans-61"/>
      <use x="122.998047" xlink:href="#DejaVuSans-49"/>
      <use x="186.621094" xlink:href="#DejaVuSans-69"/>
      <use x="249.804688" xlink:href="#DejaVuSans-53"/>
     </g>
    </g>
   </g>
  </g>
 </g>
 <defs>
  <clipPath id="p412c98cedf">
   <rect height="146.772" width="223.2" x="50.14375" y="35.7555"/>
  </clipPath>
 </defs>
</svg>
