<?xml version="1.0" encoding="utf-8" standalone="no"?>
<!DOCTYPE svg PUBLIC "-//W3C//DTD SVG 1.1//EN"
  "http://www.w3.org/Graphics/SVG/1.1/DTD/svg11.dtd">
<!-- Created with matplotlib (https://matplotlib.org/) -->
<svg height="263.57175pt" version="1.1" viewBox="0 0 273.020312 263.57175" width="273.020312pt" xmlns="http://www.w3.org/2000/svg" xmlns:xlink="http://www.w3.org/1999/xlink">
 <metadata>
  <rdf:RDF xmlns:cc="http://creativecommons.org/ns#" xmlns:dc="http://purl.org/dc/elements/1.1/" xmlns:rdf="http://www.w3.org/1999/02/22-rdf-syntax-ns#">
   <cc:Work>
    <dc:type rdf:resource="http://purl.org/dc/dcmitype/StillImage"/>
    <dc:date>2021-07-21T01:48:01.630432</dc:date>
    <dc:format>image/svg+xml</dc:format>
    <dc:creator>
     <cc:Agent>
      <dc:title>Matplotlib v3.3.3, https://matplotlib.org/</dc:title>
     </cc:Agent>
    </dc:creator>
   </cc:Work>
  </rdf:RDF>
 </metadata>
 <defs>
  <style type="text/css">*{stroke-linecap:butt;stroke-linejoin:round;}</style>
 </defs>
 <g id="figure_1">
  <g id="patch_1">
   <path d="M 0 263.57175 
L 273.020312 263.57175 
L 273.020312 0 
L 0 0 
z
" style="fill:none;"/>
  </g>
  <g id="axes_1">
   <g id="patch_2">
    <path d="M 42.620313 226.0155 
L 265.820312 226.0155 
L 265.820312 35.7555 
L 42.620313 35.7555 
z
" style="fill:#ffffff;"/>
   </g>
   <g id="matplotlib.axis_1">
    <g id="xtick_1">
     <g id="line2d_1">
      <defs>
       <path d="M 0 0 
L 0 3.5 
" id="m25f6f4cb52" style="stroke:#000000;stroke-width:0.8;"/>
      </defs>
      <g>
       <use style="stroke:#000000;stroke-width:0.8;" x="48.836435" xlink:href="#m25f6f4cb52" y="226.0155"/>
      </g>
     </g>
     <g id="text_1">
      <!-- 0 -->
      <g transform="translate(45.655185 240.613937)scale(0.1 -0.1)">
       <defs>
        <path d="M 31.78125 66.40625 
Q 24.171875 66.40625 20.328125 58.90625 
Q 16.5 51.421875 16.5 36.375 
Q 16.5 21.390625 20.328125 13.890625 
Q 24.171875 6.390625 31.78125 6.390625 
Q 39.453125 6.390625 43.28125 13.890625 
Q 47.125 21.390625 47.125 36.375 
Q 47.125 51.421875 43.28125 58.90625 
Q 39.453125 66.40625 31.78125 66.40625 
z
M 31.78125 74.21875 
Q 44.046875 74.21875 50.515625 64.515625 
Q 56.984375 54.828125 56.984375 36.375 
Q 56.984375 17.96875 50.515625 8.265625 
Q 44.046875 -1.421875 31.78125 -1.421875 
Q 19.53125 -1.421875 13.0625 8.265625 
Q 6.59375 17.96875 6.59375 36.375 
Q 6.59375 54.828125 13.0625 64.515625 
Q 19.53125 74.21875 31.78125 74.21875 
z
" id="DejaVuSans-48"/>
       </defs>
       <use xlink:href="#DejaVuSans-48"/>
      </g>
     </g>
    </g>
    <g id="xtick_2">
     <g id="line2d_2">
      <g>
       <use style="stroke:#000000;stroke-width:0.8;" x="81.702258" xlink:href="#m25f6f4cb52" y="226.0155"/>
      </g>
     </g>
     <g id="text_2">
      <!-- 20 -->
      <g transform="translate(75.339758 240.613937)scale(0.1 -0.1)">
       <defs>
        <path d="M 19.1875 8.296875 
L 53.609375 8.296875 
L 53.609375 0 
L 7.328125 0 
L 7.328125 8.296875 
Q 12.9375 14.109375 22.625 23.890625 
Q 32.328125 33.6875 34.8125 36.53125 
Q 39.546875 41.84375 41.421875 45.53125 
Q 43.3125 49.21875 43.3125 52.78125 
Q 43.3125 58.59375 39.234375 62.25 
Q 35.15625 65.921875 28.609375 65.921875 
Q 23.96875 65.921875 18.8125 64.3125 
Q 13.671875 62.703125 7.8125 59.421875 
L 7.8125 69.390625 
Q 13.765625 71.78125 18.9375 73 
Q 24.125 74.21875 28.421875 74.21875 
Q 39.75 74.21875 46.484375 68.546875 
Q 53.21875 62.890625 53.21875 53.421875 
Q 53.21875 48.921875 51.53125 44.890625 
Q 49.859375 40.875 45.40625 35.40625 
Q 44.1875 33.984375 37.640625 27.21875 
Q 31.109375 20.453125 19.1875 8.296875 
z
" id="DejaVuSans-50"/>
       </defs>
       <use xlink:href="#DejaVuSans-50"/>
       <use x="63.623047" xlink:href="#DejaVuSans-48"/>
      </g>
     </g>
    </g>
    <g id="xtick_3">
     <g id="line2d_3">
      <g>
       <use style="stroke:#000000;stroke-width:0.8;" x="114.568081" xlink:href="#m25f6f4cb52" y="226.0155"/>
      </g>
     </g>
     <g id="text_3">
      <!-- 40 -->
      <g transform="translate(108.205581 240.613937)scale(0.1 -0.1)">
       <defs>
        <path d="M 37.796875 64.3125 
L 12.890625 25.390625 
L 37.796875 25.390625 
z
M 35.203125 72.90625 
L 47.609375 72.90625 
L 47.609375 25.390625 
L 58.015625 25.390625 
L 58.015625 17.1875 
L 47.609375 17.1875 
L 47.609375 0 
L 37.796875 0 
L 37.796875 17.1875 
L 4.890625 17.1875 
L 4.890625 26.703125 
z
" id="DejaVuSans-52"/>
       </defs>
       <use xlink:href="#DejaVuSans-52"/>
       <use x="63.623047" xlink:href="#DejaVuSans-48"/>
      </g>
     </g>
    </g>
    <g id="xtick_4">
     <g id="line2d_4">
      <g>
       <use style="stroke:#000000;stroke-width:0.8;" x="147.433904" xlink:href="#m25f6f4cb52" y="226.0155"/>
      </g>
     </g>
     <g id="text_4">
      <!-- 60 -->
      <g transform="translate(141.071404 240.613937)scale(0.1 -0.1)">
       <defs>
        <path d="M 33.015625 40.375 
Q 26.375 40.375 22.484375 35.828125 
Q 18.609375 31.296875 18.609375 23.390625 
Q 18.609375 15.53125 22.484375 10.953125 
Q 26.375 6.390625 33.015625 6.390625 
Q 39.65625 6.390625 43.53125 10.953125 
Q 47.40625 15.53125 47.40625 23.390625 
Q 47.40625 31.296875 43.53125 35.828125 
Q 39.65625 40.375 33.015625 40.375 
z
M 52.59375 71.296875 
L 52.59375 62.3125 
Q 48.875 64.0625 45.09375 64.984375 
Q 41.3125 65.921875 37.59375 65.921875 
Q 27.828125 65.921875 22.671875 59.328125 
Q 17.53125 52.734375 16.796875 39.40625 
Q 19.671875 43.65625 24.015625 45.921875 
Q 28.375 48.1875 33.59375 48.1875 
Q 44.578125 48.1875 50.953125 41.515625 
Q 57.328125 34.859375 57.328125 23.390625 
Q 57.328125 12.15625 50.6875 5.359375 
Q 44.046875 -1.421875 33.015625 -1.421875 
Q 20.359375 -1.421875 13.671875 8.265625 
Q 6.984375 17.96875 6.984375 36.375 
Q 6.984375 53.65625 15.1875 63.9375 
Q 23.390625 74.21875 37.203125 74.21875 
Q 40.921875 74.21875 44.703125 73.484375 
Q 48.484375 72.75 52.59375 71.296875 
z
" id="DejaVuSans-54"/>
       </defs>
       <use xlink:href="#DejaVuSans-54"/>
       <use x="63.623047" xlink:href="#DejaVuSans-48"/>
      </g>
     </g>
    </g>
    <g id="xtick_5">
     <g id="line2d_5">
      <g>
       <use style="stroke:#000000;stroke-width:0.8;" x="180.299727" xlink:href="#m25f6f4cb52" y="226.0155"/>
      </g>
     </g>
     <g id="text_5">
      <!-- 80 -->
      <g transform="translate(173.937227 240.613937)scale(0.1 -0.1)">
       <defs>
        <path d="M 31.78125 34.625 
Q 24.75 34.625 20.71875 30.859375 
Q 16.703125 27.09375 16.703125 20.515625 
Q 16.703125 13.921875 20.71875 10.15625 
Q 24.75 6.390625 31.78125 6.390625 
Q 38.8125 6.390625 42.859375 10.171875 
Q 46.921875 13.96875 46.921875 20.515625 
Q 46.921875 27.09375 42.890625 30.859375 
Q 38.875 34.625 31.78125 34.625 
z
M 21.921875 38.8125 
Q 15.578125 40.375 12.03125 44.71875 
Q 8.5 49.078125 8.5 55.328125 
Q 8.5 64.0625 14.71875 69.140625 
Q 20.953125 74.21875 31.78125 74.21875 
Q 42.671875 74.21875 48.875 69.140625 
Q 55.078125 64.0625 55.078125 55.328125 
Q 55.078125 49.078125 51.53125 44.71875 
Q 48 40.375 41.703125 38.8125 
Q 48.828125 37.15625 52.796875 32.3125 
Q 56.78125 27.484375 56.78125 20.515625 
Q 56.78125 9.90625 50.3125 4.234375 
Q 43.84375 -1.421875 31.78125 -1.421875 
Q 19.734375 -1.421875 13.25 4.234375 
Q 6.78125 9.90625 6.78125 20.515625 
Q 6.78125 27.484375 10.78125 32.3125 
Q 14.796875 37.15625 21.921875 38.8125 
z
M 18.3125 54.390625 
Q 18.3125 48.734375 21.84375 45.5625 
Q 25.390625 42.390625 31.78125 42.390625 
Q 38.140625 42.390625 41.71875 45.5625 
Q 45.3125 48.734375 45.3125 54.390625 
Q 45.3125 60.0625 41.71875 63.234375 
Q 38.140625 66.40625 31.78125 66.40625 
Q 25.390625 66.40625 21.84375 63.234375 
Q 18.3125 60.0625 18.3125 54.390625 
z
" id="DejaVuSans-56"/>
       </defs>
       <use xlink:href="#DejaVuSans-56"/>
       <use x="63.623047" xlink:href="#DejaVuSans-48"/>
      </g>
     </g>
    </g>
    <g id="xtick_6">
     <g id="line2d_6">
      <g>
       <use style="stroke:#000000;stroke-width:0.8;" x="213.16555" xlink:href="#m25f6f4cb52" y="226.0155"/>
      </g>
     </g>
     <g id="text_6">
      <!-- 100 -->
      <g transform="translate(203.6218 240.613937)scale(0.1 -0.1)">
       <defs>
        <path d="M 12.40625 8.296875 
L 28.515625 8.296875 
L 28.515625 63.921875 
L 10.984375 60.40625 
L 10.984375 69.390625 
L 28.421875 72.90625 
L 38.28125 72.90625 
L 38.28125 8.296875 
L 54.390625 8.296875 
L 54.390625 0 
L 12.40625 0 
z
" id="DejaVuSans-49"/>
       </defs>
       <use xlink:href="#DejaVuSans-49"/>
       <use x="63.623047" xlink:href="#DejaVuSans-48"/>
       <use x="127.246094" xlink:href="#DejaVuSans-48"/>
      </g>
     </g>
    </g>
    <g id="xtick_7">
     <g id="line2d_7">
      <g>
       <use style="stroke:#000000;stroke-width:0.8;" x="246.031373" xlink:href="#m25f6f4cb52" y="226.0155"/>
      </g>
     </g>
     <g id="text_7">
      <!-- 120 -->
      <g transform="translate(236.487623 240.613937)scale(0.1 -0.1)">
       <use xlink:href="#DejaVuSans-49"/>
       <use x="63.623047" xlink:href="#DejaVuSans-50"/>
       <use x="127.246094" xlink:href="#DejaVuSans-48"/>
      </g>
     </g>
    </g>
    <g id="text_8">
     <!-- Initial Conductance (µS) -->
     <g transform="translate(94.119531 254.292062)scale(0.1 -0.1)">
      <defs>
       <path d="M 9.8125 72.90625 
L 19.671875 72.90625 
L 19.671875 0 
L 9.8125 0 
z
" id="DejaVuSans-73"/>
       <path d="M 54.890625 33.015625 
L 54.890625 0 
L 45.90625 0 
L 45.90625 32.71875 
Q 45.90625 40.484375 42.875 44.328125 
Q 39.84375 48.1875 33.796875 48.1875 
Q 26.515625 48.1875 22.3125 43.546875 
Q 18.109375 38.921875 18.109375 30.90625 
L 18.109375 0 
L 9.078125 0 
L 9.078125 54.6875 
L 18.109375 54.6875 
L 18.109375 46.1875 
Q 21.34375 51.125 25.703125 53.5625 
Q 30.078125 56 35.796875 56 
Q 45.21875 56 50.046875 50.171875 
Q 54.890625 44.34375 54.890625 33.015625 
z
" id="DejaVuSans-110"/>
       <path d="M 9.421875 54.6875 
L 18.40625 54.6875 
L 18.40625 0 
L 9.421875 0 
z
M 9.421875 75.984375 
L 18.40625 75.984375 
L 18.40625 64.59375 
L 9.421875 64.59375 
z
" id="DejaVuSans-105"/>
       <path d="M 18.3125 70.21875 
L 18.3125 54.6875 
L 36.8125 54.6875 
L 36.8125 47.703125 
L 18.3125 47.703125 
L 18.3125 18.015625 
Q 18.3125 11.328125 20.140625 9.421875 
Q 21.96875 7.515625 27.59375 7.515625 
L 36.8125 7.515625 
L 36.8125 0 
L 27.59375 0 
Q 17.1875 0 13.234375 3.875 
Q 9.28125 7.765625 9.28125 18.015625 
L 9.28125 47.703125 
L 2.6875 47.703125 
L 2.6875 54.6875 
L 9.28125 54.6875 
L 9.28125 70.21875 
z
" id="DejaVuSans-116"/>
       <path d="M 34.28125 27.484375 
Q 23.390625 27.484375 19.1875 25 
Q 14.984375 22.515625 14.984375 16.5 
Q 14.984375 11.71875 18.140625 8.90625 
Q 21.296875 6.109375 26.703125 6.109375 
Q 34.1875 6.109375 38.703125 11.40625 
Q 43.21875 16.703125 43.21875 25.484375 
L 43.21875 27.484375 
z
M 52.203125 31.203125 
L 52.203125 0 
L 43.21875 0 
L 43.21875 8.296875 
Q 40.140625 3.328125 35.546875 0.953125 
Q 30.953125 -1.421875 24.3125 -1.421875 
Q 15.921875 -1.421875 10.953125 3.296875 
Q 6 8.015625 6 15.921875 
Q 6 25.140625 12.171875 29.828125 
Q 18.359375 34.515625 30.609375 34.515625 
L 43.21875 34.515625 
L 43.21875 35.40625 
Q 43.21875 41.609375 39.140625 45 
Q 35.0625 48.390625 27.6875 48.390625 
Q 23 48.390625 18.546875 47.265625 
Q 14.109375 46.140625 10.015625 43.890625 
L 10.015625 52.203125 
Q 14.9375 54.109375 19.578125 55.046875 
Q 24.21875 56 28.609375 56 
Q 40.484375 56 46.34375 49.84375 
Q 52.203125 43.703125 52.203125 31.203125 
z
" id="DejaVuSans-97"/>
       <path d="M 9.421875 75.984375 
L 18.40625 75.984375 
L 18.40625 0 
L 9.421875 0 
z
" id="DejaVuSans-108"/>
       <path id="DejaVuSans-32"/>
       <path d="M 64.40625 67.28125 
L 64.40625 56.890625 
Q 59.421875 61.53125 53.78125 63.8125 
Q 48.140625 66.109375 41.796875 66.109375 
Q 29.296875 66.109375 22.65625 58.46875 
Q 16.015625 50.828125 16.015625 36.375 
Q 16.015625 21.96875 22.65625 14.328125 
Q 29.296875 6.6875 41.796875 6.6875 
Q 48.140625 6.6875 53.78125 8.984375 
Q 59.421875 11.28125 64.40625 15.921875 
L 64.40625 5.609375 
Q 59.234375 2.09375 53.4375 0.328125 
Q 47.65625 -1.421875 41.21875 -1.421875 
Q 24.65625 -1.421875 15.125 8.703125 
Q 5.609375 18.84375 5.609375 36.375 
Q 5.609375 53.953125 15.125 64.078125 
Q 24.65625 74.21875 41.21875 74.21875 
Q 47.75 74.21875 53.53125 72.484375 
Q 59.328125 70.75 64.40625 67.28125 
z
" id="DejaVuSans-67"/>
       <path d="M 30.609375 48.390625 
Q 23.390625 48.390625 19.1875 42.75 
Q 14.984375 37.109375 14.984375 27.296875 
Q 14.984375 17.484375 19.15625 11.84375 
Q 23.34375 6.203125 30.609375 6.203125 
Q 37.796875 6.203125 41.984375 11.859375 
Q 46.1875 17.53125 46.1875 27.296875 
Q 46.1875 37.015625 41.984375 42.703125 
Q 37.796875 48.390625 30.609375 48.390625 
z
M 30.609375 56 
Q 42.328125 56 49.015625 48.375 
Q 55.71875 40.765625 55.71875 27.296875 
Q 55.71875 13.875 49.015625 6.21875 
Q 42.328125 -1.421875 30.609375 -1.421875 
Q 18.84375 -1.421875 12.171875 6.21875 
Q 5.515625 13.875 5.515625 27.296875 
Q 5.515625 40.765625 12.171875 48.375 
Q 18.84375 56 30.609375 56 
z
" id="DejaVuSans-111"/>
       <path d="M 45.40625 46.390625 
L 45.40625 75.984375 
L 54.390625 75.984375 
L 54.390625 0 
L 45.40625 0 
L 45.40625 8.203125 
Q 42.578125 3.328125 38.25 0.953125 
Q 33.9375 -1.421875 27.875 -1.421875 
Q 17.96875 -1.421875 11.734375 6.484375 
Q 5.515625 14.40625 5.515625 27.296875 
Q 5.515625 40.1875 11.734375 48.09375 
Q 17.96875 56 27.875 56 
Q 33.9375 56 38.25 53.625 
Q 42.578125 51.265625 45.40625 46.390625 
z
M 14.796875 27.296875 
Q 14.796875 17.390625 18.875 11.75 
Q 22.953125 6.109375 30.078125 6.109375 
Q 37.203125 6.109375 41.296875 11.75 
Q 45.40625 17.390625 45.40625 27.296875 
Q 45.40625 37.203125 41.296875 42.84375 
Q 37.203125 48.484375 30.078125 48.484375 
Q 22.953125 48.484375 18.875 42.84375 
Q 14.796875 37.203125 14.796875 27.296875 
z
" id="DejaVuSans-100"/>
       <path d="M 8.5 21.578125 
L 8.5 54.6875 
L 17.484375 54.6875 
L 17.484375 21.921875 
Q 17.484375 14.15625 20.5 10.265625 
Q 23.53125 6.390625 29.59375 6.390625 
Q 36.859375 6.390625 41.078125 11.03125 
Q 45.3125 15.671875 45.3125 23.6875 
L 45.3125 54.6875 
L 54.296875 54.6875 
L 54.296875 0 
L 45.3125 0 
L 45.3125 8.40625 
Q 42.046875 3.421875 37.71875 1 
Q 33.40625 -1.421875 27.6875 -1.421875 
Q 18.265625 -1.421875 13.375 4.4375 
Q 8.5 10.296875 8.5 21.578125 
z
M 31.109375 56 
z
" id="DejaVuSans-117"/>
       <path d="M 48.78125 52.59375 
L 48.78125 44.1875 
Q 44.96875 46.296875 41.140625 47.34375 
Q 37.3125 48.390625 33.40625 48.390625 
Q 24.65625 48.390625 19.8125 42.84375 
Q 14.984375 37.3125 14.984375 27.296875 
Q 14.984375 17.28125 19.8125 11.734375 
Q 24.65625 6.203125 33.40625 6.203125 
Q 37.3125 6.203125 41.140625 7.25 
Q 44.96875 8.296875 48.78125 10.40625 
L 48.78125 2.09375 
Q 45.015625 0.34375 40.984375 -0.53125 
Q 36.96875 -1.421875 32.421875 -1.421875 
Q 20.0625 -1.421875 12.78125 6.34375 
Q 5.515625 14.109375 5.515625 27.296875 
Q 5.515625 40.671875 12.859375 48.328125 
Q 20.21875 56 33.015625 56 
Q 37.15625 56 41.109375 55.140625 
Q 45.0625 54.296875 48.78125 52.59375 
z
" id="DejaVuSans-99"/>
       <path d="M 56.203125 29.59375 
L 56.203125 25.203125 
L 14.890625 25.203125 
Q 15.484375 15.921875 20.484375 11.0625 
Q 25.484375 6.203125 34.421875 6.203125 
Q 39.59375 6.203125 44.453125 7.46875 
Q 49.3125 8.734375 54.109375 11.28125 
L 54.109375 2.78125 
Q 49.265625 0.734375 44.1875 -0.34375 
Q 39.109375 -1.421875 33.890625 -1.421875 
Q 20.796875 -1.421875 13.15625 6.1875 
Q 5.515625 13.8125 5.515625 26.8125 
Q 5.515625 40.234375 12.765625 48.109375 
Q 20.015625 56 32.328125 56 
Q 43.359375 56 49.78125 48.890625 
Q 56.203125 41.796875 56.203125 29.59375 
z
M 47.21875 32.234375 
Q 47.125 39.59375 43.09375 43.984375 
Q 39.0625 48.390625 32.421875 48.390625 
Q 24.90625 48.390625 20.390625 44.140625 
Q 15.875 39.890625 15.1875 32.171875 
z
" id="DejaVuSans-101"/>
       <path d="M 31 75.875 
Q 24.46875 64.65625 21.28125 53.65625 
Q 18.109375 42.671875 18.109375 31.390625 
Q 18.109375 20.125 21.3125 9.0625 
Q 24.515625 -2 31 -13.1875 
L 23.1875 -13.1875 
Q 15.875 -1.703125 12.234375 9.375 
Q 8.59375 20.453125 8.59375 31.390625 
Q 8.59375 42.28125 12.203125 53.3125 
Q 15.828125 64.359375 23.1875 75.875 
z
" id="DejaVuSans-40"/>
       <path d="M 8.5 -20.796875 
L 8.5 54.6875 
L 17.484375 54.6875 
L 17.484375 20.703125 
Q 17.484375 13.625 20.84375 10 
Q 24.21875 6.390625 30.8125 6.390625 
Q 38.03125 6.390625 41.671875 10.484375 
Q 45.3125 14.59375 45.3125 22.796875 
L 45.3125 54.6875 
L 54.296875 54.6875 
L 54.296875 12.59375 
Q 54.296875 9.671875 55.140625 8.28125 
Q 56 6.890625 57.8125 6.890625 
Q 58.25 6.890625 59.03125 7.15625 
Q 59.8125 7.421875 61.1875 8.015625 
L 61.1875 0.78125 
Q 59.1875 -0.34375 57.390625 -0.875 
Q 55.609375 -1.421875 53.90625 -1.421875 
Q 50.53125 -1.421875 48.53125 0.484375 
Q 46.53125 2.390625 45.796875 6.296875 
Q 43.359375 2.4375 39.8125 0.5 
Q 36.28125 -1.421875 31.5 -1.421875 
Q 26.515625 -1.421875 23.015625 0.484375 
Q 19.53125 2.390625 17.484375 6.203125 
L 17.484375 -20.796875 
z
" id="DejaVuSans-181"/>
       <path d="M 53.515625 70.515625 
L 53.515625 60.890625 
Q 47.90625 63.578125 42.921875 64.890625 
Q 37.9375 66.21875 33.296875 66.21875 
Q 25.25 66.21875 20.875 63.09375 
Q 16.5 59.96875 16.5 54.203125 
Q 16.5 49.359375 19.40625 46.890625 
Q 22.3125 44.4375 30.421875 42.921875 
L 36.375 41.703125 
Q 47.40625 39.59375 52.65625 34.296875 
Q 57.90625 29 57.90625 20.125 
Q 57.90625 9.515625 50.796875 4.046875 
Q 43.703125 -1.421875 29.984375 -1.421875 
Q 24.8125 -1.421875 18.96875 -0.25 
Q 13.140625 0.921875 6.890625 3.21875 
L 6.890625 13.375 
Q 12.890625 10.015625 18.65625 8.296875 
Q 24.421875 6.59375 29.984375 6.59375 
Q 38.421875 6.59375 43.015625 9.90625 
Q 47.609375 13.234375 47.609375 19.390625 
Q 47.609375 24.75 44.3125 27.78125 
Q 41.015625 30.8125 33.5 32.328125 
L 27.484375 33.5 
Q 16.453125 35.6875 11.515625 40.375 
Q 6.59375 45.0625 6.59375 53.421875 
Q 6.59375 63.09375 13.40625 68.65625 
Q 20.21875 74.21875 32.171875 74.21875 
Q 37.3125 74.21875 42.625 73.28125 
Q 47.953125 72.359375 53.515625 70.515625 
z
" id="DejaVuSans-83"/>
       <path d="M 8.015625 75.875 
L 15.828125 75.875 
Q 23.140625 64.359375 26.78125 53.3125 
Q 30.421875 42.28125 30.421875 31.390625 
Q 30.421875 20.453125 26.78125 9.375 
Q 23.140625 -1.703125 15.828125 -13.1875 
L 8.015625 -13.1875 
Q 14.5 -2 17.703125 9.0625 
Q 20.90625 20.125 20.90625 31.390625 
Q 20.90625 42.671875 17.703125 53.65625 
Q 14.5 64.65625 8.015625 75.875 
z
" id="DejaVuSans-41"/>
      </defs>
      <use xlink:href="#DejaVuSans-73"/>
      <use x="29.492188" xlink:href="#DejaVuSans-110"/>
      <use x="92.871094" xlink:href="#DejaVuSans-105"/>
      <use x="120.654297" xlink:href="#DejaVuSans-116"/>
      <use x="159.863281" xlink:href="#DejaVuSans-105"/>
      <use x="187.646484" xlink:href="#DejaVuSans-97"/>
      <use x="248.925781" xlink:href="#DejaVuSans-108"/>
      <use x="276.708984" xlink:href="#DejaVuSans-32"/>
      <use x="308.496094" xlink:href="#DejaVuSans-67"/>
      <use x="378.320312" xlink:href="#DejaVuSans-111"/>
      <use x="439.501953" xlink:href="#DejaVuSans-110"/>
      <use x="502.880859" xlink:href="#DejaVuSans-100"/>
      <use x="566.357422" xlink:href="#DejaVuSans-117"/>
      <use x="629.736328" xlink:href="#DejaVuSans-99"/>
      <use x="684.716797" xlink:href="#DejaVuSans-116"/>
      <use x="723.925781" xlink:href="#DejaVuSans-97"/>
      <use x="785.205078" xlink:href="#DejaVuSans-110"/>
      <use x="848.583984" xlink:href="#DejaVuSans-99"/>
      <use x="903.564453" xlink:href="#DejaVuSans-101"/>
      <use x="965.087891" xlink:href="#DejaVuSans-32"/>
      <use x="996.875" xlink:href="#DejaVuSans-40"/>
      <use x="1035.888672" xlink:href="#DejaVuSans-181"/>
      <use x="1099.511719" xlink:href="#DejaVuSans-83"/>
      <use x="1162.988281" xlink:href="#DejaVuSans-41"/>
     </g>
    </g>
   </g>
   <g id="matplotlib.axis_2">
    <g id="ytick_1">
     <g id="line2d_8">
      <defs>
       <path d="M 0 0 
L -3.5 0 
" id="m9887ea033d" style="stroke:#000000;stroke-width:0.8;"/>
      </defs>
      <g>
       <use style="stroke:#000000;stroke-width:0.8;" x="42.620313" xlink:href="#m9887ea033d" y="226.0155"/>
      </g>
     </g>
     <g id="text_9">
      <!-- −6 -->
      <g transform="translate(20.878125 229.814719)scale(0.1 -0.1)">
       <defs>
        <path d="M 10.59375 35.5 
L 73.1875 35.5 
L 73.1875 27.203125 
L 10.59375 27.203125 
z
" id="DejaVuSans-8722"/>
       </defs>
       <use xlink:href="#DejaVuSans-8722"/>
       <use x="83.789062" xlink:href="#DejaVuSans-54"/>
      </g>
     </g>
    </g>
    <g id="ytick_2">
     <g id="line2d_9">
      <g>
       <use style="stroke:#000000;stroke-width:0.8;" x="42.620313" xlink:href="#m9887ea033d" y="191.422773"/>
      </g>
     </g>
     <g id="text_10">
      <!-- −4 -->
      <g transform="translate(20.878125 195.221991)scale(0.1 -0.1)">
       <use xlink:href="#DejaVuSans-8722"/>
       <use x="83.789062" xlink:href="#DejaVuSans-52"/>
      </g>
     </g>
    </g>
    <g id="ytick_3">
     <g id="line2d_10">
      <g>
       <use style="stroke:#000000;stroke-width:0.8;" x="42.620313" xlink:href="#m9887ea033d" y="156.830045"/>
      </g>
     </g>
     <g id="text_11">
      <!-- −2 -->
      <g transform="translate(20.878125 160.629264)scale(0.1 -0.1)">
       <use xlink:href="#DejaVuSans-8722"/>
       <use x="83.789062" xlink:href="#DejaVuSans-50"/>
      </g>
     </g>
    </g>
    <g id="ytick_4">
     <g id="line2d_11">
      <g>
       <use style="stroke:#000000;stroke-width:0.8;" x="42.620313" xlink:href="#m9887ea033d" y="122.237318"/>
      </g>
     </g>
     <g id="text_12">
      <!-- 0 -->
      <g transform="translate(29.257813 126.036537)scale(0.1 -0.1)">
       <use xlink:href="#DejaVuSans-48"/>
      </g>
     </g>
    </g>
    <g id="ytick_5">
     <g id="line2d_12">
      <g>
       <use style="stroke:#000000;stroke-width:0.8;" x="42.620313" xlink:href="#m9887ea033d" y="87.644591"/>
      </g>
     </g>
     <g id="text_13">
      <!-- 2 -->
      <g transform="translate(29.257813 91.44381)scale(0.1 -0.1)">
       <use xlink:href="#DejaVuSans-50"/>
      </g>
     </g>
    </g>
    <g id="ytick_6">
     <g id="line2d_13">
      <g>
       <use style="stroke:#000000;stroke-width:0.8;" x="42.620313" xlink:href="#m9887ea033d" y="53.051864"/>
      </g>
     </g>
     <g id="text_14">
      <!-- 4 -->
      <g transform="translate(29.257813 56.851082)scale(0.1 -0.1)">
       <use xlink:href="#DejaVuSans-52"/>
      </g>
     </g>
    </g>
    <g id="text_15">
     <!-- Mean Drift (µS) -->
     <g transform="translate(14.798438 168.871437)rotate(-90)scale(0.1 -0.1)">
      <defs>
       <path d="M 9.8125 72.90625 
L 24.515625 72.90625 
L 43.109375 23.296875 
L 61.8125 72.90625 
L 76.515625 72.90625 
L 76.515625 0 
L 66.890625 0 
L 66.890625 64.015625 
L 48.09375 14.015625 
L 38.1875 14.015625 
L 19.390625 64.015625 
L 19.390625 0 
L 9.8125 0 
z
" id="DejaVuSans-77"/>
       <path d="M 19.671875 64.796875 
L 19.671875 8.109375 
L 31.59375 8.109375 
Q 46.6875 8.109375 53.6875 14.9375 
Q 60.6875 21.78125 60.6875 36.53125 
Q 60.6875 51.171875 53.6875 57.984375 
Q 46.6875 64.796875 31.59375 64.796875 
z
M 9.8125 72.90625 
L 30.078125 72.90625 
Q 51.265625 72.90625 61.171875 64.09375 
Q 71.09375 55.28125 71.09375 36.53125 
Q 71.09375 17.671875 61.125 8.828125 
Q 51.171875 0 30.078125 0 
L 9.8125 0 
z
" id="DejaVuSans-68"/>
       <path d="M 41.109375 46.296875 
Q 39.59375 47.171875 37.8125 47.578125 
Q 36.03125 48 33.890625 48 
Q 26.265625 48 22.1875 43.046875 
Q 18.109375 38.09375 18.109375 28.8125 
L 18.109375 0 
L 9.078125 0 
L 9.078125 54.6875 
L 18.109375 54.6875 
L 18.109375 46.1875 
Q 20.953125 51.171875 25.484375 53.578125 
Q 30.03125 56 36.53125 56 
Q 37.453125 56 38.578125 55.875 
Q 39.703125 55.765625 41.0625 55.515625 
z
" id="DejaVuSans-114"/>
       <path d="M 37.109375 75.984375 
L 37.109375 68.5 
L 28.515625 68.5 
Q 23.6875 68.5 21.796875 66.546875 
Q 19.921875 64.59375 19.921875 59.515625 
L 19.921875 54.6875 
L 34.71875 54.6875 
L 34.71875 47.703125 
L 19.921875 47.703125 
L 19.921875 0 
L 10.890625 0 
L 10.890625 47.703125 
L 2.296875 47.703125 
L 2.296875 54.6875 
L 10.890625 54.6875 
L 10.890625 58.5 
Q 10.890625 67.625 15.140625 71.796875 
Q 19.390625 75.984375 28.609375 75.984375 
z
" id="DejaVuSans-102"/>
      </defs>
      <use xlink:href="#DejaVuSans-77"/>
      <use x="86.279297" xlink:href="#DejaVuSans-101"/>
      <use x="147.802734" xlink:href="#DejaVuSans-97"/>
      <use x="209.082031" xlink:href="#DejaVuSans-110"/>
      <use x="272.460938" xlink:href="#DejaVuSans-32"/>
      <use x="304.248047" xlink:href="#DejaVuSans-68"/>
      <use x="381.25" xlink:href="#DejaVuSans-114"/>
      <use x="422.363281" xlink:href="#DejaVuSans-105"/>
      <use x="450.146484" xlink:href="#DejaVuSans-102"/>
      <use x="483.601562" xlink:href="#DejaVuSans-116"/>
      <use x="522.810547" xlink:href="#DejaVuSans-32"/>
      <use x="554.597656" xlink:href="#DejaVuSans-40"/>
      <use x="593.611328" xlink:href="#DejaVuSans-181"/>
      <use x="657.234375" xlink:href="#DejaVuSans-83"/>
      <use x="720.710938" xlink:href="#DejaVuSans-41"/>
     </g>
    </g>
   </g>
   <g id="line2d_14">
    <path clip-path="url(#p8fdc7ff033)" d="M 52.776829 122.237318 
L 58.530462 122.237318 
L 65.117161 122.237318 
L 71.756942 122.237318 
L 78.435054 122.237318 
L 84.868662 122.237318 
L 91.636559 122.237318 
L 98.088429 122.237318 
L 104.728228 122.237318 
L 111.361217 122.237318 
L 117.629011 122.237318 
L 124.438838 122.237318 
L 131.098709 122.237318 
L 137.551577 122.237318 
L 144.164804 122.237318 
L 150.645251 122.237318 
L 157.409269 122.237318 
L 163.849835 122.237318 
L 170.207808 122.237318 
L 177.120118 122.237318 
L 183.611639 122.237318 
L 190.177789 122.237318 
L 196.885588 122.237318 
L 203.269138 122.237318 
L 209.893511 122.237318 
L 216.429888 122.237318 
L 223.027799 122.237318 
L 229.662199 122.237318 
L 236.151871 122.237318 
L 242.761371 122.237318 
L 249.346806 122.237318 
L 255.646307 122.237318 
" style="fill:none;stroke:#1f77b4;stroke-linecap:square;stroke-width:0.8;"/>
    <defs>
     <path d="M -3 0 
L 3 0 
M 0 3 
L 0 -3 
" id="mab0e9079db" style="stroke:#1f77b4;"/>
    </defs>
    <g clip-path="url(#p8fdc7ff033)">
     <use style="fill:#1f77b4;stroke:#1f77b4;" x="52.776829" xlink:href="#mab0e9079db" y="122.237318"/>
     <use style="fill:#1f77b4;stroke:#1f77b4;" x="58.530462" xlink:href="#mab0e9079db" y="122.237318"/>
     <use style="fill:#1f77b4;stroke:#1f77b4;" x="65.117161" xlink:href="#mab0e9079db" y="122.237318"/>
     <use style="fill:#1f77b4;stroke:#1f77b4;" x="71.756942" xlink:href="#mab0e9079db" y="122.237318"/>
     <use style="fill:#1f77b4;stroke:#1f77b4;" x="78.435054" xlink:href="#mab0e9079db" y="122.237318"/>
     <use style="fill:#1f77b4;stroke:#1f77b4;" x="84.868662" xlink:href="#mab0e9079db" y="122.237318"/>
     <use style="fill:#1f77b4;stroke:#1f77b4;" x="91.636559" xlink:href="#mab0e9079db" y="122.237318"/>
     <use style="fill:#1f77b4;stroke:#1f77b4;" x="98.088429" xlink:href="#mab0e9079db" y="122.237318"/>
     <use style="fill:#1f77b4;stroke:#1f77b4;" x="104.728228" xlink:href="#mab0e9079db" y="122.237318"/>
     <use style="fill:#1f77b4;stroke:#1f77b4;" x="111.361217" xlink:href="#mab0e9079db" y="122.237318"/>
     <use style="fill:#1f77b4;stroke:#1f77b4;" x="117.629011" xlink:href="#mab0e9079db" y="122.237318"/>
     <use style="fill:#1f77b4;stroke:#1f77b4;" x="124.438838" xlink:href="#mab0e9079db" y="122.237318"/>
     <use style="fill:#1f77b4;stroke:#1f77b4;" x="131.098709" xlink:href="#mab0e9079db" y="122.237318"/>
     <use style="fill:#1f77b4;stroke:#1f77b4;" x="137.551577" xlink:href="#mab0e9079db" y="122.237318"/>
     <use style="fill:#1f77b4;stroke:#1f77b4;" x="144.164804" xlink:href="#mab0e9079db" y="122.237318"/>
     <use style="fill:#1f77b4;stroke:#1f77b4;" x="150.645251" xlink:href="#mab0e9079db" y="122.237318"/>
     <use style="fill:#1f77b4;stroke:#1f77b4;" x="157.409269" xlink:href="#mab0e9079db" y="122.237318"/>
     <use style="fill:#1f77b4;stroke:#1f77b4;" x="163.849835" xlink:href="#mab0e9079db" y="122.237318"/>
     <use style="fill:#1f77b4;stroke:#1f77b4;" x="170.207808" xlink:href="#mab0e9079db" y="122.237318"/>
     <use style="fill:#1f77b4;stroke:#1f77b4;" x="177.120118" xlink:href="#mab0e9079db" y="122.237318"/>
     <use style="fill:#1f77b4;stroke:#1f77b4;" x="183.611639" xlink:href="#mab0e9079db" y="122.237318"/>
     <use style="fill:#1f77b4;stroke:#1f77b4;" x="190.177789" xlink:href="#mab0e9079db" y="122.237318"/>
     <use style="fill:#1f77b4;stroke:#1f77b4;" x="196.885588" xlink:href="#mab0e9079db" y="122.237318"/>
     <use style="fill:#1f77b4;stroke:#1f77b4;" x="203.269138" xlink:href="#mab0e9079db" y="122.237318"/>
     <use style="fill:#1f77b4;stroke:#1f77b4;" x="209.893511" xlink:href="#mab0e9079db" y="122.237318"/>
     <use style="fill:#1f77b4;stroke:#1f77b4;" x="216.429888" xlink:href="#mab0e9079db" y="122.237318"/>
     <use style="fill:#1f77b4;stroke:#1f77b4;" x="223.027799" xlink:href="#mab0e9079db" y="122.237318"/>
     <use style="fill:#1f77b4;stroke:#1f77b4;" x="229.662199" xlink:href="#mab0e9079db" y="122.237318"/>
     <use style="fill:#1f77b4;stroke:#1f77b4;" x="236.151871" xlink:href="#mab0e9079db" y="122.237318"/>
     <use style="fill:#1f77b4;stroke:#1f77b4;" x="242.761371" xlink:href="#mab0e9079db" y="122.237318"/>
     <use style="fill:#1f77b4;stroke:#1f77b4;" x="249.346806" xlink:href="#mab0e9079db" y="122.237318"/>
     <use style="fill:#1f77b4;stroke:#1f77b4;" x="255.646307" xlink:href="#mab0e9079db" y="122.237318"/>
    </g>
   </g>
   <g id="line2d_15">
    <path clip-path="url(#p8fdc7ff033)" d="M 52.765767 92.101295 
L 58.519486 125.220744 
L 65.112192 123.46989 
L 71.777916 123.693217 
L 78.462788 125.65878 
L 84.821394 114.041433 
L 91.672006 118.982503 
L 98.132365 121.169599 
L 104.671464 126.976973 
L 111.423047 120.892408 
L 117.625448 127.438042 
L 124.426716 124.305044 
L 130.993074 137.431515 
L 137.532771 127.442001 
L 144.196466 135.446328 
L 150.640793 127.801007 
L 157.428533 131.594645 
L 163.833294 137.174938 
L 170.221269 140.703021 
L 177.100513 138.949991 
L 183.59832 137.653933 
L 190.135239 134.087655 
L 196.875511 143.659759 
L 203.278848 133.084733 
L 209.936672 133.885148 
L 216.463113 122.298488 
L 223.015212 130.107513 
L 229.646304 124.338263 
L 236.121565 129.833853 
L 242.74131 127.191827 
L 249.343388 127.423463 
L 255.674858 138.593897 
" style="fill:none;stroke:#ff7f0e;stroke-linecap:square;stroke-width:0.8;"/>
    <defs>
     <path d="M -3 0 
L 3 0 
M 0 3 
L 0 -3 
" id="mf0168ba8ee" style="stroke:#ff7f0e;"/>
    </defs>
    <g clip-path="url(#p8fdc7ff033)">
     <use style="fill:#ff7f0e;stroke:#ff7f0e;" x="52.765767" xlink:href="#mf0168ba8ee" y="92.101295"/>
     <use style="fill:#ff7f0e;stroke:#ff7f0e;" x="58.519486" xlink:href="#mf0168ba8ee" y="125.220744"/>
     <use style="fill:#ff7f0e;stroke:#ff7f0e;" x="65.112192" xlink:href="#mf0168ba8ee" y="123.46989"/>
     <use style="fill:#ff7f0e;stroke:#ff7f0e;" x="71.777916" xlink:href="#mf0168ba8ee" y="123.693217"/>
     <use style="fill:#ff7f0e;stroke:#ff7f0e;" x="78.462788" xlink:href="#mf0168ba8ee" y="125.65878"/>
     <use style="fill:#ff7f0e;stroke:#ff7f0e;" x="84.821394" xlink:href="#mf0168ba8ee" y="114.041433"/>
     <use style="fill:#ff7f0e;stroke:#ff7f0e;" x="91.672006" xlink:href="#mf0168ba8ee" y="118.982503"/>
     <use style="fill:#ff7f0e;stroke:#ff7f0e;" x="98.132365" xlink:href="#mf0168ba8ee" y="121.169599"/>
     <use style="fill:#ff7f0e;stroke:#ff7f0e;" x="104.671464" xlink:href="#mf0168ba8ee" y="126.976973"/>
     <use style="fill:#ff7f0e;stroke:#ff7f0e;" x="111.423047" xlink:href="#mf0168ba8ee" y="120.892408"/>
     <use style="fill:#ff7f0e;stroke:#ff7f0e;" x="117.625448" xlink:href="#mf0168ba8ee" y="127.438042"/>
     <use style="fill:#ff7f0e;stroke:#ff7f0e;" x="124.426716" xlink:href="#mf0168ba8ee" y="124.305044"/>
     <use style="fill:#ff7f0e;stroke:#ff7f0e;" x="130.993074" xlink:href="#mf0168ba8ee" y="137.431515"/>
     <use style="fill:#ff7f0e;stroke:#ff7f0e;" x="137.532771" xlink:href="#mf0168ba8ee" y="127.442001"/>
     <use style="fill:#ff7f0e;stroke:#ff7f0e;" x="144.196466" xlink:href="#mf0168ba8ee" y="135.446328"/>
     <use style="fill:#ff7f0e;stroke:#ff7f0e;" x="150.640793" xlink:href="#mf0168ba8ee" y="127.801007"/>
     <use style="fill:#ff7f0e;stroke:#ff7f0e;" x="157.428533" xlink:href="#mf0168ba8ee" y="131.594645"/>
     <use style="fill:#ff7f0e;stroke:#ff7f0e;" x="163.833294" xlink:href="#mf0168ba8ee" y="137.174938"/>
     <use style="fill:#ff7f0e;stroke:#ff7f0e;" x="170.221269" xlink:href="#mf0168ba8ee" y="140.703021"/>
     <use style="fill:#ff7f0e;stroke:#ff7f0e;" x="177.100513" xlink:href="#mf0168ba8ee" y="138.949991"/>
     <use style="fill:#ff7f0e;stroke:#ff7f0e;" x="183.59832" xlink:href="#mf0168ba8ee" y="137.653933"/>
     <use style="fill:#ff7f0e;stroke:#ff7f0e;" x="190.135239" xlink:href="#mf0168ba8ee" y="134.087655"/>
     <use style="fill:#ff7f0e;stroke:#ff7f0e;" x="196.875511" xlink:href="#mf0168ba8ee" y="143.659759"/>
     <use style="fill:#ff7f0e;stroke:#ff7f0e;" x="203.278848" xlink:href="#mf0168ba8ee" y="133.084733"/>
     <use style="fill:#ff7f0e;stroke:#ff7f0e;" x="209.936672" xlink:href="#mf0168ba8ee" y="133.885148"/>
     <use style="fill:#ff7f0e;stroke:#ff7f0e;" x="216.463113" xlink:href="#mf0168ba8ee" y="122.298488"/>
     <use style="fill:#ff7f0e;stroke:#ff7f0e;" x="223.015212" xlink:href="#mf0168ba8ee" y="130.107513"/>
     <use style="fill:#ff7f0e;stroke:#ff7f0e;" x="229.646304" xlink:href="#mf0168ba8ee" y="124.338263"/>
     <use style="fill:#ff7f0e;stroke:#ff7f0e;" x="236.121565" xlink:href="#mf0168ba8ee" y="129.833853"/>
     <use style="fill:#ff7f0e;stroke:#ff7f0e;" x="242.74131" xlink:href="#mf0168ba8ee" y="127.191827"/>
     <use style="fill:#ff7f0e;stroke:#ff7f0e;" x="249.343388" xlink:href="#mf0168ba8ee" y="127.423463"/>
     <use style="fill:#ff7f0e;stroke:#ff7f0e;" x="255.674858" xlink:href="#mf0168ba8ee" y="138.593897"/>
    </g>
   </g>
   <g id="line2d_16">
    <path clip-path="url(#p8fdc7ff033)" d="M 52.776829 87.08552 
L 58.530462 121.85463 
L 65.117161 124.466588 
L 71.756942 122.477156 
L 78.435054 122.532909 
L 84.868662 118.024545 
L 91.636559 123.959205 
L 98.088429 123.073474 
L 104.728228 116.473306 
L 111.361217 132.292468 
L 117.629011 143.748644 
L 124.438838 138.882152 
L 131.098709 141.583511 
L 137.551577 135.231213 
L 144.164804 151.952372 
L 150.645251 151.317038 
L 157.409269 158.624112 
L 163.849835 165.496614 
L 170.207808 165.003234 
L 177.120118 151.730167 
L 183.611639 153.491204 
L 190.177789 154.22746 
L 196.885588 153.714361 
L 203.269138 149.893373 
L 209.893511 141.896601 
L 216.429888 139.372305 
L 223.027799 129.270086 
L 229.662199 129.025565 
L 236.151871 130.366242 
L 242.761371 134.17644 
L 249.346806 131.620763 
L 255.646307 142.644661 
" style="fill:none;stroke:#2ca02c;stroke-linecap:square;stroke-width:0.8;"/>
    <defs>
     <path d="M -3 0 
L 3 0 
M 0 3 
L 0 -3 
" id="m8e605e5522" style="stroke:#2ca02c;"/>
    </defs>
    <g clip-path="url(#p8fdc7ff033)">
     <use style="fill:#2ca02c;stroke:#2ca02c;" x="52.776829" xlink:href="#m8e605e5522" y="87.08552"/>
     <use style="fill:#2ca02c;stroke:#2ca02c;" x="58.530462" xlink:href="#m8e605e5522" y="121.85463"/>
     <use style="fill:#2ca02c;stroke:#2ca02c;" x="65.117161" xlink:href="#m8e605e5522" y="124.466588"/>
     <use style="fill:#2ca02c;stroke:#2ca02c;" x="71.756942" xlink:href="#m8e605e5522" y="122.477156"/>
     <use style="fill:#2ca02c;stroke:#2ca02c;" x="78.435054" xlink:href="#m8e605e5522" y="122.532909"/>
     <use style="fill:#2ca02c;stroke:#2ca02c;" x="84.868662" xlink:href="#m8e605e5522" y="118.024545"/>
     <use style="fill:#2ca02c;stroke:#2ca02c;" x="91.636559" xlink:href="#m8e605e5522" y="123.959205"/>
     <use style="fill:#2ca02c;stroke:#2ca02c;" x="98.088429" xlink:href="#m8e605e5522" y="123.073474"/>
     <use style="fill:#2ca02c;stroke:#2ca02c;" x="104.728228" xlink:href="#m8e605e5522" y="116.473306"/>
     <use style="fill:#2ca02c;stroke:#2ca02c;" x="111.361217" xlink:href="#m8e605e5522" y="132.292468"/>
     <use style="fill:#2ca02c;stroke:#2ca02c;" x="117.629011" xlink:href="#m8e605e5522" y="143.748644"/>
     <use style="fill:#2ca02c;stroke:#2ca02c;" x="124.438838" xlink:href="#m8e605e5522" y="138.882152"/>
     <use style="fill:#2ca02c;stroke:#2ca02c;" x="131.098709" xlink:href="#m8e605e5522" y="141.583511"/>
     <use style="fill:#2ca02c;stroke:#2ca02c;" x="137.551577" xlink:href="#m8e605e5522" y="135.231213"/>
     <use style="fill:#2ca02c;stroke:#2ca02c;" x="144.164804" xlink:href="#m8e605e5522" y="151.952372"/>
     <use style="fill:#2ca02c;stroke:#2ca02c;" x="150.645251" xlink:href="#m8e605e5522" y="151.317038"/>
     <use style="fill:#2ca02c;stroke:#2ca02c;" x="157.409269" xlink:href="#m8e605e5522" y="158.624112"/>
     <use style="fill:#2ca02c;stroke:#2ca02c;" x="163.849835" xlink:href="#m8e605e5522" y="165.496614"/>
     <use style="fill:#2ca02c;stroke:#2ca02c;" x="170.207808" xlink:href="#m8e605e5522" y="165.003234"/>
     <use style="fill:#2ca02c;stroke:#2ca02c;" x="177.120118" xlink:href="#m8e605e5522" y="151.730167"/>
     <use style="fill:#2ca02c;stroke:#2ca02c;" x="183.611639" xlink:href="#m8e605e5522" y="153.491204"/>
     <use style="fill:#2ca02c;stroke:#2ca02c;" x="190.177789" xlink:href="#m8e605e5522" y="154.22746"/>
     <use style="fill:#2ca02c;stroke:#2ca02c;" x="196.885588" xlink:href="#m8e605e5522" y="153.714361"/>
     <use style="fill:#2ca02c;stroke:#2ca02c;" x="203.269138" xlink:href="#m8e605e5522" y="149.893373"/>
     <use style="fill:#2ca02c;stroke:#2ca02c;" x="209.893511" xlink:href="#m8e605e5522" y="141.896601"/>
     <use style="fill:#2ca02c;stroke:#2ca02c;" x="216.429888" xlink:href="#m8e605e5522" y="139.372305"/>
     <use style="fill:#2ca02c;stroke:#2ca02c;" x="223.027799" xlink:href="#m8e605e5522" y="129.270086"/>
     <use style="fill:#2ca02c;stroke:#2ca02c;" x="229.662199" xlink:href="#m8e605e5522" y="129.025565"/>
     <use style="fill:#2ca02c;stroke:#2ca02c;" x="236.151871" xlink:href="#m8e605e5522" y="130.366242"/>
     <use style="fill:#2ca02c;stroke:#2ca02c;" x="242.761371" xlink:href="#m8e605e5522" y="134.17644"/>
     <use style="fill:#2ca02c;stroke:#2ca02c;" x="249.346806" xlink:href="#m8e605e5522" y="131.620763"/>
     <use style="fill:#2ca02c;stroke:#2ca02c;" x="255.646307" xlink:href="#m8e605e5522" y="142.644661"/>
    </g>
   </g>
   <g id="line2d_17">
    <path clip-path="url(#p8fdc7ff033)" d="M 52.776829 86.668871 
L 58.530462 115.108993 
L 65.117161 116.811987 
L 71.756942 113.877506 
L 78.435054 122.094131 
L 84.868662 118.636842 
L 91.636559 126.273946 
L 98.088429 134.850018 
L 104.728228 126.894464 
L 111.361217 142.35412 
L 117.629011 160.348105 
L 124.438838 160.975934 
L 131.098709 173.060591 
L 137.551577 146.977619 
L 144.164804 168.910659 
L 150.645251 177.577686 
L 157.409269 187.08827 
L 163.849835 183.641842 
L 170.207808 184.058921 
L 177.120118 167.301121 
L 183.611639 179.724761 
L 190.177789 164.230898 
L 196.885588 178.312916 
L 203.269138 164.736058 
L 209.893511 178.286337 
L 216.429888 141.678547 
L 223.027799 139.559177 
L 229.662199 137.561513 
L 236.151871 132.580201 
L 242.761371 139.226956 
L 249.346806 136.466032 
L 255.646307 144.032826 
" style="fill:none;stroke:#d62728;stroke-linecap:square;stroke-width:0.8;"/>
    <defs>
     <path d="M -3 0 
L 3 0 
M 0 3 
L 0 -3 
" id="m0eaec0dd8c" style="stroke:#d62728;"/>
    </defs>
    <g clip-path="url(#p8fdc7ff033)">
     <use style="fill:#d62728;stroke:#d62728;" x="52.776829" xlink:href="#m0eaec0dd8c" y="86.668871"/>
     <use style="fill:#d62728;stroke:#d62728;" x="58.530462" xlink:href="#m0eaec0dd8c" y="115.108993"/>
     <use style="fill:#d62728;stroke:#d62728;" x="65.117161" xlink:href="#m0eaec0dd8c" y="116.811987"/>
     <use style="fill:#d62728;stroke:#d62728;" x="71.756942" xlink:href="#m0eaec0dd8c" y="113.877506"/>
     <use style="fill:#d62728;stroke:#d62728;" x="78.435054" xlink:href="#m0eaec0dd8c" y="122.094131"/>
     <use style="fill:#d62728;stroke:#d62728;" x="84.868662" xlink:href="#m0eaec0dd8c" y="118.636842"/>
     <use style="fill:#d62728;stroke:#d62728;" x="91.636559" xlink:href="#m0eaec0dd8c" y="126.273946"/>
     <use style="fill:#d62728;stroke:#d62728;" x="98.088429" xlink:href="#m0eaec0dd8c" y="134.850018"/>
     <use style="fill:#d62728;stroke:#d62728;" x="104.728228" xlink:href="#m0eaec0dd8c" y="126.894464"/>
     <use style="fill:#d62728;stroke:#d62728;" x="111.361217" xlink:href="#m0eaec0dd8c" y="142.35412"/>
     <use style="fill:#d62728;stroke:#d62728;" x="117.629011" xlink:href="#m0eaec0dd8c" y="160.348105"/>
     <use style="fill:#d62728;stroke:#d62728;" x="124.438838" xlink:href="#m0eaec0dd8c" y="160.975934"/>
     <use style="fill:#d62728;stroke:#d62728;" x="131.098709" xlink:href="#m0eaec0dd8c" y="173.060591"/>
     <use style="fill:#d62728;stroke:#d62728;" x="137.551577" xlink:href="#m0eaec0dd8c" y="146.977619"/>
     <use style="fill:#d62728;stroke:#d62728;" x="144.164804" xlink:href="#m0eaec0dd8c" y="168.910659"/>
     <use style="fill:#d62728;stroke:#d62728;" x="150.645251" xlink:href="#m0eaec0dd8c" y="177.577686"/>
     <use style="fill:#d62728;stroke:#d62728;" x="157.409269" xlink:href="#m0eaec0dd8c" y="187.08827"/>
     <use style="fill:#d62728;stroke:#d62728;" x="163.849835" xlink:href="#m0eaec0dd8c" y="183.641842"/>
     <use style="fill:#d62728;stroke:#d62728;" x="170.207808" xlink:href="#m0eaec0dd8c" y="184.058921"/>
     <use style="fill:#d62728;stroke:#d62728;" x="177.120118" xlink:href="#m0eaec0dd8c" y="167.301121"/>
     <use style="fill:#d62728;stroke:#d62728;" x="183.611639" xlink:href="#m0eaec0dd8c" y="179.724761"/>
     <use style="fill:#d62728;stroke:#d62728;" x="190.177789" xlink:href="#m0eaec0dd8c" y="164.230898"/>
     <use style="fill:#d62728;stroke:#d62728;" x="196.885588" xlink:href="#m0eaec0dd8c" y="178.312916"/>
     <use style="fill:#d62728;stroke:#d62728;" x="203.269138" xlink:href="#m0eaec0dd8c" y="164.736058"/>
     <use style="fill:#d62728;stroke:#d62728;" x="209.893511" xlink:href="#m0eaec0dd8c" y="178.286337"/>
     <use style="fill:#d62728;stroke:#d62728;" x="216.429888" xlink:href="#m0eaec0dd8c" y="141.678547"/>
     <use style="fill:#d62728;stroke:#d62728;" x="223.027799" xlink:href="#m0eaec0dd8c" y="139.559177"/>
     <use style="fill:#d62728;stroke:#d62728;" x="229.662199" xlink:href="#m0eaec0dd8c" y="137.561513"/>
     <use style="fill:#d62728;stroke:#d62728;" x="236.151871" xlink:href="#m0eaec0dd8c" y="132.580201"/>
     <use style="fill:#d62728;stroke:#d62728;" x="242.761371" xlink:href="#m0eaec0dd8c" y="139.226956"/>
     <use style="fill:#d62728;stroke:#d62728;" x="249.346806" xlink:href="#m0eaec0dd8c" y="136.466032"/>
     <use style="fill:#d62728;stroke:#d62728;" x="255.646307" xlink:href="#m0eaec0dd8c" y="144.032826"/>
    </g>
   </g>
   <g id="line2d_18">
    <path clip-path="url(#p8fdc7ff033)" d="M 52.776829 80.70797 
L 58.530462 111.318327 
L 65.117161 117.220673 
L 71.756942 120.015225 
L 78.435054 131.551031 
L 84.868662 127.108941 
L 91.636559 134.746508 
L 98.088429 142.950612 
L 104.728228 135.142166 
L 111.361217 158.092654 
L 117.629011 165.422104 
L 124.438838 176.637012 
L 131.098709 187.013061 
L 137.551577 167.075164 
L 144.164804 177.858117 
L 150.645251 195.768001 
L 157.409269 205.203578 
L 163.849835 215.301775 
L 170.207808 206.514827 
L 177.120118 176.989818 
L 183.611639 188.947352 
L 190.177789 177.713959 
L 196.885588 198.944479 
L 203.269138 181.983021 
L 209.893511 186.025213 
L 216.429888 156.464099 
L 223.027799 139.697325 
L 229.662199 145.159313 
L 236.151871 139.502121 
L 242.761371 140.166934 
L 249.346806 145.525823 
L 255.646307 148.659496 
" style="fill:none;stroke:#9467bd;stroke-linecap:square;stroke-width:0.8;"/>
    <defs>
     <path d="M -3 0 
L 3 0 
M 0 3 
L 0 -3 
" id="m104f933cd7" style="stroke:#9467bd;"/>
    </defs>
    <g clip-path="url(#p8fdc7ff033)">
     <use style="fill:#9467bd;stroke:#9467bd;" x="52.776829" xlink:href="#m104f933cd7" y="80.70797"/>
     <use style="fill:#9467bd;stroke:#9467bd;" x="58.530462" xlink:href="#m104f933cd7" y="111.318327"/>
     <use style="fill:#9467bd;stroke:#9467bd;" x="65.117161" xlink:href="#m104f933cd7" y="117.220673"/>
     <use style="fill:#9467bd;stroke:#9467bd;" x="71.756942" xlink:href="#m104f933cd7" y="120.015225"/>
     <use style="fill:#9467bd;stroke:#9467bd;" x="78.435054" xlink:href="#m104f933cd7" y="131.551031"/>
     <use style="fill:#9467bd;stroke:#9467bd;" x="84.868662" xlink:href="#m104f933cd7" y="127.108941"/>
     <use style="fill:#9467bd;stroke:#9467bd;" x="91.636559" xlink:href="#m104f933cd7" y="134.746508"/>
     <use style="fill:#9467bd;stroke:#9467bd;" x="98.088429" xlink:href="#m104f933cd7" y="142.950612"/>
     <use style="fill:#9467bd;stroke:#9467bd;" x="104.728228" xlink:href="#m104f933cd7" y="135.142166"/>
     <use style="fill:#9467bd;stroke:#9467bd;" x="111.361217" xlink:href="#m104f933cd7" y="158.092654"/>
     <use style="fill:#9467bd;stroke:#9467bd;" x="117.629011" xlink:href="#m104f933cd7" y="165.422104"/>
     <use style="fill:#9467bd;stroke:#9467bd;" x="124.438838" xlink:href="#m104f933cd7" y="176.637012"/>
     <use style="fill:#9467bd;stroke:#9467bd;" x="131.098709" xlink:href="#m104f933cd7" y="187.013061"/>
     <use style="fill:#9467bd;stroke:#9467bd;" x="137.551577" xlink:href="#m104f933cd7" y="167.075164"/>
     <use style="fill:#9467bd;stroke:#9467bd;" x="144.164804" xlink:href="#m104f933cd7" y="177.858117"/>
     <use style="fill:#9467bd;stroke:#9467bd;" x="150.645251" xlink:href="#m104f933cd7" y="195.768001"/>
     <use style="fill:#9467bd;stroke:#9467bd;" x="157.409269" xlink:href="#m104f933cd7" y="205.203578"/>
     <use style="fill:#9467bd;stroke:#9467bd;" x="163.849835" xlink:href="#m104f933cd7" y="215.301775"/>
     <use style="fill:#9467bd;stroke:#9467bd;" x="170.207808" xlink:href="#m104f933cd7" y="206.514827"/>
     <use style="fill:#9467bd;stroke:#9467bd;" x="177.120118" xlink:href="#m104f933cd7" y="176.989818"/>
     <use style="fill:#9467bd;stroke:#9467bd;" x="183.611639" xlink:href="#m104f933cd7" y="188.947352"/>
     <use style="fill:#9467bd;stroke:#9467bd;" x="190.177789" xlink:href="#m104f933cd7" y="177.713959"/>
     <use style="fill:#9467bd;stroke:#9467bd;" x="196.885588" xlink:href="#m104f933cd7" y="198.944479"/>
     <use style="fill:#9467bd;stroke:#9467bd;" x="203.269138" xlink:href="#m104f933cd7" y="181.983021"/>
     <use style="fill:#9467bd;stroke:#9467bd;" x="209.893511" xlink:href="#m104f933cd7" y="186.025213"/>
     <use style="fill:#9467bd;stroke:#9467bd;" x="216.429888" xlink:href="#m104f933cd7" y="156.464099"/>
     <use style="fill:#9467bd;stroke:#9467bd;" x="223.027799" xlink:href="#m104f933cd7" y="139.697325"/>
     <use style="fill:#9467bd;stroke:#9467bd;" x="229.662199" xlink:href="#m104f933cd7" y="145.159313"/>
     <use style="fill:#9467bd;stroke:#9467bd;" x="236.151871" xlink:href="#m104f933cd7" y="139.502121"/>
     <use style="fill:#9467bd;stroke:#9467bd;" x="242.761371" xlink:href="#m104f933cd7" y="140.166934"/>
     <use style="fill:#9467bd;stroke:#9467bd;" x="249.346806" xlink:href="#m104f933cd7" y="145.525823"/>
     <use style="fill:#9467bd;stroke:#9467bd;" x="255.646307" xlink:href="#m104f933cd7" y="148.659496"/>
    </g>
   </g>
   <g id="patch_3">
    <path d="M 42.620313 226.0155 
L 42.620313 35.7555 
" style="fill:none;stroke:#000000;stroke-linecap:square;stroke-linejoin:miter;stroke-width:0.8;"/>
   </g>
   <g id="patch_4">
    <path d="M 265.820312 226.0155 
L 265.820312 35.7555 
" style="fill:none;stroke:#000000;stroke-linecap:square;stroke-linejoin:miter;stroke-width:0.8;"/>
   </g>
   <g id="patch_5">
    <path d="M 42.620313 226.0155 
L 265.820312 226.0155 
" style="fill:none;stroke:#000000;stroke-linecap:square;stroke-linejoin:miter;stroke-width:0.8;"/>
   </g>
   <g id="patch_6">
    <path d="M 42.620313 35.7555 
L 265.820312 35.7555 
" style="fill:none;stroke:#000000;stroke-linecap:square;stroke-linejoin:miter;stroke-width:0.8;"/>
   </g>
   <g id="text_16">
    <!-- Mean Drift vs. Init. Conductance -->
    <g transform="translate(57.653125 16.318125)scale(0.12 -0.12)">
     <defs>
      <path d="M 2.984375 54.6875 
L 12.5 54.6875 
L 29.59375 8.796875 
L 46.6875 54.6875 
L 56.203125 54.6875 
L 35.6875 0 
L 23.484375 0 
z
" id="DejaVuSans-118"/>
      <path d="M 44.28125 53.078125 
L 44.28125 44.578125 
Q 40.484375 46.53125 36.375 47.5 
Q 32.28125 48.484375 27.875 48.484375 
Q 21.1875 48.484375 17.84375 46.4375 
Q 14.5 44.390625 14.5 40.28125 
Q 14.5 37.15625 16.890625 35.375 
Q 19.28125 33.59375 26.515625 31.984375 
L 29.59375 31.296875 
Q 39.15625 29.25 43.1875 25.515625 
Q 47.21875 21.78125 47.21875 15.09375 
Q 47.21875 7.46875 41.1875 3.015625 
Q 35.15625 -1.421875 24.609375 -1.421875 
Q 20.21875 -1.421875 15.453125 -0.5625 
Q 10.6875 0.296875 5.421875 2 
L 5.421875 11.28125 
Q 10.40625 8.6875 15.234375 7.390625 
Q 20.0625 6.109375 24.8125 6.109375 
Q 31.15625 6.109375 34.5625 8.28125 
Q 37.984375 10.453125 37.984375 14.40625 
Q 37.984375 18.0625 35.515625 20.015625 
Q 33.0625 21.96875 24.703125 23.78125 
L 21.578125 24.515625 
Q 13.234375 26.265625 9.515625 29.90625 
Q 5.8125 33.546875 5.8125 39.890625 
Q 5.8125 47.609375 11.28125 51.796875 
Q 16.75 56 26.8125 56 
Q 31.78125 56 36.171875 55.265625 
Q 40.578125 54.546875 44.28125 53.078125 
z
" id="DejaVuSans-115"/>
      <path d="M 10.6875 12.40625 
L 21 12.40625 
L 21 0 
L 10.6875 0 
z
" id="DejaVuSans-46"/>
     </defs>
     <use xlink:href="#DejaVuSans-77"/>
     <use x="86.279297" xlink:href="#DejaVuSans-101"/>
     <use x="147.802734" xlink:href="#DejaVuSans-97"/>
     <use x="209.082031" xlink:href="#DejaVuSans-110"/>
     <use x="272.460938" xlink:href="#DejaVuSans-32"/>
     <use x="304.248047" xlink:href="#DejaVuSans-68"/>
     <use x="381.25" xlink:href="#DejaVuSans-114"/>
     <use x="422.363281" xlink:href="#DejaVuSans-105"/>
     <use x="450.146484" xlink:href="#DejaVuSans-102"/>
     <use x="483.601562" xlink:href="#DejaVuSans-116"/>
     <use x="522.810547" xlink:href="#DejaVuSans-32"/>
     <use x="554.597656" xlink:href="#DejaVuSans-118"/>
     <use x="613.777344" xlink:href="#DejaVuSans-115"/>
     <use x="665.876953" xlink:href="#DejaVuSans-46"/>
     <use x="697.664062" xlink:href="#DejaVuSans-32"/>
     <use x="729.451172" xlink:href="#DejaVuSans-73"/>
     <use x="758.943359" xlink:href="#DejaVuSans-110"/>
     <use x="822.322266" xlink:href="#DejaVuSans-105"/>
     <use x="850.105469" xlink:href="#DejaVuSans-116"/>
     <use x="889.314453" xlink:href="#DejaVuSans-46"/>
     <use x="921.101562" xlink:href="#DejaVuSans-32"/>
     <use x="952.888672" xlink:href="#DejaVuSans-67"/>
     <use x="1022.712891" xlink:href="#DejaVuSans-111"/>
     <use x="1083.894531" xlink:href="#DejaVuSans-110"/>
     <use x="1147.273438" xlink:href="#DejaVuSans-100"/>
     <use x="1210.75" xlink:href="#DejaVuSans-117"/>
     <use x="1274.128906" xlink:href="#DejaVuSans-99"/>
     <use x="1329.109375" xlink:href="#DejaVuSans-116"/>
     <use x="1368.318359" xlink:href="#DejaVuSans-97"/>
     <use x="1429.597656" xlink:href="#DejaVuSans-110"/>
     <use x="1492.976562" xlink:href="#DejaVuSans-99"/>
     <use x="1547.957031" xlink:href="#DejaVuSans-101"/>
    </g>
    <!-- (Tech B, Room Temp) -->
    <g transform="translate(91.280313 29.7555)scale(0.12 -0.12)">
     <defs>
      <path d="M -0.296875 72.90625 
L 61.375 72.90625 
L 61.375 64.59375 
L 35.5 64.59375 
L 35.5 0 
L 25.59375 0 
L 25.59375 64.59375 
L -0.296875 64.59375 
z
" id="DejaVuSans-84"/>
      <path d="M 54.890625 33.015625 
L 54.890625 0 
L 45.90625 0 
L 45.90625 32.71875 
Q 45.90625 40.484375 42.875 44.328125 
Q 39.84375 48.1875 33.796875 48.1875 
Q 26.515625 48.1875 22.3125 43.546875 
Q 18.109375 38.921875 18.109375 30.90625 
L 18.109375 0 
L 9.078125 0 
L 9.078125 75.984375 
L 18.109375 75.984375 
L 18.109375 46.1875 
Q 21.34375 51.125 25.703125 53.5625 
Q 30.078125 56 35.796875 56 
Q 45.21875 56 50.046875 50.171875 
Q 54.890625 44.34375 54.890625 33.015625 
z
" id="DejaVuSans-104"/>
      <path d="M 19.671875 34.8125 
L 19.671875 8.109375 
L 35.5 8.109375 
Q 43.453125 8.109375 47.28125 11.40625 
Q 51.125 14.703125 51.125 21.484375 
Q 51.125 28.328125 47.28125 31.5625 
Q 43.453125 34.8125 35.5 34.8125 
z
M 19.671875 64.796875 
L 19.671875 42.828125 
L 34.28125 42.828125 
Q 41.5 42.828125 45.03125 45.53125 
Q 48.578125 48.25 48.578125 53.8125 
Q 48.578125 59.328125 45.03125 62.0625 
Q 41.5 64.796875 34.28125 64.796875 
z
M 9.8125 72.90625 
L 35.015625 72.90625 
Q 46.296875 72.90625 52.390625 68.21875 
Q 58.5 63.53125 58.5 54.890625 
Q 58.5 48.1875 55.375 44.234375 
Q 52.25 40.28125 46.1875 39.3125 
Q 53.46875 37.75 57.5 32.78125 
Q 61.53125 27.828125 61.53125 20.40625 
Q 61.53125 10.640625 54.890625 5.3125 
Q 48.25 0 35.984375 0 
L 9.8125 0 
z
" id="DejaVuSans-66"/>
      <path d="M 11.71875 12.40625 
L 22.015625 12.40625 
L 22.015625 4 
L 14.015625 -11.625 
L 7.71875 -11.625 
L 11.71875 4 
z
" id="DejaVuSans-44"/>
      <path d="M 44.390625 34.1875 
Q 47.5625 33.109375 50.5625 29.59375 
Q 53.5625 26.078125 56.59375 19.921875 
L 66.609375 0 
L 56 0 
L 46.6875 18.703125 
Q 43.0625 26.03125 39.671875 28.421875 
Q 36.28125 30.8125 30.421875 30.8125 
L 19.671875 30.8125 
L 19.671875 0 
L 9.8125 0 
L 9.8125 72.90625 
L 32.078125 72.90625 
Q 44.578125 72.90625 50.734375 67.671875 
Q 56.890625 62.453125 56.890625 51.90625 
Q 56.890625 45.015625 53.6875 40.46875 
Q 50.484375 35.9375 44.390625 34.1875 
z
M 19.671875 64.796875 
L 19.671875 38.921875 
L 32.078125 38.921875 
Q 39.203125 38.921875 42.84375 42.21875 
Q 46.484375 45.515625 46.484375 51.90625 
Q 46.484375 58.296875 42.84375 61.546875 
Q 39.203125 64.796875 32.078125 64.796875 
z
" id="DejaVuSans-82"/>
      <path d="M 52 44.1875 
Q 55.375 50.25 60.0625 53.125 
Q 64.75 56 71.09375 56 
Q 79.640625 56 84.28125 50.015625 
Q 88.921875 44.046875 88.921875 33.015625 
L 88.921875 0 
L 79.890625 0 
L 79.890625 32.71875 
Q 79.890625 40.578125 77.09375 44.375 
Q 74.3125 48.1875 68.609375 48.1875 
Q 61.625 48.1875 57.5625 43.546875 
Q 53.515625 38.921875 53.515625 30.90625 
L 53.515625 0 
L 44.484375 0 
L 44.484375 32.71875 
Q 44.484375 40.625 41.703125 44.40625 
Q 38.921875 48.1875 33.109375 48.1875 
Q 26.21875 48.1875 22.15625 43.53125 
Q 18.109375 38.875 18.109375 30.90625 
L 18.109375 0 
L 9.078125 0 
L 9.078125 54.6875 
L 18.109375 54.6875 
L 18.109375 46.1875 
Q 21.1875 51.21875 25.484375 53.609375 
Q 29.78125 56 35.6875 56 
Q 41.65625 56 45.828125 52.96875 
Q 50 49.953125 52 44.1875 
z
" id="DejaVuSans-109"/>
      <path d="M 18.109375 8.203125 
L 18.109375 -20.796875 
L 9.078125 -20.796875 
L 9.078125 54.6875 
L 18.109375 54.6875 
L 18.109375 46.390625 
Q 20.953125 51.265625 25.265625 53.625 
Q 29.59375 56 35.59375 56 
Q 45.5625 56 51.78125 48.09375 
Q 58.015625 40.1875 58.015625 27.296875 
Q 58.015625 14.40625 51.78125 6.484375 
Q 45.5625 -1.421875 35.59375 -1.421875 
Q 29.59375 -1.421875 25.265625 0.953125 
Q 20.953125 3.328125 18.109375 8.203125 
z
M 48.6875 27.296875 
Q 48.6875 37.203125 44.609375 42.84375 
Q 40.53125 48.484375 33.40625 48.484375 
Q 26.265625 48.484375 22.1875 42.84375 
Q 18.109375 37.203125 18.109375 27.296875 
Q 18.109375 17.390625 22.1875 11.75 
Q 26.265625 6.109375 33.40625 6.109375 
Q 40.53125 6.109375 44.609375 11.75 
Q 48.6875 17.390625 48.6875 27.296875 
z
" id="DejaVuSans-112"/>
     </defs>
     <use xlink:href="#DejaVuSans-40"/>
     <use x="39.013672" xlink:href="#DejaVuSans-84"/>
     <use x="83.097656" xlink:href="#DejaVuSans-101"/>
     <use x="144.621094" xlink:href="#DejaVuSans-99"/>
     <use x="199.601562" xlink:href="#DejaVuSans-104"/>
     <use x="262.980469" xlink:href="#DejaVuSans-32"/>
     <use x="294.767578" xlink:href="#DejaVuSans-66"/>
     <use x="363.371094" xlink:href="#DejaVuSans-44"/>
     <use x="395.158203" xlink:href="#DejaVuSans-32"/>
     <use x="426.945312" xlink:href="#DejaVuSans-82"/>
     <use x="491.927734" xlink:href="#DejaVuSans-111"/>
     <use x="553.109375" xlink:href="#DejaVuSans-111"/>
     <use x="614.291016" xlink:href="#DejaVuSans-109"/>
     <use x="711.703125" xlink:href="#DejaVuSans-32"/>
     <use x="743.490234" xlink:href="#DejaVuSans-84"/>
     <use x="787.574219" xlink:href="#DejaVuSans-101"/>
     <use x="849.097656" xlink:href="#DejaVuSans-109"/>
     <use x="946.509766" xlink:href="#DejaVuSans-112"/>
     <use x="1009.986328" xlink:href="#DejaVuSans-41"/>
    </g>
   </g>
   <g id="legend_1">
    <g id="patch_7">
     <path d="M 54.789062 73.11175 
L 258.820312 73.11175 
Q 260.820312 73.11175 260.820312 71.11175 
L 260.820312 42.7555 
Q 260.820312 40.7555 258.820312 40.7555 
L 54.789062 40.7555 
Q 52.789062 40.7555 52.789062 42.7555 
L 52.789062 71.11175 
Q 52.789062 73.11175 54.789062 73.11175 
z
" style="fill:#ffffff;opacity:0.8;stroke:#cccccc;stroke-linejoin:miter;"/>
    </g>
    <g id="line2d_19">
     <path d="M 56.789062 48.853938 
L 76.789062 48.853938 
" style="fill:none;stroke:#1f77b4;stroke-linecap:square;stroke-width:0.8;"/>
    </g>
    <g id="line2d_20">
     <g>
      <use style="fill:#1f77b4;stroke:#1f77b4;" x="66.789062" xlink:href="#mab0e9079db" y="48.853938"/>
     </g>
    </g>
    <g id="text_17">
     <!-- t=0 -->
     <g transform="translate(78.789062 52.353938)scale(0.1 -0.1)">
      <defs>
       <path d="M 10.59375 45.40625 
L 73.1875 45.40625 
L 73.1875 37.203125 
L 10.59375 37.203125 
z
M 10.59375 25.484375 
L 73.1875 25.484375 
L 73.1875 17.1875 
L 10.59375 17.1875 
z
" id="DejaVuSans-61"/>
      </defs>
      <use xlink:href="#DejaVuSans-116"/>
      <use x="39.208984" xlink:href="#DejaVuSans-61"/>
      <use x="122.998047" xlink:href="#DejaVuSans-48"/>
     </g>
    </g>
    <g id="line2d_21">
     <path d="M 56.789062 63.532062 
L 76.789062 63.532062 
" style="fill:none;stroke:#ff7f0e;stroke-linecap:square;stroke-width:0.8;"/>
    </g>
    <g id="line2d_22">
     <g>
      <use style="fill:#ff7f0e;stroke:#ff7f0e;" x="66.789062" xlink:href="#mf0168ba8ee" y="63.532062"/>
     </g>
    </g>
    <g id="text_18">
     <!-- t=1E2 -->
     <g transform="translate(78.789062 67.032062)scale(0.1 -0.1)">
      <defs>
       <path d="M 9.8125 72.90625 
L 55.90625 72.90625 
L 55.90625 64.59375 
L 19.671875 64.59375 
L 19.671875 43.015625 
L 54.390625 43.015625 
L 54.390625 34.71875 
L 19.671875 34.71875 
L 19.671875 8.296875 
L 56.78125 8.296875 
L 56.78125 0 
L 9.8125 0 
z
" id="DejaVuSans-69"/>
      </defs>
      <use xlink:href="#DejaVuSans-116"/>
      <use x="39.208984" xlink:href="#DejaVuSans-61"/>
      <use x="122.998047" xlink:href="#DejaVuSans-49"/>
      <use x="186.621094" xlink:href="#DejaVuSans-69"/>
      <use x="249.804688" xlink:href="#DejaVuSans-50"/>
     </g>
    </g>
    <g id="line2d_23">
     <path d="M 130.132812 48.853938 
L 150.132812 48.853938 
" style="fill:none;stroke:#2ca02c;stroke-linecap:square;stroke-width:0.8;"/>
    </g>
    <g id="line2d_24">
     <g>
      <use style="fill:#2ca02c;stroke:#2ca02c;" x="140.132812" xlink:href="#m8e605e5522" y="48.853938"/>
     </g>
    </g>
    <g id="text_19">
     <!-- t=1E3 -->
     <g transform="translate(152.132812 52.353938)scale(0.1 -0.1)">
      <defs>
       <path d="M 40.578125 39.3125 
Q 47.65625 37.796875 51.625 33 
Q 55.609375 28.21875 55.609375 21.1875 
Q 55.609375 10.40625 48.1875 4.484375 
Q 40.765625 -1.421875 27.09375 -1.421875 
Q 22.515625 -1.421875 17.65625 -0.515625 
Q 12.796875 0.390625 7.625 2.203125 
L 7.625 11.71875 
Q 11.71875 9.328125 16.59375 8.109375 
Q 21.484375 6.890625 26.8125 6.890625 
Q 36.078125 6.890625 40.9375 10.546875 
Q 45.796875 14.203125 45.796875 21.1875 
Q 45.796875 27.640625 41.28125 31.265625 
Q 36.765625 34.90625 28.71875 34.90625 
L 20.21875 34.90625 
L 20.21875 43.015625 
L 29.109375 43.015625 
Q 36.375 43.015625 40.234375 45.921875 
Q 44.09375 48.828125 44.09375 54.296875 
Q 44.09375 59.90625 40.109375 62.90625 
Q 36.140625 65.921875 28.71875 65.921875 
Q 24.65625 65.921875 20.015625 65.03125 
Q 15.375 64.15625 9.8125 62.3125 
L 9.8125 71.09375 
Q 15.4375 72.65625 20.34375 73.4375 
Q 25.25 74.21875 29.59375 74.21875 
Q 40.828125 74.21875 47.359375 69.109375 
Q 53.90625 64.015625 53.90625 55.328125 
Q 53.90625 49.265625 50.4375 45.09375 
Q 46.96875 40.921875 40.578125 39.3125 
z
" id="DejaVuSans-51"/>
      </defs>
      <use xlink:href="#DejaVuSans-116"/>
      <use x="39.208984" xlink:href="#DejaVuSans-61"/>
      <use x="122.998047" xlink:href="#DejaVuSans-49"/>
      <use x="186.621094" xlink:href="#DejaVuSans-69"/>
      <use x="249.804688" xlink:href="#DejaVuSans-51"/>
     </g>
    </g>
    <g id="line2d_25">
     <path d="M 130.132812 63.532062 
L 150.132812 63.532062 
" style="fill:none;stroke:#d62728;stroke-linecap:square;stroke-width:0.8;"/>
    </g>
    <g id="line2d_26">
     <g>
      <use style="fill:#d62728;stroke:#d62728;" x="140.132812" xlink:href="#m0eaec0dd8c" y="63.532062"/>
     </g>
    </g>
    <g id="text_20">
     <!-- t=1E4 -->
     <g transform="translate(152.132812 67.032062)scale(0.1 -0.1)">
      <use xlink:href="#DejaVuSans-116"/>
      <use x="39.208984" xlink:href="#DejaVuSans-61"/>
      <use x="122.998047" xlink:href="#DejaVuSans-49"/>
      <use x="186.621094" xlink:href="#DejaVuSans-69"/>
      <use x="249.804688" xlink:href="#DejaVuSans-52"/>
     </g>
    </g>
    <g id="line2d_27">
     <path d="M 203.476562 48.853938 
L 223.476562 48.853938 
" style="fill:none;stroke:#9467bd;stroke-linecap:square;stroke-width:0.8;"/>
    </g>
    <g id="line2d_28">
     <g>
      <use style="fill:#9467bd;stroke:#9467bd;" x="213.476562" xlink:href="#m104f933cd7" y="48.853938"/>
     </g>
    </g>
    <g id="text_21">
     <!-- t=1E5 -->
     <g transform="translate(225.476562 52.353938)scale(0.1 -0.1)">
      <defs>
       <path d="M 10.796875 72.90625 
L 49.515625 72.90625 
L 49.515625 64.59375 
L 19.828125 64.59375 
L 19.828125 46.734375 
Q 21.96875 47.46875 24.109375 47.828125 
Q 26.265625 48.1875 28.421875 48.1875 
Q 40.625 48.1875 47.75 41.5 
Q 54.890625 34.8125 54.890625 23.390625 
Q 54.890625 11.625 47.5625 5.09375 
Q 40.234375 -1.421875 26.90625 -1.421875 
Q 22.3125 -1.421875 17.546875 -0.640625 
Q 12.796875 0.140625 7.71875 1.703125 
L 7.71875 11.625 
Q 12.109375 9.234375 16.796875 8.0625 
Q 21.484375 6.890625 26.703125 6.890625 
Q 35.15625 6.890625 40.078125 11.328125 
Q 45.015625 15.765625 45.015625 23.390625 
Q 45.015625 31 40.078125 35.4375 
Q 35.15625 39.890625 26.703125 39.890625 
Q 22.75 39.890625 18.8125 39.015625 
Q 14.890625 38.140625 10.796875 36.28125 
z
" id="DejaVuSans-53"/>
      </defs>
      <use xlink:href="#DejaVuSans-116"/>
      <use x="39.208984" xlink:href="#DejaVuSans-61"/>
      <use x="122.998047" xlink:href="#DejaVuSans-49"/>
      <use x="186.621094" xlink:href="#DejaVuSans-69"/>
      <use x="249.804688" xlink:href="#DejaVuSans-53"/>
     </g>
    </g>
   </g>
  </g>
 </g>
 <defs>
  <clipPath id="p8fdc7ff033">
   <rect height="190.26" width="223.2" x="42.620313" y="35.7555"/>
  </clipPath>
 </defs>
</svg>
