<?xml version="1.0" encoding="utf-8" standalone="no"?>
<!DOCTYPE svg PUBLIC "-//W3C//DTD SVG 1.1//EN"
  "http://www.w3.org/Graphics/SVG/1.1/DTD/svg11.dtd">
<!-- Created with matplotlib (https://matplotlib.org/) -->
<svg height="263.57175pt" version="1.1" viewBox="0 0 273.020312 263.57175" width="273.020312pt" xmlns="http://www.w3.org/2000/svg" xmlns:xlink="http://www.w3.org/1999/xlink">
 <metadata>
  <rdf:RDF xmlns:cc="http://creativecommons.org/ns#" xmlns:dc="http://purl.org/dc/elements/1.1/" xmlns:rdf="http://www.w3.org/1999/02/22-rdf-syntax-ns#">
   <cc:Work>
    <dc:type rdf:resource="http://purl.org/dc/dcmitype/StillImage"/>
    <dc:date>2021-07-22T18:07:28.593730</dc:date>
    <dc:format>image/svg+xml</dc:format>
    <dc:creator>
     <cc:Agent>
      <dc:title>Matplotlib v3.3.3, https://matplotlib.org/</dc:title>
     </cc:Agent>
    </dc:creator>
   </cc:Work>
  </rdf:RDF>
 </metadata>
 <defs>
  <style type="text/css">*{stroke-linecap:butt;stroke-linejoin:round;}</style>
 </defs>
 <g id="figure_1">
  <g id="patch_1">
   <path d="M 0 263.57175 
L 273.020312 263.57175 
L 273.020312 0 
L 0 0 
z
" style="fill:none;"/>
  </g>
  <g id="axes_1">
   <g id="patch_2">
    <path d="M 42.620313 226.0155 
L 265.820312 226.0155 
L 265.820312 35.7555 
L 42.620313 35.7555 
z
" style="fill:#ffffff;"/>
   </g>
   <g id="matplotlib.axis_1">
    <g id="xtick_1">
     <g id="line2d_1">
      <defs>
       <path d="M 0 0 
L 0 3.5 
" id="m3225d520cd" style="stroke:#000000;stroke-width:0.8;"/>
      </defs>
      <g>
       <use style="stroke:#000000;stroke-width:0.8;" x="48.975307" xlink:href="#m3225d520cd" y="226.0155"/>
      </g>
     </g>
     <g id="text_1">
      <!-- 0 -->
      <g transform="translate(45.794057 240.613937)scale(0.1 -0.1)">
       <defs>
        <path d="M 31.78125 66.40625 
Q 24.171875 66.40625 20.328125 58.90625 
Q 16.5 51.421875 16.5 36.375 
Q 16.5 21.390625 20.328125 13.890625 
Q 24.171875 6.390625 31.78125 6.390625 
Q 39.453125 6.390625 43.28125 13.890625 
Q 47.125 21.390625 47.125 36.375 
Q 47.125 51.421875 43.28125 58.90625 
Q 39.453125 66.40625 31.78125 66.40625 
z
M 31.78125 74.21875 
Q 44.046875 74.21875 50.515625 64.515625 
Q 56.984375 54.828125 56.984375 36.375 
Q 56.984375 17.96875 50.515625 8.265625 
Q 44.046875 -1.421875 31.78125 -1.421875 
Q 19.53125 -1.421875 13.0625 8.265625 
Q 6.59375 17.96875 6.59375 36.375 
Q 6.59375 54.828125 13.0625 64.515625 
Q 19.53125 74.21875 31.78125 74.21875 
z
" id="DejaVuSans-48"/>
       </defs>
       <use xlink:href="#DejaVuSans-48"/>
      </g>
     </g>
    </g>
    <g id="xtick_2">
     <g id="line2d_2">
      <g>
       <use style="stroke:#000000;stroke-width:0.8;" x="92.765842" xlink:href="#m3225d520cd" y="226.0155"/>
      </g>
     </g>
     <g id="text_2">
      <!-- 50 -->
      <g transform="translate(86.403342 240.613937)scale(0.1 -0.1)">
       <defs>
        <path d="M 10.796875 72.90625 
L 49.515625 72.90625 
L 49.515625 64.59375 
L 19.828125 64.59375 
L 19.828125 46.734375 
Q 21.96875 47.46875 24.109375 47.828125 
Q 26.265625 48.1875 28.421875 48.1875 
Q 40.625 48.1875 47.75 41.5 
Q 54.890625 34.8125 54.890625 23.390625 
Q 54.890625 11.625 47.5625 5.09375 
Q 40.234375 -1.421875 26.90625 -1.421875 
Q 22.3125 -1.421875 17.546875 -0.640625 
Q 12.796875 0.140625 7.71875 1.703125 
L 7.71875 11.625 
Q 12.109375 9.234375 16.796875 8.0625 
Q 21.484375 6.890625 26.703125 6.890625 
Q 35.15625 6.890625 40.078125 11.328125 
Q 45.015625 15.765625 45.015625 23.390625 
Q 45.015625 31 40.078125 35.4375 
Q 35.15625 39.890625 26.703125 39.890625 
Q 22.75 39.890625 18.8125 39.015625 
Q 14.890625 38.140625 10.796875 36.28125 
z
" id="DejaVuSans-53"/>
       </defs>
       <use xlink:href="#DejaVuSans-53"/>
       <use x="63.623047" xlink:href="#DejaVuSans-48"/>
      </g>
     </g>
    </g>
    <g id="xtick_3">
     <g id="line2d_3">
      <g>
       <use style="stroke:#000000;stroke-width:0.8;" x="136.556378" xlink:href="#m3225d520cd" y="226.0155"/>
      </g>
     </g>
     <g id="text_3">
      <!-- 100 -->
      <g transform="translate(127.012628 240.613937)scale(0.1 -0.1)">
       <defs>
        <path d="M 12.40625 8.296875 
L 28.515625 8.296875 
L 28.515625 63.921875 
L 10.984375 60.40625 
L 10.984375 69.390625 
L 28.421875 72.90625 
L 38.28125 72.90625 
L 38.28125 8.296875 
L 54.390625 8.296875 
L 54.390625 0 
L 12.40625 0 
z
" id="DejaVuSans-49"/>
       </defs>
       <use xlink:href="#DejaVuSans-49"/>
       <use x="63.623047" xlink:href="#DejaVuSans-48"/>
       <use x="127.246094" xlink:href="#DejaVuSans-48"/>
      </g>
     </g>
    </g>
    <g id="xtick_4">
     <g id="line2d_4">
      <g>
       <use style="stroke:#000000;stroke-width:0.8;" x="180.346914" xlink:href="#m3225d520cd" y="226.0155"/>
      </g>
     </g>
     <g id="text_4">
      <!-- 150 -->
      <g transform="translate(170.803164 240.613937)scale(0.1 -0.1)">
       <use xlink:href="#DejaVuSans-49"/>
       <use x="63.623047" xlink:href="#DejaVuSans-53"/>
       <use x="127.246094" xlink:href="#DejaVuSans-48"/>
      </g>
     </g>
    </g>
    <g id="xtick_5">
     <g id="line2d_5">
      <g>
       <use style="stroke:#000000;stroke-width:0.8;" x="224.137449" xlink:href="#m3225d520cd" y="226.0155"/>
      </g>
     </g>
     <g id="text_5">
      <!-- 200 -->
      <g transform="translate(214.593699 240.613937)scale(0.1 -0.1)">
       <defs>
        <path d="M 19.1875 8.296875 
L 53.609375 8.296875 
L 53.609375 0 
L 7.328125 0 
L 7.328125 8.296875 
Q 12.9375 14.109375 22.625 23.890625 
Q 32.328125 33.6875 34.8125 36.53125 
Q 39.546875 41.84375 41.421875 45.53125 
Q 43.3125 49.21875 43.3125 52.78125 
Q 43.3125 58.59375 39.234375 62.25 
Q 35.15625 65.921875 28.609375 65.921875 
Q 23.96875 65.921875 18.8125 64.3125 
Q 13.671875 62.703125 7.8125 59.421875 
L 7.8125 69.390625 
Q 13.765625 71.78125 18.9375 73 
Q 24.125 74.21875 28.421875 74.21875 
Q 39.75 74.21875 46.484375 68.546875 
Q 53.21875 62.890625 53.21875 53.421875 
Q 53.21875 48.921875 51.53125 44.890625 
Q 49.859375 40.875 45.40625 35.40625 
Q 44.1875 33.984375 37.640625 27.21875 
Q 31.109375 20.453125 19.1875 8.296875 
z
" id="DejaVuSans-50"/>
       </defs>
       <use xlink:href="#DejaVuSans-50"/>
       <use x="63.623047" xlink:href="#DejaVuSans-48"/>
       <use x="127.246094" xlink:href="#DejaVuSans-48"/>
      </g>
     </g>
    </g>
    <g id="text_6">
     <!-- Initial Conductance (µS) -->
     <g transform="translate(94.119531 254.292062)scale(0.1 -0.1)">
      <defs>
       <path d="M 9.8125 72.90625 
L 19.671875 72.90625 
L 19.671875 0 
L 9.8125 0 
z
" id="DejaVuSans-73"/>
       <path d="M 54.890625 33.015625 
L 54.890625 0 
L 45.90625 0 
L 45.90625 32.71875 
Q 45.90625 40.484375 42.875 44.328125 
Q 39.84375 48.1875 33.796875 48.1875 
Q 26.515625 48.1875 22.3125 43.546875 
Q 18.109375 38.921875 18.109375 30.90625 
L 18.109375 0 
L 9.078125 0 
L 9.078125 54.6875 
L 18.109375 54.6875 
L 18.109375 46.1875 
Q 21.34375 51.125 25.703125 53.5625 
Q 30.078125 56 35.796875 56 
Q 45.21875 56 50.046875 50.171875 
Q 54.890625 44.34375 54.890625 33.015625 
z
" id="DejaVuSans-110"/>
       <path d="M 9.421875 54.6875 
L 18.40625 54.6875 
L 18.40625 0 
L 9.421875 0 
z
M 9.421875 75.984375 
L 18.40625 75.984375 
L 18.40625 64.59375 
L 9.421875 64.59375 
z
" id="DejaVuSans-105"/>
       <path d="M 18.3125 70.21875 
L 18.3125 54.6875 
L 36.8125 54.6875 
L 36.8125 47.703125 
L 18.3125 47.703125 
L 18.3125 18.015625 
Q 18.3125 11.328125 20.140625 9.421875 
Q 21.96875 7.515625 27.59375 7.515625 
L 36.8125 7.515625 
L 36.8125 0 
L 27.59375 0 
Q 17.1875 0 13.234375 3.875 
Q 9.28125 7.765625 9.28125 18.015625 
L 9.28125 47.703125 
L 2.6875 47.703125 
L 2.6875 54.6875 
L 9.28125 54.6875 
L 9.28125 70.21875 
z
" id="DejaVuSans-116"/>
       <path d="M 34.28125 27.484375 
Q 23.390625 27.484375 19.1875 25 
Q 14.984375 22.515625 14.984375 16.5 
Q 14.984375 11.71875 18.140625 8.90625 
Q 21.296875 6.109375 26.703125 6.109375 
Q 34.1875 6.109375 38.703125 11.40625 
Q 43.21875 16.703125 43.21875 25.484375 
L 43.21875 27.484375 
z
M 52.203125 31.203125 
L 52.203125 0 
L 43.21875 0 
L 43.21875 8.296875 
Q 40.140625 3.328125 35.546875 0.953125 
Q 30.953125 -1.421875 24.3125 -1.421875 
Q 15.921875 -1.421875 10.953125 3.296875 
Q 6 8.015625 6 15.921875 
Q 6 25.140625 12.171875 29.828125 
Q 18.359375 34.515625 30.609375 34.515625 
L 43.21875 34.515625 
L 43.21875 35.40625 
Q 43.21875 41.609375 39.140625 45 
Q 35.0625 48.390625 27.6875 48.390625 
Q 23 48.390625 18.546875 47.265625 
Q 14.109375 46.140625 10.015625 43.890625 
L 10.015625 52.203125 
Q 14.9375 54.109375 19.578125 55.046875 
Q 24.21875 56 28.609375 56 
Q 40.484375 56 46.34375 49.84375 
Q 52.203125 43.703125 52.203125 31.203125 
z
" id="DejaVuSans-97"/>
       <path d="M 9.421875 75.984375 
L 18.40625 75.984375 
L 18.40625 0 
L 9.421875 0 
z
" id="DejaVuSans-108"/>
       <path id="DejaVuSans-32"/>
       <path d="M 64.40625 67.28125 
L 64.40625 56.890625 
Q 59.421875 61.53125 53.78125 63.8125 
Q 48.140625 66.109375 41.796875 66.109375 
Q 29.296875 66.109375 22.65625 58.46875 
Q 16.015625 50.828125 16.015625 36.375 
Q 16.015625 21.96875 22.65625 14.328125 
Q 29.296875 6.6875 41.796875 6.6875 
Q 48.140625 6.6875 53.78125 8.984375 
Q 59.421875 11.28125 64.40625 15.921875 
L 64.40625 5.609375 
Q 59.234375 2.09375 53.4375 0.328125 
Q 47.65625 -1.421875 41.21875 -1.421875 
Q 24.65625 -1.421875 15.125 8.703125 
Q 5.609375 18.84375 5.609375 36.375 
Q 5.609375 53.953125 15.125 64.078125 
Q 24.65625 74.21875 41.21875 74.21875 
Q 47.75 74.21875 53.53125 72.484375 
Q 59.328125 70.75 64.40625 67.28125 
z
" id="DejaVuSans-67"/>
       <path d="M 30.609375 48.390625 
Q 23.390625 48.390625 19.1875 42.75 
Q 14.984375 37.109375 14.984375 27.296875 
Q 14.984375 17.484375 19.15625 11.84375 
Q 23.34375 6.203125 30.609375 6.203125 
Q 37.796875 6.203125 41.984375 11.859375 
Q 46.1875 17.53125 46.1875 27.296875 
Q 46.1875 37.015625 41.984375 42.703125 
Q 37.796875 48.390625 30.609375 48.390625 
z
M 30.609375 56 
Q 42.328125 56 49.015625 48.375 
Q 55.71875 40.765625 55.71875 27.296875 
Q 55.71875 13.875 49.015625 6.21875 
Q 42.328125 -1.421875 30.609375 -1.421875 
Q 18.84375 -1.421875 12.171875 6.21875 
Q 5.515625 13.875 5.515625 27.296875 
Q 5.515625 40.765625 12.171875 48.375 
Q 18.84375 56 30.609375 56 
z
" id="DejaVuSans-111"/>
       <path d="M 45.40625 46.390625 
L 45.40625 75.984375 
L 54.390625 75.984375 
L 54.390625 0 
L 45.40625 0 
L 45.40625 8.203125 
Q 42.578125 3.328125 38.25 0.953125 
Q 33.9375 -1.421875 27.875 -1.421875 
Q 17.96875 -1.421875 11.734375 6.484375 
Q 5.515625 14.40625 5.515625 27.296875 
Q 5.515625 40.1875 11.734375 48.09375 
Q 17.96875 56 27.875 56 
Q 33.9375 56 38.25 53.625 
Q 42.578125 51.265625 45.40625 46.390625 
z
M 14.796875 27.296875 
Q 14.796875 17.390625 18.875 11.75 
Q 22.953125 6.109375 30.078125 6.109375 
Q 37.203125 6.109375 41.296875 11.75 
Q 45.40625 17.390625 45.40625 27.296875 
Q 45.40625 37.203125 41.296875 42.84375 
Q 37.203125 48.484375 30.078125 48.484375 
Q 22.953125 48.484375 18.875 42.84375 
Q 14.796875 37.203125 14.796875 27.296875 
z
" id="DejaVuSans-100"/>
       <path d="M 8.5 21.578125 
L 8.5 54.6875 
L 17.484375 54.6875 
L 17.484375 21.921875 
Q 17.484375 14.15625 20.5 10.265625 
Q 23.53125 6.390625 29.59375 6.390625 
Q 36.859375 6.390625 41.078125 11.03125 
Q 45.3125 15.671875 45.3125 23.6875 
L 45.3125 54.6875 
L 54.296875 54.6875 
L 54.296875 0 
L 45.3125 0 
L 45.3125 8.40625 
Q 42.046875 3.421875 37.71875 1 
Q 33.40625 -1.421875 27.6875 -1.421875 
Q 18.265625 -1.421875 13.375 4.4375 
Q 8.5 10.296875 8.5 21.578125 
z
M 31.109375 56 
z
" id="DejaVuSans-117"/>
       <path d="M 48.78125 52.59375 
L 48.78125 44.1875 
Q 44.96875 46.296875 41.140625 47.34375 
Q 37.3125 48.390625 33.40625 48.390625 
Q 24.65625 48.390625 19.8125 42.84375 
Q 14.984375 37.3125 14.984375 27.296875 
Q 14.984375 17.28125 19.8125 11.734375 
Q 24.65625 6.203125 33.40625 6.203125 
Q 37.3125 6.203125 41.140625 7.25 
Q 44.96875 8.296875 48.78125 10.40625 
L 48.78125 2.09375 
Q 45.015625 0.34375 40.984375 -0.53125 
Q 36.96875 -1.421875 32.421875 -1.421875 
Q 20.0625 -1.421875 12.78125 6.34375 
Q 5.515625 14.109375 5.515625 27.296875 
Q 5.515625 40.671875 12.859375 48.328125 
Q 20.21875 56 33.015625 56 
Q 37.15625 56 41.109375 55.140625 
Q 45.0625 54.296875 48.78125 52.59375 
z
" id="DejaVuSans-99"/>
       <path d="M 56.203125 29.59375 
L 56.203125 25.203125 
L 14.890625 25.203125 
Q 15.484375 15.921875 20.484375 11.0625 
Q 25.484375 6.203125 34.421875 6.203125 
Q 39.59375 6.203125 44.453125 7.46875 
Q 49.3125 8.734375 54.109375 11.28125 
L 54.109375 2.78125 
Q 49.265625 0.734375 44.1875 -0.34375 
Q 39.109375 -1.421875 33.890625 -1.421875 
Q 20.796875 -1.421875 13.15625 6.1875 
Q 5.515625 13.8125 5.515625 26.8125 
Q 5.515625 40.234375 12.765625 48.109375 
Q 20.015625 56 32.328125 56 
Q 43.359375 56 49.78125 48.890625 
Q 56.203125 41.796875 56.203125 29.59375 
z
M 47.21875 32.234375 
Q 47.125 39.59375 43.09375 43.984375 
Q 39.0625 48.390625 32.421875 48.390625 
Q 24.90625 48.390625 20.390625 44.140625 
Q 15.875 39.890625 15.1875 32.171875 
z
" id="DejaVuSans-101"/>
       <path d="M 31 75.875 
Q 24.46875 64.65625 21.28125 53.65625 
Q 18.109375 42.671875 18.109375 31.390625 
Q 18.109375 20.125 21.3125 9.0625 
Q 24.515625 -2 31 -13.1875 
L 23.1875 -13.1875 
Q 15.875 -1.703125 12.234375 9.375 
Q 8.59375 20.453125 8.59375 31.390625 
Q 8.59375 42.28125 12.203125 53.3125 
Q 15.828125 64.359375 23.1875 75.875 
z
" id="DejaVuSans-40"/>
       <path d="M 8.5 -20.796875 
L 8.5 54.6875 
L 17.484375 54.6875 
L 17.484375 20.703125 
Q 17.484375 13.625 20.84375 10 
Q 24.21875 6.390625 30.8125 6.390625 
Q 38.03125 6.390625 41.671875 10.484375 
Q 45.3125 14.59375 45.3125 22.796875 
L 45.3125 54.6875 
L 54.296875 54.6875 
L 54.296875 12.59375 
Q 54.296875 9.671875 55.140625 8.28125 
Q 56 6.890625 57.8125 6.890625 
Q 58.25 6.890625 59.03125 7.15625 
Q 59.8125 7.421875 61.1875 8.015625 
L 61.1875 0.78125 
Q 59.1875 -0.34375 57.390625 -0.875 
Q 55.609375 -1.421875 53.90625 -1.421875 
Q 50.53125 -1.421875 48.53125 0.484375 
Q 46.53125 2.390625 45.796875 6.296875 
Q 43.359375 2.4375 39.8125 0.5 
Q 36.28125 -1.421875 31.5 -1.421875 
Q 26.515625 -1.421875 23.015625 0.484375 
Q 19.53125 2.390625 17.484375 6.203125 
L 17.484375 -20.796875 
z
" id="DejaVuSans-181"/>
       <path d="M 53.515625 70.515625 
L 53.515625 60.890625 
Q 47.90625 63.578125 42.921875 64.890625 
Q 37.9375 66.21875 33.296875 66.21875 
Q 25.25 66.21875 20.875 63.09375 
Q 16.5 59.96875 16.5 54.203125 
Q 16.5 49.359375 19.40625 46.890625 
Q 22.3125 44.4375 30.421875 42.921875 
L 36.375 41.703125 
Q 47.40625 39.59375 52.65625 34.296875 
Q 57.90625 29 57.90625 20.125 
Q 57.90625 9.515625 50.796875 4.046875 
Q 43.703125 -1.421875 29.984375 -1.421875 
Q 24.8125 -1.421875 18.96875 -0.25 
Q 13.140625 0.921875 6.890625 3.21875 
L 6.890625 13.375 
Q 12.890625 10.015625 18.65625 8.296875 
Q 24.421875 6.59375 29.984375 6.59375 
Q 38.421875 6.59375 43.015625 9.90625 
Q 47.609375 13.234375 47.609375 19.390625 
Q 47.609375 24.75 44.3125 27.78125 
Q 41.015625 30.8125 33.5 32.328125 
L 27.484375 33.5 
Q 16.453125 35.6875 11.515625 40.375 
Q 6.59375 45.0625 6.59375 53.421875 
Q 6.59375 63.09375 13.40625 68.65625 
Q 20.21875 74.21875 32.171875 74.21875 
Q 37.3125 74.21875 42.625 73.28125 
Q 47.953125 72.359375 53.515625 70.515625 
z
" id="DejaVuSans-83"/>
       <path d="M 8.015625 75.875 
L 15.828125 75.875 
Q 23.140625 64.359375 26.78125 53.3125 
Q 30.421875 42.28125 30.421875 31.390625 
Q 30.421875 20.453125 26.78125 9.375 
Q 23.140625 -1.703125 15.828125 -13.1875 
L 8.015625 -13.1875 
Q 14.5 -2 17.703125 9.0625 
Q 20.90625 20.125 20.90625 31.390625 
Q 20.90625 42.671875 17.703125 53.65625 
Q 14.5 64.65625 8.015625 75.875 
z
" id="DejaVuSans-41"/>
      </defs>
      <use xlink:href="#DejaVuSans-73"/>
      <use x="29.492188" xlink:href="#DejaVuSans-110"/>
      <use x="92.871094" xlink:href="#DejaVuSans-105"/>
      <use x="120.654297" xlink:href="#DejaVuSans-116"/>
      <use x="159.863281" xlink:href="#DejaVuSans-105"/>
      <use x="187.646484" xlink:href="#DejaVuSans-97"/>
      <use x="248.925781" xlink:href="#DejaVuSans-108"/>
      <use x="276.708984" xlink:href="#DejaVuSans-32"/>
      <use x="308.496094" xlink:href="#DejaVuSans-67"/>
      <use x="378.320312" xlink:href="#DejaVuSans-111"/>
      <use x="439.501953" xlink:href="#DejaVuSans-110"/>
      <use x="502.880859" xlink:href="#DejaVuSans-100"/>
      <use x="566.357422" xlink:href="#DejaVuSans-117"/>
      <use x="629.736328" xlink:href="#DejaVuSans-99"/>
      <use x="684.716797" xlink:href="#DejaVuSans-116"/>
      <use x="723.925781" xlink:href="#DejaVuSans-97"/>
      <use x="785.205078" xlink:href="#DejaVuSans-110"/>
      <use x="848.583984" xlink:href="#DejaVuSans-99"/>
      <use x="903.564453" xlink:href="#DejaVuSans-101"/>
      <use x="965.087891" xlink:href="#DejaVuSans-32"/>
      <use x="996.875" xlink:href="#DejaVuSans-40"/>
      <use x="1035.888672" xlink:href="#DejaVuSans-181"/>
      <use x="1099.511719" xlink:href="#DejaVuSans-83"/>
      <use x="1162.988281" xlink:href="#DejaVuSans-41"/>
     </g>
    </g>
   </g>
   <g id="matplotlib.axis_2">
    <g id="ytick_1">
     <g id="line2d_6">
      <defs>
       <path d="M 0 0 
L -3.5 0 
" id="mec5c5d2b07" style="stroke:#000000;stroke-width:0.8;"/>
      </defs>
      <g>
       <use style="stroke:#000000;stroke-width:0.8;" x="42.620313" xlink:href="#mec5c5d2b07" y="226.0155"/>
      </g>
     </g>
     <g id="text_7">
      <!-- −2 -->
      <g transform="translate(20.878125 229.814719)scale(0.1 -0.1)">
       <defs>
        <path d="M 10.59375 35.5 
L 73.1875 35.5 
L 73.1875 27.203125 
L 10.59375 27.203125 
z
" id="DejaVuSans-8722"/>
       </defs>
       <use xlink:href="#DejaVuSans-8722"/>
       <use x="83.789062" xlink:href="#DejaVuSans-50"/>
      </g>
     </g>
    </g>
    <g id="ytick_2">
     <g id="line2d_7">
      <g>
       <use style="stroke:#000000;stroke-width:0.8;" x="42.620313" xlink:href="#mec5c5d2b07" y="187.9635"/>
      </g>
     </g>
     <g id="text_8">
      <!-- −1 -->
      <g transform="translate(20.878125 191.762719)scale(0.1 -0.1)">
       <use xlink:href="#DejaVuSans-8722"/>
       <use x="83.789062" xlink:href="#DejaVuSans-49"/>
      </g>
     </g>
    </g>
    <g id="ytick_3">
     <g id="line2d_8">
      <g>
       <use style="stroke:#000000;stroke-width:0.8;" x="42.620313" xlink:href="#mec5c5d2b07" y="149.9115"/>
      </g>
     </g>
     <g id="text_9">
      <!-- 0 -->
      <g transform="translate(29.257813 153.710719)scale(0.1 -0.1)">
       <use xlink:href="#DejaVuSans-48"/>
      </g>
     </g>
    </g>
    <g id="ytick_4">
     <g id="line2d_9">
      <g>
       <use style="stroke:#000000;stroke-width:0.8;" x="42.620313" xlink:href="#mec5c5d2b07" y="111.8595"/>
      </g>
     </g>
     <g id="text_10">
      <!-- 1 -->
      <g transform="translate(29.257813 115.658719)scale(0.1 -0.1)">
       <use xlink:href="#DejaVuSans-49"/>
      </g>
     </g>
    </g>
    <g id="ytick_5">
     <g id="line2d_10">
      <g>
       <use style="stroke:#000000;stroke-width:0.8;" x="42.620313" xlink:href="#mec5c5d2b07" y="73.8075"/>
      </g>
     </g>
     <g id="text_11">
      <!-- 2 -->
      <g transform="translate(29.257813 77.606719)scale(0.1 -0.1)">
       <use xlink:href="#DejaVuSans-50"/>
      </g>
     </g>
    </g>
    <g id="ytick_6">
     <g id="line2d_11">
      <g>
       <use style="stroke:#000000;stroke-width:0.8;" x="42.620313" xlink:href="#mec5c5d2b07" y="35.7555"/>
      </g>
     </g>
     <g id="text_12">
      <!-- 3 -->
      <g transform="translate(29.257813 39.554719)scale(0.1 -0.1)">
       <defs>
        <path d="M 40.578125 39.3125 
Q 47.65625 37.796875 51.625 33 
Q 55.609375 28.21875 55.609375 21.1875 
Q 55.609375 10.40625 48.1875 4.484375 
Q 40.765625 -1.421875 27.09375 -1.421875 
Q 22.515625 -1.421875 17.65625 -0.515625 
Q 12.796875 0.390625 7.625 2.203125 
L 7.625 11.71875 
Q 11.71875 9.328125 16.59375 8.109375 
Q 21.484375 6.890625 26.8125 6.890625 
Q 36.078125 6.890625 40.9375 10.546875 
Q 45.796875 14.203125 45.796875 21.1875 
Q 45.796875 27.640625 41.28125 31.265625 
Q 36.765625 34.90625 28.71875 34.90625 
L 20.21875 34.90625 
L 20.21875 43.015625 
L 29.109375 43.015625 
Q 36.375 43.015625 40.234375 45.921875 
Q 44.09375 48.828125 44.09375 54.296875 
Q 44.09375 59.90625 40.109375 62.90625 
Q 36.140625 65.921875 28.71875 65.921875 
Q 24.65625 65.921875 20.015625 65.03125 
Q 15.375 64.15625 9.8125 62.3125 
L 9.8125 71.09375 
Q 15.4375 72.65625 20.34375 73.4375 
Q 25.25 74.21875 29.59375 74.21875 
Q 40.828125 74.21875 47.359375 69.109375 
Q 53.90625 64.015625 53.90625 55.328125 
Q 53.90625 49.265625 50.4375 45.09375 
Q 46.96875 40.921875 40.578125 39.3125 
z
" id="DejaVuSans-51"/>
       </defs>
       <use xlink:href="#DejaVuSans-51"/>
      </g>
     </g>
    </g>
    <g id="text_13">
     <!-- Mean Drift (µS) -->
     <g transform="translate(14.798438 168.871437)rotate(-90)scale(0.1 -0.1)">
      <defs>
       <path d="M 9.8125 72.90625 
L 24.515625 72.90625 
L 43.109375 23.296875 
L 61.8125 72.90625 
L 76.515625 72.90625 
L 76.515625 0 
L 66.890625 0 
L 66.890625 64.015625 
L 48.09375 14.015625 
L 38.1875 14.015625 
L 19.390625 64.015625 
L 19.390625 0 
L 9.8125 0 
z
" id="DejaVuSans-77"/>
       <path d="M 19.671875 64.796875 
L 19.671875 8.109375 
L 31.59375 8.109375 
Q 46.6875 8.109375 53.6875 14.9375 
Q 60.6875 21.78125 60.6875 36.53125 
Q 60.6875 51.171875 53.6875 57.984375 
Q 46.6875 64.796875 31.59375 64.796875 
z
M 9.8125 72.90625 
L 30.078125 72.90625 
Q 51.265625 72.90625 61.171875 64.09375 
Q 71.09375 55.28125 71.09375 36.53125 
Q 71.09375 17.671875 61.125 8.828125 
Q 51.171875 0 30.078125 0 
L 9.8125 0 
z
" id="DejaVuSans-68"/>
       <path d="M 41.109375 46.296875 
Q 39.59375 47.171875 37.8125 47.578125 
Q 36.03125 48 33.890625 48 
Q 26.265625 48 22.1875 43.046875 
Q 18.109375 38.09375 18.109375 28.8125 
L 18.109375 0 
L 9.078125 0 
L 9.078125 54.6875 
L 18.109375 54.6875 
L 18.109375 46.1875 
Q 20.953125 51.171875 25.484375 53.578125 
Q 30.03125 56 36.53125 56 
Q 37.453125 56 38.578125 55.875 
Q 39.703125 55.765625 41.0625 55.515625 
z
" id="DejaVuSans-114"/>
       <path d="M 37.109375 75.984375 
L 37.109375 68.5 
L 28.515625 68.5 
Q 23.6875 68.5 21.796875 66.546875 
Q 19.921875 64.59375 19.921875 59.515625 
L 19.921875 54.6875 
L 34.71875 54.6875 
L 34.71875 47.703125 
L 19.921875 47.703125 
L 19.921875 0 
L 10.890625 0 
L 10.890625 47.703125 
L 2.296875 47.703125 
L 2.296875 54.6875 
L 10.890625 54.6875 
L 10.890625 58.5 
Q 10.890625 67.625 15.140625 71.796875 
Q 19.390625 75.984375 28.609375 75.984375 
z
" id="DejaVuSans-102"/>
      </defs>
      <use xlink:href="#DejaVuSans-77"/>
      <use x="86.279297" xlink:href="#DejaVuSans-101"/>
      <use x="147.802734" xlink:href="#DejaVuSans-97"/>
      <use x="209.082031" xlink:href="#DejaVuSans-110"/>
      <use x="272.460938" xlink:href="#DejaVuSans-32"/>
      <use x="304.248047" xlink:href="#DejaVuSans-68"/>
      <use x="381.25" xlink:href="#DejaVuSans-114"/>
      <use x="422.363281" xlink:href="#DejaVuSans-105"/>
      <use x="450.146484" xlink:href="#DejaVuSans-102"/>
      <use x="483.601562" xlink:href="#DejaVuSans-116"/>
      <use x="522.810547" xlink:href="#DejaVuSans-32"/>
      <use x="554.597656" xlink:href="#DejaVuSans-40"/>
      <use x="593.611328" xlink:href="#DejaVuSans-181"/>
      <use x="657.234375" xlink:href="#DejaVuSans-83"/>
      <use x="720.710938" xlink:href="#DejaVuSans-41"/>
     </g>
    </g>
   </g>
   <g id="line2d_12">
    <path clip-path="url(#p8d05704072)" d="M 52.8082 149.9115 
L 58.449846 149.9115 
L 65.387996 149.9115 
L 71.877892 149.9115 
L 78.481513 149.9115 
L 85.0435 149.9115 
L 91.665198 149.9115 
L 98.122601 149.9115 
L 104.610279 149.9115 
L 111.222311 149.9115 
L 117.71621 149.9115 
L 124.395651 149.9115 
L 130.908182 149.9115 
L 137.522233 149.9115 
L 144.217882 149.9115 
L 150.645729 149.9115 
L 157.316699 149.9115 
L 163.967974 149.9115 
L 170.564758 149.9115 
L 177.038969 149.9115 
L 183.725129 149.9115 
L 190.289474 149.9115 
L 196.84479 149.9115 
L 203.286324 149.9115 
L 209.800569 149.9115 
L 216.530626 149.9115 
L 223.027995 149.9115 
L 229.570055 149.9115 
L 236.220392 149.9115 
L 242.687706 149.9115 
L 249.192492 149.9115 
L 255.674858 149.9115 
" style="fill:none;stroke:#1f77b4;stroke-linecap:square;stroke-width:0.8;"/>
    <defs>
     <path d="M -3 0 
L 3 0 
M 0 3 
L 0 -3 
" id="m743411eeef" style="stroke:#1f77b4;"/>
    </defs>
    <g clip-path="url(#p8d05704072)">
     <use style="fill:#1f77b4;stroke:#1f77b4;" x="52.8082" xlink:href="#m743411eeef" y="149.9115"/>
     <use style="fill:#1f77b4;stroke:#1f77b4;" x="58.449846" xlink:href="#m743411eeef" y="149.9115"/>
     <use style="fill:#1f77b4;stroke:#1f77b4;" x="65.387996" xlink:href="#m743411eeef" y="149.9115"/>
     <use style="fill:#1f77b4;stroke:#1f77b4;" x="71.877892" xlink:href="#m743411eeef" y="149.9115"/>
     <use style="fill:#1f77b4;stroke:#1f77b4;" x="78.481513" xlink:href="#m743411eeef" y="149.9115"/>
     <use style="fill:#1f77b4;stroke:#1f77b4;" x="85.0435" xlink:href="#m743411eeef" y="149.9115"/>
     <use style="fill:#1f77b4;stroke:#1f77b4;" x="91.665198" xlink:href="#m743411eeef" y="149.9115"/>
     <use style="fill:#1f77b4;stroke:#1f77b4;" x="98.122601" xlink:href="#m743411eeef" y="149.9115"/>
     <use style="fill:#1f77b4;stroke:#1f77b4;" x="104.610279" xlink:href="#m743411eeef" y="149.9115"/>
     <use style="fill:#1f77b4;stroke:#1f77b4;" x="111.222311" xlink:href="#m743411eeef" y="149.9115"/>
     <use style="fill:#1f77b4;stroke:#1f77b4;" x="117.71621" xlink:href="#m743411eeef" y="149.9115"/>
     <use style="fill:#1f77b4;stroke:#1f77b4;" x="124.395651" xlink:href="#m743411eeef" y="149.9115"/>
     <use style="fill:#1f77b4;stroke:#1f77b4;" x="130.908182" xlink:href="#m743411eeef" y="149.9115"/>
     <use style="fill:#1f77b4;stroke:#1f77b4;" x="137.522233" xlink:href="#m743411eeef" y="149.9115"/>
     <use style="fill:#1f77b4;stroke:#1f77b4;" x="144.217882" xlink:href="#m743411eeef" y="149.9115"/>
     <use style="fill:#1f77b4;stroke:#1f77b4;" x="150.645729" xlink:href="#m743411eeef" y="149.9115"/>
     <use style="fill:#1f77b4;stroke:#1f77b4;" x="157.316699" xlink:href="#m743411eeef" y="149.9115"/>
     <use style="fill:#1f77b4;stroke:#1f77b4;" x="163.967974" xlink:href="#m743411eeef" y="149.9115"/>
     <use style="fill:#1f77b4;stroke:#1f77b4;" x="170.564758" xlink:href="#m743411eeef" y="149.9115"/>
     <use style="fill:#1f77b4;stroke:#1f77b4;" x="177.038969" xlink:href="#m743411eeef" y="149.9115"/>
     <use style="fill:#1f77b4;stroke:#1f77b4;" x="183.725129" xlink:href="#m743411eeef" y="149.9115"/>
     <use style="fill:#1f77b4;stroke:#1f77b4;" x="190.289474" xlink:href="#m743411eeef" y="149.9115"/>
     <use style="fill:#1f77b4;stroke:#1f77b4;" x="196.84479" xlink:href="#m743411eeef" y="149.9115"/>
     <use style="fill:#1f77b4;stroke:#1f77b4;" x="203.286324" xlink:href="#m743411eeef" y="149.9115"/>
     <use style="fill:#1f77b4;stroke:#1f77b4;" x="209.800569" xlink:href="#m743411eeef" y="149.9115"/>
     <use style="fill:#1f77b4;stroke:#1f77b4;" x="216.530626" xlink:href="#m743411eeef" y="149.9115"/>
     <use style="fill:#1f77b4;stroke:#1f77b4;" x="223.027995" xlink:href="#m743411eeef" y="149.9115"/>
     <use style="fill:#1f77b4;stroke:#1f77b4;" x="229.570055" xlink:href="#m743411eeef" y="149.9115"/>
     <use style="fill:#1f77b4;stroke:#1f77b4;" x="236.220392" xlink:href="#m743411eeef" y="149.9115"/>
     <use style="fill:#1f77b4;stroke:#1f77b4;" x="242.687706" xlink:href="#m743411eeef" y="149.9115"/>
     <use style="fill:#1f77b4;stroke:#1f77b4;" x="249.192492" xlink:href="#m743411eeef" y="149.9115"/>
     <use style="fill:#1f77b4;stroke:#1f77b4;" x="255.674858" xlink:href="#m743411eeef" y="149.9115"/>
    </g>
   </g>
   <g id="line2d_13">
    <path clip-path="url(#p8d05704072)" d="M 52.805523 141.07517 
L 58.447285 144.552026 
L 65.378269 133.8233 
L 71.876395 131.654492 
L 78.475732 136.733589 
L 85.0435 137.032894 
L 91.673601 152.199969 
L 98.12176 147.60876 
L 104.610279 151.820271 
L 111.229516 145.817761 
L 117.724022 136.861899 
L 124.383751 137.619129 
L 130.908182 141.793498 
L 137.523885 136.888687 
L 144.214062 141.693081 
L 150.65235 128.99239 
L 157.316347 134.789876 
L 163.966106 143.597691 
L 170.562619 134.958917 
L 177.027369 139.487272 
L 183.725129 140.835473 
L 190.306641 138.799344 
L 196.854397 138.842177 
L 203.270142 135.742238 
L 209.80485 138.072184 
L 216.534059 135.265754 
L 223.027059 135.067924 
L 229.567634 133.381125 
L 236.227409 136.16897 
L 242.69283 139.106827 
L 249.185924 137.875289 
L 255.670396 139.81916 
" style="fill:none;stroke:#ff7f0e;stroke-linecap:square;stroke-width:0.8;"/>
    <defs>
     <path d="M -3 0 
L 3 0 
M 0 3 
L 0 -3 
" id="m407b970727" style="stroke:#ff7f0e;"/>
    </defs>
    <g clip-path="url(#p8d05704072)">
     <use style="fill:#ff7f0e;stroke:#ff7f0e;" x="52.805523" xlink:href="#m407b970727" y="141.07517"/>
     <use style="fill:#ff7f0e;stroke:#ff7f0e;" x="58.447285" xlink:href="#m407b970727" y="144.552026"/>
     <use style="fill:#ff7f0e;stroke:#ff7f0e;" x="65.378269" xlink:href="#m407b970727" y="133.8233"/>
     <use style="fill:#ff7f0e;stroke:#ff7f0e;" x="71.876395" xlink:href="#m407b970727" y="131.654492"/>
     <use style="fill:#ff7f0e;stroke:#ff7f0e;" x="78.475732" xlink:href="#m407b970727" y="136.733589"/>
     <use style="fill:#ff7f0e;stroke:#ff7f0e;" x="85.0435" xlink:href="#m407b970727" y="137.032894"/>
     <use style="fill:#ff7f0e;stroke:#ff7f0e;" x="91.673601" xlink:href="#m407b970727" y="152.199969"/>
     <use style="fill:#ff7f0e;stroke:#ff7f0e;" x="98.12176" xlink:href="#m407b970727" y="147.60876"/>
     <use style="fill:#ff7f0e;stroke:#ff7f0e;" x="104.610279" xlink:href="#m407b970727" y="151.820271"/>
     <use style="fill:#ff7f0e;stroke:#ff7f0e;" x="111.229516" xlink:href="#m407b970727" y="145.817761"/>
     <use style="fill:#ff7f0e;stroke:#ff7f0e;" x="117.724022" xlink:href="#m407b970727" y="136.861899"/>
     <use style="fill:#ff7f0e;stroke:#ff7f0e;" x="124.383751" xlink:href="#m407b970727" y="137.619129"/>
     <use style="fill:#ff7f0e;stroke:#ff7f0e;" x="130.908182" xlink:href="#m407b970727" y="141.793498"/>
     <use style="fill:#ff7f0e;stroke:#ff7f0e;" x="137.523885" xlink:href="#m407b970727" y="136.888687"/>
     <use style="fill:#ff7f0e;stroke:#ff7f0e;" x="144.214062" xlink:href="#m407b970727" y="141.693081"/>
     <use style="fill:#ff7f0e;stroke:#ff7f0e;" x="150.65235" xlink:href="#m407b970727" y="128.99239"/>
     <use style="fill:#ff7f0e;stroke:#ff7f0e;" x="157.316347" xlink:href="#m407b970727" y="134.789876"/>
     <use style="fill:#ff7f0e;stroke:#ff7f0e;" x="163.966106" xlink:href="#m407b970727" y="143.597691"/>
     <use style="fill:#ff7f0e;stroke:#ff7f0e;" x="170.562619" xlink:href="#m407b970727" y="134.958917"/>
     <use style="fill:#ff7f0e;stroke:#ff7f0e;" x="177.027369" xlink:href="#m407b970727" y="139.487272"/>
     <use style="fill:#ff7f0e;stroke:#ff7f0e;" x="183.725129" xlink:href="#m407b970727" y="140.835473"/>
     <use style="fill:#ff7f0e;stroke:#ff7f0e;" x="190.306641" xlink:href="#m407b970727" y="138.799344"/>
     <use style="fill:#ff7f0e;stroke:#ff7f0e;" x="196.854397" xlink:href="#m407b970727" y="138.842177"/>
     <use style="fill:#ff7f0e;stroke:#ff7f0e;" x="203.270142" xlink:href="#m407b970727" y="135.742238"/>
     <use style="fill:#ff7f0e;stroke:#ff7f0e;" x="209.80485" xlink:href="#m407b970727" y="138.072184"/>
     <use style="fill:#ff7f0e;stroke:#ff7f0e;" x="216.534059" xlink:href="#m407b970727" y="135.265754"/>
     <use style="fill:#ff7f0e;stroke:#ff7f0e;" x="223.027059" xlink:href="#m407b970727" y="135.067924"/>
     <use style="fill:#ff7f0e;stroke:#ff7f0e;" x="229.567634" xlink:href="#m407b970727" y="133.381125"/>
     <use style="fill:#ff7f0e;stroke:#ff7f0e;" x="236.227409" xlink:href="#m407b970727" y="136.16897"/>
     <use style="fill:#ff7f0e;stroke:#ff7f0e;" x="242.69283" xlink:href="#m407b970727" y="139.106827"/>
     <use style="fill:#ff7f0e;stroke:#ff7f0e;" x="249.185924" xlink:href="#m407b970727" y="137.875289"/>
     <use style="fill:#ff7f0e;stroke:#ff7f0e;" x="255.670396" xlink:href="#m407b970727" y="139.81916"/>
    </g>
   </g>
   <g id="line2d_14">
    <path clip-path="url(#p8d05704072)" d="M 52.8082 125.744613 
L 58.449846 121.600753 
L 65.387996 92.059562 
L 71.877892 113.968528 
L 78.481513 107.448309 
L 85.0435 112.643207 
L 91.665198 115.83371 
L 98.122601 129.283925 
L 104.610279 137.435998 
L 111.222311 135.419881 
L 117.71621 132.083957 
L 124.395651 118.084509 
L 130.908182 114.297039 
L 137.522233 122.334036 
L 144.217882 133.322751 
L 150.645729 116.673386 
L 157.316699 113.84327 
L 163.967974 119.452427 
L 170.564758 125.454188 
L 177.038969 131.917146 
L 183.725129 123.085665 
L 190.289474 123.005413 
L 196.84479 123.780212 
L 203.286324 115.222977 
L 209.800569 120.235499 
L 216.530626 119.867475 
L 223.027995 116.115935 
L 229.570055 109.485408 
L 236.220392 109.601375 
L 242.687706 118.14881 
L 249.192492 112.386084 
L 255.674858 116.490015 
" style="fill:none;stroke:#2ca02c;stroke-linecap:square;stroke-width:0.8;"/>
    <defs>
     <path d="M -3 0 
L 3 0 
M 0 3 
L 0 -3 
" id="m04fd9313db" style="stroke:#2ca02c;"/>
    </defs>
    <g clip-path="url(#p8d05704072)">
     <use style="fill:#2ca02c;stroke:#2ca02c;" x="52.8082" xlink:href="#m04fd9313db" y="125.744613"/>
     <use style="fill:#2ca02c;stroke:#2ca02c;" x="58.449846" xlink:href="#m04fd9313db" y="121.600753"/>
     <use style="fill:#2ca02c;stroke:#2ca02c;" x="65.387996" xlink:href="#m04fd9313db" y="92.059562"/>
     <use style="fill:#2ca02c;stroke:#2ca02c;" x="71.877892" xlink:href="#m04fd9313db" y="113.968528"/>
     <use style="fill:#2ca02c;stroke:#2ca02c;" x="78.481513" xlink:href="#m04fd9313db" y="107.448309"/>
     <use style="fill:#2ca02c;stroke:#2ca02c;" x="85.0435" xlink:href="#m04fd9313db" y="112.643207"/>
     <use style="fill:#2ca02c;stroke:#2ca02c;" x="91.665198" xlink:href="#m04fd9313db" y="115.83371"/>
     <use style="fill:#2ca02c;stroke:#2ca02c;" x="98.122601" xlink:href="#m04fd9313db" y="129.283925"/>
     <use style="fill:#2ca02c;stroke:#2ca02c;" x="104.610279" xlink:href="#m04fd9313db" y="137.435998"/>
     <use style="fill:#2ca02c;stroke:#2ca02c;" x="111.222311" xlink:href="#m04fd9313db" y="135.419881"/>
     <use style="fill:#2ca02c;stroke:#2ca02c;" x="117.71621" xlink:href="#m04fd9313db" y="132.083957"/>
     <use style="fill:#2ca02c;stroke:#2ca02c;" x="124.395651" xlink:href="#m04fd9313db" y="118.084509"/>
     <use style="fill:#2ca02c;stroke:#2ca02c;" x="130.908182" xlink:href="#m04fd9313db" y="114.297039"/>
     <use style="fill:#2ca02c;stroke:#2ca02c;" x="137.522233" xlink:href="#m04fd9313db" y="122.334036"/>
     <use style="fill:#2ca02c;stroke:#2ca02c;" x="144.217882" xlink:href="#m04fd9313db" y="133.322751"/>
     <use style="fill:#2ca02c;stroke:#2ca02c;" x="150.645729" xlink:href="#m04fd9313db" y="116.673386"/>
     <use style="fill:#2ca02c;stroke:#2ca02c;" x="157.316699" xlink:href="#m04fd9313db" y="113.84327"/>
     <use style="fill:#2ca02c;stroke:#2ca02c;" x="163.967974" xlink:href="#m04fd9313db" y="119.452427"/>
     <use style="fill:#2ca02c;stroke:#2ca02c;" x="170.564758" xlink:href="#m04fd9313db" y="125.454188"/>
     <use style="fill:#2ca02c;stroke:#2ca02c;" x="177.038969" xlink:href="#m04fd9313db" y="131.917146"/>
     <use style="fill:#2ca02c;stroke:#2ca02c;" x="183.725129" xlink:href="#m04fd9313db" y="123.085665"/>
     <use style="fill:#2ca02c;stroke:#2ca02c;" x="190.289474" xlink:href="#m04fd9313db" y="123.005413"/>
     <use style="fill:#2ca02c;stroke:#2ca02c;" x="196.84479" xlink:href="#m04fd9313db" y="123.780212"/>
     <use style="fill:#2ca02c;stroke:#2ca02c;" x="203.286324" xlink:href="#m04fd9313db" y="115.222977"/>
     <use style="fill:#2ca02c;stroke:#2ca02c;" x="209.800569" xlink:href="#m04fd9313db" y="120.235499"/>
     <use style="fill:#2ca02c;stroke:#2ca02c;" x="216.530626" xlink:href="#m04fd9313db" y="119.867475"/>
     <use style="fill:#2ca02c;stroke:#2ca02c;" x="223.027995" xlink:href="#m04fd9313db" y="116.115935"/>
     <use style="fill:#2ca02c;stroke:#2ca02c;" x="229.570055" xlink:href="#m04fd9313db" y="109.485408"/>
     <use style="fill:#2ca02c;stroke:#2ca02c;" x="236.220392" xlink:href="#m04fd9313db" y="109.601375"/>
     <use style="fill:#2ca02c;stroke:#2ca02c;" x="242.687706" xlink:href="#m04fd9313db" y="118.14881"/>
     <use style="fill:#2ca02c;stroke:#2ca02c;" x="249.192492" xlink:href="#m04fd9313db" y="112.386084"/>
     <use style="fill:#2ca02c;stroke:#2ca02c;" x="255.674858" xlink:href="#m04fd9313db" y="116.490015"/>
    </g>
   </g>
   <g id="line2d_15">
    <path clip-path="url(#p8d05704072)" d="M 52.8082 106.637571 
L 58.449846 91.635234 
L 65.387996 70.919329 
L 71.877892 95.523264 
L 78.481513 74.053071 
L 85.0435 101.966394 
L 91.665198 93.937208 
L 98.122601 127.124281 
L 104.610279 124.27047 
L 111.222311 153.966349 
L 117.71621 145.58449 
L 124.395651 117.673304 
L 130.908182 111.893759 
L 137.522233 119.772195 
L 144.217882 137.283287 
L 150.645729 110.90901 
L 157.316699 111.382833 
L 163.967974 117.713532 
L 170.564758 129.175865 
L 177.038969 127.007336 
L 183.725129 134.972334 
L 190.289474 127.190479 
L 196.84479 125.645482 
L 203.286324 118.613844 
L 209.800569 123.223799 
L 216.530626 118.433779 
L 223.027995 116.240992 
L 229.570055 106.844566 
L 236.220392 102.976074 
L 242.687706 116.124872 
L 249.192492 102.974727 
L 255.674858 104.070001 
" style="fill:none;stroke:#d62728;stroke-linecap:square;stroke-width:0.8;"/>
    <defs>
     <path d="M -3 0 
L 3 0 
M 0 3 
L 0 -3 
" id="mb836f90adb" style="stroke:#d62728;"/>
    </defs>
    <g clip-path="url(#p8d05704072)">
     <use style="fill:#d62728;stroke:#d62728;" x="52.8082" xlink:href="#mb836f90adb" y="106.637571"/>
     <use style="fill:#d62728;stroke:#d62728;" x="58.449846" xlink:href="#mb836f90adb" y="91.635234"/>
     <use style="fill:#d62728;stroke:#d62728;" x="65.387996" xlink:href="#mb836f90adb" y="70.919329"/>
     <use style="fill:#d62728;stroke:#d62728;" x="71.877892" xlink:href="#mb836f90adb" y="95.523264"/>
     <use style="fill:#d62728;stroke:#d62728;" x="78.481513" xlink:href="#mb836f90adb" y="74.053071"/>
     <use style="fill:#d62728;stroke:#d62728;" x="85.0435" xlink:href="#mb836f90adb" y="101.966394"/>
     <use style="fill:#d62728;stroke:#d62728;" x="91.665198" xlink:href="#mb836f90adb" y="93.937208"/>
     <use style="fill:#d62728;stroke:#d62728;" x="98.122601" xlink:href="#mb836f90adb" y="127.124281"/>
     <use style="fill:#d62728;stroke:#d62728;" x="104.610279" xlink:href="#mb836f90adb" y="124.27047"/>
     <use style="fill:#d62728;stroke:#d62728;" x="111.222311" xlink:href="#mb836f90adb" y="153.966349"/>
     <use style="fill:#d62728;stroke:#d62728;" x="117.71621" xlink:href="#mb836f90adb" y="145.58449"/>
     <use style="fill:#d62728;stroke:#d62728;" x="124.395651" xlink:href="#mb836f90adb" y="117.673304"/>
     <use style="fill:#d62728;stroke:#d62728;" x="130.908182" xlink:href="#mb836f90adb" y="111.893759"/>
     <use style="fill:#d62728;stroke:#d62728;" x="137.522233" xlink:href="#mb836f90adb" y="119.772195"/>
     <use style="fill:#d62728;stroke:#d62728;" x="144.217882" xlink:href="#mb836f90adb" y="137.283287"/>
     <use style="fill:#d62728;stroke:#d62728;" x="150.645729" xlink:href="#mb836f90adb" y="110.90901"/>
     <use style="fill:#d62728;stroke:#d62728;" x="157.316699" xlink:href="#mb836f90adb" y="111.382833"/>
     <use style="fill:#d62728;stroke:#d62728;" x="163.967974" xlink:href="#mb836f90adb" y="117.713532"/>
     <use style="fill:#d62728;stroke:#d62728;" x="170.564758" xlink:href="#mb836f90adb" y="129.175865"/>
     <use style="fill:#d62728;stroke:#d62728;" x="177.038969" xlink:href="#mb836f90adb" y="127.007336"/>
     <use style="fill:#d62728;stroke:#d62728;" x="183.725129" xlink:href="#mb836f90adb" y="134.972334"/>
     <use style="fill:#d62728;stroke:#d62728;" x="190.289474" xlink:href="#mb836f90adb" y="127.190479"/>
     <use style="fill:#d62728;stroke:#d62728;" x="196.84479" xlink:href="#mb836f90adb" y="125.645482"/>
     <use style="fill:#d62728;stroke:#d62728;" x="203.286324" xlink:href="#mb836f90adb" y="118.613844"/>
     <use style="fill:#d62728;stroke:#d62728;" x="209.800569" xlink:href="#mb836f90adb" y="123.223799"/>
     <use style="fill:#d62728;stroke:#d62728;" x="216.530626" xlink:href="#mb836f90adb" y="118.433779"/>
     <use style="fill:#d62728;stroke:#d62728;" x="223.027995" xlink:href="#mb836f90adb" y="116.240992"/>
     <use style="fill:#d62728;stroke:#d62728;" x="229.570055" xlink:href="#mb836f90adb" y="106.844566"/>
     <use style="fill:#d62728;stroke:#d62728;" x="236.220392" xlink:href="#mb836f90adb" y="102.976074"/>
     <use style="fill:#d62728;stroke:#d62728;" x="242.687706" xlink:href="#mb836f90adb" y="116.124872"/>
     <use style="fill:#d62728;stroke:#d62728;" x="249.192492" xlink:href="#mb836f90adb" y="102.974727"/>
     <use style="fill:#d62728;stroke:#d62728;" x="255.674858" xlink:href="#mb836f90adb" y="104.070001"/>
    </g>
   </g>
   <g id="line2d_16">
    <path clip-path="url(#p8d05704072)" d="M 52.765767 90.853786 
L 58.342751 80.348899 
L 65.410921 83.990762 
L 71.895321 76.909134 
L 78.535144 43.350649 
L 85.046202 89.957744 
L 91.682663 63.988253 
L 98.082044 117.706706 
L 104.592779 136.001074 
L 111.271012 143.274136 
L 117.702748 108.7618 
L 124.403303 91.653937 
L 131.074334 84.030122 
L 137.56912 87.838552 
L 144.304462 87.850846 
L 150.720522 87.489931 
L 157.260718 82.527579 
L 163.970488 91.588433 
L 170.517987 106.578466 
L 177.01408 93.958839 
L 183.707327 114.608895 
L 190.236091 102.665312 
L 196.844424 107.756931 
L 203.184023 97.469678 
L 209.758145 106.308987 
L 216.623028 103.229904 
L 223.006711 109.32341 
L 229.502114 93.35292 
L 236.20069 88.158461 
L 242.850672 97.648495 
L 249.208857 91.878871 
L 255.620521 90.989517 
" style="fill:none;stroke:#9467bd;stroke-linecap:square;stroke-width:0.8;"/>
    <defs>
     <path d="M -3 0 
L 3 0 
M 0 3 
L 0 -3 
" id="mdee620edd1" style="stroke:#9467bd;"/>
    </defs>
    <g clip-path="url(#p8d05704072)">
     <use style="fill:#9467bd;stroke:#9467bd;" x="52.765767" xlink:href="#mdee620edd1" y="90.853786"/>
     <use style="fill:#9467bd;stroke:#9467bd;" x="58.342751" xlink:href="#mdee620edd1" y="80.348899"/>
     <use style="fill:#9467bd;stroke:#9467bd;" x="65.410921" xlink:href="#mdee620edd1" y="83.990762"/>
     <use style="fill:#9467bd;stroke:#9467bd;" x="71.895321" xlink:href="#mdee620edd1" y="76.909134"/>
     <use style="fill:#9467bd;stroke:#9467bd;" x="78.535144" xlink:href="#mdee620edd1" y="43.350649"/>
     <use style="fill:#9467bd;stroke:#9467bd;" x="85.046202" xlink:href="#mdee620edd1" y="89.957744"/>
     <use style="fill:#9467bd;stroke:#9467bd;" x="91.682663" xlink:href="#mdee620edd1" y="63.988253"/>
     <use style="fill:#9467bd;stroke:#9467bd;" x="98.082044" xlink:href="#mdee620edd1" y="117.706706"/>
     <use style="fill:#9467bd;stroke:#9467bd;" x="104.592779" xlink:href="#mdee620edd1" y="136.001074"/>
     <use style="fill:#9467bd;stroke:#9467bd;" x="111.271012" xlink:href="#mdee620edd1" y="143.274136"/>
     <use style="fill:#9467bd;stroke:#9467bd;" x="117.702748" xlink:href="#mdee620edd1" y="108.7618"/>
     <use style="fill:#9467bd;stroke:#9467bd;" x="124.403303" xlink:href="#mdee620edd1" y="91.653937"/>
     <use style="fill:#9467bd;stroke:#9467bd;" x="131.074334" xlink:href="#mdee620edd1" y="84.030122"/>
     <use style="fill:#9467bd;stroke:#9467bd;" x="137.56912" xlink:href="#mdee620edd1" y="87.838552"/>
     <use style="fill:#9467bd;stroke:#9467bd;" x="144.304462" xlink:href="#mdee620edd1" y="87.850846"/>
     <use style="fill:#9467bd;stroke:#9467bd;" x="150.720522" xlink:href="#mdee620edd1" y="87.489931"/>
     <use style="fill:#9467bd;stroke:#9467bd;" x="157.260718" xlink:href="#mdee620edd1" y="82.527579"/>
     <use style="fill:#9467bd;stroke:#9467bd;" x="163.970488" xlink:href="#mdee620edd1" y="91.588433"/>
     <use style="fill:#9467bd;stroke:#9467bd;" x="170.517987" xlink:href="#mdee620edd1" y="106.578466"/>
     <use style="fill:#9467bd;stroke:#9467bd;" x="177.01408" xlink:href="#mdee620edd1" y="93.958839"/>
     <use style="fill:#9467bd;stroke:#9467bd;" x="183.707327" xlink:href="#mdee620edd1" y="114.608895"/>
     <use style="fill:#9467bd;stroke:#9467bd;" x="190.236091" xlink:href="#mdee620edd1" y="102.665312"/>
     <use style="fill:#9467bd;stroke:#9467bd;" x="196.844424" xlink:href="#mdee620edd1" y="107.756931"/>
     <use style="fill:#9467bd;stroke:#9467bd;" x="203.184023" xlink:href="#mdee620edd1" y="97.469678"/>
     <use style="fill:#9467bd;stroke:#9467bd;" x="209.758145" xlink:href="#mdee620edd1" y="106.308987"/>
     <use style="fill:#9467bd;stroke:#9467bd;" x="216.623028" xlink:href="#mdee620edd1" y="103.229904"/>
     <use style="fill:#9467bd;stroke:#9467bd;" x="223.006711" xlink:href="#mdee620edd1" y="109.32341"/>
     <use style="fill:#9467bd;stroke:#9467bd;" x="229.502114" xlink:href="#mdee620edd1" y="93.35292"/>
     <use style="fill:#9467bd;stroke:#9467bd;" x="236.20069" xlink:href="#mdee620edd1" y="88.158461"/>
     <use style="fill:#9467bd;stroke:#9467bd;" x="242.850672" xlink:href="#mdee620edd1" y="97.648495"/>
     <use style="fill:#9467bd;stroke:#9467bd;" x="249.208857" xlink:href="#mdee620edd1" y="91.878871"/>
     <use style="fill:#9467bd;stroke:#9467bd;" x="255.620521" xlink:href="#mdee620edd1" y="90.989517"/>
    </g>
   </g>
   <g id="line2d_17">
    <path clip-path="url(#p8d05704072)" d="M 52.8082 78.347614 
L 58.449846 70.271846 
L 65.387996 68.32409 
L 71.877892 93.670822 
L 78.481513 45.272642 
L 85.0435 92.655808 
L 91.665198 90.180915 
L 98.122601 125.208121 
L 104.610279 140.199939 
L 111.222311 137.369913 
L 117.71621 138.59946 
L 124.395651 100.353019 
L 130.908182 92.983574 
L 137.522233 107.36349 
L 144.217882 112.306673 
L 150.645729 90.401823 
L 157.316699 89.977716 
L 163.967974 85.246481 
L 170.564758 107.307663 
L 177.038969 101.427947 
L 183.725129 114.979615 
L 190.289474 107.691602 
L 196.84479 116.892854 
L 203.286324 109.513863 
L 209.800569 109.904185 
L 216.530626 106.537352 
L 223.027995 110.675278 
L 229.570055 94.007887 
L 236.220392 89.864071 
L 242.687706 102.173343 
L 249.192492 98.921097 
L 255.674858 95.620718 
" style="fill:none;stroke:#8c564b;stroke-linecap:square;stroke-width:0.8;"/>
    <defs>
     <path d="M -3 0 
L 3 0 
M 0 3 
L 0 -3 
" id="mfc9ca1bab5" style="stroke:#8c564b;"/>
    </defs>
    <g clip-path="url(#p8d05704072)">
     <use style="fill:#8c564b;stroke:#8c564b;" x="52.8082" xlink:href="#mfc9ca1bab5" y="78.347614"/>
     <use style="fill:#8c564b;stroke:#8c564b;" x="58.449846" xlink:href="#mfc9ca1bab5" y="70.271846"/>
     <use style="fill:#8c564b;stroke:#8c564b;" x="65.387996" xlink:href="#mfc9ca1bab5" y="68.32409"/>
     <use style="fill:#8c564b;stroke:#8c564b;" x="71.877892" xlink:href="#mfc9ca1bab5" y="93.670822"/>
     <use style="fill:#8c564b;stroke:#8c564b;" x="78.481513" xlink:href="#mfc9ca1bab5" y="45.272642"/>
     <use style="fill:#8c564b;stroke:#8c564b;" x="85.0435" xlink:href="#mfc9ca1bab5" y="92.655808"/>
     <use style="fill:#8c564b;stroke:#8c564b;" x="91.665198" xlink:href="#mfc9ca1bab5" y="90.180915"/>
     <use style="fill:#8c564b;stroke:#8c564b;" x="98.122601" xlink:href="#mfc9ca1bab5" y="125.208121"/>
     <use style="fill:#8c564b;stroke:#8c564b;" x="104.610279" xlink:href="#mfc9ca1bab5" y="140.199939"/>
     <use style="fill:#8c564b;stroke:#8c564b;" x="111.222311" xlink:href="#mfc9ca1bab5" y="137.369913"/>
     <use style="fill:#8c564b;stroke:#8c564b;" x="117.71621" xlink:href="#mfc9ca1bab5" y="138.59946"/>
     <use style="fill:#8c564b;stroke:#8c564b;" x="124.395651" xlink:href="#mfc9ca1bab5" y="100.353019"/>
     <use style="fill:#8c564b;stroke:#8c564b;" x="130.908182" xlink:href="#mfc9ca1bab5" y="92.983574"/>
     <use style="fill:#8c564b;stroke:#8c564b;" x="137.522233" xlink:href="#mfc9ca1bab5" y="107.36349"/>
     <use style="fill:#8c564b;stroke:#8c564b;" x="144.217882" xlink:href="#mfc9ca1bab5" y="112.306673"/>
     <use style="fill:#8c564b;stroke:#8c564b;" x="150.645729" xlink:href="#mfc9ca1bab5" y="90.401823"/>
     <use style="fill:#8c564b;stroke:#8c564b;" x="157.316699" xlink:href="#mfc9ca1bab5" y="89.977716"/>
     <use style="fill:#8c564b;stroke:#8c564b;" x="163.967974" xlink:href="#mfc9ca1bab5" y="85.246481"/>
     <use style="fill:#8c564b;stroke:#8c564b;" x="170.564758" xlink:href="#mfc9ca1bab5" y="107.307663"/>
     <use style="fill:#8c564b;stroke:#8c564b;" x="177.038969" xlink:href="#mfc9ca1bab5" y="101.427947"/>
     <use style="fill:#8c564b;stroke:#8c564b;" x="183.725129" xlink:href="#mfc9ca1bab5" y="114.979615"/>
     <use style="fill:#8c564b;stroke:#8c564b;" x="190.289474" xlink:href="#mfc9ca1bab5" y="107.691602"/>
     <use style="fill:#8c564b;stroke:#8c564b;" x="196.84479" xlink:href="#mfc9ca1bab5" y="116.892854"/>
     <use style="fill:#8c564b;stroke:#8c564b;" x="203.286324" xlink:href="#mfc9ca1bab5" y="109.513863"/>
     <use style="fill:#8c564b;stroke:#8c564b;" x="209.800569" xlink:href="#mfc9ca1bab5" y="109.904185"/>
     <use style="fill:#8c564b;stroke:#8c564b;" x="216.530626" xlink:href="#mfc9ca1bab5" y="106.537352"/>
     <use style="fill:#8c564b;stroke:#8c564b;" x="223.027995" xlink:href="#mfc9ca1bab5" y="110.675278"/>
     <use style="fill:#8c564b;stroke:#8c564b;" x="229.570055" xlink:href="#mfc9ca1bab5" y="94.007887"/>
     <use style="fill:#8c564b;stroke:#8c564b;" x="236.220392" xlink:href="#mfc9ca1bab5" y="89.864071"/>
     <use style="fill:#8c564b;stroke:#8c564b;" x="242.687706" xlink:href="#mfc9ca1bab5" y="102.173343"/>
     <use style="fill:#8c564b;stroke:#8c564b;" x="249.192492" xlink:href="#mfc9ca1bab5" y="98.921097"/>
     <use style="fill:#8c564b;stroke:#8c564b;" x="255.674858" xlink:href="#mfc9ca1bab5" y="95.620718"/>
    </g>
   </g>
   <g id="line2d_18">
    <path clip-path="url(#p8d05704072)" d="M 52.8082 71.46084 
L 58.449846 48.530293 
L 65.387996 42.812803 
L 71.877892 87.994013 
L 78.481513 42.259348 
L 85.0435 89.238294 
L 91.665198 80.622479 
L 98.122601 107.230959 
L 104.610279 136.6666 
L 111.222311 125.215951 
L 117.71621 132.449582 
L 124.395651 112.417332 
L 130.908182 83.420766 
L 137.522233 105.063671 
L 144.217882 126.730138 
L 150.645729 90.863138 
L 157.316699 94.034369 
L 163.967974 86.344446 
L 170.564758 116.926459 
L 177.038969 106.637184 
L 183.725129 124.363692 
L 190.289474 103.336529 
L 196.84479 120.824062 
L 203.286324 113.675261 
L 209.800569 109.088003 
L 216.530626 103.147084 
L 223.027995 107.64643 
L 229.570055 91.28994 
L 236.220392 86.327178 
L 242.687706 96.136903 
L 249.192492 90.7725 
L 255.674858 87.279955 
" style="fill:none;stroke:#e377c2;stroke-linecap:square;stroke-width:0.8;"/>
    <defs>
     <path d="M -3 0 
L 3 0 
M 0 3 
L 0 -3 
" id="m6354967c1e" style="stroke:#e377c2;"/>
    </defs>
    <g clip-path="url(#p8d05704072)">
     <use style="fill:#e377c2;stroke:#e377c2;" x="52.8082" xlink:href="#m6354967c1e" y="71.46084"/>
     <use style="fill:#e377c2;stroke:#e377c2;" x="58.449846" xlink:href="#m6354967c1e" y="48.530293"/>
     <use style="fill:#e377c2;stroke:#e377c2;" x="65.387996" xlink:href="#m6354967c1e" y="42.812803"/>
     <use style="fill:#e377c2;stroke:#e377c2;" x="71.877892" xlink:href="#m6354967c1e" y="87.994013"/>
     <use style="fill:#e377c2;stroke:#e377c2;" x="78.481513" xlink:href="#m6354967c1e" y="42.259348"/>
     <use style="fill:#e377c2;stroke:#e377c2;" x="85.0435" xlink:href="#m6354967c1e" y="89.238294"/>
     <use style="fill:#e377c2;stroke:#e377c2;" x="91.665198" xlink:href="#m6354967c1e" y="80.622479"/>
     <use style="fill:#e377c2;stroke:#e377c2;" x="98.122601" xlink:href="#m6354967c1e" y="107.230959"/>
     <use style="fill:#e377c2;stroke:#e377c2;" x="104.610279" xlink:href="#m6354967c1e" y="136.6666"/>
     <use style="fill:#e377c2;stroke:#e377c2;" x="111.222311" xlink:href="#m6354967c1e" y="125.215951"/>
     <use style="fill:#e377c2;stroke:#e377c2;" x="117.71621" xlink:href="#m6354967c1e" y="132.449582"/>
     <use style="fill:#e377c2;stroke:#e377c2;" x="124.395651" xlink:href="#m6354967c1e" y="112.417332"/>
     <use style="fill:#e377c2;stroke:#e377c2;" x="130.908182" xlink:href="#m6354967c1e" y="83.420766"/>
     <use style="fill:#e377c2;stroke:#e377c2;" x="137.522233" xlink:href="#m6354967c1e" y="105.063671"/>
     <use style="fill:#e377c2;stroke:#e377c2;" x="144.217882" xlink:href="#m6354967c1e" y="126.730138"/>
     <use style="fill:#e377c2;stroke:#e377c2;" x="150.645729" xlink:href="#m6354967c1e" y="90.863138"/>
     <use style="fill:#e377c2;stroke:#e377c2;" x="157.316699" xlink:href="#m6354967c1e" y="94.034369"/>
     <use style="fill:#e377c2;stroke:#e377c2;" x="163.967974" xlink:href="#m6354967c1e" y="86.344446"/>
     <use style="fill:#e377c2;stroke:#e377c2;" x="170.564758" xlink:href="#m6354967c1e" y="116.926459"/>
     <use style="fill:#e377c2;stroke:#e377c2;" x="177.038969" xlink:href="#m6354967c1e" y="106.637184"/>
     <use style="fill:#e377c2;stroke:#e377c2;" x="183.725129" xlink:href="#m6354967c1e" y="124.363692"/>
     <use style="fill:#e377c2;stroke:#e377c2;" x="190.289474" xlink:href="#m6354967c1e" y="103.336529"/>
     <use style="fill:#e377c2;stroke:#e377c2;" x="196.84479" xlink:href="#m6354967c1e" y="120.824062"/>
     <use style="fill:#e377c2;stroke:#e377c2;" x="203.286324" xlink:href="#m6354967c1e" y="113.675261"/>
     <use style="fill:#e377c2;stroke:#e377c2;" x="209.800569" xlink:href="#m6354967c1e" y="109.088003"/>
     <use style="fill:#e377c2;stroke:#e377c2;" x="216.530626" xlink:href="#m6354967c1e" y="103.147084"/>
     <use style="fill:#e377c2;stroke:#e377c2;" x="223.027995" xlink:href="#m6354967c1e" y="107.64643"/>
     <use style="fill:#e377c2;stroke:#e377c2;" x="229.570055" xlink:href="#m6354967c1e" y="91.28994"/>
     <use style="fill:#e377c2;stroke:#e377c2;" x="236.220392" xlink:href="#m6354967c1e" y="86.327178"/>
     <use style="fill:#e377c2;stroke:#e377c2;" x="242.687706" xlink:href="#m6354967c1e" y="96.136903"/>
     <use style="fill:#e377c2;stroke:#e377c2;" x="249.192492" xlink:href="#m6354967c1e" y="90.7725"/>
     <use style="fill:#e377c2;stroke:#e377c2;" x="255.674858" xlink:href="#m6354967c1e" y="87.279955"/>
    </g>
   </g>
   <g id="patch_3">
    <path d="M 42.620313 226.0155 
L 42.620313 35.7555 
" style="fill:none;stroke:#000000;stroke-linecap:square;stroke-linejoin:miter;stroke-width:0.8;"/>
   </g>
   <g id="patch_4">
    <path d="M 265.820312 226.0155 
L 265.820312 35.7555 
" style="fill:none;stroke:#000000;stroke-linecap:square;stroke-linejoin:miter;stroke-width:0.8;"/>
   </g>
   <g id="patch_5">
    <path d="M 42.620313 226.0155 
L 265.820312 226.0155 
" style="fill:none;stroke:#000000;stroke-linecap:square;stroke-linejoin:miter;stroke-width:0.8;"/>
   </g>
   <g id="patch_6">
    <path d="M 42.620313 35.7555 
L 265.820312 35.7555 
" style="fill:none;stroke:#000000;stroke-linecap:square;stroke-linejoin:miter;stroke-width:0.8;"/>
   </g>
   <g id="text_14">
    <!-- Mean Drift vs. Init. Conductance -->
    <g transform="translate(57.653125 16.318125)scale(0.12 -0.12)">
     <defs>
      <path d="M 2.984375 54.6875 
L 12.5 54.6875 
L 29.59375 8.796875 
L 46.6875 54.6875 
L 56.203125 54.6875 
L 35.6875 0 
L 23.484375 0 
z
" id="DejaVuSans-118"/>
      <path d="M 44.28125 53.078125 
L 44.28125 44.578125 
Q 40.484375 46.53125 36.375 47.5 
Q 32.28125 48.484375 27.875 48.484375 
Q 21.1875 48.484375 17.84375 46.4375 
Q 14.5 44.390625 14.5 40.28125 
Q 14.5 37.15625 16.890625 35.375 
Q 19.28125 33.59375 26.515625 31.984375 
L 29.59375 31.296875 
Q 39.15625 29.25 43.1875 25.515625 
Q 47.21875 21.78125 47.21875 15.09375 
Q 47.21875 7.46875 41.1875 3.015625 
Q 35.15625 -1.421875 24.609375 -1.421875 
Q 20.21875 -1.421875 15.453125 -0.5625 
Q 10.6875 0.296875 5.421875 2 
L 5.421875 11.28125 
Q 10.40625 8.6875 15.234375 7.390625 
Q 20.0625 6.109375 24.8125 6.109375 
Q 31.15625 6.109375 34.5625 8.28125 
Q 37.984375 10.453125 37.984375 14.40625 
Q 37.984375 18.0625 35.515625 20.015625 
Q 33.0625 21.96875 24.703125 23.78125 
L 21.578125 24.515625 
Q 13.234375 26.265625 9.515625 29.90625 
Q 5.8125 33.546875 5.8125 39.890625 
Q 5.8125 47.609375 11.28125 51.796875 
Q 16.75 56 26.8125 56 
Q 31.78125 56 36.171875 55.265625 
Q 40.578125 54.546875 44.28125 53.078125 
z
" id="DejaVuSans-115"/>
      <path d="M 10.6875 12.40625 
L 21 12.40625 
L 21 0 
L 10.6875 0 
z
" id="DejaVuSans-46"/>
     </defs>
     <use xlink:href="#DejaVuSans-77"/>
     <use x="86.279297" xlink:href="#DejaVuSans-101"/>
     <use x="147.802734" xlink:href="#DejaVuSans-97"/>
     <use x="209.082031" xlink:href="#DejaVuSans-110"/>
     <use x="272.460938" xlink:href="#DejaVuSans-32"/>
     <use x="304.248047" xlink:href="#DejaVuSans-68"/>
     <use x="381.25" xlink:href="#DejaVuSans-114"/>
     <use x="422.363281" xlink:href="#DejaVuSans-105"/>
     <use x="450.146484" xlink:href="#DejaVuSans-102"/>
     <use x="483.601562" xlink:href="#DejaVuSans-116"/>
     <use x="522.810547" xlink:href="#DejaVuSans-32"/>
     <use x="554.597656" xlink:href="#DejaVuSans-118"/>
     <use x="613.777344" xlink:href="#DejaVuSans-115"/>
     <use x="665.876953" xlink:href="#DejaVuSans-46"/>
     <use x="697.664062" xlink:href="#DejaVuSans-32"/>
     <use x="729.451172" xlink:href="#DejaVuSans-73"/>
     <use x="758.943359" xlink:href="#DejaVuSans-110"/>
     <use x="822.322266" xlink:href="#DejaVuSans-105"/>
     <use x="850.105469" xlink:href="#DejaVuSans-116"/>
     <use x="889.314453" xlink:href="#DejaVuSans-46"/>
     <use x="921.101562" xlink:href="#DejaVuSans-32"/>
     <use x="952.888672" xlink:href="#DejaVuSans-67"/>
     <use x="1022.712891" xlink:href="#DejaVuSans-111"/>
     <use x="1083.894531" xlink:href="#DejaVuSans-110"/>
     <use x="1147.273438" xlink:href="#DejaVuSans-100"/>
     <use x="1210.75" xlink:href="#DejaVuSans-117"/>
     <use x="1274.128906" xlink:href="#DejaVuSans-99"/>
     <use x="1329.109375" xlink:href="#DejaVuSans-116"/>
     <use x="1368.318359" xlink:href="#DejaVuSans-97"/>
     <use x="1429.597656" xlink:href="#DejaVuSans-110"/>
     <use x="1492.976562" xlink:href="#DejaVuSans-99"/>
     <use x="1547.957031" xlink:href="#DejaVuSans-101"/>
    </g>
    <!-- (Tech A, Room Temp) -->
    <g transform="translate(91.2925 29.7555)scale(0.12 -0.12)">
     <defs>
      <path d="M -0.296875 72.90625 
L 61.375 72.90625 
L 61.375 64.59375 
L 35.5 64.59375 
L 35.5 0 
L 25.59375 0 
L 25.59375 64.59375 
L -0.296875 64.59375 
z
" id="DejaVuSans-84"/>
      <path d="M 54.890625 33.015625 
L 54.890625 0 
L 45.90625 0 
L 45.90625 32.71875 
Q 45.90625 40.484375 42.875 44.328125 
Q 39.84375 48.1875 33.796875 48.1875 
Q 26.515625 48.1875 22.3125 43.546875 
Q 18.109375 38.921875 18.109375 30.90625 
L 18.109375 0 
L 9.078125 0 
L 9.078125 75.984375 
L 18.109375 75.984375 
L 18.109375 46.1875 
Q 21.34375 51.125 25.703125 53.5625 
Q 30.078125 56 35.796875 56 
Q 45.21875 56 50.046875 50.171875 
Q 54.890625 44.34375 54.890625 33.015625 
z
" id="DejaVuSans-104"/>
      <path d="M 34.1875 63.1875 
L 20.796875 26.90625 
L 47.609375 26.90625 
z
M 28.609375 72.90625 
L 39.796875 72.90625 
L 67.578125 0 
L 57.328125 0 
L 50.6875 18.703125 
L 17.828125 18.703125 
L 11.1875 0 
L 0.78125 0 
z
" id="DejaVuSans-65"/>
      <path d="M 11.71875 12.40625 
L 22.015625 12.40625 
L 22.015625 4 
L 14.015625 -11.625 
L 7.71875 -11.625 
L 11.71875 4 
z
" id="DejaVuSans-44"/>
      <path d="M 44.390625 34.1875 
Q 47.5625 33.109375 50.5625 29.59375 
Q 53.5625 26.078125 56.59375 19.921875 
L 66.609375 0 
L 56 0 
L 46.6875 18.703125 
Q 43.0625 26.03125 39.671875 28.421875 
Q 36.28125 30.8125 30.421875 30.8125 
L 19.671875 30.8125 
L 19.671875 0 
L 9.8125 0 
L 9.8125 72.90625 
L 32.078125 72.90625 
Q 44.578125 72.90625 50.734375 67.671875 
Q 56.890625 62.453125 56.890625 51.90625 
Q 56.890625 45.015625 53.6875 40.46875 
Q 50.484375 35.9375 44.390625 34.1875 
z
M 19.671875 64.796875 
L 19.671875 38.921875 
L 32.078125 38.921875 
Q 39.203125 38.921875 42.84375 42.21875 
Q 46.484375 45.515625 46.484375 51.90625 
Q 46.484375 58.296875 42.84375 61.546875 
Q 39.203125 64.796875 32.078125 64.796875 
z
" id="DejaVuSans-82"/>
      <path d="M 52 44.1875 
Q 55.375 50.25 60.0625 53.125 
Q 64.75 56 71.09375 56 
Q 79.640625 56 84.28125 50.015625 
Q 88.921875 44.046875 88.921875 33.015625 
L 88.921875 0 
L 79.890625 0 
L 79.890625 32.71875 
Q 79.890625 40.578125 77.09375 44.375 
Q 74.3125 48.1875 68.609375 48.1875 
Q 61.625 48.1875 57.5625 43.546875 
Q 53.515625 38.921875 53.515625 30.90625 
L 53.515625 0 
L 44.484375 0 
L 44.484375 32.71875 
Q 44.484375 40.625 41.703125 44.40625 
Q 38.921875 48.1875 33.109375 48.1875 
Q 26.21875 48.1875 22.15625 43.53125 
Q 18.109375 38.875 18.109375 30.90625 
L 18.109375 0 
L 9.078125 0 
L 9.078125 54.6875 
L 18.109375 54.6875 
L 18.109375 46.1875 
Q 21.1875 51.21875 25.484375 53.609375 
Q 29.78125 56 35.6875 56 
Q 41.65625 56 45.828125 52.96875 
Q 50 49.953125 52 44.1875 
z
" id="DejaVuSans-109"/>
      <path d="M 18.109375 8.203125 
L 18.109375 -20.796875 
L 9.078125 -20.796875 
L 9.078125 54.6875 
L 18.109375 54.6875 
L 18.109375 46.390625 
Q 20.953125 51.265625 25.265625 53.625 
Q 29.59375 56 35.59375 56 
Q 45.5625 56 51.78125 48.09375 
Q 58.015625 40.1875 58.015625 27.296875 
Q 58.015625 14.40625 51.78125 6.484375 
Q 45.5625 -1.421875 35.59375 -1.421875 
Q 29.59375 -1.421875 25.265625 0.953125 
Q 20.953125 3.328125 18.109375 8.203125 
z
M 48.6875 27.296875 
Q 48.6875 37.203125 44.609375 42.84375 
Q 40.53125 48.484375 33.40625 48.484375 
Q 26.265625 48.484375 22.1875 42.84375 
Q 18.109375 37.203125 18.109375 27.296875 
Q 18.109375 17.390625 22.1875 11.75 
Q 26.265625 6.109375 33.40625 6.109375 
Q 40.53125 6.109375 44.609375 11.75 
Q 48.6875 17.390625 48.6875 27.296875 
z
" id="DejaVuSans-112"/>
     </defs>
     <use xlink:href="#DejaVuSans-40"/>
     <use x="39.013672" xlink:href="#DejaVuSans-84"/>
     <use x="83.097656" xlink:href="#DejaVuSans-101"/>
     <use x="144.621094" xlink:href="#DejaVuSans-99"/>
     <use x="199.601562" xlink:href="#DejaVuSans-104"/>
     <use x="262.980469" xlink:href="#DejaVuSans-32"/>
     <use x="294.767578" xlink:href="#DejaVuSans-65"/>
     <use x="363.175781" xlink:href="#DejaVuSans-44"/>
     <use x="394.962891" xlink:href="#DejaVuSans-32"/>
     <use x="426.75" xlink:href="#DejaVuSans-82"/>
     <use x="491.732422" xlink:href="#DejaVuSans-111"/>
     <use x="552.914062" xlink:href="#DejaVuSans-111"/>
     <use x="614.095703" xlink:href="#DejaVuSans-109"/>
     <use x="711.507812" xlink:href="#DejaVuSans-32"/>
     <use x="743.294922" xlink:href="#DejaVuSans-84"/>
     <use x="787.378906" xlink:href="#DejaVuSans-101"/>
     <use x="848.902344" xlink:href="#DejaVuSans-109"/>
     <use x="946.314453" xlink:href="#DejaVuSans-112"/>
     <use x="1009.791016" xlink:href="#DejaVuSans-41"/>
    </g>
   </g>
   <g id="legend_1">
    <g id="patch_7">
     <path d="M 49.620313 221.0155 
L 256.873438 221.0155 
Q 258.873438 221.0155 258.873438 219.0155 
L 258.873438 175.981125 
Q 258.873438 173.981125 256.873438 173.981125 
L 49.620313 173.981125 
Q 47.620313 173.981125 47.620313 175.981125 
L 47.620313 219.0155 
Q 47.620313 221.0155 49.620313 221.0155 
z
" style="fill:#ffffff;opacity:0.8;stroke:#cccccc;stroke-linejoin:miter;"/>
    </g>
    <g id="line2d_19">
     <path d="M 51.620313 182.079562 
L 71.620313 182.079562 
" style="fill:none;stroke:#1f77b4;stroke-linecap:square;stroke-width:0.8;"/>
    </g>
    <g id="line2d_20">
     <g>
      <use style="fill:#1f77b4;stroke:#1f77b4;" x="61.620313" xlink:href="#m743411eeef" y="182.079562"/>
     </g>
    </g>
    <g id="text_15">
     <!-- t=0 -->
     <g transform="translate(73.620313 185.579562)scale(0.1 -0.1)">
      <defs>
       <path d="M 10.59375 45.40625 
L 73.1875 45.40625 
L 73.1875 37.203125 
L 10.59375 37.203125 
z
M 10.59375 25.484375 
L 73.1875 25.484375 
L 73.1875 17.1875 
L 10.59375 17.1875 
z
" id="DejaVuSans-61"/>
      </defs>
      <use xlink:href="#DejaVuSans-116"/>
      <use x="39.208984" xlink:href="#DejaVuSans-61"/>
      <use x="122.998047" xlink:href="#DejaVuSans-48"/>
     </g>
    </g>
    <g id="line2d_21">
     <path d="M 51.620313 196.757687 
L 71.620313 196.757687 
" style="fill:none;stroke:#ff7f0e;stroke-linecap:square;stroke-width:0.8;"/>
    </g>
    <g id="line2d_22">
     <g>
      <use style="fill:#ff7f0e;stroke:#ff7f0e;" x="61.620313" xlink:href="#m407b970727" y="196.757687"/>
     </g>
    </g>
    <g id="text_16">
     <!-- t=0.01 -->
     <g transform="translate(73.620313 200.257687)scale(0.1 -0.1)">
      <use xlink:href="#DejaVuSans-116"/>
      <use x="39.208984" xlink:href="#DejaVuSans-61"/>
      <use x="122.998047" xlink:href="#DejaVuSans-48"/>
      <use x="186.621094" xlink:href="#DejaVuSans-46"/>
      <use x="218.408203" xlink:href="#DejaVuSans-48"/>
      <use x="282.03125" xlink:href="#DejaVuSans-49"/>
     </g>
    </g>
    <g id="line2d_23">
     <path d="M 51.620313 211.435812 
L 71.620313 211.435812 
" style="fill:none;stroke:#2ca02c;stroke-linecap:square;stroke-width:0.8;"/>
    </g>
    <g id="line2d_24">
     <g>
      <use style="fill:#2ca02c;stroke:#2ca02c;" x="61.620313" xlink:href="#m04fd9313db" y="211.435812"/>
     </g>
    </g>
    <g id="text_17">
     <!-- t=0.1 -->
     <g transform="translate(73.620313 214.935812)scale(0.1 -0.1)">
      <use xlink:href="#DejaVuSans-116"/>
      <use x="39.208984" xlink:href="#DejaVuSans-61"/>
      <use x="122.998047" xlink:href="#DejaVuSans-48"/>
      <use x="186.621094" xlink:href="#DejaVuSans-46"/>
      <use x="218.408203" xlink:href="#DejaVuSans-49"/>
     </g>
    </g>
    <g id="line2d_25">
     <path d="M 128.185938 182.079562 
L 148.185938 182.079562 
" style="fill:none;stroke:#d62728;stroke-linecap:square;stroke-width:0.8;"/>
    </g>
    <g id="line2d_26">
     <g>
      <use style="fill:#d62728;stroke:#d62728;" x="138.185938" xlink:href="#mb836f90adb" y="182.079562"/>
     </g>
    </g>
    <g id="text_18">
     <!-- t=1 -->
     <g transform="translate(150.185938 185.579562)scale(0.1 -0.1)">
      <use xlink:href="#DejaVuSans-116"/>
      <use x="39.208984" xlink:href="#DejaVuSans-61"/>
      <use x="122.998047" xlink:href="#DejaVuSans-49"/>
     </g>
    </g>
    <g id="line2d_27">
     <path d="M 128.185938 196.757687 
L 148.185938 196.757687 
" style="fill:none;stroke:#9467bd;stroke-linecap:square;stroke-width:0.8;"/>
    </g>
    <g id="line2d_28">
     <g>
      <use style="fill:#9467bd;stroke:#9467bd;" x="138.185938" xlink:href="#mdee620edd1" y="196.757687"/>
     </g>
    </g>
    <g id="text_19">
     <!-- t=1E2 -->
     <g transform="translate(150.185938 200.257687)scale(0.1 -0.1)">
      <defs>
       <path d="M 9.8125 72.90625 
L 55.90625 72.90625 
L 55.90625 64.59375 
L 19.671875 64.59375 
L 19.671875 43.015625 
L 54.390625 43.015625 
L 54.390625 34.71875 
L 19.671875 34.71875 
L 19.671875 8.296875 
L 56.78125 8.296875 
L 56.78125 0 
L 9.8125 0 
z
" id="DejaVuSans-69"/>
      </defs>
      <use xlink:href="#DejaVuSans-116"/>
      <use x="39.208984" xlink:href="#DejaVuSans-61"/>
      <use x="122.998047" xlink:href="#DejaVuSans-49"/>
      <use x="186.621094" xlink:href="#DejaVuSans-69"/>
      <use x="249.804688" xlink:href="#DejaVuSans-50"/>
     </g>
    </g>
    <g id="line2d_29">
     <path d="M 201.529688 182.079562 
L 221.529688 182.079562 
" style="fill:none;stroke:#8c564b;stroke-linecap:square;stroke-width:0.8;"/>
    </g>
    <g id="line2d_30">
     <g>
      <use style="fill:#8c564b;stroke:#8c564b;" x="211.529688" xlink:href="#mfc9ca1bab5" y="182.079562"/>
     </g>
    </g>
    <g id="text_20">
     <!-- t=1E3 -->
     <g transform="translate(223.529688 185.579562)scale(0.1 -0.1)">
      <use xlink:href="#DejaVuSans-116"/>
      <use x="39.208984" xlink:href="#DejaVuSans-61"/>
      <use x="122.998047" xlink:href="#DejaVuSans-49"/>
      <use x="186.621094" xlink:href="#DejaVuSans-69"/>
      <use x="249.804688" xlink:href="#DejaVuSans-51"/>
     </g>
    </g>
    <g id="line2d_31">
     <path d="M 201.529688 196.757687 
L 221.529688 196.757687 
" style="fill:none;stroke:#e377c2;stroke-linecap:square;stroke-width:0.8;"/>
    </g>
    <g id="line2d_32">
     <g>
      <use style="fill:#e377c2;stroke:#e377c2;" x="211.529688" xlink:href="#m6354967c1e" y="196.757687"/>
     </g>
    </g>
    <g id="text_21">
     <!-- t=1E4 -->
     <g transform="translate(223.529688 200.257687)scale(0.1 -0.1)">
      <defs>
       <path d="M 37.796875 64.3125 
L 12.890625 25.390625 
L 37.796875 25.390625 
z
M 35.203125 72.90625 
L 47.609375 72.90625 
L 47.609375 25.390625 
L 58.015625 25.390625 
L 58.015625 17.1875 
L 47.609375 17.1875 
L 47.609375 0 
L 37.796875 0 
L 37.796875 17.1875 
L 4.890625 17.1875 
L 4.890625 26.703125 
z
" id="DejaVuSans-52"/>
      </defs>
      <use xlink:href="#DejaVuSans-116"/>
      <use x="39.208984" xlink:href="#DejaVuSans-61"/>
      <use x="122.998047" xlink:href="#DejaVuSans-49"/>
      <use x="186.621094" xlink:href="#DejaVuSans-69"/>
      <use x="249.804688" xlink:href="#DejaVuSans-52"/>
     </g>
    </g>
   </g>
  </g>
 </g>
 <defs>
  <clipPath id="p8d05704072">
   <rect height="190.26" width="223.2" x="42.620313" y="35.7555"/>
  </clipPath>
 </defs>
</svg>
