<?xml version="1.0" encoding="utf-8" standalone="no"?>
<!DOCTYPE svg PUBLIC "-//W3C//DTD SVG 1.1//EN"
  "http://www.w3.org/Graphics/SVG/1.1/DTD/svg11.dtd">
<!-- Created with matplotlib (https://matplotlib.org/) -->
<svg height="209.21175pt" version="1.1" viewBox="0 0 278.8875 209.21175" width="278.8875pt" xmlns="http://www.w3.org/2000/svg" xmlns:xlink="http://www.w3.org/1999/xlink">
 <metadata>
  <rdf:RDF xmlns:cc="http://creativecommons.org/ns#" xmlns:dc="http://purl.org/dc/elements/1.1/" xmlns:rdf="http://www.w3.org/1999/02/22-rdf-syntax-ns#">
   <cc:Work>
    <dc:type rdf:resource="http://purl.org/dc/dcmitype/StillImage"/>
    <dc:date>2021-07-22T18:07:32.562060</dc:date>
    <dc:format>image/svg+xml</dc:format>
    <dc:creator>
     <cc:Agent>
      <dc:title>Matplotlib v3.3.3, https://matplotlib.org/</dc:title>
     </cc:Agent>
    </dc:creator>
   </cc:Work>
  </rdf:RDF>
 </metadata>
 <defs>
  <style type="text/css">*{stroke-linecap:butt;stroke-linejoin:round;}</style>
 </defs>
 <g id="figure_1">
  <g id="patch_1">
   <path d="M 0 209.21175 
L 278.8875 209.21175 
L 278.8875 -0 
L 0 -0 
z
" style="fill:none;"/>
  </g>
  <g id="axes_1">
   <g id="patch_2">
    <path d="M 48.4875 171.6555 
L 271.6875 171.6555 
L 271.6875 35.7555 
L 48.4875 35.7555 
z
" style="fill:#ffffff;"/>
   </g>
   <g id="matplotlib.axis_1">
    <g id="xtick_1">
     <g id="line2d_1">
      <defs>
       <path d="M 0 0 
L 0 3.5 
" id="mf3709369d5" style="stroke:#000000;stroke-width:0.8;"/>
      </defs>
      <g>
       <use style="stroke:#000000;stroke-width:0.8;" x="54.842494" xlink:href="#mf3709369d5" y="171.6555"/>
      </g>
     </g>
     <g id="text_1">
      <!-- 0 -->
      <g transform="translate(51.661244 186.253937)scale(0.1 -0.1)">
       <defs>
        <path d="M 31.78125 66.40625 
Q 24.171875 66.40625 20.328125 58.90625 
Q 16.5 51.421875 16.5 36.375 
Q 16.5 21.390625 20.328125 13.890625 
Q 24.171875 6.390625 31.78125 6.390625 
Q 39.453125 6.390625 43.28125 13.890625 
Q 47.125 21.390625 47.125 36.375 
Q 47.125 51.421875 43.28125 58.90625 
Q 39.453125 66.40625 31.78125 66.40625 
z
M 31.78125 74.21875 
Q 44.046875 74.21875 50.515625 64.515625 
Q 56.984375 54.828125 56.984375 36.375 
Q 56.984375 17.96875 50.515625 8.265625 
Q 44.046875 -1.421875 31.78125 -1.421875 
Q 19.53125 -1.421875 13.0625 8.265625 
Q 6.59375 17.96875 6.59375 36.375 
Q 6.59375 54.828125 13.0625 64.515625 
Q 19.53125 74.21875 31.78125 74.21875 
z
" id="DejaVuSans-48"/>
       </defs>
       <use xlink:href="#DejaVuSans-48"/>
      </g>
     </g>
    </g>
    <g id="xtick_2">
     <g id="line2d_2">
      <g>
       <use style="stroke:#000000;stroke-width:0.8;" x="98.63303" xlink:href="#mf3709369d5" y="171.6555"/>
      </g>
     </g>
     <g id="text_2">
      <!-- 50 -->
      <g transform="translate(92.27053 186.253937)scale(0.1 -0.1)">
       <defs>
        <path d="M 10.796875 72.90625 
L 49.515625 72.90625 
L 49.515625 64.59375 
L 19.828125 64.59375 
L 19.828125 46.734375 
Q 21.96875 47.46875 24.109375 47.828125 
Q 26.265625 48.1875 28.421875 48.1875 
Q 40.625 48.1875 47.75 41.5 
Q 54.890625 34.8125 54.890625 23.390625 
Q 54.890625 11.625 47.5625 5.09375 
Q 40.234375 -1.421875 26.90625 -1.421875 
Q 22.3125 -1.421875 17.546875 -0.640625 
Q 12.796875 0.140625 7.71875 1.703125 
L 7.71875 11.625 
Q 12.109375 9.234375 16.796875 8.0625 
Q 21.484375 6.890625 26.703125 6.890625 
Q 35.15625 6.890625 40.078125 11.328125 
Q 45.015625 15.765625 45.015625 23.390625 
Q 45.015625 31 40.078125 35.4375 
Q 35.15625 39.890625 26.703125 39.890625 
Q 22.75 39.890625 18.8125 39.015625 
Q 14.890625 38.140625 10.796875 36.28125 
z
" id="DejaVuSans-53"/>
       </defs>
       <use xlink:href="#DejaVuSans-53"/>
       <use x="63.623047" xlink:href="#DejaVuSans-48"/>
      </g>
     </g>
    </g>
    <g id="xtick_3">
     <g id="line2d_3">
      <g>
       <use style="stroke:#000000;stroke-width:0.8;" x="142.423566" xlink:href="#mf3709369d5" y="171.6555"/>
      </g>
     </g>
     <g id="text_3">
      <!-- 100 -->
      <g transform="translate(132.879816 186.253937)scale(0.1 -0.1)">
       <defs>
        <path d="M 12.40625 8.296875 
L 28.515625 8.296875 
L 28.515625 63.921875 
L 10.984375 60.40625 
L 10.984375 69.390625 
L 28.421875 72.90625 
L 38.28125 72.90625 
L 38.28125 8.296875 
L 54.390625 8.296875 
L 54.390625 0 
L 12.40625 0 
z
" id="DejaVuSans-49"/>
       </defs>
       <use xlink:href="#DejaVuSans-49"/>
       <use x="63.623047" xlink:href="#DejaVuSans-48"/>
       <use x="127.246094" xlink:href="#DejaVuSans-48"/>
      </g>
     </g>
    </g>
    <g id="xtick_4">
     <g id="line2d_4">
      <g>
       <use style="stroke:#000000;stroke-width:0.8;" x="186.214101" xlink:href="#mf3709369d5" y="171.6555"/>
      </g>
     </g>
     <g id="text_4">
      <!-- 150 -->
      <g transform="translate(176.670351 186.253937)scale(0.1 -0.1)">
       <use xlink:href="#DejaVuSans-49"/>
       <use x="63.623047" xlink:href="#DejaVuSans-53"/>
       <use x="127.246094" xlink:href="#DejaVuSans-48"/>
      </g>
     </g>
    </g>
    <g id="xtick_5">
     <g id="line2d_5">
      <g>
       <use style="stroke:#000000;stroke-width:0.8;" x="230.004637" xlink:href="#mf3709369d5" y="171.6555"/>
      </g>
     </g>
     <g id="text_5">
      <!-- 200 -->
      <g transform="translate(220.460887 186.253937)scale(0.1 -0.1)">
       <defs>
        <path d="M 19.1875 8.296875 
L 53.609375 8.296875 
L 53.609375 0 
L 7.328125 0 
L 7.328125 8.296875 
Q 12.9375 14.109375 22.625 23.890625 
Q 32.328125 33.6875 34.8125 36.53125 
Q 39.546875 41.84375 41.421875 45.53125 
Q 43.3125 49.21875 43.3125 52.78125 
Q 43.3125 58.59375 39.234375 62.25 
Q 35.15625 65.921875 28.609375 65.921875 
Q 23.96875 65.921875 18.8125 64.3125 
Q 13.671875 62.703125 7.8125 59.421875 
L 7.8125 69.390625 
Q 13.765625 71.78125 18.9375 73 
Q 24.125 74.21875 28.421875 74.21875 
Q 39.75 74.21875 46.484375 68.546875 
Q 53.21875 62.890625 53.21875 53.421875 
Q 53.21875 48.921875 51.53125 44.890625 
Q 49.859375 40.875 45.40625 35.40625 
Q 44.1875 33.984375 37.640625 27.21875 
Q 31.109375 20.453125 19.1875 8.296875 
z
" id="DejaVuSans-50"/>
       </defs>
       <use xlink:href="#DejaVuSans-50"/>
       <use x="63.623047" xlink:href="#DejaVuSans-48"/>
       <use x="127.246094" xlink:href="#DejaVuSans-48"/>
      </g>
     </g>
    </g>
    <g id="text_6">
     <!-- Initial Conductance (µS) -->
     <g transform="translate(99.986719 199.932062)scale(0.1 -0.1)">
      <defs>
       <path d="M 9.8125 72.90625 
L 19.671875 72.90625 
L 19.671875 0 
L 9.8125 0 
z
" id="DejaVuSans-73"/>
       <path d="M 54.890625 33.015625 
L 54.890625 0 
L 45.90625 0 
L 45.90625 32.71875 
Q 45.90625 40.484375 42.875 44.328125 
Q 39.84375 48.1875 33.796875 48.1875 
Q 26.515625 48.1875 22.3125 43.546875 
Q 18.109375 38.921875 18.109375 30.90625 
L 18.109375 0 
L 9.078125 0 
L 9.078125 54.6875 
L 18.109375 54.6875 
L 18.109375 46.1875 
Q 21.34375 51.125 25.703125 53.5625 
Q 30.078125 56 35.796875 56 
Q 45.21875 56 50.046875 50.171875 
Q 54.890625 44.34375 54.890625 33.015625 
z
" id="DejaVuSans-110"/>
       <path d="M 9.421875 54.6875 
L 18.40625 54.6875 
L 18.40625 0 
L 9.421875 0 
z
M 9.421875 75.984375 
L 18.40625 75.984375 
L 18.40625 64.59375 
L 9.421875 64.59375 
z
" id="DejaVuSans-105"/>
       <path d="M 18.3125 70.21875 
L 18.3125 54.6875 
L 36.8125 54.6875 
L 36.8125 47.703125 
L 18.3125 47.703125 
L 18.3125 18.015625 
Q 18.3125 11.328125 20.140625 9.421875 
Q 21.96875 7.515625 27.59375 7.515625 
L 36.8125 7.515625 
L 36.8125 0 
L 27.59375 0 
Q 17.1875 0 13.234375 3.875 
Q 9.28125 7.765625 9.28125 18.015625 
L 9.28125 47.703125 
L 2.6875 47.703125 
L 2.6875 54.6875 
L 9.28125 54.6875 
L 9.28125 70.21875 
z
" id="DejaVuSans-116"/>
       <path d="M 34.28125 27.484375 
Q 23.390625 27.484375 19.1875 25 
Q 14.984375 22.515625 14.984375 16.5 
Q 14.984375 11.71875 18.140625 8.90625 
Q 21.296875 6.109375 26.703125 6.109375 
Q 34.1875 6.109375 38.703125 11.40625 
Q 43.21875 16.703125 43.21875 25.484375 
L 43.21875 27.484375 
z
M 52.203125 31.203125 
L 52.203125 0 
L 43.21875 0 
L 43.21875 8.296875 
Q 40.140625 3.328125 35.546875 0.953125 
Q 30.953125 -1.421875 24.3125 -1.421875 
Q 15.921875 -1.421875 10.953125 3.296875 
Q 6 8.015625 6 15.921875 
Q 6 25.140625 12.171875 29.828125 
Q 18.359375 34.515625 30.609375 34.515625 
L 43.21875 34.515625 
L 43.21875 35.40625 
Q 43.21875 41.609375 39.140625 45 
Q 35.0625 48.390625 27.6875 48.390625 
Q 23 48.390625 18.546875 47.265625 
Q 14.109375 46.140625 10.015625 43.890625 
L 10.015625 52.203125 
Q 14.9375 54.109375 19.578125 55.046875 
Q 24.21875 56 28.609375 56 
Q 40.484375 56 46.34375 49.84375 
Q 52.203125 43.703125 52.203125 31.203125 
z
" id="DejaVuSans-97"/>
       <path d="M 9.421875 75.984375 
L 18.40625 75.984375 
L 18.40625 0 
L 9.421875 0 
z
" id="DejaVuSans-108"/>
       <path id="DejaVuSans-32"/>
       <path d="M 64.40625 67.28125 
L 64.40625 56.890625 
Q 59.421875 61.53125 53.78125 63.8125 
Q 48.140625 66.109375 41.796875 66.109375 
Q 29.296875 66.109375 22.65625 58.46875 
Q 16.015625 50.828125 16.015625 36.375 
Q 16.015625 21.96875 22.65625 14.328125 
Q 29.296875 6.6875 41.796875 6.6875 
Q 48.140625 6.6875 53.78125 8.984375 
Q 59.421875 11.28125 64.40625 15.921875 
L 64.40625 5.609375 
Q 59.234375 2.09375 53.4375 0.328125 
Q 47.65625 -1.421875 41.21875 -1.421875 
Q 24.65625 -1.421875 15.125 8.703125 
Q 5.609375 18.84375 5.609375 36.375 
Q 5.609375 53.953125 15.125 64.078125 
Q 24.65625 74.21875 41.21875 74.21875 
Q 47.75 74.21875 53.53125 72.484375 
Q 59.328125 70.75 64.40625 67.28125 
z
" id="DejaVuSans-67"/>
       <path d="M 30.609375 48.390625 
Q 23.390625 48.390625 19.1875 42.75 
Q 14.984375 37.109375 14.984375 27.296875 
Q 14.984375 17.484375 19.15625 11.84375 
Q 23.34375 6.203125 30.609375 6.203125 
Q 37.796875 6.203125 41.984375 11.859375 
Q 46.1875 17.53125 46.1875 27.296875 
Q 46.1875 37.015625 41.984375 42.703125 
Q 37.796875 48.390625 30.609375 48.390625 
z
M 30.609375 56 
Q 42.328125 56 49.015625 48.375 
Q 55.71875 40.765625 55.71875 27.296875 
Q 55.71875 13.875 49.015625 6.21875 
Q 42.328125 -1.421875 30.609375 -1.421875 
Q 18.84375 -1.421875 12.171875 6.21875 
Q 5.515625 13.875 5.515625 27.296875 
Q 5.515625 40.765625 12.171875 48.375 
Q 18.84375 56 30.609375 56 
z
" id="DejaVuSans-111"/>
       <path d="M 45.40625 46.390625 
L 45.40625 75.984375 
L 54.390625 75.984375 
L 54.390625 0 
L 45.40625 0 
L 45.40625 8.203125 
Q 42.578125 3.328125 38.25 0.953125 
Q 33.9375 -1.421875 27.875 -1.421875 
Q 17.96875 -1.421875 11.734375 6.484375 
Q 5.515625 14.40625 5.515625 27.296875 
Q 5.515625 40.1875 11.734375 48.09375 
Q 17.96875 56 27.875 56 
Q 33.9375 56 38.25 53.625 
Q 42.578125 51.265625 45.40625 46.390625 
z
M 14.796875 27.296875 
Q 14.796875 17.390625 18.875 11.75 
Q 22.953125 6.109375 30.078125 6.109375 
Q 37.203125 6.109375 41.296875 11.75 
Q 45.40625 17.390625 45.40625 27.296875 
Q 45.40625 37.203125 41.296875 42.84375 
Q 37.203125 48.484375 30.078125 48.484375 
Q 22.953125 48.484375 18.875 42.84375 
Q 14.796875 37.203125 14.796875 27.296875 
z
" id="DejaVuSans-100"/>
       <path d="M 8.5 21.578125 
L 8.5 54.6875 
L 17.484375 54.6875 
L 17.484375 21.921875 
Q 17.484375 14.15625 20.5 10.265625 
Q 23.53125 6.390625 29.59375 6.390625 
Q 36.859375 6.390625 41.078125 11.03125 
Q 45.3125 15.671875 45.3125 23.6875 
L 45.3125 54.6875 
L 54.296875 54.6875 
L 54.296875 0 
L 45.3125 0 
L 45.3125 8.40625 
Q 42.046875 3.421875 37.71875 1 
Q 33.40625 -1.421875 27.6875 -1.421875 
Q 18.265625 -1.421875 13.375 4.4375 
Q 8.5 10.296875 8.5 21.578125 
z
M 31.109375 56 
z
" id="DejaVuSans-117"/>
       <path d="M 48.78125 52.59375 
L 48.78125 44.1875 
Q 44.96875 46.296875 41.140625 47.34375 
Q 37.3125 48.390625 33.40625 48.390625 
Q 24.65625 48.390625 19.8125 42.84375 
Q 14.984375 37.3125 14.984375 27.296875 
Q 14.984375 17.28125 19.8125 11.734375 
Q 24.65625 6.203125 33.40625 6.203125 
Q 37.3125 6.203125 41.140625 7.25 
Q 44.96875 8.296875 48.78125 10.40625 
L 48.78125 2.09375 
Q 45.015625 0.34375 40.984375 -0.53125 
Q 36.96875 -1.421875 32.421875 -1.421875 
Q 20.0625 -1.421875 12.78125 6.34375 
Q 5.515625 14.109375 5.515625 27.296875 
Q 5.515625 40.671875 12.859375 48.328125 
Q 20.21875 56 33.015625 56 
Q 37.15625 56 41.109375 55.140625 
Q 45.0625 54.296875 48.78125 52.59375 
z
" id="DejaVuSans-99"/>
       <path d="M 56.203125 29.59375 
L 56.203125 25.203125 
L 14.890625 25.203125 
Q 15.484375 15.921875 20.484375 11.0625 
Q 25.484375 6.203125 34.421875 6.203125 
Q 39.59375 6.203125 44.453125 7.46875 
Q 49.3125 8.734375 54.109375 11.28125 
L 54.109375 2.78125 
Q 49.265625 0.734375 44.1875 -0.34375 
Q 39.109375 -1.421875 33.890625 -1.421875 
Q 20.796875 -1.421875 13.15625 6.1875 
Q 5.515625 13.8125 5.515625 26.8125 
Q 5.515625 40.234375 12.765625 48.109375 
Q 20.015625 56 32.328125 56 
Q 43.359375 56 49.78125 48.890625 
Q 56.203125 41.796875 56.203125 29.59375 
z
M 47.21875 32.234375 
Q 47.125 39.59375 43.09375 43.984375 
Q 39.0625 48.390625 32.421875 48.390625 
Q 24.90625 48.390625 20.390625 44.140625 
Q 15.875 39.890625 15.1875 32.171875 
z
" id="DejaVuSans-101"/>
       <path d="M 31 75.875 
Q 24.46875 64.65625 21.28125 53.65625 
Q 18.109375 42.671875 18.109375 31.390625 
Q 18.109375 20.125 21.3125 9.0625 
Q 24.515625 -2 31 -13.1875 
L 23.1875 -13.1875 
Q 15.875 -1.703125 12.234375 9.375 
Q 8.59375 20.453125 8.59375 31.390625 
Q 8.59375 42.28125 12.203125 53.3125 
Q 15.828125 64.359375 23.1875 75.875 
z
" id="DejaVuSans-40"/>
       <path d="M 8.5 -20.796875 
L 8.5 54.6875 
L 17.484375 54.6875 
L 17.484375 20.703125 
Q 17.484375 13.625 20.84375 10 
Q 24.21875 6.390625 30.8125 6.390625 
Q 38.03125 6.390625 41.671875 10.484375 
Q 45.3125 14.59375 45.3125 22.796875 
L 45.3125 54.6875 
L 54.296875 54.6875 
L 54.296875 12.59375 
Q 54.296875 9.671875 55.140625 8.28125 
Q 56 6.890625 57.8125 6.890625 
Q 58.25 6.890625 59.03125 7.15625 
Q 59.8125 7.421875 61.1875 8.015625 
L 61.1875 0.78125 
Q 59.1875 -0.34375 57.390625 -0.875 
Q 55.609375 -1.421875 53.90625 -1.421875 
Q 50.53125 -1.421875 48.53125 0.484375 
Q 46.53125 2.390625 45.796875 6.296875 
Q 43.359375 2.4375 39.8125 0.5 
Q 36.28125 -1.421875 31.5 -1.421875 
Q 26.515625 -1.421875 23.015625 0.484375 
Q 19.53125 2.390625 17.484375 6.203125 
L 17.484375 -20.796875 
z
" id="DejaVuSans-181"/>
       <path d="M 53.515625 70.515625 
L 53.515625 60.890625 
Q 47.90625 63.578125 42.921875 64.890625 
Q 37.9375 66.21875 33.296875 66.21875 
Q 25.25 66.21875 20.875 63.09375 
Q 16.5 59.96875 16.5 54.203125 
Q 16.5 49.359375 19.40625 46.890625 
Q 22.3125 44.4375 30.421875 42.921875 
L 36.375 41.703125 
Q 47.40625 39.59375 52.65625 34.296875 
Q 57.90625 29 57.90625 20.125 
Q 57.90625 9.515625 50.796875 4.046875 
Q 43.703125 -1.421875 29.984375 -1.421875 
Q 24.8125 -1.421875 18.96875 -0.25 
Q 13.140625 0.921875 6.890625 3.21875 
L 6.890625 13.375 
Q 12.890625 10.015625 18.65625 8.296875 
Q 24.421875 6.59375 29.984375 6.59375 
Q 38.421875 6.59375 43.015625 9.90625 
Q 47.609375 13.234375 47.609375 19.390625 
Q 47.609375 24.75 44.3125 27.78125 
Q 41.015625 30.8125 33.5 32.328125 
L 27.484375 33.5 
Q 16.453125 35.6875 11.515625 40.375 
Q 6.59375 45.0625 6.59375 53.421875 
Q 6.59375 63.09375 13.40625 68.65625 
Q 20.21875 74.21875 32.171875 74.21875 
Q 37.3125 74.21875 42.625 73.28125 
Q 47.953125 72.359375 53.515625 70.515625 
z
" id="DejaVuSans-83"/>
       <path d="M 8.015625 75.875 
L 15.828125 75.875 
Q 23.140625 64.359375 26.78125 53.3125 
Q 30.421875 42.28125 30.421875 31.390625 
Q 30.421875 20.453125 26.78125 9.375 
Q 23.140625 -1.703125 15.828125 -13.1875 
L 8.015625 -13.1875 
Q 14.5 -2 17.703125 9.0625 
Q 20.90625 20.125 20.90625 31.390625 
Q 20.90625 42.671875 17.703125 53.65625 
Q 14.5 64.65625 8.015625 75.875 
z
" id="DejaVuSans-41"/>
      </defs>
      <use xlink:href="#DejaVuSans-73"/>
      <use x="29.492188" xlink:href="#DejaVuSans-110"/>
      <use x="92.871094" xlink:href="#DejaVuSans-105"/>
      <use x="120.654297" xlink:href="#DejaVuSans-116"/>
      <use x="159.863281" xlink:href="#DejaVuSans-105"/>
      <use x="187.646484" xlink:href="#DejaVuSans-97"/>
      <use x="248.925781" xlink:href="#DejaVuSans-108"/>
      <use x="276.708984" xlink:href="#DejaVuSans-32"/>
      <use x="308.496094" xlink:href="#DejaVuSans-67"/>
      <use x="378.320312" xlink:href="#DejaVuSans-111"/>
      <use x="439.501953" xlink:href="#DejaVuSans-110"/>
      <use x="502.880859" xlink:href="#DejaVuSans-100"/>
      <use x="566.357422" xlink:href="#DejaVuSans-117"/>
      <use x="629.736328" xlink:href="#DejaVuSans-99"/>
      <use x="684.716797" xlink:href="#DejaVuSans-116"/>
      <use x="723.925781" xlink:href="#DejaVuSans-97"/>
      <use x="785.205078" xlink:href="#DejaVuSans-110"/>
      <use x="848.583984" xlink:href="#DejaVuSans-99"/>
      <use x="903.564453" xlink:href="#DejaVuSans-101"/>
      <use x="965.087891" xlink:href="#DejaVuSans-32"/>
      <use x="996.875" xlink:href="#DejaVuSans-40"/>
      <use x="1035.888672" xlink:href="#DejaVuSans-181"/>
      <use x="1099.511719" xlink:href="#DejaVuSans-83"/>
      <use x="1162.988281" xlink:href="#DejaVuSans-41"/>
     </g>
    </g>
   </g>
   <g id="matplotlib.axis_2">
    <g id="ytick_1">
     <g id="line2d_6">
      <defs>
       <path d="M 0 0 
L -3.5 0 
" id="mffaaaa6ad5" style="stroke:#000000;stroke-width:0.8;"/>
      </defs>
      <g>
       <use style="stroke:#000000;stroke-width:0.8;" x="48.4875" xlink:href="#mffaaaa6ad5" y="171.6555"/>
      </g>
     </g>
     <g id="text_7">
      <!-- 0 -->
      <g transform="translate(35.125 175.454719)scale(0.1 -0.1)">
       <use xlink:href="#DejaVuSans-48"/>
      </g>
     </g>
    </g>
    <g id="ytick_2">
     <g id="line2d_7">
      <g>
       <use style="stroke:#000000;stroke-width:0.8;" x="48.4875" xlink:href="#mffaaaa6ad5" y="143.343"/>
      </g>
     </g>
     <g id="text_8">
      <!-- 50 -->
      <g transform="translate(28.7625 147.142219)scale(0.1 -0.1)">
       <use xlink:href="#DejaVuSans-53"/>
       <use x="63.623047" xlink:href="#DejaVuSans-48"/>
      </g>
     </g>
    </g>
    <g id="ytick_3">
     <g id="line2d_8">
      <g>
       <use style="stroke:#000000;stroke-width:0.8;" x="48.4875" xlink:href="#mffaaaa6ad5" y="115.0305"/>
      </g>
     </g>
     <g id="text_9">
      <!-- 100 -->
      <g transform="translate(22.4 118.829719)scale(0.1 -0.1)">
       <use xlink:href="#DejaVuSans-49"/>
       <use x="63.623047" xlink:href="#DejaVuSans-48"/>
       <use x="127.246094" xlink:href="#DejaVuSans-48"/>
      </g>
     </g>
    </g>
    <g id="ytick_4">
     <g id="line2d_9">
      <g>
       <use style="stroke:#000000;stroke-width:0.8;" x="48.4875" xlink:href="#mffaaaa6ad5" y="86.718"/>
      </g>
     </g>
     <g id="text_10">
      <!-- 150 -->
      <g transform="translate(22.4 90.517219)scale(0.1 -0.1)">
       <use xlink:href="#DejaVuSans-49"/>
       <use x="63.623047" xlink:href="#DejaVuSans-53"/>
       <use x="127.246094" xlink:href="#DejaVuSans-48"/>
      </g>
     </g>
    </g>
    <g id="ytick_5">
     <g id="line2d_10">
      <g>
       <use style="stroke:#000000;stroke-width:0.8;" x="48.4875" xlink:href="#mffaaaa6ad5" y="58.4055"/>
      </g>
     </g>
     <g id="text_11">
      <!-- 200 -->
      <g transform="translate(22.4 62.204719)scale(0.1 -0.1)">
       <use xlink:href="#DejaVuSans-50"/>
       <use x="63.623047" xlink:href="#DejaVuSans-48"/>
       <use x="127.246094" xlink:href="#DejaVuSans-48"/>
      </g>
     </g>
    </g>
    <g id="text_12">
     <!-- Variance (µS$^2$) -->
     <g transform="translate(16.3 139.9555)rotate(-90)scale(0.1 -0.1)">
      <defs>
       <path d="M 28.609375 0 
L 0.78125 72.90625 
L 11.078125 72.90625 
L 34.1875 11.53125 
L 57.328125 72.90625 
L 67.578125 72.90625 
L 39.796875 0 
z
" id="DejaVuSans-86"/>
       <path d="M 41.109375 46.296875 
Q 39.59375 47.171875 37.8125 47.578125 
Q 36.03125 48 33.890625 48 
Q 26.265625 48 22.1875 43.046875 
Q 18.109375 38.09375 18.109375 28.8125 
L 18.109375 0 
L 9.078125 0 
L 9.078125 54.6875 
L 18.109375 54.6875 
L 18.109375 46.1875 
Q 20.953125 51.171875 25.484375 53.578125 
Q 30.03125 56 36.53125 56 
Q 37.453125 56 38.578125 55.875 
Q 39.703125 55.765625 41.0625 55.515625 
z
" id="DejaVuSans-114"/>
      </defs>
      <use transform="translate(0 0.765625)" xlink:href="#DejaVuSans-86"/>
      <use transform="translate(68.408203 0.765625)" xlink:href="#DejaVuSans-97"/>
      <use transform="translate(129.6875 0.765625)" xlink:href="#DejaVuSans-114"/>
      <use transform="translate(170.800781 0.765625)" xlink:href="#DejaVuSans-105"/>
      <use transform="translate(198.583984 0.765625)" xlink:href="#DejaVuSans-97"/>
      <use transform="translate(259.863281 0.765625)" xlink:href="#DejaVuSans-110"/>
      <use transform="translate(323.242188 0.765625)" xlink:href="#DejaVuSans-99"/>
      <use transform="translate(378.222656 0.765625)" xlink:href="#DejaVuSans-101"/>
      <use transform="translate(439.746094 0.765625)" xlink:href="#DejaVuSans-32"/>
      <use transform="translate(471.533203 0.765625)" xlink:href="#DejaVuSans-40"/>
      <use transform="translate(510.546875 0.765625)" xlink:href="#DejaVuSans-181"/>
      <use transform="translate(574.169922 0.765625)" xlink:href="#DejaVuSans-83"/>
      <use transform="translate(638.603516 39.046875)scale(0.7)" xlink:href="#DejaVuSans-50"/>
      <use transform="translate(685.874023 0.765625)" xlink:href="#DejaVuSans-41"/>
     </g>
    </g>
   </g>
   <g id="line2d_11">
    <path clip-path="url(#pe93af249be)" d="M 58.675387 168.793399 
L 64.317033 168.388529 
L 71.255183 168.517167 
L 77.74508 168.651343 
L 84.348701 168.650005 
L 90.910687 168.852733 
L 97.532386 168.558535 
L 103.989789 168.754376 
L 110.477466 168.67706 
L 117.089499 168.55334 
L 123.583398 168.844496 
L 130.262839 168.566681 
L 136.77537 168.713796 
L 143.38942 168.590181 
L 150.085069 168.560683 
L 156.512917 168.71426 
L 163.183887 168.708227 
L 169.835161 168.510958 
L 176.431946 168.503614 
L 182.906157 168.732702 
L 189.592316 168.493954 
L 196.156662 168.707281 
L 202.711978 168.687441 
L 209.153512 168.392977 
L 215.667756 168.480581 
L 222.397813 168.636937 
L 228.895182 168.680818 
L 235.437242 168.485805 
L 242.08758 168.533741 
L 248.554893 168.602767 
L 255.05968 168.752022 
L 261.542045 168.649825 
" style="fill:none;stroke:#1f77b4;stroke-linecap:square;stroke-width:0.8;"/>
    <defs>
     <path d="M -3 0 
L 3 0 
M 0 3 
L 0 -3 
" id="m882315cd4e" style="stroke:#1f77b4;"/>
    </defs>
    <g clip-path="url(#pe93af249be)">
     <use style="fill:#1f77b4;stroke:#1f77b4;" x="58.675387" xlink:href="#m882315cd4e" y="168.793399"/>
     <use style="fill:#1f77b4;stroke:#1f77b4;" x="64.317033" xlink:href="#m882315cd4e" y="168.388529"/>
     <use style="fill:#1f77b4;stroke:#1f77b4;" x="71.255183" xlink:href="#m882315cd4e" y="168.517167"/>
     <use style="fill:#1f77b4;stroke:#1f77b4;" x="77.74508" xlink:href="#m882315cd4e" y="168.651343"/>
     <use style="fill:#1f77b4;stroke:#1f77b4;" x="84.348701" xlink:href="#m882315cd4e" y="168.650005"/>
     <use style="fill:#1f77b4;stroke:#1f77b4;" x="90.910687" xlink:href="#m882315cd4e" y="168.852733"/>
     <use style="fill:#1f77b4;stroke:#1f77b4;" x="97.532386" xlink:href="#m882315cd4e" y="168.558535"/>
     <use style="fill:#1f77b4;stroke:#1f77b4;" x="103.989789" xlink:href="#m882315cd4e" y="168.754376"/>
     <use style="fill:#1f77b4;stroke:#1f77b4;" x="110.477466" xlink:href="#m882315cd4e" y="168.67706"/>
     <use style="fill:#1f77b4;stroke:#1f77b4;" x="117.089499" xlink:href="#m882315cd4e" y="168.55334"/>
     <use style="fill:#1f77b4;stroke:#1f77b4;" x="123.583398" xlink:href="#m882315cd4e" y="168.844496"/>
     <use style="fill:#1f77b4;stroke:#1f77b4;" x="130.262839" xlink:href="#m882315cd4e" y="168.566681"/>
     <use style="fill:#1f77b4;stroke:#1f77b4;" x="136.77537" xlink:href="#m882315cd4e" y="168.713796"/>
     <use style="fill:#1f77b4;stroke:#1f77b4;" x="143.38942" xlink:href="#m882315cd4e" y="168.590181"/>
     <use style="fill:#1f77b4;stroke:#1f77b4;" x="150.085069" xlink:href="#m882315cd4e" y="168.560683"/>
     <use style="fill:#1f77b4;stroke:#1f77b4;" x="156.512917" xlink:href="#m882315cd4e" y="168.71426"/>
     <use style="fill:#1f77b4;stroke:#1f77b4;" x="163.183887" xlink:href="#m882315cd4e" y="168.708227"/>
     <use style="fill:#1f77b4;stroke:#1f77b4;" x="169.835161" xlink:href="#m882315cd4e" y="168.510958"/>
     <use style="fill:#1f77b4;stroke:#1f77b4;" x="176.431946" xlink:href="#m882315cd4e" y="168.503614"/>
     <use style="fill:#1f77b4;stroke:#1f77b4;" x="182.906157" xlink:href="#m882315cd4e" y="168.732702"/>
     <use style="fill:#1f77b4;stroke:#1f77b4;" x="189.592316" xlink:href="#m882315cd4e" y="168.493954"/>
     <use style="fill:#1f77b4;stroke:#1f77b4;" x="196.156662" xlink:href="#m882315cd4e" y="168.707281"/>
     <use style="fill:#1f77b4;stroke:#1f77b4;" x="202.711978" xlink:href="#m882315cd4e" y="168.687441"/>
     <use style="fill:#1f77b4;stroke:#1f77b4;" x="209.153512" xlink:href="#m882315cd4e" y="168.392977"/>
     <use style="fill:#1f77b4;stroke:#1f77b4;" x="215.667756" xlink:href="#m882315cd4e" y="168.480581"/>
     <use style="fill:#1f77b4;stroke:#1f77b4;" x="222.397813" xlink:href="#m882315cd4e" y="168.636937"/>
     <use style="fill:#1f77b4;stroke:#1f77b4;" x="228.895182" xlink:href="#m882315cd4e" y="168.680818"/>
     <use style="fill:#1f77b4;stroke:#1f77b4;" x="235.437242" xlink:href="#m882315cd4e" y="168.485805"/>
     <use style="fill:#1f77b4;stroke:#1f77b4;" x="242.08758" xlink:href="#m882315cd4e" y="168.533741"/>
     <use style="fill:#1f77b4;stroke:#1f77b4;" x="248.554893" xlink:href="#m882315cd4e" y="168.602767"/>
     <use style="fill:#1f77b4;stroke:#1f77b4;" x="255.05968" xlink:href="#m882315cd4e" y="168.752022"/>
     <use style="fill:#1f77b4;stroke:#1f77b4;" x="261.542045" xlink:href="#m882315cd4e" y="168.649825"/>
    </g>
   </g>
   <g id="line2d_12">
    <path clip-path="url(#pe93af249be)" d="M 58.672711 168.187354 
L 64.314473 165.692771 
L 71.245457 161.912918 
L 77.743583 159.42916 
L 84.342919 158.633275 
L 90.910687 156.326014 
L 97.540789 157.673667 
L 103.988948 158.947269 
L 110.477466 158.784654 
L 117.096704 160.952326 
L 123.59121 159.893543 
L 130.250938 162.973838 
L 136.77537 161.739201 
L 143.391073 162.571738 
L 150.08125 164.62445 
L 156.519538 166.03687 
L 163.183535 165.941746 
L 169.833293 166.089602 
L 176.429807 166.897083 
L 182.894557 166.959634 
L 189.592316 167.202322 
L 196.173828 167.528873 
L 202.721584 167.838834 
L 209.13733 167.299229 
L 215.672037 167.813406 
L 222.401247 168.069256 
L 228.894247 167.950989 
L 235.434822 167.905437 
L 242.094597 168.018969 
L 248.560017 168.246085 
L 255.053112 168.35653 
L 261.537583 168.1166 
" style="fill:none;stroke:#ff7f0e;stroke-linecap:square;stroke-width:0.8;"/>
    <defs>
     <path d="M -3 0 
L 3 0 
M 0 3 
L 0 -3 
" id="m0ccb018df0" style="stroke:#ff7f0e;"/>
    </defs>
    <g clip-path="url(#pe93af249be)">
     <use style="fill:#ff7f0e;stroke:#ff7f0e;" x="58.672711" xlink:href="#m0ccb018df0" y="168.187354"/>
     <use style="fill:#ff7f0e;stroke:#ff7f0e;" x="64.314473" xlink:href="#m0ccb018df0" y="165.692771"/>
     <use style="fill:#ff7f0e;stroke:#ff7f0e;" x="71.245457" xlink:href="#m0ccb018df0" y="161.912918"/>
     <use style="fill:#ff7f0e;stroke:#ff7f0e;" x="77.743583" xlink:href="#m0ccb018df0" y="159.42916"/>
     <use style="fill:#ff7f0e;stroke:#ff7f0e;" x="84.342919" xlink:href="#m0ccb018df0" y="158.633275"/>
     <use style="fill:#ff7f0e;stroke:#ff7f0e;" x="90.910687" xlink:href="#m0ccb018df0" y="156.326014"/>
     <use style="fill:#ff7f0e;stroke:#ff7f0e;" x="97.540789" xlink:href="#m0ccb018df0" y="157.673667"/>
     <use style="fill:#ff7f0e;stroke:#ff7f0e;" x="103.988948" xlink:href="#m0ccb018df0" y="158.947269"/>
     <use style="fill:#ff7f0e;stroke:#ff7f0e;" x="110.477466" xlink:href="#m0ccb018df0" y="158.784654"/>
     <use style="fill:#ff7f0e;stroke:#ff7f0e;" x="117.096704" xlink:href="#m0ccb018df0" y="160.952326"/>
     <use style="fill:#ff7f0e;stroke:#ff7f0e;" x="123.59121" xlink:href="#m0ccb018df0" y="159.893543"/>
     <use style="fill:#ff7f0e;stroke:#ff7f0e;" x="130.250938" xlink:href="#m0ccb018df0" y="162.973838"/>
     <use style="fill:#ff7f0e;stroke:#ff7f0e;" x="136.77537" xlink:href="#m0ccb018df0" y="161.739201"/>
     <use style="fill:#ff7f0e;stroke:#ff7f0e;" x="143.391073" xlink:href="#m0ccb018df0" y="162.571738"/>
     <use style="fill:#ff7f0e;stroke:#ff7f0e;" x="150.08125" xlink:href="#m0ccb018df0" y="164.62445"/>
     <use style="fill:#ff7f0e;stroke:#ff7f0e;" x="156.519538" xlink:href="#m0ccb018df0" y="166.03687"/>
     <use style="fill:#ff7f0e;stroke:#ff7f0e;" x="163.183535" xlink:href="#m0ccb018df0" y="165.941746"/>
     <use style="fill:#ff7f0e;stroke:#ff7f0e;" x="169.833293" xlink:href="#m0ccb018df0" y="166.089602"/>
     <use style="fill:#ff7f0e;stroke:#ff7f0e;" x="176.429807" xlink:href="#m0ccb018df0" y="166.897083"/>
     <use style="fill:#ff7f0e;stroke:#ff7f0e;" x="182.894557" xlink:href="#m0ccb018df0" y="166.959634"/>
     <use style="fill:#ff7f0e;stroke:#ff7f0e;" x="189.592316" xlink:href="#m0ccb018df0" y="167.202322"/>
     <use style="fill:#ff7f0e;stroke:#ff7f0e;" x="196.173828" xlink:href="#m0ccb018df0" y="167.528873"/>
     <use style="fill:#ff7f0e;stroke:#ff7f0e;" x="202.721584" xlink:href="#m0ccb018df0" y="167.838834"/>
     <use style="fill:#ff7f0e;stroke:#ff7f0e;" x="209.13733" xlink:href="#m0ccb018df0" y="167.299229"/>
     <use style="fill:#ff7f0e;stroke:#ff7f0e;" x="215.672037" xlink:href="#m0ccb018df0" y="167.813406"/>
     <use style="fill:#ff7f0e;stroke:#ff7f0e;" x="222.401247" xlink:href="#m0ccb018df0" y="168.069256"/>
     <use style="fill:#ff7f0e;stroke:#ff7f0e;" x="228.894247" xlink:href="#m0ccb018df0" y="167.950989"/>
     <use style="fill:#ff7f0e;stroke:#ff7f0e;" x="235.434822" xlink:href="#m0ccb018df0" y="167.905437"/>
     <use style="fill:#ff7f0e;stroke:#ff7f0e;" x="242.094597" xlink:href="#m0ccb018df0" y="168.018969"/>
     <use style="fill:#ff7f0e;stroke:#ff7f0e;" x="248.560017" xlink:href="#m0ccb018df0" y="168.246085"/>
     <use style="fill:#ff7f0e;stroke:#ff7f0e;" x="255.053112" xlink:href="#m0ccb018df0" y="168.35653"/>
     <use style="fill:#ff7f0e;stroke:#ff7f0e;" x="261.537583" xlink:href="#m0ccb018df0" y="168.1166"/>
    </g>
   </g>
   <g id="line2d_13">
    <path clip-path="url(#pe93af249be)" d="M 58.675387 165.829142 
L 64.317033 159.809846 
L 71.255183 146.559371 
L 77.74508 146.284921 
L 84.348701 140.640682 
L 90.910687 138.286636 
L 97.532386 142.28905 
L 103.989789 144.019718 
L 110.477466 134.572439 
L 117.089499 144.515624 
L 123.583398 149.205594 
L 130.262839 152.685131 
L 136.77537 147.723538 
L 143.38942 152.532395 
L 150.085069 157.543668 
L 156.512917 158.199254 
L 163.183887 160.441181 
L 169.835161 162.949909 
L 176.431946 163.979188 
L 182.906157 163.909872 
L 189.592316 164.319218 
L 196.156662 164.647431 
L 202.711978 166.074261 
L 209.153512 165.256422 
L 215.667756 165.558117 
L 222.397813 166.483476 
L 228.895182 166.085498 
L 235.437242 166.141194 
L 242.08758 166.607781 
L 248.554893 166.928717 
L 255.05968 166.449382 
L 261.542045 167.023544 
" style="fill:none;stroke:#2ca02c;stroke-linecap:square;stroke-width:0.8;"/>
    <defs>
     <path d="M -3 0 
L 3 0 
M 0 3 
L 0 -3 
" id="m70c7aa7d1d" style="stroke:#2ca02c;"/>
    </defs>
    <g clip-path="url(#pe93af249be)">
     <use style="fill:#2ca02c;stroke:#2ca02c;" x="58.675387" xlink:href="#m70c7aa7d1d" y="165.829142"/>
     <use style="fill:#2ca02c;stroke:#2ca02c;" x="64.317033" xlink:href="#m70c7aa7d1d" y="159.809846"/>
     <use style="fill:#2ca02c;stroke:#2ca02c;" x="71.255183" xlink:href="#m70c7aa7d1d" y="146.559371"/>
     <use style="fill:#2ca02c;stroke:#2ca02c;" x="77.74508" xlink:href="#m70c7aa7d1d" y="146.284921"/>
     <use style="fill:#2ca02c;stroke:#2ca02c;" x="84.348701" xlink:href="#m70c7aa7d1d" y="140.640682"/>
     <use style="fill:#2ca02c;stroke:#2ca02c;" x="90.910687" xlink:href="#m70c7aa7d1d" y="138.286636"/>
     <use style="fill:#2ca02c;stroke:#2ca02c;" x="97.532386" xlink:href="#m70c7aa7d1d" y="142.28905"/>
     <use style="fill:#2ca02c;stroke:#2ca02c;" x="103.989789" xlink:href="#m70c7aa7d1d" y="144.019718"/>
     <use style="fill:#2ca02c;stroke:#2ca02c;" x="110.477466" xlink:href="#m70c7aa7d1d" y="134.572439"/>
     <use style="fill:#2ca02c;stroke:#2ca02c;" x="117.089499" xlink:href="#m70c7aa7d1d" y="144.515624"/>
     <use style="fill:#2ca02c;stroke:#2ca02c;" x="123.583398" xlink:href="#m70c7aa7d1d" y="149.205594"/>
     <use style="fill:#2ca02c;stroke:#2ca02c;" x="130.262839" xlink:href="#m70c7aa7d1d" y="152.685131"/>
     <use style="fill:#2ca02c;stroke:#2ca02c;" x="136.77537" xlink:href="#m70c7aa7d1d" y="147.723538"/>
     <use style="fill:#2ca02c;stroke:#2ca02c;" x="143.38942" xlink:href="#m70c7aa7d1d" y="152.532395"/>
     <use style="fill:#2ca02c;stroke:#2ca02c;" x="150.085069" xlink:href="#m70c7aa7d1d" y="157.543668"/>
     <use style="fill:#2ca02c;stroke:#2ca02c;" x="156.512917" xlink:href="#m70c7aa7d1d" y="158.199254"/>
     <use style="fill:#2ca02c;stroke:#2ca02c;" x="163.183887" xlink:href="#m70c7aa7d1d" y="160.441181"/>
     <use style="fill:#2ca02c;stroke:#2ca02c;" x="169.835161" xlink:href="#m70c7aa7d1d" y="162.949909"/>
     <use style="fill:#2ca02c;stroke:#2ca02c;" x="176.431946" xlink:href="#m70c7aa7d1d" y="163.979188"/>
     <use style="fill:#2ca02c;stroke:#2ca02c;" x="182.906157" xlink:href="#m70c7aa7d1d" y="163.909872"/>
     <use style="fill:#2ca02c;stroke:#2ca02c;" x="189.592316" xlink:href="#m70c7aa7d1d" y="164.319218"/>
     <use style="fill:#2ca02c;stroke:#2ca02c;" x="196.156662" xlink:href="#m70c7aa7d1d" y="164.647431"/>
     <use style="fill:#2ca02c;stroke:#2ca02c;" x="202.711978" xlink:href="#m70c7aa7d1d" y="166.074261"/>
     <use style="fill:#2ca02c;stroke:#2ca02c;" x="209.153512" xlink:href="#m70c7aa7d1d" y="165.256422"/>
     <use style="fill:#2ca02c;stroke:#2ca02c;" x="215.667756" xlink:href="#m70c7aa7d1d" y="165.558117"/>
     <use style="fill:#2ca02c;stroke:#2ca02c;" x="222.397813" xlink:href="#m70c7aa7d1d" y="166.483476"/>
     <use style="fill:#2ca02c;stroke:#2ca02c;" x="228.895182" xlink:href="#m70c7aa7d1d" y="166.085498"/>
     <use style="fill:#2ca02c;stroke:#2ca02c;" x="235.437242" xlink:href="#m70c7aa7d1d" y="166.141194"/>
     <use style="fill:#2ca02c;stroke:#2ca02c;" x="242.08758" xlink:href="#m70c7aa7d1d" y="166.607781"/>
     <use style="fill:#2ca02c;stroke:#2ca02c;" x="248.554893" xlink:href="#m70c7aa7d1d" y="166.928717"/>
     <use style="fill:#2ca02c;stroke:#2ca02c;" x="255.05968" xlink:href="#m70c7aa7d1d" y="166.449382"/>
     <use style="fill:#2ca02c;stroke:#2ca02c;" x="261.542045" xlink:href="#m70c7aa7d1d" y="167.023544"/>
    </g>
   </g>
   <g id="line2d_14">
    <path clip-path="url(#pe93af249be)" d="M 58.675387 161.896331 
L 64.317033 148.596135 
L 71.255183 129.902577 
L 77.74508 136.055175 
L 84.348701 124.560876 
L 90.910687 126.277087 
L 97.532386 122.356415 
L 103.989789 128.770343 
L 110.477466 120.998284 
L 117.089499 131.703151 
L 123.583398 138.783334 
L 130.262839 140.73565 
L 136.77537 138.885087 
L 143.38942 143.754226 
L 150.085069 151.10604 
L 156.512917 151.517799 
L 163.183887 155.797591 
L 169.835161 161.019302 
L 176.431946 161.592205 
L 182.906157 161.229052 
L 189.592316 161.188981 
L 196.156662 162.915628 
L 202.711978 163.987704 
L 209.153512 163.400427 
L 215.667756 163.688922 
L 222.397813 164.354976 
L 228.895182 164.735138 
L 235.437242 164.48548 
L 242.08758 164.809406 
L 248.554893 165.421215 
L 255.05968 164.061594 
L 261.542045 165.662622 
" style="fill:none;stroke:#d62728;stroke-linecap:square;stroke-width:0.8;"/>
    <defs>
     <path d="M -3 0 
L 3 0 
M 0 3 
L 0 -3 
" id="m5a922a37de" style="stroke:#d62728;"/>
    </defs>
    <g clip-path="url(#pe93af249be)">
     <use style="fill:#d62728;stroke:#d62728;" x="58.675387" xlink:href="#m5a922a37de" y="161.896331"/>
     <use style="fill:#d62728;stroke:#d62728;" x="64.317033" xlink:href="#m5a922a37de" y="148.596135"/>
     <use style="fill:#d62728;stroke:#d62728;" x="71.255183" xlink:href="#m5a922a37de" y="129.902577"/>
     <use style="fill:#d62728;stroke:#d62728;" x="77.74508" xlink:href="#m5a922a37de" y="136.055175"/>
     <use style="fill:#d62728;stroke:#d62728;" x="84.348701" xlink:href="#m5a922a37de" y="124.560876"/>
     <use style="fill:#d62728;stroke:#d62728;" x="90.910687" xlink:href="#m5a922a37de" y="126.277087"/>
     <use style="fill:#d62728;stroke:#d62728;" x="97.532386" xlink:href="#m5a922a37de" y="122.356415"/>
     <use style="fill:#d62728;stroke:#d62728;" x="103.989789" xlink:href="#m5a922a37de" y="128.770343"/>
     <use style="fill:#d62728;stroke:#d62728;" x="110.477466" xlink:href="#m5a922a37de" y="120.998284"/>
     <use style="fill:#d62728;stroke:#d62728;" x="117.089499" xlink:href="#m5a922a37de" y="131.703151"/>
     <use style="fill:#d62728;stroke:#d62728;" x="123.583398" xlink:href="#m5a922a37de" y="138.783334"/>
     <use style="fill:#d62728;stroke:#d62728;" x="130.262839" xlink:href="#m5a922a37de" y="140.73565"/>
     <use style="fill:#d62728;stroke:#d62728;" x="136.77537" xlink:href="#m5a922a37de" y="138.885087"/>
     <use style="fill:#d62728;stroke:#d62728;" x="143.38942" xlink:href="#m5a922a37de" y="143.754226"/>
     <use style="fill:#d62728;stroke:#d62728;" x="150.085069" xlink:href="#m5a922a37de" y="151.10604"/>
     <use style="fill:#d62728;stroke:#d62728;" x="156.512917" xlink:href="#m5a922a37de" y="151.517799"/>
     <use style="fill:#d62728;stroke:#d62728;" x="163.183887" xlink:href="#m5a922a37de" y="155.797591"/>
     <use style="fill:#d62728;stroke:#d62728;" x="169.835161" xlink:href="#m5a922a37de" y="161.019302"/>
     <use style="fill:#d62728;stroke:#d62728;" x="176.431946" xlink:href="#m5a922a37de" y="161.592205"/>
     <use style="fill:#d62728;stroke:#d62728;" x="182.906157" xlink:href="#m5a922a37de" y="161.229052"/>
     <use style="fill:#d62728;stroke:#d62728;" x="189.592316" xlink:href="#m5a922a37de" y="161.188981"/>
     <use style="fill:#d62728;stroke:#d62728;" x="196.156662" xlink:href="#m5a922a37de" y="162.915628"/>
     <use style="fill:#d62728;stroke:#d62728;" x="202.711978" xlink:href="#m5a922a37de" y="163.987704"/>
     <use style="fill:#d62728;stroke:#d62728;" x="209.153512" xlink:href="#m5a922a37de" y="163.400427"/>
     <use style="fill:#d62728;stroke:#d62728;" x="215.667756" xlink:href="#m5a922a37de" y="163.688922"/>
     <use style="fill:#d62728;stroke:#d62728;" x="222.397813" xlink:href="#m5a922a37de" y="164.354976"/>
     <use style="fill:#d62728;stroke:#d62728;" x="228.895182" xlink:href="#m5a922a37de" y="164.735138"/>
     <use style="fill:#d62728;stroke:#d62728;" x="235.437242" xlink:href="#m5a922a37de" y="164.48548"/>
     <use style="fill:#d62728;stroke:#d62728;" x="242.08758" xlink:href="#m5a922a37de" y="164.809406"/>
     <use style="fill:#d62728;stroke:#d62728;" x="248.554893" xlink:href="#m5a922a37de" y="165.421215"/>
     <use style="fill:#d62728;stroke:#d62728;" x="255.05968" xlink:href="#m5a922a37de" y="164.061594"/>
     <use style="fill:#d62728;stroke:#d62728;" x="261.542045" xlink:href="#m5a922a37de" y="165.662622"/>
    </g>
   </g>
   <g id="line2d_15">
    <path clip-path="url(#pe93af249be)" d="M 58.632955 157.865719 
L 64.209939 143.114533 
L 71.278109 128.770791 
L 77.762508 125.428251 
L 84.402332 125.291024 
L 90.913389 117.326863 
L 97.549851 114.923588 
L 103.949231 116.548625 
L 110.459967 102.146526 
L 117.138199 122.84496 
L 123.569935 131.677924 
L 130.270491 132.330947 
L 136.941522 133.679323 
L 143.436308 136.767851 
L 150.17165 150.567909 
L 156.587709 151.29781 
L 163.127906 154.326352 
L 169.837676 158.597652 
L 176.385175 159.029179 
L 182.881268 160.143743 
L 189.574514 159.145229 
L 196.103279 161.471439 
L 202.711612 162.181367 
L 209.051211 161.498551 
L 215.625333 162.642342 
L 222.490216 163.373762 
L 228.873898 164.024244 
L 235.369301 163.387671 
L 242.067877 163.104819 
L 248.71786 164.401294 
L 255.076045 162.460932 
L 261.487709 163.957151 
" style="fill:none;stroke:#9467bd;stroke-linecap:square;stroke-width:0.8;"/>
    <defs>
     <path d="M -3 0 
L 3 0 
M 0 3 
L 0 -3 
" id="m36efa949ac" style="stroke:#9467bd;"/>
    </defs>
    <g clip-path="url(#pe93af249be)">
     <use style="fill:#9467bd;stroke:#9467bd;" x="58.632955" xlink:href="#m36efa949ac" y="157.865719"/>
     <use style="fill:#9467bd;stroke:#9467bd;" x="64.209939" xlink:href="#m36efa949ac" y="143.114533"/>
     <use style="fill:#9467bd;stroke:#9467bd;" x="71.278109" xlink:href="#m36efa949ac" y="128.770791"/>
     <use style="fill:#9467bd;stroke:#9467bd;" x="77.762508" xlink:href="#m36efa949ac" y="125.428251"/>
     <use style="fill:#9467bd;stroke:#9467bd;" x="84.402332" xlink:href="#m36efa949ac" y="125.291024"/>
     <use style="fill:#9467bd;stroke:#9467bd;" x="90.913389" xlink:href="#m36efa949ac" y="117.326863"/>
     <use style="fill:#9467bd;stroke:#9467bd;" x="97.549851" xlink:href="#m36efa949ac" y="114.923588"/>
     <use style="fill:#9467bd;stroke:#9467bd;" x="103.949231" xlink:href="#m36efa949ac" y="116.548625"/>
     <use style="fill:#9467bd;stroke:#9467bd;" x="110.459967" xlink:href="#m36efa949ac" y="102.146526"/>
     <use style="fill:#9467bd;stroke:#9467bd;" x="117.138199" xlink:href="#m36efa949ac" y="122.84496"/>
     <use style="fill:#9467bd;stroke:#9467bd;" x="123.569935" xlink:href="#m36efa949ac" y="131.677924"/>
     <use style="fill:#9467bd;stroke:#9467bd;" x="130.270491" xlink:href="#m36efa949ac" y="132.330947"/>
     <use style="fill:#9467bd;stroke:#9467bd;" x="136.941522" xlink:href="#m36efa949ac" y="133.679323"/>
     <use style="fill:#9467bd;stroke:#9467bd;" x="143.436308" xlink:href="#m36efa949ac" y="136.767851"/>
     <use style="fill:#9467bd;stroke:#9467bd;" x="150.17165" xlink:href="#m36efa949ac" y="150.567909"/>
     <use style="fill:#9467bd;stroke:#9467bd;" x="156.587709" xlink:href="#m36efa949ac" y="151.29781"/>
     <use style="fill:#9467bd;stroke:#9467bd;" x="163.127906" xlink:href="#m36efa949ac" y="154.326352"/>
     <use style="fill:#9467bd;stroke:#9467bd;" x="169.837676" xlink:href="#m36efa949ac" y="158.597652"/>
     <use style="fill:#9467bd;stroke:#9467bd;" x="176.385175" xlink:href="#m36efa949ac" y="159.029179"/>
     <use style="fill:#9467bd;stroke:#9467bd;" x="182.881268" xlink:href="#m36efa949ac" y="160.143743"/>
     <use style="fill:#9467bd;stroke:#9467bd;" x="189.574514" xlink:href="#m36efa949ac" y="159.145229"/>
     <use style="fill:#9467bd;stroke:#9467bd;" x="196.103279" xlink:href="#m36efa949ac" y="161.471439"/>
     <use style="fill:#9467bd;stroke:#9467bd;" x="202.711612" xlink:href="#m36efa949ac" y="162.181367"/>
     <use style="fill:#9467bd;stroke:#9467bd;" x="209.051211" xlink:href="#m36efa949ac" y="161.498551"/>
     <use style="fill:#9467bd;stroke:#9467bd;" x="215.625333" xlink:href="#m36efa949ac" y="162.642342"/>
     <use style="fill:#9467bd;stroke:#9467bd;" x="222.490216" xlink:href="#m36efa949ac" y="163.373762"/>
     <use style="fill:#9467bd;stroke:#9467bd;" x="228.873898" xlink:href="#m36efa949ac" y="164.024244"/>
     <use style="fill:#9467bd;stroke:#9467bd;" x="235.369301" xlink:href="#m36efa949ac" y="163.387671"/>
     <use style="fill:#9467bd;stroke:#9467bd;" x="242.067877" xlink:href="#m36efa949ac" y="163.104819"/>
     <use style="fill:#9467bd;stroke:#9467bd;" x="248.71786" xlink:href="#m36efa949ac" y="164.401294"/>
     <use style="fill:#9467bd;stroke:#9467bd;" x="255.076045" xlink:href="#m36efa949ac" y="162.460932"/>
     <use style="fill:#9467bd;stroke:#9467bd;" x="261.487709" xlink:href="#m36efa949ac" y="163.957151"/>
    </g>
   </g>
   <g id="line2d_16">
    <path clip-path="url(#pe93af249be)" d="M 58.675387 152.955791 
L 64.317033 132.028537 
L 71.255183 115.457494 
L 77.74508 118.475317 
L 84.348701 116.763065 
L 90.910687 111.741818 
L 97.532386 109.75889 
L 103.989789 107.850119 
L 110.477466 103.985351 
L 117.089499 122.840652 
L 123.583398 122.743553 
L 130.262839 128.581238 
L 136.77537 131.487019 
L 143.38942 135.618535 
L 150.085069 143.101577 
L 156.512917 145.735223 
L 163.183887 152.181753 
L 169.835161 158.166497 
L 176.431946 159.380382 
L 182.906157 159.556897 
L 189.592316 158.770576 
L 196.156662 161.069077 
L 202.711978 161.638383 
L 209.153512 161.471794 
L 215.667756 161.619169 
L 222.397813 162.963107 
L 228.895182 162.695059 
L 235.437242 162.531867 
L 242.08758 162.894367 
L 248.554893 164.033229 
L 255.05968 161.90043 
L 261.542045 164.159873 
" style="fill:none;stroke:#8c564b;stroke-linecap:square;stroke-width:0.8;"/>
    <defs>
     <path d="M -3 0 
L 3 0 
M 0 3 
L 0 -3 
" id="m8ac450740f" style="stroke:#8c564b;"/>
    </defs>
    <g clip-path="url(#pe93af249be)">
     <use style="fill:#8c564b;stroke:#8c564b;" x="58.675387" xlink:href="#m8ac450740f" y="152.955791"/>
     <use style="fill:#8c564b;stroke:#8c564b;" x="64.317033" xlink:href="#m8ac450740f" y="132.028537"/>
     <use style="fill:#8c564b;stroke:#8c564b;" x="71.255183" xlink:href="#m8ac450740f" y="115.457494"/>
     <use style="fill:#8c564b;stroke:#8c564b;" x="77.74508" xlink:href="#m8ac450740f" y="118.475317"/>
     <use style="fill:#8c564b;stroke:#8c564b;" x="84.348701" xlink:href="#m8ac450740f" y="116.763065"/>
     <use style="fill:#8c564b;stroke:#8c564b;" x="90.910687" xlink:href="#m8ac450740f" y="111.741818"/>
     <use style="fill:#8c564b;stroke:#8c564b;" x="97.532386" xlink:href="#m8ac450740f" y="109.75889"/>
     <use style="fill:#8c564b;stroke:#8c564b;" x="103.989789" xlink:href="#m8ac450740f" y="107.850119"/>
     <use style="fill:#8c564b;stroke:#8c564b;" x="110.477466" xlink:href="#m8ac450740f" y="103.985351"/>
     <use style="fill:#8c564b;stroke:#8c564b;" x="117.089499" xlink:href="#m8ac450740f" y="122.840652"/>
     <use style="fill:#8c564b;stroke:#8c564b;" x="123.583398" xlink:href="#m8ac450740f" y="122.743553"/>
     <use style="fill:#8c564b;stroke:#8c564b;" x="130.262839" xlink:href="#m8ac450740f" y="128.581238"/>
     <use style="fill:#8c564b;stroke:#8c564b;" x="136.77537" xlink:href="#m8ac450740f" y="131.487019"/>
     <use style="fill:#8c564b;stroke:#8c564b;" x="143.38942" xlink:href="#m8ac450740f" y="135.618535"/>
     <use style="fill:#8c564b;stroke:#8c564b;" x="150.085069" xlink:href="#m8ac450740f" y="143.101577"/>
     <use style="fill:#8c564b;stroke:#8c564b;" x="156.512917" xlink:href="#m8ac450740f" y="145.735223"/>
     <use style="fill:#8c564b;stroke:#8c564b;" x="163.183887" xlink:href="#m8ac450740f" y="152.181753"/>
     <use style="fill:#8c564b;stroke:#8c564b;" x="169.835161" xlink:href="#m8ac450740f" y="158.166497"/>
     <use style="fill:#8c564b;stroke:#8c564b;" x="176.431946" xlink:href="#m8ac450740f" y="159.380382"/>
     <use style="fill:#8c564b;stroke:#8c564b;" x="182.906157" xlink:href="#m8ac450740f" y="159.556897"/>
     <use style="fill:#8c564b;stroke:#8c564b;" x="189.592316" xlink:href="#m8ac450740f" y="158.770576"/>
     <use style="fill:#8c564b;stroke:#8c564b;" x="196.156662" xlink:href="#m8ac450740f" y="161.069077"/>
     <use style="fill:#8c564b;stroke:#8c564b;" x="202.711978" xlink:href="#m8ac450740f" y="161.638383"/>
     <use style="fill:#8c564b;stroke:#8c564b;" x="209.153512" xlink:href="#m8ac450740f" y="161.471794"/>
     <use style="fill:#8c564b;stroke:#8c564b;" x="215.667756" xlink:href="#m8ac450740f" y="161.619169"/>
     <use style="fill:#8c564b;stroke:#8c564b;" x="222.397813" xlink:href="#m8ac450740f" y="162.963107"/>
     <use style="fill:#8c564b;stroke:#8c564b;" x="228.895182" xlink:href="#m8ac450740f" y="162.695059"/>
     <use style="fill:#8c564b;stroke:#8c564b;" x="235.437242" xlink:href="#m8ac450740f" y="162.531867"/>
     <use style="fill:#8c564b;stroke:#8c564b;" x="242.08758" xlink:href="#m8ac450740f" y="162.894367"/>
     <use style="fill:#8c564b;stroke:#8c564b;" x="248.554893" xlink:href="#m8ac450740f" y="164.033229"/>
     <use style="fill:#8c564b;stroke:#8c564b;" x="255.05968" xlink:href="#m8ac450740f" y="161.90043"/>
     <use style="fill:#8c564b;stroke:#8c564b;" x="261.542045" xlink:href="#m8ac450740f" y="164.159873"/>
    </g>
   </g>
   <g id="line2d_17">
    <path clip-path="url(#pe93af249be)" d="M 58.675387 149.340282 
L 64.317033 127.070415 
L 71.255183 108.033977 
L 77.74508 106.095902 
L 84.348701 103.52317 
L 90.910687 95.43488 
L 97.532386 100.004926 
L 103.989789 101.229452 
L 110.477466 100.05606 
L 117.089499 118.558496 
L 123.583398 115.546125 
L 130.262839 119.680637 
L 136.77537 124.922663 
L 143.38942 126.019154 
L 150.085069 139.373444 
L 156.512917 139.479096 
L 163.183887 149.258898 
L 169.835161 156.182357 
L 176.431946 157.191974 
L 182.906157 157.579332 
L 189.592316 157.276673 
L 196.156662 158.820056 
L 202.711978 160.154518 
L 209.153512 159.652408 
L 215.667756 160.993866 
L 222.397813 162.323329 
L 228.895182 161.844824 
L 235.437242 161.960346 
L 242.08758 162.662568 
L 248.554893 163.407396 
L 255.05968 161.374791 
L 261.542045 163.566555 
" style="fill:none;stroke:#e377c2;stroke-linecap:square;stroke-width:0.8;"/>
    <defs>
     <path d="M -3 0 
L 3 0 
M 0 3 
L 0 -3 
" id="me46feae115" style="stroke:#e377c2;"/>
    </defs>
    <g clip-path="url(#pe93af249be)">
     <use style="fill:#e377c2;stroke:#e377c2;" x="58.675387" xlink:href="#me46feae115" y="149.340282"/>
     <use style="fill:#e377c2;stroke:#e377c2;" x="64.317033" xlink:href="#me46feae115" y="127.070415"/>
     <use style="fill:#e377c2;stroke:#e377c2;" x="71.255183" xlink:href="#me46feae115" y="108.033977"/>
     <use style="fill:#e377c2;stroke:#e377c2;" x="77.74508" xlink:href="#me46feae115" y="106.095902"/>
     <use style="fill:#e377c2;stroke:#e377c2;" x="84.348701" xlink:href="#me46feae115" y="103.52317"/>
     <use style="fill:#e377c2;stroke:#e377c2;" x="90.910687" xlink:href="#me46feae115" y="95.43488"/>
     <use style="fill:#e377c2;stroke:#e377c2;" x="97.532386" xlink:href="#me46feae115" y="100.004926"/>
     <use style="fill:#e377c2;stroke:#e377c2;" x="103.989789" xlink:href="#me46feae115" y="101.229452"/>
     <use style="fill:#e377c2;stroke:#e377c2;" x="110.477466" xlink:href="#me46feae115" y="100.05606"/>
     <use style="fill:#e377c2;stroke:#e377c2;" x="117.089499" xlink:href="#me46feae115" y="118.558496"/>
     <use style="fill:#e377c2;stroke:#e377c2;" x="123.583398" xlink:href="#me46feae115" y="115.546125"/>
     <use style="fill:#e377c2;stroke:#e377c2;" x="130.262839" xlink:href="#me46feae115" y="119.680637"/>
     <use style="fill:#e377c2;stroke:#e377c2;" x="136.77537" xlink:href="#me46feae115" y="124.922663"/>
     <use style="fill:#e377c2;stroke:#e377c2;" x="143.38942" xlink:href="#me46feae115" y="126.019154"/>
     <use style="fill:#e377c2;stroke:#e377c2;" x="150.085069" xlink:href="#me46feae115" y="139.373444"/>
     <use style="fill:#e377c2;stroke:#e377c2;" x="156.512917" xlink:href="#me46feae115" y="139.479096"/>
     <use style="fill:#e377c2;stroke:#e377c2;" x="163.183887" xlink:href="#me46feae115" y="149.258898"/>
     <use style="fill:#e377c2;stroke:#e377c2;" x="169.835161" xlink:href="#me46feae115" y="156.182357"/>
     <use style="fill:#e377c2;stroke:#e377c2;" x="176.431946" xlink:href="#me46feae115" y="157.191974"/>
     <use style="fill:#e377c2;stroke:#e377c2;" x="182.906157" xlink:href="#me46feae115" y="157.579332"/>
     <use style="fill:#e377c2;stroke:#e377c2;" x="189.592316" xlink:href="#me46feae115" y="157.276673"/>
     <use style="fill:#e377c2;stroke:#e377c2;" x="196.156662" xlink:href="#me46feae115" y="158.820056"/>
     <use style="fill:#e377c2;stroke:#e377c2;" x="202.711978" xlink:href="#me46feae115" y="160.154518"/>
     <use style="fill:#e377c2;stroke:#e377c2;" x="209.153512" xlink:href="#me46feae115" y="159.652408"/>
     <use style="fill:#e377c2;stroke:#e377c2;" x="215.667756" xlink:href="#me46feae115" y="160.993866"/>
     <use style="fill:#e377c2;stroke:#e377c2;" x="222.397813" xlink:href="#me46feae115" y="162.323329"/>
     <use style="fill:#e377c2;stroke:#e377c2;" x="228.895182" xlink:href="#me46feae115" y="161.844824"/>
     <use style="fill:#e377c2;stroke:#e377c2;" x="235.437242" xlink:href="#me46feae115" y="161.960346"/>
     <use style="fill:#e377c2;stroke:#e377c2;" x="242.08758" xlink:href="#me46feae115" y="162.662568"/>
     <use style="fill:#e377c2;stroke:#e377c2;" x="248.554893" xlink:href="#me46feae115" y="163.407396"/>
     <use style="fill:#e377c2;stroke:#e377c2;" x="255.05968" xlink:href="#me46feae115" y="161.374791"/>
     <use style="fill:#e377c2;stroke:#e377c2;" x="261.542045" xlink:href="#me46feae115" y="163.566555"/>
    </g>
   </g>
   <g id="patch_3">
    <path d="M 48.4875 171.6555 
L 48.4875 35.7555 
" style="fill:none;stroke:#000000;stroke-linecap:square;stroke-linejoin:miter;stroke-width:0.8;"/>
   </g>
   <g id="patch_4">
    <path d="M 271.6875 171.6555 
L 271.6875 35.7555 
" style="fill:none;stroke:#000000;stroke-linecap:square;stroke-linejoin:miter;stroke-width:0.8;"/>
   </g>
   <g id="patch_5">
    <path d="M 48.4875 171.6555 
L 271.6875 171.6555 
" style="fill:none;stroke:#000000;stroke-linecap:square;stroke-linejoin:miter;stroke-width:0.8;"/>
   </g>
   <g id="patch_6">
    <path d="M 48.4875 35.7555 
L 271.6875 35.7555 
" style="fill:none;stroke:#000000;stroke-linecap:square;stroke-linejoin:miter;stroke-width:0.8;"/>
   </g>
   <g id="text_13">
    <!-- Variance vs. Init. Conductance -->
    <g transform="translate(68.968125 16.318125)scale(0.12 -0.12)">
     <defs>
      <path d="M 2.984375 54.6875 
L 12.5 54.6875 
L 29.59375 8.796875 
L 46.6875 54.6875 
L 56.203125 54.6875 
L 35.6875 0 
L 23.484375 0 
z
" id="DejaVuSans-118"/>
      <path d="M 44.28125 53.078125 
L 44.28125 44.578125 
Q 40.484375 46.53125 36.375 47.5 
Q 32.28125 48.484375 27.875 48.484375 
Q 21.1875 48.484375 17.84375 46.4375 
Q 14.5 44.390625 14.5 40.28125 
Q 14.5 37.15625 16.890625 35.375 
Q 19.28125 33.59375 26.515625 31.984375 
L 29.59375 31.296875 
Q 39.15625 29.25 43.1875 25.515625 
Q 47.21875 21.78125 47.21875 15.09375 
Q 47.21875 7.46875 41.1875 3.015625 
Q 35.15625 -1.421875 24.609375 -1.421875 
Q 20.21875 -1.421875 15.453125 -0.5625 
Q 10.6875 0.296875 5.421875 2 
L 5.421875 11.28125 
Q 10.40625 8.6875 15.234375 7.390625 
Q 20.0625 6.109375 24.8125 6.109375 
Q 31.15625 6.109375 34.5625 8.28125 
Q 37.984375 10.453125 37.984375 14.40625 
Q 37.984375 18.0625 35.515625 20.015625 
Q 33.0625 21.96875 24.703125 23.78125 
L 21.578125 24.515625 
Q 13.234375 26.265625 9.515625 29.90625 
Q 5.8125 33.546875 5.8125 39.890625 
Q 5.8125 47.609375 11.28125 51.796875 
Q 16.75 56 26.8125 56 
Q 31.78125 56 36.171875 55.265625 
Q 40.578125 54.546875 44.28125 53.078125 
z
" id="DejaVuSans-115"/>
      <path d="M 10.6875 12.40625 
L 21 12.40625 
L 21 0 
L 10.6875 0 
z
" id="DejaVuSans-46"/>
     </defs>
     <use xlink:href="#DejaVuSans-86"/>
     <use x="60.658203" xlink:href="#DejaVuSans-97"/>
     <use x="121.9375" xlink:href="#DejaVuSans-114"/>
     <use x="163.050781" xlink:href="#DejaVuSans-105"/>
     <use x="190.833984" xlink:href="#DejaVuSans-97"/>
     <use x="252.113281" xlink:href="#DejaVuSans-110"/>
     <use x="315.492188" xlink:href="#DejaVuSans-99"/>
     <use x="370.472656" xlink:href="#DejaVuSans-101"/>
     <use x="431.996094" xlink:href="#DejaVuSans-32"/>
     <use x="463.783203" xlink:href="#DejaVuSans-118"/>
     <use x="522.962891" xlink:href="#DejaVuSans-115"/>
     <use x="575.0625" xlink:href="#DejaVuSans-46"/>
     <use x="606.849609" xlink:href="#DejaVuSans-32"/>
     <use x="638.636719" xlink:href="#DejaVuSans-73"/>
     <use x="668.128906" xlink:href="#DejaVuSans-110"/>
     <use x="731.507812" xlink:href="#DejaVuSans-105"/>
     <use x="759.291016" xlink:href="#DejaVuSans-116"/>
     <use x="798.5" xlink:href="#DejaVuSans-46"/>
     <use x="830.287109" xlink:href="#DejaVuSans-32"/>
     <use x="862.074219" xlink:href="#DejaVuSans-67"/>
     <use x="931.898438" xlink:href="#DejaVuSans-111"/>
     <use x="993.080078" xlink:href="#DejaVuSans-110"/>
     <use x="1056.458984" xlink:href="#DejaVuSans-100"/>
     <use x="1119.935547" xlink:href="#DejaVuSans-117"/>
     <use x="1183.314453" xlink:href="#DejaVuSans-99"/>
     <use x="1238.294922" xlink:href="#DejaVuSans-116"/>
     <use x="1277.503906" xlink:href="#DejaVuSans-97"/>
     <use x="1338.783203" xlink:href="#DejaVuSans-110"/>
     <use x="1402.162109" xlink:href="#DejaVuSans-99"/>
     <use x="1457.142578" xlink:href="#DejaVuSans-101"/>
    </g>
    <!-- (Tech A, Room Temp) -->
    <g transform="translate(97.159688 29.7555)scale(0.12 -0.12)">
     <defs>
      <path d="M -0.296875 72.90625 
L 61.375 72.90625 
L 61.375 64.59375 
L 35.5 64.59375 
L 35.5 0 
L 25.59375 0 
L 25.59375 64.59375 
L -0.296875 64.59375 
z
" id="DejaVuSans-84"/>
      <path d="M 54.890625 33.015625 
L 54.890625 0 
L 45.90625 0 
L 45.90625 32.71875 
Q 45.90625 40.484375 42.875 44.328125 
Q 39.84375 48.1875 33.796875 48.1875 
Q 26.515625 48.1875 22.3125 43.546875 
Q 18.109375 38.921875 18.109375 30.90625 
L 18.109375 0 
L 9.078125 0 
L 9.078125 75.984375 
L 18.109375 75.984375 
L 18.109375 46.1875 
Q 21.34375 51.125 25.703125 53.5625 
Q 30.078125 56 35.796875 56 
Q 45.21875 56 50.046875 50.171875 
Q 54.890625 44.34375 54.890625 33.015625 
z
" id="DejaVuSans-104"/>
      <path d="M 34.1875 63.1875 
L 20.796875 26.90625 
L 47.609375 26.90625 
z
M 28.609375 72.90625 
L 39.796875 72.90625 
L 67.578125 0 
L 57.328125 0 
L 50.6875 18.703125 
L 17.828125 18.703125 
L 11.1875 0 
L 0.78125 0 
z
" id="DejaVuSans-65"/>
      <path d="M 11.71875 12.40625 
L 22.015625 12.40625 
L 22.015625 4 
L 14.015625 -11.625 
L 7.71875 -11.625 
L 11.71875 4 
z
" id="DejaVuSans-44"/>
      <path d="M 44.390625 34.1875 
Q 47.5625 33.109375 50.5625 29.59375 
Q 53.5625 26.078125 56.59375 19.921875 
L 66.609375 0 
L 56 0 
L 46.6875 18.703125 
Q 43.0625 26.03125 39.671875 28.421875 
Q 36.28125 30.8125 30.421875 30.8125 
L 19.671875 30.8125 
L 19.671875 0 
L 9.8125 0 
L 9.8125 72.90625 
L 32.078125 72.90625 
Q 44.578125 72.90625 50.734375 67.671875 
Q 56.890625 62.453125 56.890625 51.90625 
Q 56.890625 45.015625 53.6875 40.46875 
Q 50.484375 35.9375 44.390625 34.1875 
z
M 19.671875 64.796875 
L 19.671875 38.921875 
L 32.078125 38.921875 
Q 39.203125 38.921875 42.84375 42.21875 
Q 46.484375 45.515625 46.484375 51.90625 
Q 46.484375 58.296875 42.84375 61.546875 
Q 39.203125 64.796875 32.078125 64.796875 
z
" id="DejaVuSans-82"/>
      <path d="M 52 44.1875 
Q 55.375 50.25 60.0625 53.125 
Q 64.75 56 71.09375 56 
Q 79.640625 56 84.28125 50.015625 
Q 88.921875 44.046875 88.921875 33.015625 
L 88.921875 0 
L 79.890625 0 
L 79.890625 32.71875 
Q 79.890625 40.578125 77.09375 44.375 
Q 74.3125 48.1875 68.609375 48.1875 
Q 61.625 48.1875 57.5625 43.546875 
Q 53.515625 38.921875 53.515625 30.90625 
L 53.515625 0 
L 44.484375 0 
L 44.484375 32.71875 
Q 44.484375 40.625 41.703125 44.40625 
Q 38.921875 48.1875 33.109375 48.1875 
Q 26.21875 48.1875 22.15625 43.53125 
Q 18.109375 38.875 18.109375 30.90625 
L 18.109375 0 
L 9.078125 0 
L 9.078125 54.6875 
L 18.109375 54.6875 
L 18.109375 46.1875 
Q 21.1875 51.21875 25.484375 53.609375 
Q 29.78125 56 35.6875 56 
Q 41.65625 56 45.828125 52.96875 
Q 50 49.953125 52 44.1875 
z
" id="DejaVuSans-109"/>
      <path d="M 18.109375 8.203125 
L 18.109375 -20.796875 
L 9.078125 -20.796875 
L 9.078125 54.6875 
L 18.109375 54.6875 
L 18.109375 46.390625 
Q 20.953125 51.265625 25.265625 53.625 
Q 29.59375 56 35.59375 56 
Q 45.5625 56 51.78125 48.09375 
Q 58.015625 40.1875 58.015625 27.296875 
Q 58.015625 14.40625 51.78125 6.484375 
Q 45.5625 -1.421875 35.59375 -1.421875 
Q 29.59375 -1.421875 25.265625 0.953125 
Q 20.953125 3.328125 18.109375 8.203125 
z
M 48.6875 27.296875 
Q 48.6875 37.203125 44.609375 42.84375 
Q 40.53125 48.484375 33.40625 48.484375 
Q 26.265625 48.484375 22.1875 42.84375 
Q 18.109375 37.203125 18.109375 27.296875 
Q 18.109375 17.390625 22.1875 11.75 
Q 26.265625 6.109375 33.40625 6.109375 
Q 40.53125 6.109375 44.609375 11.75 
Q 48.6875 17.390625 48.6875 27.296875 
z
" id="DejaVuSans-112"/>
     </defs>
     <use xlink:href="#DejaVuSans-40"/>
     <use x="39.013672" xlink:href="#DejaVuSans-84"/>
     <use x="83.097656" xlink:href="#DejaVuSans-101"/>
     <use x="144.621094" xlink:href="#DejaVuSans-99"/>
     <use x="199.601562" xlink:href="#DejaVuSans-104"/>
     <use x="262.980469" xlink:href="#DejaVuSans-32"/>
     <use x="294.767578" xlink:href="#DejaVuSans-65"/>
     <use x="363.175781" xlink:href="#DejaVuSans-44"/>
     <use x="394.962891" xlink:href="#DejaVuSans-32"/>
     <use x="426.75" xlink:href="#DejaVuSans-82"/>
     <use x="491.732422" xlink:href="#DejaVuSans-111"/>
     <use x="552.914062" xlink:href="#DejaVuSans-111"/>
     <use x="614.095703" xlink:href="#DejaVuSans-109"/>
     <use x="711.507812" xlink:href="#DejaVuSans-32"/>
     <use x="743.294922" xlink:href="#DejaVuSans-84"/>
     <use x="787.378906" xlink:href="#DejaVuSans-101"/>
     <use x="848.902344" xlink:href="#DejaVuSans-109"/>
     <use x="946.314453" xlink:href="#DejaVuSans-112"/>
     <use x="1009.791016" xlink:href="#DejaVuSans-41"/>
    </g>
   </g>
   <g id="legend_1">
    <g id="patch_7">
     <path d="M 57.434375 87.789875 
L 264.6875 87.789875 
Q 266.6875 87.789875 266.6875 85.789875 
L 266.6875 42.7555 
Q 266.6875 40.7555 264.6875 40.7555 
L 57.434375 40.7555 
Q 55.434375 40.7555 55.434375 42.7555 
L 55.434375 85.789875 
Q 55.434375 87.789875 57.434375 87.789875 
z
" style="fill:#ffffff;opacity:0.8;stroke:#cccccc;stroke-linejoin:miter;"/>
    </g>
    <g id="line2d_18">
     <path d="M 59.434375 48.853937 
L 79.434375 48.853937 
" style="fill:none;stroke:#1f77b4;stroke-linecap:square;stroke-width:0.8;"/>
    </g>
    <g id="line2d_19">
     <g>
      <use style="fill:#1f77b4;stroke:#1f77b4;" x="69.434375" xlink:href="#m882315cd4e" y="48.853937"/>
     </g>
    </g>
    <g id="text_14">
     <!-- t=0 -->
     <g transform="translate(81.434375 52.353937)scale(0.1 -0.1)">
      <defs>
       <path d="M 10.59375 45.40625 
L 73.1875 45.40625 
L 73.1875 37.203125 
L 10.59375 37.203125 
z
M 10.59375 25.484375 
L 73.1875 25.484375 
L 73.1875 17.1875 
L 10.59375 17.1875 
z
" id="DejaVuSans-61"/>
      </defs>
      <use xlink:href="#DejaVuSans-116"/>
      <use x="39.208984" xlink:href="#DejaVuSans-61"/>
      <use x="122.998047" xlink:href="#DejaVuSans-48"/>
     </g>
    </g>
    <g id="line2d_20">
     <path d="M 59.434375 63.532062 
L 79.434375 63.532062 
" style="fill:none;stroke:#ff7f0e;stroke-linecap:square;stroke-width:0.8;"/>
    </g>
    <g id="line2d_21">
     <g>
      <use style="fill:#ff7f0e;stroke:#ff7f0e;" x="69.434375" xlink:href="#m0ccb018df0" y="63.532062"/>
     </g>
    </g>
    <g id="text_15">
     <!-- t=0.01 -->
     <g transform="translate(81.434375 67.032062)scale(0.1 -0.1)">
      <use xlink:href="#DejaVuSans-116"/>
      <use x="39.208984" xlink:href="#DejaVuSans-61"/>
      <use x="122.998047" xlink:href="#DejaVuSans-48"/>
      <use x="186.621094" xlink:href="#DejaVuSans-46"/>
      <use x="218.408203" xlink:href="#DejaVuSans-48"/>
      <use x="282.03125" xlink:href="#DejaVuSans-49"/>
     </g>
    </g>
    <g id="line2d_22">
     <path d="M 59.434375 78.210187 
L 79.434375 78.210187 
" style="fill:none;stroke:#2ca02c;stroke-linecap:square;stroke-width:0.8;"/>
    </g>
    <g id="line2d_23">
     <g>
      <use style="fill:#2ca02c;stroke:#2ca02c;" x="69.434375" xlink:href="#m70c7aa7d1d" y="78.210187"/>
     </g>
    </g>
    <g id="text_16">
     <!-- t=0.1 -->
     <g transform="translate(81.434375 81.710187)scale(0.1 -0.1)">
      <use xlink:href="#DejaVuSans-116"/>
      <use x="39.208984" xlink:href="#DejaVuSans-61"/>
      <use x="122.998047" xlink:href="#DejaVuSans-48"/>
      <use x="186.621094" xlink:href="#DejaVuSans-46"/>
      <use x="218.408203" xlink:href="#DejaVuSans-49"/>
     </g>
    </g>
    <g id="line2d_24">
     <path d="M 136 48.853937 
L 156 48.853937 
" style="fill:none;stroke:#d62728;stroke-linecap:square;stroke-width:0.8;"/>
    </g>
    <g id="line2d_25">
     <g>
      <use style="fill:#d62728;stroke:#d62728;" x="146" xlink:href="#m5a922a37de" y="48.853937"/>
     </g>
    </g>
    <g id="text_17">
     <!-- t=1 -->
     <g transform="translate(158 52.353937)scale(0.1 -0.1)">
      <use xlink:href="#DejaVuSans-116"/>
      <use x="39.208984" xlink:href="#DejaVuSans-61"/>
      <use x="122.998047" xlink:href="#DejaVuSans-49"/>
     </g>
    </g>
    <g id="line2d_26">
     <path d="M 136 63.532062 
L 156 63.532062 
" style="fill:none;stroke:#9467bd;stroke-linecap:square;stroke-width:0.8;"/>
    </g>
    <g id="line2d_27">
     <g>
      <use style="fill:#9467bd;stroke:#9467bd;" x="146" xlink:href="#m36efa949ac" y="63.532062"/>
     </g>
    </g>
    <g id="text_18">
     <!-- t=1E2 -->
     <g transform="translate(158 67.032062)scale(0.1 -0.1)">
      <defs>
       <path d="M 9.8125 72.90625 
L 55.90625 72.90625 
L 55.90625 64.59375 
L 19.671875 64.59375 
L 19.671875 43.015625 
L 54.390625 43.015625 
L 54.390625 34.71875 
L 19.671875 34.71875 
L 19.671875 8.296875 
L 56.78125 8.296875 
L 56.78125 0 
L 9.8125 0 
z
" id="DejaVuSans-69"/>
      </defs>
      <use xlink:href="#DejaVuSans-116"/>
      <use x="39.208984" xlink:href="#DejaVuSans-61"/>
      <use x="122.998047" xlink:href="#DejaVuSans-49"/>
      <use x="186.621094" xlink:href="#DejaVuSans-69"/>
      <use x="249.804688" xlink:href="#DejaVuSans-50"/>
     </g>
    </g>
    <g id="line2d_28">
     <path d="M 209.34375 48.853937 
L 229.34375 48.853937 
" style="fill:none;stroke:#8c564b;stroke-linecap:square;stroke-width:0.8;"/>
    </g>
    <g id="line2d_29">
     <g>
      <use style="fill:#8c564b;stroke:#8c564b;" x="219.34375" xlink:href="#m8ac450740f" y="48.853937"/>
     </g>
    </g>
    <g id="text_19">
     <!-- t=1E3 -->
     <g transform="translate(231.34375 52.353937)scale(0.1 -0.1)">
      <defs>
       <path d="M 40.578125 39.3125 
Q 47.65625 37.796875 51.625 33 
Q 55.609375 28.21875 55.609375 21.1875 
Q 55.609375 10.40625 48.1875 4.484375 
Q 40.765625 -1.421875 27.09375 -1.421875 
Q 22.515625 -1.421875 17.65625 -0.515625 
Q 12.796875 0.390625 7.625 2.203125 
L 7.625 11.71875 
Q 11.71875 9.328125 16.59375 8.109375 
Q 21.484375 6.890625 26.8125 6.890625 
Q 36.078125 6.890625 40.9375 10.546875 
Q 45.796875 14.203125 45.796875 21.1875 
Q 45.796875 27.640625 41.28125 31.265625 
Q 36.765625 34.90625 28.71875 34.90625 
L 20.21875 34.90625 
L 20.21875 43.015625 
L 29.109375 43.015625 
Q 36.375 43.015625 40.234375 45.921875 
Q 44.09375 48.828125 44.09375 54.296875 
Q 44.09375 59.90625 40.109375 62.90625 
Q 36.140625 65.921875 28.71875 65.921875 
Q 24.65625 65.921875 20.015625 65.03125 
Q 15.375 64.15625 9.8125 62.3125 
L 9.8125 71.09375 
Q 15.4375 72.65625 20.34375 73.4375 
Q 25.25 74.21875 29.59375 74.21875 
Q 40.828125 74.21875 47.359375 69.109375 
Q 53.90625 64.015625 53.90625 55.328125 
Q 53.90625 49.265625 50.4375 45.09375 
Q 46.96875 40.921875 40.578125 39.3125 
z
" id="DejaVuSans-51"/>
      </defs>
      <use xlink:href="#DejaVuSans-116"/>
      <use x="39.208984" xlink:href="#DejaVuSans-61"/>
      <use x="122.998047" xlink:href="#DejaVuSans-49"/>
      <use x="186.621094" xlink:href="#DejaVuSans-69"/>
      <use x="249.804688" xlink:href="#DejaVuSans-51"/>
     </g>
    </g>
    <g id="line2d_30">
     <path d="M 209.34375 63.532062 
L 229.34375 63.532062 
" style="fill:none;stroke:#e377c2;stroke-linecap:square;stroke-width:0.8;"/>
    </g>
    <g id="line2d_31">
     <g>
      <use style="fill:#e377c2;stroke:#e377c2;" x="219.34375" xlink:href="#me46feae115" y="63.532062"/>
     </g>
    </g>
    <g id="text_20">
     <!-- t=1E4 -->
     <g transform="translate(231.34375 67.032062)scale(0.1 -0.1)">
      <defs>
       <path d="M 37.796875 64.3125 
L 12.890625 25.390625 
L 37.796875 25.390625 
z
M 35.203125 72.90625 
L 47.609375 72.90625 
L 47.609375 25.390625 
L 58.015625 25.390625 
L 58.015625 17.1875 
L 47.609375 17.1875 
L 47.609375 0 
L 37.796875 0 
L 37.796875 17.1875 
L 4.890625 17.1875 
L 4.890625 26.703125 
z
" id="DejaVuSans-52"/>
      </defs>
      <use xlink:href="#DejaVuSans-116"/>
      <use x="39.208984" xlink:href="#DejaVuSans-61"/>
      <use x="122.998047" xlink:href="#DejaVuSans-49"/>
      <use x="186.621094" xlink:href="#DejaVuSans-69"/>
      <use x="249.804688" xlink:href="#DejaVuSans-52"/>
     </g>
    </g>
   </g>
  </g>
 </g>
 <defs>
  <clipPath id="pe93af249be">
   <rect height="135.9" width="223.2" x="48.4875" y="35.7555"/>
  </clipPath>
 </defs>
</svg>
