<?xml version="1.0" encoding="utf-8" standalone="no"?>
<!DOCTYPE svg PUBLIC "-//W3C//DTD SVG 1.1//EN"
  "http://www.w3.org/Graphics/SVG/1.1/DTD/svg11.dtd">
<!-- Created with matplotlib (https://matplotlib.org/) -->
<svg height="209.21175pt" version="1.1" viewBox="0 0 272.525 209.21175" width="272.525pt" xmlns="http://www.w3.org/2000/svg" xmlns:xlink="http://www.w3.org/1999/xlink">
 <metadata>
  <rdf:RDF xmlns:cc="http://creativecommons.org/ns#" xmlns:dc="http://purl.org/dc/elements/1.1/" xmlns:rdf="http://www.w3.org/1999/02/22-rdf-syntax-ns#">
   <cc:Work>
    <dc:type rdf:resource="http://purl.org/dc/dcmitype/StillImage"/>
    <dc:date>2021-07-20T14:36:26.536534</dc:date>
    <dc:format>image/svg+xml</dc:format>
    <dc:creator>
     <cc:Agent>
      <dc:title>Matplotlib v3.3.3, https://matplotlib.org/</dc:title>
     </cc:Agent>
    </dc:creator>
   </cc:Work>
  </rdf:RDF>
 </metadata>
 <defs>
  <style type="text/css">*{stroke-linecap:butt;stroke-linejoin:round;}</style>
 </defs>
 <g id="figure_1">
  <g id="patch_1">
   <path d="M 0 209.21175 
L 272.525 209.21175 
L 272.525 -0 
L 0 -0 
z
" style="fill:none;"/>
  </g>
  <g id="axes_1">
   <g id="patch_2">
    <path d="M 42.125 171.6555 
L 265.325 171.6555 
L 265.325 35.7555 
L 42.125 35.7555 
z
" style="fill:#ffffff;"/>
   </g>
   <g id="matplotlib.axis_1">
    <g id="xtick_1">
     <g id="line2d_1">
      <defs>
       <path d="M 0 0 
L 0 3.5 
" id="m90875299f0" style="stroke:#000000;stroke-width:0.8;"/>
      </defs>
      <g>
       <use style="stroke:#000000;stroke-width:0.8;" x="48.389939" xlink:href="#m90875299f0" y="171.6555"/>
      </g>
     </g>
     <g id="text_1">
      <!-- 0 -->
      <g transform="translate(45.208689 186.253937)scale(0.1 -0.1)">
       <defs>
        <path d="M 31.78125 66.40625 
Q 24.171875 66.40625 20.328125 58.90625 
Q 16.5 51.421875 16.5 36.375 
Q 16.5 21.390625 20.328125 13.890625 
Q 24.171875 6.390625 31.78125 6.390625 
Q 39.453125 6.390625 43.28125 13.890625 
Q 47.125 21.390625 47.125 36.375 
Q 47.125 51.421875 43.28125 58.90625 
Q 39.453125 66.40625 31.78125 66.40625 
z
M 31.78125 74.21875 
Q 44.046875 74.21875 50.515625 64.515625 
Q 56.984375 54.828125 56.984375 36.375 
Q 56.984375 17.96875 50.515625 8.265625 
Q 44.046875 -1.421875 31.78125 -1.421875 
Q 19.53125 -1.421875 13.0625 8.265625 
Q 6.59375 17.96875 6.59375 36.375 
Q 6.59375 54.828125 13.0625 64.515625 
Q 19.53125 74.21875 31.78125 74.21875 
z
" id="DejaVuSans-48"/>
       </defs>
       <use xlink:href="#DejaVuSans-48"/>
      </g>
     </g>
    </g>
    <g id="xtick_2">
     <g id="line2d_2">
      <g>
       <use style="stroke:#000000;stroke-width:0.8;" x="100.990068" xlink:href="#m90875299f0" y="171.6555"/>
      </g>
     </g>
     <g id="text_2">
      <!-- 10 -->
      <g transform="translate(94.627568 186.253937)scale(0.1 -0.1)">
       <defs>
        <path d="M 12.40625 8.296875 
L 28.515625 8.296875 
L 28.515625 63.921875 
L 10.984375 60.40625 
L 10.984375 69.390625 
L 28.421875 72.90625 
L 38.28125 72.90625 
L 38.28125 8.296875 
L 54.390625 8.296875 
L 54.390625 0 
L 12.40625 0 
z
" id="DejaVuSans-49"/>
       </defs>
       <use xlink:href="#DejaVuSans-49"/>
       <use x="63.623047" xlink:href="#DejaVuSans-48"/>
      </g>
     </g>
    </g>
    <g id="xtick_3">
     <g id="line2d_3">
      <g>
       <use style="stroke:#000000;stroke-width:0.8;" x="153.590197" xlink:href="#m90875299f0" y="171.6555"/>
      </g>
     </g>
     <g id="text_3">
      <!-- 20 -->
      <g transform="translate(147.227697 186.253937)scale(0.1 -0.1)">
       <defs>
        <path d="M 19.1875 8.296875 
L 53.609375 8.296875 
L 53.609375 0 
L 7.328125 0 
L 7.328125 8.296875 
Q 12.9375 14.109375 22.625 23.890625 
Q 32.328125 33.6875 34.8125 36.53125 
Q 39.546875 41.84375 41.421875 45.53125 
Q 43.3125 49.21875 43.3125 52.78125 
Q 43.3125 58.59375 39.234375 62.25 
Q 35.15625 65.921875 28.609375 65.921875 
Q 23.96875 65.921875 18.8125 64.3125 
Q 13.671875 62.703125 7.8125 59.421875 
L 7.8125 69.390625 
Q 13.765625 71.78125 18.9375 73 
Q 24.125 74.21875 28.421875 74.21875 
Q 39.75 74.21875 46.484375 68.546875 
Q 53.21875 62.890625 53.21875 53.421875 
Q 53.21875 48.921875 51.53125 44.890625 
Q 49.859375 40.875 45.40625 35.40625 
Q 44.1875 33.984375 37.640625 27.21875 
Q 31.109375 20.453125 19.1875 8.296875 
z
" id="DejaVuSans-50"/>
       </defs>
       <use xlink:href="#DejaVuSans-50"/>
       <use x="63.623047" xlink:href="#DejaVuSans-48"/>
      </g>
     </g>
    </g>
    <g id="xtick_4">
     <g id="line2d_4">
      <g>
       <use style="stroke:#000000;stroke-width:0.8;" x="206.190327" xlink:href="#m90875299f0" y="171.6555"/>
      </g>
     </g>
     <g id="text_4">
      <!-- 30 -->
      <g transform="translate(199.827827 186.253937)scale(0.1 -0.1)">
       <defs>
        <path d="M 40.578125 39.3125 
Q 47.65625 37.796875 51.625 33 
Q 55.609375 28.21875 55.609375 21.1875 
Q 55.609375 10.40625 48.1875 4.484375 
Q 40.765625 -1.421875 27.09375 -1.421875 
Q 22.515625 -1.421875 17.65625 -0.515625 
Q 12.796875 0.390625 7.625 2.203125 
L 7.625 11.71875 
Q 11.71875 9.328125 16.59375 8.109375 
Q 21.484375 6.890625 26.8125 6.890625 
Q 36.078125 6.890625 40.9375 10.546875 
Q 45.796875 14.203125 45.796875 21.1875 
Q 45.796875 27.640625 41.28125 31.265625 
Q 36.765625 34.90625 28.71875 34.90625 
L 20.21875 34.90625 
L 20.21875 43.015625 
L 29.109375 43.015625 
Q 36.375 43.015625 40.234375 45.921875 
Q 44.09375 48.828125 44.09375 54.296875 
Q 44.09375 59.90625 40.109375 62.90625 
Q 36.140625 65.921875 28.71875 65.921875 
Q 24.65625 65.921875 20.015625 65.03125 
Q 15.375 64.15625 9.8125 62.3125 
L 9.8125 71.09375 
Q 15.4375 72.65625 20.34375 73.4375 
Q 25.25 74.21875 29.59375 74.21875 
Q 40.828125 74.21875 47.359375 69.109375 
Q 53.90625 64.015625 53.90625 55.328125 
Q 53.90625 49.265625 50.4375 45.09375 
Q 46.96875 40.921875 40.578125 39.3125 
z
" id="DejaVuSans-51"/>
       </defs>
       <use xlink:href="#DejaVuSans-51"/>
       <use x="63.623047" xlink:href="#DejaVuSans-48"/>
      </g>
     </g>
    </g>
    <g id="xtick_5">
     <g id="line2d_5">
      <g>
       <use style="stroke:#000000;stroke-width:0.8;" x="258.790456" xlink:href="#m90875299f0" y="171.6555"/>
      </g>
     </g>
     <g id="text_5">
      <!-- 40 -->
      <g transform="translate(252.427956 186.253937)scale(0.1 -0.1)">
       <defs>
        <path d="M 37.796875 64.3125 
L 12.890625 25.390625 
L 37.796875 25.390625 
z
M 35.203125 72.90625 
L 47.609375 72.90625 
L 47.609375 25.390625 
L 58.015625 25.390625 
L 58.015625 17.1875 
L 47.609375 17.1875 
L 47.609375 0 
L 37.796875 0 
L 37.796875 17.1875 
L 4.890625 17.1875 
L 4.890625 26.703125 
z
" id="DejaVuSans-52"/>
       </defs>
       <use xlink:href="#DejaVuSans-52"/>
       <use x="63.623047" xlink:href="#DejaVuSans-48"/>
      </g>
     </g>
    </g>
    <g id="text_6">
     <!-- Initial Conductance (µS) -->
     <g transform="translate(93.624219 199.932062)scale(0.1 -0.1)">
      <defs>
       <path d="M 9.8125 72.90625 
L 19.671875 72.90625 
L 19.671875 0 
L 9.8125 0 
z
" id="DejaVuSans-73"/>
       <path d="M 54.890625 33.015625 
L 54.890625 0 
L 45.90625 0 
L 45.90625 32.71875 
Q 45.90625 40.484375 42.875 44.328125 
Q 39.84375 48.1875 33.796875 48.1875 
Q 26.515625 48.1875 22.3125 43.546875 
Q 18.109375 38.921875 18.109375 30.90625 
L 18.109375 0 
L 9.078125 0 
L 9.078125 54.6875 
L 18.109375 54.6875 
L 18.109375 46.1875 
Q 21.34375 51.125 25.703125 53.5625 
Q 30.078125 56 35.796875 56 
Q 45.21875 56 50.046875 50.171875 
Q 54.890625 44.34375 54.890625 33.015625 
z
" id="DejaVuSans-110"/>
       <path d="M 9.421875 54.6875 
L 18.40625 54.6875 
L 18.40625 0 
L 9.421875 0 
z
M 9.421875 75.984375 
L 18.40625 75.984375 
L 18.40625 64.59375 
L 9.421875 64.59375 
z
" id="DejaVuSans-105"/>
       <path d="M 18.3125 70.21875 
L 18.3125 54.6875 
L 36.8125 54.6875 
L 36.8125 47.703125 
L 18.3125 47.703125 
L 18.3125 18.015625 
Q 18.3125 11.328125 20.140625 9.421875 
Q 21.96875 7.515625 27.59375 7.515625 
L 36.8125 7.515625 
L 36.8125 0 
L 27.59375 0 
Q 17.1875 0 13.234375 3.875 
Q 9.28125 7.765625 9.28125 18.015625 
L 9.28125 47.703125 
L 2.6875 47.703125 
L 2.6875 54.6875 
L 9.28125 54.6875 
L 9.28125 70.21875 
z
" id="DejaVuSans-116"/>
       <path d="M 34.28125 27.484375 
Q 23.390625 27.484375 19.1875 25 
Q 14.984375 22.515625 14.984375 16.5 
Q 14.984375 11.71875 18.140625 8.90625 
Q 21.296875 6.109375 26.703125 6.109375 
Q 34.1875 6.109375 38.703125 11.40625 
Q 43.21875 16.703125 43.21875 25.484375 
L 43.21875 27.484375 
z
M 52.203125 31.203125 
L 52.203125 0 
L 43.21875 0 
L 43.21875 8.296875 
Q 40.140625 3.328125 35.546875 0.953125 
Q 30.953125 -1.421875 24.3125 -1.421875 
Q 15.921875 -1.421875 10.953125 3.296875 
Q 6 8.015625 6 15.921875 
Q 6 25.140625 12.171875 29.828125 
Q 18.359375 34.515625 30.609375 34.515625 
L 43.21875 34.515625 
L 43.21875 35.40625 
Q 43.21875 41.609375 39.140625 45 
Q 35.0625 48.390625 27.6875 48.390625 
Q 23 48.390625 18.546875 47.265625 
Q 14.109375 46.140625 10.015625 43.890625 
L 10.015625 52.203125 
Q 14.9375 54.109375 19.578125 55.046875 
Q 24.21875 56 28.609375 56 
Q 40.484375 56 46.34375 49.84375 
Q 52.203125 43.703125 52.203125 31.203125 
z
" id="DejaVuSans-97"/>
       <path d="M 9.421875 75.984375 
L 18.40625 75.984375 
L 18.40625 0 
L 9.421875 0 
z
" id="DejaVuSans-108"/>
       <path id="DejaVuSans-32"/>
       <path d="M 64.40625 67.28125 
L 64.40625 56.890625 
Q 59.421875 61.53125 53.78125 63.8125 
Q 48.140625 66.109375 41.796875 66.109375 
Q 29.296875 66.109375 22.65625 58.46875 
Q 16.015625 50.828125 16.015625 36.375 
Q 16.015625 21.96875 22.65625 14.328125 
Q 29.296875 6.6875 41.796875 6.6875 
Q 48.140625 6.6875 53.78125 8.984375 
Q 59.421875 11.28125 64.40625 15.921875 
L 64.40625 5.609375 
Q 59.234375 2.09375 53.4375 0.328125 
Q 47.65625 -1.421875 41.21875 -1.421875 
Q 24.65625 -1.421875 15.125 8.703125 
Q 5.609375 18.84375 5.609375 36.375 
Q 5.609375 53.953125 15.125 64.078125 
Q 24.65625 74.21875 41.21875 74.21875 
Q 47.75 74.21875 53.53125 72.484375 
Q 59.328125 70.75 64.40625 67.28125 
z
" id="DejaVuSans-67"/>
       <path d="M 30.609375 48.390625 
Q 23.390625 48.390625 19.1875 42.75 
Q 14.984375 37.109375 14.984375 27.296875 
Q 14.984375 17.484375 19.15625 11.84375 
Q 23.34375 6.203125 30.609375 6.203125 
Q 37.796875 6.203125 41.984375 11.859375 
Q 46.1875 17.53125 46.1875 27.296875 
Q 46.1875 37.015625 41.984375 42.703125 
Q 37.796875 48.390625 30.609375 48.390625 
z
M 30.609375 56 
Q 42.328125 56 49.015625 48.375 
Q 55.71875 40.765625 55.71875 27.296875 
Q 55.71875 13.875 49.015625 6.21875 
Q 42.328125 -1.421875 30.609375 -1.421875 
Q 18.84375 -1.421875 12.171875 6.21875 
Q 5.515625 13.875 5.515625 27.296875 
Q 5.515625 40.765625 12.171875 48.375 
Q 18.84375 56 30.609375 56 
z
" id="DejaVuSans-111"/>
       <path d="M 45.40625 46.390625 
L 45.40625 75.984375 
L 54.390625 75.984375 
L 54.390625 0 
L 45.40625 0 
L 45.40625 8.203125 
Q 42.578125 3.328125 38.25 0.953125 
Q 33.9375 -1.421875 27.875 -1.421875 
Q 17.96875 -1.421875 11.734375 6.484375 
Q 5.515625 14.40625 5.515625 27.296875 
Q 5.515625 40.1875 11.734375 48.09375 
Q 17.96875 56 27.875 56 
Q 33.9375 56 38.25 53.625 
Q 42.578125 51.265625 45.40625 46.390625 
z
M 14.796875 27.296875 
Q 14.796875 17.390625 18.875 11.75 
Q 22.953125 6.109375 30.078125 6.109375 
Q 37.203125 6.109375 41.296875 11.75 
Q 45.40625 17.390625 45.40625 27.296875 
Q 45.40625 37.203125 41.296875 42.84375 
Q 37.203125 48.484375 30.078125 48.484375 
Q 22.953125 48.484375 18.875 42.84375 
Q 14.796875 37.203125 14.796875 27.296875 
z
" id="DejaVuSans-100"/>
       <path d="M 8.5 21.578125 
L 8.5 54.6875 
L 17.484375 54.6875 
L 17.484375 21.921875 
Q 17.484375 14.15625 20.5 10.265625 
Q 23.53125 6.390625 29.59375 6.390625 
Q 36.859375 6.390625 41.078125 11.03125 
Q 45.3125 15.671875 45.3125 23.6875 
L 45.3125 54.6875 
L 54.296875 54.6875 
L 54.296875 0 
L 45.3125 0 
L 45.3125 8.40625 
Q 42.046875 3.421875 37.71875 1 
Q 33.40625 -1.421875 27.6875 -1.421875 
Q 18.265625 -1.421875 13.375 4.4375 
Q 8.5 10.296875 8.5 21.578125 
z
M 31.109375 56 
z
" id="DejaVuSans-117"/>
       <path d="M 48.78125 52.59375 
L 48.78125 44.1875 
Q 44.96875 46.296875 41.140625 47.34375 
Q 37.3125 48.390625 33.40625 48.390625 
Q 24.65625 48.390625 19.8125 42.84375 
Q 14.984375 37.3125 14.984375 27.296875 
Q 14.984375 17.28125 19.8125 11.734375 
Q 24.65625 6.203125 33.40625 6.203125 
Q 37.3125 6.203125 41.140625 7.25 
Q 44.96875 8.296875 48.78125 10.40625 
L 48.78125 2.09375 
Q 45.015625 0.34375 40.984375 -0.53125 
Q 36.96875 -1.421875 32.421875 -1.421875 
Q 20.0625 -1.421875 12.78125 6.34375 
Q 5.515625 14.109375 5.515625 27.296875 
Q 5.515625 40.671875 12.859375 48.328125 
Q 20.21875 56 33.015625 56 
Q 37.15625 56 41.109375 55.140625 
Q 45.0625 54.296875 48.78125 52.59375 
z
" id="DejaVuSans-99"/>
       <path d="M 56.203125 29.59375 
L 56.203125 25.203125 
L 14.890625 25.203125 
Q 15.484375 15.921875 20.484375 11.0625 
Q 25.484375 6.203125 34.421875 6.203125 
Q 39.59375 6.203125 44.453125 7.46875 
Q 49.3125 8.734375 54.109375 11.28125 
L 54.109375 2.78125 
Q 49.265625 0.734375 44.1875 -0.34375 
Q 39.109375 -1.421875 33.890625 -1.421875 
Q 20.796875 -1.421875 13.15625 6.1875 
Q 5.515625 13.8125 5.515625 26.8125 
Q 5.515625 40.234375 12.765625 48.109375 
Q 20.015625 56 32.328125 56 
Q 43.359375 56 49.78125 48.890625 
Q 56.203125 41.796875 56.203125 29.59375 
z
M 47.21875 32.234375 
Q 47.125 39.59375 43.09375 43.984375 
Q 39.0625 48.390625 32.421875 48.390625 
Q 24.90625 48.390625 20.390625 44.140625 
Q 15.875 39.890625 15.1875 32.171875 
z
" id="DejaVuSans-101"/>
       <path d="M 31 75.875 
Q 24.46875 64.65625 21.28125 53.65625 
Q 18.109375 42.671875 18.109375 31.390625 
Q 18.109375 20.125 21.3125 9.0625 
Q 24.515625 -2 31 -13.1875 
L 23.1875 -13.1875 
Q 15.875 -1.703125 12.234375 9.375 
Q 8.59375 20.453125 8.59375 31.390625 
Q 8.59375 42.28125 12.203125 53.3125 
Q 15.828125 64.359375 23.1875 75.875 
z
" id="DejaVuSans-40"/>
       <path d="M 8.5 -20.796875 
L 8.5 54.6875 
L 17.484375 54.6875 
L 17.484375 20.703125 
Q 17.484375 13.625 20.84375 10 
Q 24.21875 6.390625 30.8125 6.390625 
Q 38.03125 6.390625 41.671875 10.484375 
Q 45.3125 14.59375 45.3125 22.796875 
L 45.3125 54.6875 
L 54.296875 54.6875 
L 54.296875 12.59375 
Q 54.296875 9.671875 55.140625 8.28125 
Q 56 6.890625 57.8125 6.890625 
Q 58.25 6.890625 59.03125 7.15625 
Q 59.8125 7.421875 61.1875 8.015625 
L 61.1875 0.78125 
Q 59.1875 -0.34375 57.390625 -0.875 
Q 55.609375 -1.421875 53.90625 -1.421875 
Q 50.53125 -1.421875 48.53125 0.484375 
Q 46.53125 2.390625 45.796875 6.296875 
Q 43.359375 2.4375 39.8125 0.5 
Q 36.28125 -1.421875 31.5 -1.421875 
Q 26.515625 -1.421875 23.015625 0.484375 
Q 19.53125 2.390625 17.484375 6.203125 
L 17.484375 -20.796875 
z
" id="DejaVuSans-181"/>
       <path d="M 53.515625 70.515625 
L 53.515625 60.890625 
Q 47.90625 63.578125 42.921875 64.890625 
Q 37.9375 66.21875 33.296875 66.21875 
Q 25.25 66.21875 20.875 63.09375 
Q 16.5 59.96875 16.5 54.203125 
Q 16.5 49.359375 19.40625 46.890625 
Q 22.3125 44.4375 30.421875 42.921875 
L 36.375 41.703125 
Q 47.40625 39.59375 52.65625 34.296875 
Q 57.90625 29 57.90625 20.125 
Q 57.90625 9.515625 50.796875 4.046875 
Q 43.703125 -1.421875 29.984375 -1.421875 
Q 24.8125 -1.421875 18.96875 -0.25 
Q 13.140625 0.921875 6.890625 3.21875 
L 6.890625 13.375 
Q 12.890625 10.015625 18.65625 8.296875 
Q 24.421875 6.59375 29.984375 6.59375 
Q 38.421875 6.59375 43.015625 9.90625 
Q 47.609375 13.234375 47.609375 19.390625 
Q 47.609375 24.75 44.3125 27.78125 
Q 41.015625 30.8125 33.5 32.328125 
L 27.484375 33.5 
Q 16.453125 35.6875 11.515625 40.375 
Q 6.59375 45.0625 6.59375 53.421875 
Q 6.59375 63.09375 13.40625 68.65625 
Q 20.21875 74.21875 32.171875 74.21875 
Q 37.3125 74.21875 42.625 73.28125 
Q 47.953125 72.359375 53.515625 70.515625 
z
" id="DejaVuSans-83"/>
       <path d="M 8.015625 75.875 
L 15.828125 75.875 
Q 23.140625 64.359375 26.78125 53.3125 
Q 30.421875 42.28125 30.421875 31.390625 
Q 30.421875 20.453125 26.78125 9.375 
Q 23.140625 -1.703125 15.828125 -13.1875 
L 8.015625 -13.1875 
Q 14.5 -2 17.703125 9.0625 
Q 20.90625 20.125 20.90625 31.390625 
Q 20.90625 42.671875 17.703125 53.65625 
Q 14.5 64.65625 8.015625 75.875 
z
" id="DejaVuSans-41"/>
      </defs>
      <use xlink:href="#DejaVuSans-73"/>
      <use x="29.492188" xlink:href="#DejaVuSans-110"/>
      <use x="92.871094" xlink:href="#DejaVuSans-105"/>
      <use x="120.654297" xlink:href="#DejaVuSans-116"/>
      <use x="159.863281" xlink:href="#DejaVuSans-105"/>
      <use x="187.646484" xlink:href="#DejaVuSans-97"/>
      <use x="248.925781" xlink:href="#DejaVuSans-108"/>
      <use x="276.708984" xlink:href="#DejaVuSans-32"/>
      <use x="308.496094" xlink:href="#DejaVuSans-67"/>
      <use x="378.320312" xlink:href="#DejaVuSans-111"/>
      <use x="439.501953" xlink:href="#DejaVuSans-110"/>
      <use x="502.880859" xlink:href="#DejaVuSans-100"/>
      <use x="566.357422" xlink:href="#DejaVuSans-117"/>
      <use x="629.736328" xlink:href="#DejaVuSans-99"/>
      <use x="684.716797" xlink:href="#DejaVuSans-116"/>
      <use x="723.925781" xlink:href="#DejaVuSans-97"/>
      <use x="785.205078" xlink:href="#DejaVuSans-110"/>
      <use x="848.583984" xlink:href="#DejaVuSans-99"/>
      <use x="903.564453" xlink:href="#DejaVuSans-101"/>
      <use x="965.087891" xlink:href="#DejaVuSans-32"/>
      <use x="996.875" xlink:href="#DejaVuSans-40"/>
      <use x="1035.888672" xlink:href="#DejaVuSans-181"/>
      <use x="1099.511719" xlink:href="#DejaVuSans-83"/>
      <use x="1162.988281" xlink:href="#DejaVuSans-41"/>
     </g>
    </g>
   </g>
   <g id="matplotlib.axis_2">
    <g id="ytick_1">
     <g id="line2d_6">
      <defs>
       <path d="M 0 0 
L -3.5 0 
" id="md9455bf069" style="stroke:#000000;stroke-width:0.8;"/>
      </defs>
      <g>
       <use style="stroke:#000000;stroke-width:0.8;" x="42.125" xlink:href="#md9455bf069" y="171.6555"/>
      </g>
     </g>
     <g id="text_7">
      <!-- 0 -->
      <g transform="translate(28.7625 175.454719)scale(0.1 -0.1)">
       <use xlink:href="#DejaVuSans-48"/>
      </g>
     </g>
    </g>
    <g id="ytick_2">
     <g id="line2d_7">
      <g>
       <use style="stroke:#000000;stroke-width:0.8;" x="42.125" xlink:href="#md9455bf069" y="144.4755"/>
      </g>
     </g>
     <g id="text_8">
      <!-- 5 -->
      <g transform="translate(28.7625 148.274719)scale(0.1 -0.1)">
       <defs>
        <path d="M 10.796875 72.90625 
L 49.515625 72.90625 
L 49.515625 64.59375 
L 19.828125 64.59375 
L 19.828125 46.734375 
Q 21.96875 47.46875 24.109375 47.828125 
Q 26.265625 48.1875 28.421875 48.1875 
Q 40.625 48.1875 47.75 41.5 
Q 54.890625 34.8125 54.890625 23.390625 
Q 54.890625 11.625 47.5625 5.09375 
Q 40.234375 -1.421875 26.90625 -1.421875 
Q 22.3125 -1.421875 17.546875 -0.640625 
Q 12.796875 0.140625 7.71875 1.703125 
L 7.71875 11.625 
Q 12.109375 9.234375 16.796875 8.0625 
Q 21.484375 6.890625 26.703125 6.890625 
Q 35.15625 6.890625 40.078125 11.328125 
Q 45.015625 15.765625 45.015625 23.390625 
Q 45.015625 31 40.078125 35.4375 
Q 35.15625 39.890625 26.703125 39.890625 
Q 22.75 39.890625 18.8125 39.015625 
Q 14.890625 38.140625 10.796875 36.28125 
z
" id="DejaVuSans-53"/>
       </defs>
       <use xlink:href="#DejaVuSans-53"/>
      </g>
     </g>
    </g>
    <g id="ytick_3">
     <g id="line2d_8">
      <g>
       <use style="stroke:#000000;stroke-width:0.8;" x="42.125" xlink:href="#md9455bf069" y="117.2955"/>
      </g>
     </g>
     <g id="text_9">
      <!-- 10 -->
      <g transform="translate(22.4 121.094719)scale(0.1 -0.1)">
       <use xlink:href="#DejaVuSans-49"/>
       <use x="63.623047" xlink:href="#DejaVuSans-48"/>
      </g>
     </g>
    </g>
    <g id="ytick_4">
     <g id="line2d_9">
      <g>
       <use style="stroke:#000000;stroke-width:0.8;" x="42.125" xlink:href="#md9455bf069" y="90.1155"/>
      </g>
     </g>
     <g id="text_10">
      <!-- 15 -->
      <g transform="translate(22.4 93.914719)scale(0.1 -0.1)">
       <use xlink:href="#DejaVuSans-49"/>
       <use x="63.623047" xlink:href="#DejaVuSans-53"/>
      </g>
     </g>
    </g>
    <g id="ytick_5">
     <g id="line2d_10">
      <g>
       <use style="stroke:#000000;stroke-width:0.8;" x="42.125" xlink:href="#md9455bf069" y="62.9355"/>
      </g>
     </g>
     <g id="text_11">
      <!-- 20 -->
      <g transform="translate(22.4 66.734719)scale(0.1 -0.1)">
       <use xlink:href="#DejaVuSans-50"/>
       <use x="63.623047" xlink:href="#DejaVuSans-48"/>
      </g>
     </g>
    </g>
    <g id="ytick_6">
     <g id="line2d_11">
      <g>
       <use style="stroke:#000000;stroke-width:0.8;" x="42.125" xlink:href="#md9455bf069" y="35.7555"/>
      </g>
     </g>
     <g id="text_12">
      <!-- 25 -->
      <g transform="translate(22.4 39.554719)scale(0.1 -0.1)">
       <use xlink:href="#DejaVuSans-50"/>
       <use x="63.623047" xlink:href="#DejaVuSans-53"/>
      </g>
     </g>
    </g>
    <g id="text_13">
     <!-- Variance (µS$^2$) -->
     <g transform="translate(16.3 139.9555)rotate(-90)scale(0.1 -0.1)">
      <defs>
       <path d="M 28.609375 0 
L 0.78125 72.90625 
L 11.078125 72.90625 
L 34.1875 11.53125 
L 57.328125 72.90625 
L 67.578125 72.90625 
L 39.796875 0 
z
" id="DejaVuSans-86"/>
       <path d="M 41.109375 46.296875 
Q 39.59375 47.171875 37.8125 47.578125 
Q 36.03125 48 33.890625 48 
Q 26.265625 48 22.1875 43.046875 
Q 18.109375 38.09375 18.109375 28.8125 
L 18.109375 0 
L 9.078125 0 
L 9.078125 54.6875 
L 18.109375 54.6875 
L 18.109375 46.1875 
Q 20.953125 51.171875 25.484375 53.578125 
Q 30.03125 56 36.53125 56 
Q 37.453125 56 38.578125 55.875 
Q 39.703125 55.765625 41.0625 55.515625 
z
" id="DejaVuSans-114"/>
      </defs>
      <use transform="translate(0 0.765625)" xlink:href="#DejaVuSans-86"/>
      <use transform="translate(68.408203 0.765625)" xlink:href="#DejaVuSans-97"/>
      <use transform="translate(129.6875 0.765625)" xlink:href="#DejaVuSans-114"/>
      <use transform="translate(170.800781 0.765625)" xlink:href="#DejaVuSans-105"/>
      <use transform="translate(198.583984 0.765625)" xlink:href="#DejaVuSans-97"/>
      <use transform="translate(259.863281 0.765625)" xlink:href="#DejaVuSans-110"/>
      <use transform="translate(323.242188 0.765625)" xlink:href="#DejaVuSans-99"/>
      <use transform="translate(378.222656 0.765625)" xlink:href="#DejaVuSans-101"/>
      <use transform="translate(439.746094 0.765625)" xlink:href="#DejaVuSans-32"/>
      <use transform="translate(471.533203 0.765625)" xlink:href="#DejaVuSans-40"/>
      <use transform="translate(510.546875 0.765625)" xlink:href="#DejaVuSans-181"/>
      <use transform="translate(574.169922 0.765625)" xlink:href="#DejaVuSans-83"/>
      <use transform="translate(638.603516 39.046875)scale(0.7)" xlink:href="#DejaVuSans-50"/>
      <use transform="translate(685.874023 0.765625)" xlink:href="#DejaVuSans-41"/>
     </g>
    </g>
   </g>
   <g id="line2d_12">
    <path clip-path="url(#p555e8a8e29)" d="M 52.270455 171.125504 
L 58.081271 171.006684 
L 64.914168 171.012232 
L 71.355707 171.005417 
L 78.003938 170.995894 
L 84.532223 171.023548 
L 91.214747 170.989751 
L 97.69455 171.001276 
L 104.248729 170.981247 
L 110.918717 170.965887 
L 117.307618 171.030387 
L 123.86103 170.953505 
L 130.537601 170.956084 
L 137.136047 170.946915 
L 143.616448 170.972251 
L 150.386221 170.954108 
L 156.897821 170.985466 
L 163.362016 171.027336 
L 170.120133 171.035232 
L 176.645484 170.930098 
L 183.07967 170.975215 
L 189.796515 170.951281 
L 196.348352 170.953947 
L 202.927126 170.9749 
L 209.609458 170.986229 
L 215.915083 170.980494 
L 222.554465 171.021395 
L 229.146491 170.937704 
L 235.721374 171.001949 
L 242.446393 171.005349 
L 248.811825 171.020083 
L 255.179545 171.033068 
" style="fill:none;stroke:#1f77b4;stroke-linecap:square;stroke-width:0.8;"/>
    <defs>
     <path d="M -3 0 
L 3 0 
M 0 3 
L 0 -3 
" id="m6cddb6f065" style="stroke:#1f77b4;"/>
    </defs>
    <g clip-path="url(#p555e8a8e29)">
     <use style="fill:#1f77b4;stroke:#1f77b4;" x="52.270455" xlink:href="#m6cddb6f065" y="171.125504"/>
     <use style="fill:#1f77b4;stroke:#1f77b4;" x="58.081271" xlink:href="#m6cddb6f065" y="171.006684"/>
     <use style="fill:#1f77b4;stroke:#1f77b4;" x="64.914168" xlink:href="#m6cddb6f065" y="171.012232"/>
     <use style="fill:#1f77b4;stroke:#1f77b4;" x="71.355707" xlink:href="#m6cddb6f065" y="171.005417"/>
     <use style="fill:#1f77b4;stroke:#1f77b4;" x="78.003938" xlink:href="#m6cddb6f065" y="170.995894"/>
     <use style="fill:#1f77b4;stroke:#1f77b4;" x="84.532223" xlink:href="#m6cddb6f065" y="171.023548"/>
     <use style="fill:#1f77b4;stroke:#1f77b4;" x="91.214747" xlink:href="#m6cddb6f065" y="170.989751"/>
     <use style="fill:#1f77b4;stroke:#1f77b4;" x="97.69455" xlink:href="#m6cddb6f065" y="171.001276"/>
     <use style="fill:#1f77b4;stroke:#1f77b4;" x="104.248729" xlink:href="#m6cddb6f065" y="170.981247"/>
     <use style="fill:#1f77b4;stroke:#1f77b4;" x="110.918717" xlink:href="#m6cddb6f065" y="170.965887"/>
     <use style="fill:#1f77b4;stroke:#1f77b4;" x="117.307618" xlink:href="#m6cddb6f065" y="171.030387"/>
     <use style="fill:#1f77b4;stroke:#1f77b4;" x="123.86103" xlink:href="#m6cddb6f065" y="170.953505"/>
     <use style="fill:#1f77b4;stroke:#1f77b4;" x="130.537601" xlink:href="#m6cddb6f065" y="170.956084"/>
     <use style="fill:#1f77b4;stroke:#1f77b4;" x="137.136047" xlink:href="#m6cddb6f065" y="170.946915"/>
     <use style="fill:#1f77b4;stroke:#1f77b4;" x="143.616448" xlink:href="#m6cddb6f065" y="170.972251"/>
     <use style="fill:#1f77b4;stroke:#1f77b4;" x="150.386221" xlink:href="#m6cddb6f065" y="170.954108"/>
     <use style="fill:#1f77b4;stroke:#1f77b4;" x="156.897821" xlink:href="#m6cddb6f065" y="170.985466"/>
     <use style="fill:#1f77b4;stroke:#1f77b4;" x="163.362016" xlink:href="#m6cddb6f065" y="171.027336"/>
     <use style="fill:#1f77b4;stroke:#1f77b4;" x="170.120133" xlink:href="#m6cddb6f065" y="171.035232"/>
     <use style="fill:#1f77b4;stroke:#1f77b4;" x="176.645484" xlink:href="#m6cddb6f065" y="170.930098"/>
     <use style="fill:#1f77b4;stroke:#1f77b4;" x="183.07967" xlink:href="#m6cddb6f065" y="170.975215"/>
     <use style="fill:#1f77b4;stroke:#1f77b4;" x="189.796515" xlink:href="#m6cddb6f065" y="170.951281"/>
     <use style="fill:#1f77b4;stroke:#1f77b4;" x="196.348352" xlink:href="#m6cddb6f065" y="170.953947"/>
     <use style="fill:#1f77b4;stroke:#1f77b4;" x="202.927126" xlink:href="#m6cddb6f065" y="170.9749"/>
     <use style="fill:#1f77b4;stroke:#1f77b4;" x="209.609458" xlink:href="#m6cddb6f065" y="170.986229"/>
     <use style="fill:#1f77b4;stroke:#1f77b4;" x="215.915083" xlink:href="#m6cddb6f065" y="170.980494"/>
     <use style="fill:#1f77b4;stroke:#1f77b4;" x="222.554465" xlink:href="#m6cddb6f065" y="171.021395"/>
     <use style="fill:#1f77b4;stroke:#1f77b4;" x="229.146491" xlink:href="#m6cddb6f065" y="170.937704"/>
     <use style="fill:#1f77b4;stroke:#1f77b4;" x="235.721374" xlink:href="#m6cddb6f065" y="171.001949"/>
     <use style="fill:#1f77b4;stroke:#1f77b4;" x="242.446393" xlink:href="#m6cddb6f065" y="171.005349"/>
     <use style="fill:#1f77b4;stroke:#1f77b4;" x="248.811825" xlink:href="#m6cddb6f065" y="171.020083"/>
     <use style="fill:#1f77b4;stroke:#1f77b4;" x="255.179545" xlink:href="#m6cddb6f065" y="171.033068"/>
    </g>
   </g>
   <g id="line2d_13">
    <path clip-path="url(#p555e8a8e29)" d="M 52.705553 170.962604 
L 58.082926 168.576235 
L 64.914168 167.886329 
L 71.355108 165.440297 
L 78.004665 165.860637 
L 84.532223 166.292462 
L 91.218419 164.194111 
L 97.69455 165.378923 
L 104.248622 164.896841 
L 110.918717 166.727734 
L 117.307618 165.583923 
L 123.86103 163.41505 
L 130.537601 163.71032 
L 137.135126 163.21279 
L 143.616448 166.151662 
L 150.386221 165.398434 
L 156.897119 165.223673 
L 163.362016 164.371665 
L 170.120133 167.483263 
L 176.645484 167.259584 
L 183.083247 166.143903 
L 189.796515 165.40678 
L 196.348352 167.290987 
L 202.92151 168.543318 
L 209.609458 168.474981 
L 215.915083 165.505593 
L 222.554465 167.420982 
L 229.146491 167.296512 
L 235.721374 167.98842 
L 242.446393 168.895297 
L 248.805277 167.770719 
L 255.174779 168.446242 
" style="fill:none;stroke:#ff7f0e;stroke-linecap:square;stroke-width:0.8;"/>
    <defs>
     <path d="M -3 0 
L 3 0 
M 0 3 
L 0 -3 
" id="m3fa81496d5" style="stroke:#ff7f0e;"/>
    </defs>
    <g clip-path="url(#p555e8a8e29)">
     <use style="fill:#ff7f0e;stroke:#ff7f0e;" x="52.705553" xlink:href="#m3fa81496d5" y="170.962604"/>
     <use style="fill:#ff7f0e;stroke:#ff7f0e;" x="58.082926" xlink:href="#m3fa81496d5" y="168.576235"/>
     <use style="fill:#ff7f0e;stroke:#ff7f0e;" x="64.914168" xlink:href="#m3fa81496d5" y="167.886329"/>
     <use style="fill:#ff7f0e;stroke:#ff7f0e;" x="71.355108" xlink:href="#m3fa81496d5" y="165.440297"/>
     <use style="fill:#ff7f0e;stroke:#ff7f0e;" x="78.004665" xlink:href="#m3fa81496d5" y="165.860637"/>
     <use style="fill:#ff7f0e;stroke:#ff7f0e;" x="84.532223" xlink:href="#m3fa81496d5" y="166.292462"/>
     <use style="fill:#ff7f0e;stroke:#ff7f0e;" x="91.218419" xlink:href="#m3fa81496d5" y="164.194111"/>
     <use style="fill:#ff7f0e;stroke:#ff7f0e;" x="97.69455" xlink:href="#m3fa81496d5" y="165.378923"/>
     <use style="fill:#ff7f0e;stroke:#ff7f0e;" x="104.248622" xlink:href="#m3fa81496d5" y="164.896841"/>
     <use style="fill:#ff7f0e;stroke:#ff7f0e;" x="110.918717" xlink:href="#m3fa81496d5" y="166.727734"/>
     <use style="fill:#ff7f0e;stroke:#ff7f0e;" x="117.307618" xlink:href="#m3fa81496d5" y="165.583923"/>
     <use style="fill:#ff7f0e;stroke:#ff7f0e;" x="123.86103" xlink:href="#m3fa81496d5" y="163.41505"/>
     <use style="fill:#ff7f0e;stroke:#ff7f0e;" x="130.537601" xlink:href="#m3fa81496d5" y="163.71032"/>
     <use style="fill:#ff7f0e;stroke:#ff7f0e;" x="137.135126" xlink:href="#m3fa81496d5" y="163.21279"/>
     <use style="fill:#ff7f0e;stroke:#ff7f0e;" x="143.616448" xlink:href="#m3fa81496d5" y="166.151662"/>
     <use style="fill:#ff7f0e;stroke:#ff7f0e;" x="150.386221" xlink:href="#m3fa81496d5" y="165.398434"/>
     <use style="fill:#ff7f0e;stroke:#ff7f0e;" x="156.897119" xlink:href="#m3fa81496d5" y="165.223673"/>
     <use style="fill:#ff7f0e;stroke:#ff7f0e;" x="163.362016" xlink:href="#m3fa81496d5" y="164.371665"/>
     <use style="fill:#ff7f0e;stroke:#ff7f0e;" x="170.120133" xlink:href="#m3fa81496d5" y="167.483263"/>
     <use style="fill:#ff7f0e;stroke:#ff7f0e;" x="176.645484" xlink:href="#m3fa81496d5" y="167.259584"/>
     <use style="fill:#ff7f0e;stroke:#ff7f0e;" x="183.083247" xlink:href="#m3fa81496d5" y="166.143903"/>
     <use style="fill:#ff7f0e;stroke:#ff7f0e;" x="189.796515" xlink:href="#m3fa81496d5" y="165.40678"/>
     <use style="fill:#ff7f0e;stroke:#ff7f0e;" x="196.348352" xlink:href="#m3fa81496d5" y="167.290987"/>
     <use style="fill:#ff7f0e;stroke:#ff7f0e;" x="202.92151" xlink:href="#m3fa81496d5" y="168.543318"/>
     <use style="fill:#ff7f0e;stroke:#ff7f0e;" x="209.609458" xlink:href="#m3fa81496d5" y="168.474981"/>
     <use style="fill:#ff7f0e;stroke:#ff7f0e;" x="215.915083" xlink:href="#m3fa81496d5" y="165.505593"/>
     <use style="fill:#ff7f0e;stroke:#ff7f0e;" x="222.554465" xlink:href="#m3fa81496d5" y="167.420982"/>
     <use style="fill:#ff7f0e;stroke:#ff7f0e;" x="229.146491" xlink:href="#m3fa81496d5" y="167.296512"/>
     <use style="fill:#ff7f0e;stroke:#ff7f0e;" x="235.721374" xlink:href="#m3fa81496d5" y="167.98842"/>
     <use style="fill:#ff7f0e;stroke:#ff7f0e;" x="242.446393" xlink:href="#m3fa81496d5" y="168.895297"/>
     <use style="fill:#ff7f0e;stroke:#ff7f0e;" x="248.805277" xlink:href="#m3fa81496d5" y="167.770719"/>
     <use style="fill:#ff7f0e;stroke:#ff7f0e;" x="255.174779" xlink:href="#m3fa81496d5" y="168.446242"/>
    </g>
   </g>
   <g id="line2d_14">
    <path clip-path="url(#p555e8a8e29)" d="M 52.278035 168.585429 
L 58.081271 162.82353 
L 64.914168 164.539064 
L 71.355707 157.153627 
L 78.003938 157.593128 
L 84.532223 154.049724 
L 91.214747 156.242872 
L 97.69455 153.287702 
L 104.248729 154.995255 
L 110.918717 155.161102 
L 117.312072 150.32126 
L 123.86103 152.717564 
L 130.537601 154.88996 
L 137.136047 149.508707 
L 143.616448 158.393029 
L 150.386221 156.882784 
L 156.897821 152.44481 
L 163.362016 149.185943 
L 170.120133 160.520068 
L 176.645484 159.679529 
L 183.07967 158.318739 
L 189.796515 158.628052 
L 196.348352 160.004454 
L 202.927126 158.073039 
L 209.609458 159.673145 
L 215.915083 159.124638 
L 222.554465 162.793639 
L 229.146491 158.804078 
L 235.721374 164.481672 
L 242.446393 163.332766 
L 248.811825 162.921879 
L 255.179545 165.07693 
" style="fill:none;stroke:#2ca02c;stroke-linecap:square;stroke-width:0.8;"/>
    <defs>
     <path d="M -3 0 
L 3 0 
M 0 3 
L 0 -3 
" id="md006334e58" style="stroke:#2ca02c;"/>
    </defs>
    <g clip-path="url(#p555e8a8e29)">
     <use style="fill:#2ca02c;stroke:#2ca02c;" x="52.278035" xlink:href="#md006334e58" y="168.585429"/>
     <use style="fill:#2ca02c;stroke:#2ca02c;" x="58.081271" xlink:href="#md006334e58" y="162.82353"/>
     <use style="fill:#2ca02c;stroke:#2ca02c;" x="64.914168" xlink:href="#md006334e58" y="164.539064"/>
     <use style="fill:#2ca02c;stroke:#2ca02c;" x="71.355707" xlink:href="#md006334e58" y="157.153627"/>
     <use style="fill:#2ca02c;stroke:#2ca02c;" x="78.003938" xlink:href="#md006334e58" y="157.593128"/>
     <use style="fill:#2ca02c;stroke:#2ca02c;" x="84.532223" xlink:href="#md006334e58" y="154.049724"/>
     <use style="fill:#2ca02c;stroke:#2ca02c;" x="91.214747" xlink:href="#md006334e58" y="156.242872"/>
     <use style="fill:#2ca02c;stroke:#2ca02c;" x="97.69455" xlink:href="#md006334e58" y="153.287702"/>
     <use style="fill:#2ca02c;stroke:#2ca02c;" x="104.248729" xlink:href="#md006334e58" y="154.995255"/>
     <use style="fill:#2ca02c;stroke:#2ca02c;" x="110.918717" xlink:href="#md006334e58" y="155.161102"/>
     <use style="fill:#2ca02c;stroke:#2ca02c;" x="117.312072" xlink:href="#md006334e58" y="150.32126"/>
     <use style="fill:#2ca02c;stroke:#2ca02c;" x="123.86103" xlink:href="#md006334e58" y="152.717564"/>
     <use style="fill:#2ca02c;stroke:#2ca02c;" x="130.537601" xlink:href="#md006334e58" y="154.88996"/>
     <use style="fill:#2ca02c;stroke:#2ca02c;" x="137.136047" xlink:href="#md006334e58" y="149.508707"/>
     <use style="fill:#2ca02c;stroke:#2ca02c;" x="143.616448" xlink:href="#md006334e58" y="158.393029"/>
     <use style="fill:#2ca02c;stroke:#2ca02c;" x="150.386221" xlink:href="#md006334e58" y="156.882784"/>
     <use style="fill:#2ca02c;stroke:#2ca02c;" x="156.897821" xlink:href="#md006334e58" y="152.44481"/>
     <use style="fill:#2ca02c;stroke:#2ca02c;" x="163.362016" xlink:href="#md006334e58" y="149.185943"/>
     <use style="fill:#2ca02c;stroke:#2ca02c;" x="170.120133" xlink:href="#md006334e58" y="160.520068"/>
     <use style="fill:#2ca02c;stroke:#2ca02c;" x="176.645484" xlink:href="#md006334e58" y="159.679529"/>
     <use style="fill:#2ca02c;stroke:#2ca02c;" x="183.07967" xlink:href="#md006334e58" y="158.318739"/>
     <use style="fill:#2ca02c;stroke:#2ca02c;" x="189.796515" xlink:href="#md006334e58" y="158.628052"/>
     <use style="fill:#2ca02c;stroke:#2ca02c;" x="196.348352" xlink:href="#md006334e58" y="160.004454"/>
     <use style="fill:#2ca02c;stroke:#2ca02c;" x="202.927126" xlink:href="#md006334e58" y="158.073039"/>
     <use style="fill:#2ca02c;stroke:#2ca02c;" x="209.609458" xlink:href="#md006334e58" y="159.673145"/>
     <use style="fill:#2ca02c;stroke:#2ca02c;" x="215.915083" xlink:href="#md006334e58" y="159.124638"/>
     <use style="fill:#2ca02c;stroke:#2ca02c;" x="222.554465" xlink:href="#md006334e58" y="162.793639"/>
     <use style="fill:#2ca02c;stroke:#2ca02c;" x="229.146491" xlink:href="#md006334e58" y="158.804078"/>
     <use style="fill:#2ca02c;stroke:#2ca02c;" x="235.721374" xlink:href="#md006334e58" y="164.481672"/>
     <use style="fill:#2ca02c;stroke:#2ca02c;" x="242.446393" xlink:href="#md006334e58" y="163.332766"/>
     <use style="fill:#2ca02c;stroke:#2ca02c;" x="248.811825" xlink:href="#md006334e58" y="162.921879"/>
     <use style="fill:#2ca02c;stroke:#2ca02c;" x="255.179545" xlink:href="#md006334e58" y="165.07693"/>
    </g>
   </g>
   <g id="line2d_15">
    <path clip-path="url(#p555e8a8e29)" d="M 52.270455 166.974159 
L 58.081271 161.691946 
L 64.914168 153.905477 
L 71.355707 151.657526 
L 78.003938 140.456577 
L 84.532223 140.062921 
L 91.214747 146.955248 
L 97.69455 143.159103 
L 104.248729 142.075747 
L 110.918717 140.854558 
L 117.307618 143.43583 
L 123.86103 135.377156 
L 130.537601 137.899989 
L 137.136047 142.046895 
L 143.616448 146.970903 
L 150.386221 148.993923 
L 156.897821 139.148127 
L 163.362016 136.635009 
L 170.120133 146.081365 
L 176.645484 153.618061 
L 183.07967 144.00961 
L 189.796515 150.357492 
L 196.348352 155.38053 
L 202.927126 152.737931 
L 209.609458 154.125698 
L 215.915083 153.539757 
L 222.554465 155.952348 
L 229.146491 150.539773 
L 235.721374 160.253978 
L 242.446393 156.519759 
L 248.811825 155.846924 
L 255.179545 160.145907 
" style="fill:none;stroke:#d62728;stroke-linecap:square;stroke-width:0.8;"/>
    <defs>
     <path d="M -3 0 
L 3 0 
M 0 3 
L 0 -3 
" id="m9ac23623c4" style="stroke:#d62728;"/>
    </defs>
    <g clip-path="url(#p555e8a8e29)">
     <use style="fill:#d62728;stroke:#d62728;" x="52.270455" xlink:href="#m9ac23623c4" y="166.974159"/>
     <use style="fill:#d62728;stroke:#d62728;" x="58.081271" xlink:href="#m9ac23623c4" y="161.691946"/>
     <use style="fill:#d62728;stroke:#d62728;" x="64.914168" xlink:href="#m9ac23623c4" y="153.905477"/>
     <use style="fill:#d62728;stroke:#d62728;" x="71.355707" xlink:href="#m9ac23623c4" y="151.657526"/>
     <use style="fill:#d62728;stroke:#d62728;" x="78.003938" xlink:href="#m9ac23623c4" y="140.456577"/>
     <use style="fill:#d62728;stroke:#d62728;" x="84.532223" xlink:href="#m9ac23623c4" y="140.062921"/>
     <use style="fill:#d62728;stroke:#d62728;" x="91.214747" xlink:href="#m9ac23623c4" y="146.955248"/>
     <use style="fill:#d62728;stroke:#d62728;" x="97.69455" xlink:href="#m9ac23623c4" y="143.159103"/>
     <use style="fill:#d62728;stroke:#d62728;" x="104.248729" xlink:href="#m9ac23623c4" y="142.075747"/>
     <use style="fill:#d62728;stroke:#d62728;" x="110.918717" xlink:href="#m9ac23623c4" y="140.854558"/>
     <use style="fill:#d62728;stroke:#d62728;" x="117.307618" xlink:href="#m9ac23623c4" y="143.43583"/>
     <use style="fill:#d62728;stroke:#d62728;" x="123.86103" xlink:href="#m9ac23623c4" y="135.377156"/>
     <use style="fill:#d62728;stroke:#d62728;" x="130.537601" xlink:href="#m9ac23623c4" y="137.899989"/>
     <use style="fill:#d62728;stroke:#d62728;" x="137.136047" xlink:href="#m9ac23623c4" y="142.046895"/>
     <use style="fill:#d62728;stroke:#d62728;" x="143.616448" xlink:href="#m9ac23623c4" y="146.970903"/>
     <use style="fill:#d62728;stroke:#d62728;" x="150.386221" xlink:href="#m9ac23623c4" y="148.993923"/>
     <use style="fill:#d62728;stroke:#d62728;" x="156.897821" xlink:href="#m9ac23623c4" y="139.148127"/>
     <use style="fill:#d62728;stroke:#d62728;" x="163.362016" xlink:href="#m9ac23623c4" y="136.635009"/>
     <use style="fill:#d62728;stroke:#d62728;" x="170.120133" xlink:href="#m9ac23623c4" y="146.081365"/>
     <use style="fill:#d62728;stroke:#d62728;" x="176.645484" xlink:href="#m9ac23623c4" y="153.618061"/>
     <use style="fill:#d62728;stroke:#d62728;" x="183.07967" xlink:href="#m9ac23623c4" y="144.00961"/>
     <use style="fill:#d62728;stroke:#d62728;" x="189.796515" xlink:href="#m9ac23623c4" y="150.357492"/>
     <use style="fill:#d62728;stroke:#d62728;" x="196.348352" xlink:href="#m9ac23623c4" y="155.38053"/>
     <use style="fill:#d62728;stroke:#d62728;" x="202.927126" xlink:href="#m9ac23623c4" y="152.737931"/>
     <use style="fill:#d62728;stroke:#d62728;" x="209.609458" xlink:href="#m9ac23623c4" y="154.125698"/>
     <use style="fill:#d62728;stroke:#d62728;" x="215.915083" xlink:href="#m9ac23623c4" y="153.539757"/>
     <use style="fill:#d62728;stroke:#d62728;" x="222.554465" xlink:href="#m9ac23623c4" y="155.952348"/>
     <use style="fill:#d62728;stroke:#d62728;" x="229.146491" xlink:href="#m9ac23623c4" y="150.539773"/>
     <use style="fill:#d62728;stroke:#d62728;" x="235.721374" xlink:href="#m9ac23623c4" y="160.253978"/>
     <use style="fill:#d62728;stroke:#d62728;" x="242.446393" xlink:href="#m9ac23623c4" y="156.519759"/>
     <use style="fill:#d62728;stroke:#d62728;" x="248.811825" xlink:href="#m9ac23623c4" y="155.846924"/>
     <use style="fill:#d62728;stroke:#d62728;" x="255.179545" xlink:href="#m9ac23623c4" y="160.145907"/>
    </g>
   </g>
   <g id="line2d_16">
    <path clip-path="url(#p555e8a8e29)" d="M 52.270455 162.138651 
L 58.085668 159.300798 
L 64.921861 151.245428 
L 71.339943 146.887706 
L 78.004005 138.220581 
L 84.484511 142.785912 
L 91.048586 142.174657 
L 97.530296 123.724305 
L 104.298815 134.680598 
L 110.863358 128.485017 
L 117.352687 133.067132 
L 123.603066 117.802696 
L 130.485201 127.586735 
L 137.236524 122.352599 
L 143.444122 128.353486 
L 150.349662 134.372761 
L 156.825895 136.181624 
L 163.449696 133.656695 
L 170.119531 138.260724 
L 176.587124 143.72503 
L 182.971714 133.348124 
L 189.696646 150.625762 
L 196.37462 154.998109 
L 202.743656 150.543733 
L 209.67846 143.151599 
L 215.867249 132.665403 
L 222.505112 146.173927 
L 229.055865 150.341473 
L 235.811219 155.152167 
L 242.41937 155.641185 
L 248.945799 157.952091 
L 255.172789 154.620128 
" style="fill:none;stroke:#9467bd;stroke-linecap:square;stroke-width:0.8;"/>
    <defs>
     <path d="M -3 0 
L 3 0 
M 0 3 
L 0 -3 
" id="m5095359b5b" style="stroke:#9467bd;"/>
    </defs>
    <g clip-path="url(#p555e8a8e29)">
     <use style="fill:#9467bd;stroke:#9467bd;" x="52.270455" xlink:href="#m5095359b5b" y="162.138651"/>
     <use style="fill:#9467bd;stroke:#9467bd;" x="58.085668" xlink:href="#m5095359b5b" y="159.300798"/>
     <use style="fill:#9467bd;stroke:#9467bd;" x="64.921861" xlink:href="#m5095359b5b" y="151.245428"/>
     <use style="fill:#9467bd;stroke:#9467bd;" x="71.339943" xlink:href="#m5095359b5b" y="146.887706"/>
     <use style="fill:#9467bd;stroke:#9467bd;" x="78.004005" xlink:href="#m5095359b5b" y="138.220581"/>
     <use style="fill:#9467bd;stroke:#9467bd;" x="84.484511" xlink:href="#m5095359b5b" y="142.785912"/>
     <use style="fill:#9467bd;stroke:#9467bd;" x="91.048586" xlink:href="#m5095359b5b" y="142.174657"/>
     <use style="fill:#9467bd;stroke:#9467bd;" x="97.530296" xlink:href="#m5095359b5b" y="123.724305"/>
     <use style="fill:#9467bd;stroke:#9467bd;" x="104.298815" xlink:href="#m5095359b5b" y="134.680598"/>
     <use style="fill:#9467bd;stroke:#9467bd;" x="110.863358" xlink:href="#m5095359b5b" y="128.485017"/>
     <use style="fill:#9467bd;stroke:#9467bd;" x="117.352687" xlink:href="#m5095359b5b" y="133.067132"/>
     <use style="fill:#9467bd;stroke:#9467bd;" x="123.603066" xlink:href="#m5095359b5b" y="117.802696"/>
     <use style="fill:#9467bd;stroke:#9467bd;" x="130.485201" xlink:href="#m5095359b5b" y="127.586735"/>
     <use style="fill:#9467bd;stroke:#9467bd;" x="137.236524" xlink:href="#m5095359b5b" y="122.352599"/>
     <use style="fill:#9467bd;stroke:#9467bd;" x="143.444122" xlink:href="#m5095359b5b" y="128.353486"/>
     <use style="fill:#9467bd;stroke:#9467bd;" x="150.349662" xlink:href="#m5095359b5b" y="134.372761"/>
     <use style="fill:#9467bd;stroke:#9467bd;" x="156.825895" xlink:href="#m5095359b5b" y="136.181624"/>
     <use style="fill:#9467bd;stroke:#9467bd;" x="163.449696" xlink:href="#m5095359b5b" y="133.656695"/>
     <use style="fill:#9467bd;stroke:#9467bd;" x="170.119531" xlink:href="#m5095359b5b" y="138.260724"/>
     <use style="fill:#9467bd;stroke:#9467bd;" x="176.587124" xlink:href="#m5095359b5b" y="143.72503"/>
     <use style="fill:#9467bd;stroke:#9467bd;" x="182.971714" xlink:href="#m5095359b5b" y="133.348124"/>
     <use style="fill:#9467bd;stroke:#9467bd;" x="189.696646" xlink:href="#m5095359b5b" y="150.625762"/>
     <use style="fill:#9467bd;stroke:#9467bd;" x="196.37462" xlink:href="#m5095359b5b" y="154.998109"/>
     <use style="fill:#9467bd;stroke:#9467bd;" x="202.743656" xlink:href="#m5095359b5b" y="150.543733"/>
     <use style="fill:#9467bd;stroke:#9467bd;" x="209.67846" xlink:href="#m5095359b5b" y="143.151599"/>
     <use style="fill:#9467bd;stroke:#9467bd;" x="215.867249" xlink:href="#m5095359b5b" y="132.665403"/>
     <use style="fill:#9467bd;stroke:#9467bd;" x="222.505112" xlink:href="#m5095359b5b" y="146.173927"/>
     <use style="fill:#9467bd;stroke:#9467bd;" x="229.055865" xlink:href="#m5095359b5b" y="150.341473"/>
     <use style="fill:#9467bd;stroke:#9467bd;" x="235.811219" xlink:href="#m5095359b5b" y="155.152167"/>
     <use style="fill:#9467bd;stroke:#9467bd;" x="242.41937" xlink:href="#m5095359b5b" y="155.641185"/>
     <use style="fill:#9467bd;stroke:#9467bd;" x="248.945799" xlink:href="#m5095359b5b" y="157.952091"/>
     <use style="fill:#9467bd;stroke:#9467bd;" x="255.172789" xlink:href="#m5095359b5b" y="154.620128"/>
    </g>
   </g>
   <g id="line2d_17">
    <path clip-path="url(#p555e8a8e29)" d="M 52.270455 164.285311 
L 58.081271 147.291536 
L 64.914168 139.693725 
L 71.355707 128.394495 
L 78.003938 117.0781 
L 84.532223 112.61708 
L 91.214747 102.271847 
L 97.69455 103.11348 
L 104.248729 93.380425 
L 110.918717 97.574421 
L 117.307618 76.638254 
L 123.86103 77.039471 
L 130.537601 80.542211 
L 137.136047 82.731403 
L 143.616448 90.19203 
L 150.386221 85.445102 
L 156.897821 94.611926 
L 163.362016 88.439237 
L 170.120133 93.290808 
L 176.645484 88.927375 
L 183.07967 86.693797 
L 189.796515 101.642146 
L 196.348352 101.345365 
L 202.927126 93.572077 
L 209.609458 108.084823 
L 215.915083 110.368874 
L 222.554465 118.054809 
L 229.146491 107.825169 
L 235.721374 99.386059 
L 242.446393 124.512587 
L 248.811825 111.103692 
L 255.179545 124.302951 
" style="fill:none;stroke:#8c564b;stroke-linecap:square;stroke-width:0.8;"/>
    <defs>
     <path d="M -3 0 
L 3 0 
M 0 3 
L 0 -3 
" id="mc02c1c028b" style="stroke:#8c564b;"/>
    </defs>
    <g clip-path="url(#p555e8a8e29)">
     <use style="fill:#8c564b;stroke:#8c564b;" x="52.270455" xlink:href="#mc02c1c028b" y="164.285311"/>
     <use style="fill:#8c564b;stroke:#8c564b;" x="58.081271" xlink:href="#mc02c1c028b" y="147.291536"/>
     <use style="fill:#8c564b;stroke:#8c564b;" x="64.914168" xlink:href="#mc02c1c028b" y="139.693725"/>
     <use style="fill:#8c564b;stroke:#8c564b;" x="71.355707" xlink:href="#mc02c1c028b" y="128.394495"/>
     <use style="fill:#8c564b;stroke:#8c564b;" x="78.003938" xlink:href="#mc02c1c028b" y="117.0781"/>
     <use style="fill:#8c564b;stroke:#8c564b;" x="84.532223" xlink:href="#mc02c1c028b" y="112.61708"/>
     <use style="fill:#8c564b;stroke:#8c564b;" x="91.214747" xlink:href="#mc02c1c028b" y="102.271847"/>
     <use style="fill:#8c564b;stroke:#8c564b;" x="97.69455" xlink:href="#mc02c1c028b" y="103.11348"/>
     <use style="fill:#8c564b;stroke:#8c564b;" x="104.248729" xlink:href="#mc02c1c028b" y="93.380425"/>
     <use style="fill:#8c564b;stroke:#8c564b;" x="110.918717" xlink:href="#mc02c1c028b" y="97.574421"/>
     <use style="fill:#8c564b;stroke:#8c564b;" x="117.307618" xlink:href="#mc02c1c028b" y="76.638254"/>
     <use style="fill:#8c564b;stroke:#8c564b;" x="123.86103" xlink:href="#mc02c1c028b" y="77.039471"/>
     <use style="fill:#8c564b;stroke:#8c564b;" x="130.537601" xlink:href="#mc02c1c028b" y="80.542211"/>
     <use style="fill:#8c564b;stroke:#8c564b;" x="137.136047" xlink:href="#mc02c1c028b" y="82.731403"/>
     <use style="fill:#8c564b;stroke:#8c564b;" x="143.616448" xlink:href="#mc02c1c028b" y="90.19203"/>
     <use style="fill:#8c564b;stroke:#8c564b;" x="150.386221" xlink:href="#mc02c1c028b" y="85.445102"/>
     <use style="fill:#8c564b;stroke:#8c564b;" x="156.897821" xlink:href="#mc02c1c028b" y="94.611926"/>
     <use style="fill:#8c564b;stroke:#8c564b;" x="163.362016" xlink:href="#mc02c1c028b" y="88.439237"/>
     <use style="fill:#8c564b;stroke:#8c564b;" x="170.120133" xlink:href="#mc02c1c028b" y="93.290808"/>
     <use style="fill:#8c564b;stroke:#8c564b;" x="176.645484" xlink:href="#mc02c1c028b" y="88.927375"/>
     <use style="fill:#8c564b;stroke:#8c564b;" x="183.07967" xlink:href="#mc02c1c028b" y="86.693797"/>
     <use style="fill:#8c564b;stroke:#8c564b;" x="189.796515" xlink:href="#mc02c1c028b" y="101.642146"/>
     <use style="fill:#8c564b;stroke:#8c564b;" x="196.348352" xlink:href="#mc02c1c028b" y="101.345365"/>
     <use style="fill:#8c564b;stroke:#8c564b;" x="202.927126" xlink:href="#mc02c1c028b" y="93.572077"/>
     <use style="fill:#8c564b;stroke:#8c564b;" x="209.609458" xlink:href="#mc02c1c028b" y="108.084823"/>
     <use style="fill:#8c564b;stroke:#8c564b;" x="215.915083" xlink:href="#mc02c1c028b" y="110.368874"/>
     <use style="fill:#8c564b;stroke:#8c564b;" x="222.554465" xlink:href="#mc02c1c028b" y="118.054809"/>
     <use style="fill:#8c564b;stroke:#8c564b;" x="229.146491" xlink:href="#mc02c1c028b" y="107.825169"/>
     <use style="fill:#8c564b;stroke:#8c564b;" x="235.721374" xlink:href="#mc02c1c028b" y="99.386059"/>
     <use style="fill:#8c564b;stroke:#8c564b;" x="242.446393" xlink:href="#mc02c1c028b" y="124.512587"/>
     <use style="fill:#8c564b;stroke:#8c564b;" x="248.811825" xlink:href="#mc02c1c028b" y="111.103692"/>
     <use style="fill:#8c564b;stroke:#8c564b;" x="255.179545" xlink:href="#mc02c1c028b" y="124.302951"/>
    </g>
   </g>
   <g id="patch_3">
    <path d="M 42.125 171.6555 
L 42.125 35.7555 
" style="fill:none;stroke:#000000;stroke-linecap:square;stroke-linejoin:miter;stroke-width:0.8;"/>
   </g>
   <g id="patch_4">
    <path d="M 265.325 171.6555 
L 265.325 35.7555 
" style="fill:none;stroke:#000000;stroke-linecap:square;stroke-linejoin:miter;stroke-width:0.8;"/>
   </g>
   <g id="patch_5">
    <path d="M 42.125 171.6555 
L 265.325 171.6555 
" style="fill:none;stroke:#000000;stroke-linecap:square;stroke-linejoin:miter;stroke-width:0.8;"/>
   </g>
   <g id="patch_6">
    <path d="M 42.125 35.7555 
L 265.325 35.7555 
" style="fill:none;stroke:#000000;stroke-linecap:square;stroke-linejoin:miter;stroke-width:0.8;"/>
   </g>
   <g id="text_14">
    <!-- Variance vs. Init. Conductance -->
    <g transform="translate(62.605625 16.318125)scale(0.12 -0.12)">
     <defs>
      <path d="M 2.984375 54.6875 
L 12.5 54.6875 
L 29.59375 8.796875 
L 46.6875 54.6875 
L 56.203125 54.6875 
L 35.6875 0 
L 23.484375 0 
z
" id="DejaVuSans-118"/>
      <path d="M 44.28125 53.078125 
L 44.28125 44.578125 
Q 40.484375 46.53125 36.375 47.5 
Q 32.28125 48.484375 27.875 48.484375 
Q 21.1875 48.484375 17.84375 46.4375 
Q 14.5 44.390625 14.5 40.28125 
Q 14.5 37.15625 16.890625 35.375 
Q 19.28125 33.59375 26.515625 31.984375 
L 29.59375 31.296875 
Q 39.15625 29.25 43.1875 25.515625 
Q 47.21875 21.78125 47.21875 15.09375 
Q 47.21875 7.46875 41.1875 3.015625 
Q 35.15625 -1.421875 24.609375 -1.421875 
Q 20.21875 -1.421875 15.453125 -0.5625 
Q 10.6875 0.296875 5.421875 2 
L 5.421875 11.28125 
Q 10.40625 8.6875 15.234375 7.390625 
Q 20.0625 6.109375 24.8125 6.109375 
Q 31.15625 6.109375 34.5625 8.28125 
Q 37.984375 10.453125 37.984375 14.40625 
Q 37.984375 18.0625 35.515625 20.015625 
Q 33.0625 21.96875 24.703125 23.78125 
L 21.578125 24.515625 
Q 13.234375 26.265625 9.515625 29.90625 
Q 5.8125 33.546875 5.8125 39.890625 
Q 5.8125 47.609375 11.28125 51.796875 
Q 16.75 56 26.8125 56 
Q 31.78125 56 36.171875 55.265625 
Q 40.578125 54.546875 44.28125 53.078125 
z
" id="DejaVuSans-115"/>
      <path d="M 10.6875 12.40625 
L 21 12.40625 
L 21 0 
L 10.6875 0 
z
" id="DejaVuSans-46"/>
     </defs>
     <use xlink:href="#DejaVuSans-86"/>
     <use x="60.658203" xlink:href="#DejaVuSans-97"/>
     <use x="121.9375" xlink:href="#DejaVuSans-114"/>
     <use x="163.050781" xlink:href="#DejaVuSans-105"/>
     <use x="190.833984" xlink:href="#DejaVuSans-97"/>
     <use x="252.113281" xlink:href="#DejaVuSans-110"/>
     <use x="315.492188" xlink:href="#DejaVuSans-99"/>
     <use x="370.472656" xlink:href="#DejaVuSans-101"/>
     <use x="431.996094" xlink:href="#DejaVuSans-32"/>
     <use x="463.783203" xlink:href="#DejaVuSans-118"/>
     <use x="522.962891" xlink:href="#DejaVuSans-115"/>
     <use x="575.0625" xlink:href="#DejaVuSans-46"/>
     <use x="606.849609" xlink:href="#DejaVuSans-32"/>
     <use x="638.636719" xlink:href="#DejaVuSans-73"/>
     <use x="668.128906" xlink:href="#DejaVuSans-110"/>
     <use x="731.507812" xlink:href="#DejaVuSans-105"/>
     <use x="759.291016" xlink:href="#DejaVuSans-116"/>
     <use x="798.5" xlink:href="#DejaVuSans-46"/>
     <use x="830.287109" xlink:href="#DejaVuSans-32"/>
     <use x="862.074219" xlink:href="#DejaVuSans-67"/>
     <use x="931.898438" xlink:href="#DejaVuSans-111"/>
     <use x="993.080078" xlink:href="#DejaVuSans-110"/>
     <use x="1056.458984" xlink:href="#DejaVuSans-100"/>
     <use x="1119.935547" xlink:href="#DejaVuSans-117"/>
     <use x="1183.314453" xlink:href="#DejaVuSans-99"/>
     <use x="1238.294922" xlink:href="#DejaVuSans-116"/>
     <use x="1277.503906" xlink:href="#DejaVuSans-97"/>
     <use x="1338.783203" xlink:href="#DejaVuSans-110"/>
     <use x="1402.162109" xlink:href="#DejaVuSans-99"/>
     <use x="1457.142578" xlink:href="#DejaVuSans-101"/>
    </g>
    <!-- (Tech C, Room Temp) -->
    <g transform="translate(90.711875 29.7555)scale(0.12 -0.12)">
     <defs>
      <path d="M -0.296875 72.90625 
L 61.375 72.90625 
L 61.375 64.59375 
L 35.5 64.59375 
L 35.5 0 
L 25.59375 0 
L 25.59375 64.59375 
L -0.296875 64.59375 
z
" id="DejaVuSans-84"/>
      <path d="M 54.890625 33.015625 
L 54.890625 0 
L 45.90625 0 
L 45.90625 32.71875 
Q 45.90625 40.484375 42.875 44.328125 
Q 39.84375 48.1875 33.796875 48.1875 
Q 26.515625 48.1875 22.3125 43.546875 
Q 18.109375 38.921875 18.109375 30.90625 
L 18.109375 0 
L 9.078125 0 
L 9.078125 75.984375 
L 18.109375 75.984375 
L 18.109375 46.1875 
Q 21.34375 51.125 25.703125 53.5625 
Q 30.078125 56 35.796875 56 
Q 45.21875 56 50.046875 50.171875 
Q 54.890625 44.34375 54.890625 33.015625 
z
" id="DejaVuSans-104"/>
      <path d="M 11.71875 12.40625 
L 22.015625 12.40625 
L 22.015625 4 
L 14.015625 -11.625 
L 7.71875 -11.625 
L 11.71875 4 
z
" id="DejaVuSans-44"/>
      <path d="M 44.390625 34.1875 
Q 47.5625 33.109375 50.5625 29.59375 
Q 53.5625 26.078125 56.59375 19.921875 
L 66.609375 0 
L 56 0 
L 46.6875 18.703125 
Q 43.0625 26.03125 39.671875 28.421875 
Q 36.28125 30.8125 30.421875 30.8125 
L 19.671875 30.8125 
L 19.671875 0 
L 9.8125 0 
L 9.8125 72.90625 
L 32.078125 72.90625 
Q 44.578125 72.90625 50.734375 67.671875 
Q 56.890625 62.453125 56.890625 51.90625 
Q 56.890625 45.015625 53.6875 40.46875 
Q 50.484375 35.9375 44.390625 34.1875 
z
M 19.671875 64.796875 
L 19.671875 38.921875 
L 32.078125 38.921875 
Q 39.203125 38.921875 42.84375 42.21875 
Q 46.484375 45.515625 46.484375 51.90625 
Q 46.484375 58.296875 42.84375 61.546875 
Q 39.203125 64.796875 32.078125 64.796875 
z
" id="DejaVuSans-82"/>
      <path d="M 52 44.1875 
Q 55.375 50.25 60.0625 53.125 
Q 64.75 56 71.09375 56 
Q 79.640625 56 84.28125 50.015625 
Q 88.921875 44.046875 88.921875 33.015625 
L 88.921875 0 
L 79.890625 0 
L 79.890625 32.71875 
Q 79.890625 40.578125 77.09375 44.375 
Q 74.3125 48.1875 68.609375 48.1875 
Q 61.625 48.1875 57.5625 43.546875 
Q 53.515625 38.921875 53.515625 30.90625 
L 53.515625 0 
L 44.484375 0 
L 44.484375 32.71875 
Q 44.484375 40.625 41.703125 44.40625 
Q 38.921875 48.1875 33.109375 48.1875 
Q 26.21875 48.1875 22.15625 43.53125 
Q 18.109375 38.875 18.109375 30.90625 
L 18.109375 0 
L 9.078125 0 
L 9.078125 54.6875 
L 18.109375 54.6875 
L 18.109375 46.1875 
Q 21.1875 51.21875 25.484375 53.609375 
Q 29.78125 56 35.6875 56 
Q 41.65625 56 45.828125 52.96875 
Q 50 49.953125 52 44.1875 
z
" id="DejaVuSans-109"/>
      <path d="M 18.109375 8.203125 
L 18.109375 -20.796875 
L 9.078125 -20.796875 
L 9.078125 54.6875 
L 18.109375 54.6875 
L 18.109375 46.390625 
Q 20.953125 51.265625 25.265625 53.625 
Q 29.59375 56 35.59375 56 
Q 45.5625 56 51.78125 48.09375 
Q 58.015625 40.1875 58.015625 27.296875 
Q 58.015625 14.40625 51.78125 6.484375 
Q 45.5625 -1.421875 35.59375 -1.421875 
Q 29.59375 -1.421875 25.265625 0.953125 
Q 20.953125 3.328125 18.109375 8.203125 
z
M 48.6875 27.296875 
Q 48.6875 37.203125 44.609375 42.84375 
Q 40.53125 48.484375 33.40625 48.484375 
Q 26.265625 48.484375 22.1875 42.84375 
Q 18.109375 37.203125 18.109375 27.296875 
Q 18.109375 17.390625 22.1875 11.75 
Q 26.265625 6.109375 33.40625 6.109375 
Q 40.53125 6.109375 44.609375 11.75 
Q 48.6875 17.390625 48.6875 27.296875 
z
" id="DejaVuSans-112"/>
     </defs>
     <use xlink:href="#DejaVuSans-40"/>
     <use x="39.013672" xlink:href="#DejaVuSans-84"/>
     <use x="83.097656" xlink:href="#DejaVuSans-101"/>
     <use x="144.621094" xlink:href="#DejaVuSans-99"/>
     <use x="199.601562" xlink:href="#DejaVuSans-104"/>
     <use x="262.980469" xlink:href="#DejaVuSans-32"/>
     <use x="294.767578" xlink:href="#DejaVuSans-67"/>
     <use x="364.591797" xlink:href="#DejaVuSans-44"/>
     <use x="396.378906" xlink:href="#DejaVuSans-32"/>
     <use x="428.166016" xlink:href="#DejaVuSans-82"/>
     <use x="493.148438" xlink:href="#DejaVuSans-111"/>
     <use x="554.330078" xlink:href="#DejaVuSans-111"/>
     <use x="615.511719" xlink:href="#DejaVuSans-109"/>
     <use x="712.923828" xlink:href="#DejaVuSans-32"/>
     <use x="744.710938" xlink:href="#DejaVuSans-84"/>
     <use x="788.794922" xlink:href="#DejaVuSans-101"/>
     <use x="850.318359" xlink:href="#DejaVuSans-109"/>
     <use x="947.730469" xlink:href="#DejaVuSans-112"/>
     <use x="1011.207031" xlink:href="#DejaVuSans-41"/>
    </g>
   </g>
   <g id="legend_1">
    <g id="patch_7">
     <path d="M 54.2125 73.11175 
L 258.325 73.11175 
Q 260.325 73.11175 260.325 71.11175 
L 260.325 42.7555 
Q 260.325 40.7555 258.325 40.7555 
L 54.2125 40.7555 
Q 52.2125 40.7555 52.2125 42.7555 
L 52.2125 71.11175 
Q 52.2125 73.11175 54.2125 73.11175 
z
" style="fill:#ffffff;opacity:0.8;stroke:#cccccc;stroke-linejoin:miter;"/>
    </g>
    <g id="line2d_18">
     <path d="M 56.2125 48.853937 
L 76.2125 48.853937 
" style="fill:none;stroke:#1f77b4;stroke-linecap:square;stroke-width:0.8;"/>
    </g>
    <g id="line2d_19">
     <g>
      <use style="fill:#1f77b4;stroke:#1f77b4;" x="66.2125" xlink:href="#m6cddb6f065" y="48.853937"/>
     </g>
    </g>
    <g id="text_15">
     <!-- t=0 -->
     <g transform="translate(78.2125 52.353937)scale(0.1 -0.1)">
      <defs>
       <path d="M 10.59375 45.40625 
L 73.1875 45.40625 
L 73.1875 37.203125 
L 10.59375 37.203125 
z
M 10.59375 25.484375 
L 73.1875 25.484375 
L 73.1875 17.1875 
L 10.59375 17.1875 
z
" id="DejaVuSans-61"/>
      </defs>
      <use xlink:href="#DejaVuSans-116"/>
      <use x="39.208984" xlink:href="#DejaVuSans-61"/>
      <use x="122.998047" xlink:href="#DejaVuSans-48"/>
     </g>
    </g>
    <g id="line2d_20">
     <path d="M 56.2125 63.532062 
L 76.2125 63.532062 
" style="fill:none;stroke:#ff7f0e;stroke-linecap:square;stroke-width:0.8;"/>
    </g>
    <g id="line2d_21">
     <g>
      <use style="fill:#ff7f0e;stroke:#ff7f0e;" x="66.2125" xlink:href="#m3fa81496d5" y="63.532062"/>
     </g>
    </g>
    <g id="text_16">
     <!-- t=0.01 -->
     <g transform="translate(78.2125 67.032062)scale(0.1 -0.1)">
      <use xlink:href="#DejaVuSans-116"/>
      <use x="39.208984" xlink:href="#DejaVuSans-61"/>
      <use x="122.998047" xlink:href="#DejaVuSans-48"/>
      <use x="186.621094" xlink:href="#DejaVuSans-46"/>
      <use x="218.408203" xlink:href="#DejaVuSans-48"/>
      <use x="282.03125" xlink:href="#DejaVuSans-49"/>
     </g>
    </g>
    <g id="line2d_22">
     <path d="M 132.778125 48.853937 
L 152.778125 48.853937 
" style="fill:none;stroke:#2ca02c;stroke-linecap:square;stroke-width:0.8;"/>
    </g>
    <g id="line2d_23">
     <g>
      <use style="fill:#2ca02c;stroke:#2ca02c;" x="142.778125" xlink:href="#md006334e58" y="48.853937"/>
     </g>
    </g>
    <g id="text_17">
     <!-- t=0.1 -->
     <g transform="translate(154.778125 52.353937)scale(0.1 -0.1)">
      <use xlink:href="#DejaVuSans-116"/>
      <use x="39.208984" xlink:href="#DejaVuSans-61"/>
      <use x="122.998047" xlink:href="#DejaVuSans-48"/>
      <use x="186.621094" xlink:href="#DejaVuSans-46"/>
      <use x="218.408203" xlink:href="#DejaVuSans-49"/>
     </g>
    </g>
    <g id="line2d_24">
     <path d="M 132.778125 63.532062 
L 152.778125 63.532062 
" style="fill:none;stroke:#d62728;stroke-linecap:square;stroke-width:0.8;"/>
    </g>
    <g id="line2d_25">
     <g>
      <use style="fill:#d62728;stroke:#d62728;" x="142.778125" xlink:href="#m9ac23623c4" y="63.532062"/>
     </g>
    </g>
    <g id="text_18">
     <!-- t=1 -->
     <g transform="translate(154.778125 67.032062)scale(0.1 -0.1)">
      <use xlink:href="#DejaVuSans-116"/>
      <use x="39.208984" xlink:href="#DejaVuSans-61"/>
      <use x="122.998047" xlink:href="#DejaVuSans-49"/>
     </g>
    </g>
    <g id="line2d_26">
     <path d="M 202.98125 48.853937 
L 222.98125 48.853937 
" style="fill:none;stroke:#9467bd;stroke-linecap:square;stroke-width:0.8;"/>
    </g>
    <g id="line2d_27">
     <g>
      <use style="fill:#9467bd;stroke:#9467bd;" x="212.98125" xlink:href="#m5095359b5b" y="48.853937"/>
     </g>
    </g>
    <g id="text_19">
     <!-- t=4 -->
     <g transform="translate(224.98125 52.353937)scale(0.1 -0.1)">
      <use xlink:href="#DejaVuSans-116"/>
      <use x="39.208984" xlink:href="#DejaVuSans-61"/>
      <use x="122.998047" xlink:href="#DejaVuSans-52"/>
     </g>
    </g>
    <g id="line2d_28">
     <path d="M 202.98125 63.532062 
L 222.98125 63.532062 
" style="fill:none;stroke:#8c564b;stroke-linecap:square;stroke-width:0.8;"/>
    </g>
    <g id="line2d_29">
     <g>
      <use style="fill:#8c564b;stroke:#8c564b;" x="212.98125" xlink:href="#mc02c1c028b" y="63.532062"/>
     </g>
    </g>
    <g id="text_20">
     <!-- t=1E5 -->
     <g transform="translate(224.98125 67.032062)scale(0.1 -0.1)">
      <defs>
       <path d="M 9.8125 72.90625 
L 55.90625 72.90625 
L 55.90625 64.59375 
L 19.671875 64.59375 
L 19.671875 43.015625 
L 54.390625 43.015625 
L 54.390625 34.71875 
L 19.671875 34.71875 
L 19.671875 8.296875 
L 56.78125 8.296875 
L 56.78125 0 
L 9.8125 0 
z
" id="DejaVuSans-69"/>
      </defs>
      <use xlink:href="#DejaVuSans-116"/>
      <use x="39.208984" xlink:href="#DejaVuSans-61"/>
      <use x="122.998047" xlink:href="#DejaVuSans-49"/>
      <use x="186.621094" xlink:href="#DejaVuSans-69"/>
      <use x="249.804688" xlink:href="#DejaVuSans-53"/>
     </g>
    </g>
   </g>
  </g>
 </g>
 <defs>
  <clipPath id="p555e8a8e29">
   <rect height="135.9" width="223.2" x="42.125" y="35.7555"/>
  </clipPath>
 </defs>
</svg>
